<?xml version="1.0" encoding="UTF-8"?><svg id="Layer_2" xmlns="http://www.w3.org/2000/svg" viewBox="0 0 82.47 54.2"><defs><style>.cls-1{fill:#333;}.cls-2{fill:#aedcdd;}</style></defs><g id="Layer_1-2"><rect class="cls-2" x="12.7" y="8.14" width="69.74" height="45.58" rx="1.52" ry="1.52"/><path class="cls-1" d="m80.77,54.2H1.7c-.94,0-1.7-.76-1.7-1.7s.76-1.7,1.7-1.7h79.07c.94,0,1.7.76,1.7,1.7s-.76,1.7-1.7,1.7Z"/><path class="cls-1" d="m31.41,31.34c-.43,0-.86-.16-1.19-.49l-7.04-6.89c-.32-.32-.51-.75-.51-1.21,0-.45.18-.89.5-1.21l7.04-7.04c.66-.66,1.74-.66,2.4,0,.66.66.66,1.74,0,2.4l-5.82,5.82,5.81,5.69c.67.66.68,1.73.03,2.4-.33.34-.77.51-1.21.51Z"/><path class="cls-1" d="m49.12,31.34c-.44,0-.88-.17-1.21-.51-.66-.67-.65-1.75.03-2.4l5.81-5.69-5.82-5.82c-.66-.66-.66-1.74,0-2.4.66-.66,1.74-.66,2.4,0l7.04,7.04c.32.32.5.76.5,1.21,0,.45-.19.89-.51,1.21l-7.04,6.89c-.33.32-.76.49-1.19.49Z"/><path class="cls-1" d="m38.4,33.42c-.12,0-.24-.01-.36-.04-.92-.2-1.5-1.1-1.3-2.02l3.74-17.39c.2-.92,1.1-1.5,2.02-1.3.92.2,1.5,1.1,1.3,2.02l-3.74,17.39c-.17.8-.88,1.34-1.66,1.34Z"/><path class="cls-1" d="m75,46.05H7.48c-.94,0-1.7-.76-1.7-1.7V1.7c0-.94.76-1.7,1.7-1.7h24.9c.94,0,1.7.76,1.7,1.7s-.76,1.7-1.7,1.7H9.18v39.25h64.12V3.4h-23.47c-.94,0-1.7-.76-1.7-1.7s.76-1.7,1.7-1.7h25.17c.94,0,1.7.76,1.7,1.7v42.65c0,.94-.76,1.7-1.7,1.7Z"/><circle class="cls-1" cx="41.27" cy="1.99" r="1.76"/></g></svg>