<?xml version="1.0" encoding="UTF-8"?><svg id="Layer_2" xmlns="http://www.w3.org/2000/svg" viewBox="0 0 73.29 66.43"><defs><style>.cls-1{fill:#333;}.cls-2{fill:#aedcdd;}</style></defs><g id="Layer_1-2"><g><rect class="cls-2" x="21.48" y="8.14" width="51.81" height="51.81" rx=".68" ry=".68"/><path class="cls-1" d="m52.72,7.32c-.83,0-1.51.71-1.51,1.54s.68,1.51,1.51,1.51,1.54-.66,1.54-1.51-.68-1.54-1.54-1.54Z"/><path class="cls-1" d="m57.58,7.32c-.83,0-1.51.71-1.51,1.54s.68,1.51,1.51,1.51,1.54-.66,1.54-1.51-.68-1.54-1.54-1.54Z"/><path class="cls-1" d="m64.91,0H16.15c-.84,0-1.52.68-1.52,1.52v48.76c0,.84.68,1.52,1.52,1.52h48.76c.84,0,1.52-.68,1.52-1.52V1.52c0-.84-.68-1.52-1.52-1.52Zm-1.52,48.76H17.68V3.05h45.71v45.71Z"/><path class="cls-1" d="m57.6,56.07H10.36V8.84c0-.84-.68-1.52-1.52-1.52s-1.52.68-1.52,1.52v48.76c0,.84.68,1.52,1.52,1.52h48.76c.84,0,1.52-.68,1.52-1.52s-.68-1.52-1.52-1.52Z"/><path class="cls-1" d="m50.28,63.39H3.05V16.15c0-.84-.68-1.52-1.52-1.52s-1.52.68-1.52,1.52v48.76c0,.84.68,1.52,1.52,1.52h48.76c.84,0,1.52-.68,1.52-1.52s-.68-1.52-1.52-1.52Z"/></g></g></svg>