<?xml version="1.0" encoding="UTF-8"?><svg id="Layer_2" xmlns="http://www.w3.org/2000/svg" viewBox="0 0 84.25 61.99"><defs><style>.cls-1{fill:none;stroke:#1a1a1a;stroke-linecap:round;stroke-linejoin:round;stroke-width:4px;}.cls-2{fill:#ff976d;stroke-width:0px;}</style></defs><g id="Layer_1-2"><path class="cls-2" d="M15.49,24.43l11.47-13.83c1.46-1.6,3.51-2.54,5.67-2.59l29.15.35c2.46-.06,4.81,1.04,6.35,2.96l13.39,15.67c4.32,5.38,3.2,9.67-1.35,14.86l-15.29,17.44c-1.5,1.71-3.67,2.7-5.95,2.7h-25.47c-2.5,0-4.85-1.18-6.35-3.19l-12.49-16.78c-3.96-5.31-3.6-12.68.86-17.59Z"/><path class="cls-1" d="M2,28h11.14M24.29,28h-11.14M13.14,28v-11.14M13.14,28v11.14"/><path class="cls-1" d="M17.79,5.71l.91-1.04c2.96-3.38,8.22-3.38,11.18,0l16.13,18.43c2.45,2.8,2.45,6.98,0,9.78l-16.13,18.43c-2.96,3.38-8.22,3.38-11.18,0l-.91-1.04"/><path class="cls-1" d="M42.86,54l18.14-21.17c2.38-2.78,2.38-6.89,0-9.67L42.86,2"/><path class="cls-1" d="M57.71,2l18.14,21.17c2.38,2.78,2.38,6.89,0,9.67l-18.14,21.17"/></g></svg>