<?xml version="1.0" encoding="UTF-8"?><svg id="Layer_2" xmlns="http://www.w3.org/2000/svg" viewBox="0 0 61.2 58.23"><defs><style>.cls-1{fill:#333;}.cls-2{fill:#aedcdd;}.cls-3{fill:none;stroke:#333;stroke-linecap:round;stroke-linejoin:round;stroke-width:3px;}</style></defs><g id="Layer_1-2"><g><path class="cls-2" d="m60.44,34.73l-7.38-4.21,7.37-4.19c.47-.27.76-.76.76-1.3s-.29-1.04-.76-1.3l-26.68-15.22c-.46-.26-1.02-.26-1.48,0L5.52,23.72c-.47.27-.76.76-.76,1.3s.29,1.04.76,1.3l7.38,4.19-7.39,4.2c-.47.27-.76.76-.76,1.3s.29,1.04.76,1.3l26.72,15.17c.23.13.48.2.74.2s.51-.07.74-.2l26.72-15.17c.47-.27.76-.76.76-1.3s-.29-1.04-.76-1.3Z"/><path class="cls-1" d="m28.22,33.38c-.26,0-.51-.07-.74-.2L.76,18.02C.29,17.75,0,17.26,0,16.72s.29-1.04.76-1.3L27.51.2c.46-.26,1.02-.26,1.48,0l26.68,15.22c.47.27.76.77.76,1.3s-.29,1.04-.76,1.3l-26.72,15.16c-.23.13-.48.2-.74.2ZM4.54,16.71l23.68,13.44,23.68-13.44L28.25,3.23,4.54,16.71Z"/><polyline class="cls-3" points="1.5 29.65 28.22 44.81 54.93 29.65"/><path class="cls-1" d="m28.22,58.23c-.26,0-.51-.07-.74-.2L.76,42.87c-.72-.41-.97-1.32-.56-2.04.41-.72,1.33-.97,2.04-.56l25.98,14.74,25.98-14.74c.72-.41,1.63-.16,2.04.56.41.72.16,1.64-.56,2.04l-26.72,15.17c-.23.13-.48.2-.74.2Z"/><path class="cls-1" d="m28.22,46.31c-.26,0-.51-.07-.74-.2L.76,30.95c-.72-.41-.97-1.32-.56-2.04.41-.72,1.33-.97,2.04-.56l25.98,14.74,25.98-14.74c.72-.41,1.63-.16,2.04.56.41.72.16,1.64-.56,2.04l-26.72,15.17c-.23.13-.48.2-.74.2Z"/></g></g></svg>