<svg id="_03_DevOps" data-name="03_DevOps" xmlns="http://www.w3.org/2000/svg" xmlns:xlink="http://www.w3.org/1999/xlink" viewBox="0 0 1080 1080"><defs><style>.cls-1,.cls-10,.cls-11,.cls-12,.cls-13,.cls-18,.cls-24,.cls-25,.cls-27,.cls-3,.cls-30,.cls-32,.cls-33{fill:none;}.cls-2{fill:#dedede;}.cls-11,.cls-12,.cls-13,.cls-3,.cls-9{stroke:#e00;}.cls-15,.cls-18,.cls-19,.cls-20,.cls-25,.cls-3,.cls-5,.cls-9{stroke-miterlimit:10;}.cls-3{stroke-width:3.45px;}.cls-29,.cls-4{fill:#e00;}.cls-25,.cls-32,.cls-5{stroke:#dedede;}.cls-10,.cls-18,.cls-20,.cls-24,.cls-25,.cls-32,.cls-5{stroke-width:2px;}.cls-15,.cls-6,.cls-9{fill:#fff;}.cls-7{fill:#ffb2b4;}.cls-8{fill:#be0000;}.cls-12,.cls-19,.cls-9{stroke-width:2.5px;}.cls-10,.cls-18,.cls-27,.cls-29,.cls-30{stroke:#fff;}.cls-10,.cls-12,.cls-13,.cls-15,.cls-23,.cls-24,.cls-27,.cls-29,.cls-30,.cls-32,.cls-33{stroke-linecap:round;}.cls-10,.cls-11,.cls-12,.cls-13,.cls-23,.cls-24,.cls-27,.cls-29,.cls-30,.cls-32,.cls-33{stroke-linejoin:round;}.cls-11{stroke-width:5.49px;}.cls-13{stroke-width:2.32px;}.cls-14{fill:#f3f3f3;}.cls-15{stroke:#aaa;stroke-width:2.52px;}.cls-16{fill:#8f0000;}.cls-17{fill:#5f0000;opacity:0.5;}.cls-19,.cls-20,.cls-23,.cls-33{stroke:#000;}.cls-21{fill:#9d0000;}.cls-22{fill:#690000;}.cls-23,.cls-27,.cls-33{stroke-width:1.5px;}.cls-24{stroke:#6c6c6c;}.cls-26{fill:#f56d6d;opacity:0.75;}.cls-28{clip-path:url(#clip-path);}.cls-29,.cls-30{stroke-width:1.91px;}.cls-31{clip-path:url(#clip-path-3);}</style><clipPath id="clip-path"><polygon class="cls-1" points="511.82 344.94 511.82 381.89 479.82 400.37 447.82 381.89 447.82 344.94 479.82 326.47 511.82 344.94"/></clipPath><clipPath id="clip-path-3"><polygon class="cls-1" points="1000.43 569.9 1000.43 606.85 968.43 625.33 936.43 606.85 936.43 569.9 968.43 551.42 1000.43 569.9"/></clipPath></defs><path class="cls-2" d="M785.61,334.11a258.41,258.41,0,0,0-65.23,7.18c-72.24,17.46-148.72,6.51-212.57-31.53A289.35,289.35,0,0,0,356.94,269C197.59,270.23,68.27,400.83,68.53,560.18c.25,160.34,130.32,290.24,290.72,290.24a289.61,289.61,0,0,0,118-24.93c62.35-27.72,133.42-27.58,195.3,1.18a257.33,257.33,0,0,0,108.74,23.94c142.51,0,258.07-115.43,258.27-257.91C1039.71,452,926.25,336.42,785.61,334.11Z"/><path class="cls-3" d="M203.51,573.4a175.26,175.26,0,1,0,350.51,0,175.26,175.26,0,0,1,350.51,0"/><path class="cls-3" d="M541.23,507.58A175.28,175.28,0,0,0,203.51,573.4"/><polygon class="cls-4" points="555.67 497.4 548.88 531.15 523.05 508.4 555.67 497.4"/><path class="cls-3" d="M566.82,639.22A175.27,175.27,0,0,0,904.53,573.4"/><polygon class="cls-4" points="552.38 649.4 559.16 615.66 585 638.41 552.38 649.4"/><path d="M403.07,764s-22.95,3.33-35.25-3S349.53,737,349.53,737l14.3-12.42,39,11.08"/><path d="M369.48,750c-3.66,7.32-4.65,28.27,1.66,44.56s13.11,54.21,13.11,54.21l36.91-5.49c-6.32-40.9-3.46-66.34-4.13-97.27s-36.58-26.6-36.58-26.6l-16.95-3"/><path class="cls-5" d="M369.48,750c-3.66,7.32-4.65,28.27,1.66,44.56s13.11,54.21,13.11,54.21"/><rect x="625.91" y="529.2" width="205.51" height="105.44"/><rect class="cls-6" x="683.95" y="487.17" width="89.44" height="189.51" transform="translate(1310.59 -146.75) rotate(90)"/><path class="cls-7" d="M754.59,533.19c1.44-.43,2.91-2.25,3.82-3.57a1.59,1.59,0,0,0-.37-2.18c-3.35-2.55-7.11-9.05-7.11-9.05Z"/><rect class="cls-8" x="707.55" y="535.66" width="35.58" height="15"/><path class="cls-7" d="M761.59,569c-1-2.43-7.74-5.23-12.39-6.92a8.62,8.62,0,0,1-5.68-7.48,144.67,144.67,0,0,1,.33-17.3h-40v54.39h56.86Z"/><polygon class="cls-4" points="909.27 668.47 581.26 668.47 577.38 659.25 909.27 659.25 909.27 668.47"/><path class="cls-9" d="M162.61,378.75H375.28a0,0,0,0,1,0,0v206a1.55,1.55,0,0,1-1.55,1.55H162.61a0,0,0,0,1,0,0V378.75A0,0,0,0,1,162.61,378.75Z"/><rect class="cls-4" x="162.61" y="378.75" width="212.68" height="44.61"/><line class="cls-10" x1="179.38" y1="401.06" x2="291.71" y2="401.06"/><circle class="cls-6" cx="335.05" cy="401.06" r="5.92"/><circle class="cls-6" cx="352.81" cy="401.06" r="5.92"/><line class="cls-11" x1="179.38" y1="444.88" x2="299.09" y2="444.88"/><line class="cls-11" x1="179.38" y1="488.84" x2="219.72" y2="488.84"/><line class="cls-11" x1="233.25" y1="488.84" x2="283.35" y2="488.84"/><line class="cls-11" x1="179.38" y1="510.82" x2="282.44" y2="510.82"/><line class="cls-11" x1="296.01" y1="510.82" x2="328.37" y2="510.82"/><line class="cls-11" x1="179.38" y1="466.86" x2="237.24" y2="466.86"/><line class="cls-11" x1="179.38" y1="554.78" x2="276.48" y2="554.78"/><line class="cls-11" x1="179.38" y1="532.8" x2="219.64" y2="532.8"/><line class="cls-11" x1="233.25" y1="532.8" x2="301.48" y2="532.8"/><rect class="cls-9" x="791.08" y="290.04" width="197.05" height="192.34"/><rect class="cls-9" x="807.41" y="347.38" width="164.39" height="116.55"/><rect class="cls-4" x="838.32" y="387.13" width="25.52" height="75.46"/><rect class="cls-4" x="876.85" y="419.47" width="25.52" height="43.12"/><rect class="cls-4" x="915.37" y="365.51" width="25.52" height="97.08"/><rect class="cls-4" x="791.08" y="290.04" width="197.05" height="41.33"/><line class="cls-10" x1="806.62" y1="310.71" x2="910.7" y2="310.71"/><circle class="cls-6" cx="956.29" cy="310.71" r="5.49"/><circle class="cls-6" cx="972.74" cy="310.71" r="5.49"/><line class="cls-12" x1="509.49" y1="244.33" x2="509.49" y2="142.44"/><line class="cls-12" x1="479.82" y1="252.96" x2="479.82" y2="222.35"/><line class="cls-12" x1="450.16" y1="242.5" x2="450.16" y2="305.48"/><line class="cls-12" x1="450.16" y1="188.44" x2="450.16" y2="210.94"/><line class="cls-12" x1="509.49" y1="295.83" x2="509.49" y2="260.2"/><line class="cls-12" x1="479.82" y1="310.37" x2="479.82" y2="276.59"/><line class="cls-13" x1="940.93" y1="719.89" x2="940.93" y2="838.48"/><line class="cls-13" x1="968.43" y1="712.67" x2="968.43" y2="734.55"/><line class="cls-13" x1="995.93" y1="684.33" x2="995.93" y2="657.64"/><line class="cls-13" x1="995.93" y1="776.61" x2="995.93" y2="702.17"/><line class="cls-13" x1="940.93" y1="658.32" x2="940.93" y2="706.62"/><line class="cls-13" x1="968.43" y1="644.28" x2="968.43" y2="692.92"/><path class="cls-6" d="M326.24,676.49l12.64-5.15H439.47s.83,9.48,14.46,14.46,24.61-6,26.28-21.94-8.65-38.25-10-48.22c-.66-4.92-3.49-15.47-6.2-24.92a45,45,0,0,0-21.79-27.19l-37.52-20.39h-40.9"/><path class="cls-6" d="M442.3,676.49l-7-2.86a30.92,30.92,0,0,0-11.68-2.29H345a30,30,0,0,0-20.84,8.73,26.84,26.84,0,0,1-9.58,5.73c-13.63,5-24.61-6-26.27-21.94s8.65-38.25,10-48.22c.65-4.92,3.48-15.47,6.19-24.92a45,45,0,0,1,21.79-27.19l30.62-16.64a31,31,0,0,1,14.76-3.75h33.05"/><path class="cls-14" d="M371.67,644.13c-.09-30.83-3.51-61.67,15-87,3.35-4.61.35-8.94,4.31-12.91l-1.9-1H363.82l-.32,1.12a31.16,31.16,0,0,0-6.59,2.63l-30.62,16.64a45.06,45.06,0,0,0-21.79,27.18c-2.71,9.46-5.54,20-6.19,24.93-1.33,10-11.64,32.25-10,48.22S301,690.79,314.6,685.8a26.84,26.84,0,0,0,9.58-5.73A30,30,0,0,1,345,671.34h27.49C372,662.28,371.7,653.2,371.67,644.13Z"/><path class="cls-15" d="M314.6,642.24s-5.65,2-7.65,5"/><path class="cls-15" d="M452.94,642.24s5.66,2,7.65,5"/><path class="cls-15" d="M330.48,592.35s-1.5,10-.5,13.86"/><path class="cls-15" d="M432.41,592.35s1.49,10,.49,13.86"/><path class="cls-4" d="M449.58,666.18h-130L307.57,610.8a5,5,0,0,1,4.93-5.8H456.7a5,5,0,0,1,4.93,5.8Z"/><path d="M341.46,619.63A43.38,43.38,0,0,1,344,605H312.5a5,5,0,0,0-4.93,5.8l12.05,55.38H375C354.91,656.72,341.46,639.42,341.46,619.63Z"/><ellipse class="cls-6" cx="384.6" cy="635.59" rx="9.98" ry="7.48"/><ellipse class="cls-16" cx="384.03" cy="507.15" rx="27.9" ry="31.72"/><path class="cls-17" d="M383.47,537.5a15.84,15.84,0,0,1,1.41-6.68c.95-2.09,3.94-5,4-7.26.07-2-2.41-5.8-3-7.73a27.78,27.78,0,0,1-1.59-7.74c-.2-5.73,2-11.18,1.89-16.95-.08-5.15-.55-10.46-.25-15.64-.62-.05-1.24-.08-1.87-.08-15.41,0-27.9,14.21-27.9,31.73,0,17.33,12.23,31.41,27.41,31.71C383.51,538.41,383.48,538,383.47,537.5Z"/><path class="cls-16" d="M403.2,534.39v11.77a19.61,19.61,0,0,1-19.62,19.62h0A19.62,19.62,0,0,1,364,546.16V534.39"/><path class="cls-17" d="M364.06,548.17a19.63,19.63,0,0,0,19.52,17.61h0c.28,0,.54,0,.81,0a16.67,16.67,0,0,1-1.43-2.49,25.6,25.6,0,0,1-1.95-3.74,5.37,5.37,0,0,1-.05-3c.35-1.39,1.1-2.7,1.57-4.15a11,11,0,0,0-.1-6.1c-1.07-4.3-1-8.08-1-11.9H364v11.77c0,.68,0,1.35.1,2Z"/><path d="M296.32,757.3s-3.16,7,2.5,14.47l12.05-12.06S306.13,756.47,296.32,757.3Z"/><path class="cls-4" d="M440.84,677.82H328.36a8,8,0,0,1-7.88-6.64l-.86-5h130l-.86,5A8,8,0,0,1,440.84,677.82Z"/><line class="cls-18" x1="319.62" y1="666.18" x2="451.25" y2="666.18"/><path class="cls-19" d="M340.2,677.49c-5.15,0-10-.8-14.43,2.29a21.65,21.65,0,0,0-7.95,11.38c-5.2,16.68.95,38.51,18,45.67,9.49,4,20.48,4.5,30.6,3.29a28.7,28.7,0,0,0,3.09-.44V677.82S338.57,677.49,340.2,677.49Z"/><path class="cls-4" d="M268.91,802.17s32.26,2.66,31.26-12-16.82-18.26-16.82-18.26C275,787.23,243,785.21,243,785.21l-11,9s4,28.94,33.26,25.28,25.6-8.65,38.9-5.32,21-10.37,21-10.37,0-11.64-9.31-13.3"/><path class="cls-20" d="M273.71,799.53s32.26,2.66,31.26-12-21.62-15.63-21.62-15.63c-8.31,15.3-35.58,10.64-35.58,10.64l-11,9s4,28.93,33.25,25.27,25.61-8.64,38.91-5.32,19.29-16.62,19.29-16.62,0-11.64-9.32-13.3"/><path class="cls-21" d="M310.62,757.63l-24.27,22.28L298,789.36A15.24,15.24,0,0,0,318.66,788l10.92-11.44Z"/><path class="cls-22" d="M319.05,765.1l-8.43-7.47-24.27,22.28,10.49,8.54C304,780.44,311.14,772.39,319.05,765.1Z"/><path d="M380.45,719.39l16,11.8c9.11,6.72,18.91,16.66,31.3,14.08,9.46-2,15.6-10.68,19.4-19,5.65-12.32,10.11-33.64-.61-44.7a16.67,16.67,0,0,0-6.71-4.2,11.63,11.63,0,0,0-3.51-.58c-16-.34-48.22-22.62-48.22-22.62-20.61-2.66-28.6,7-28.6,7-2.66,32.92-63.18,96.1-63.18,96.1s25.28,8.65,30.26,24.61c0,0,47.22-33.26,59.2-75.82"/><path class="cls-22" d="M355.17,502.91a5.63,5.63,0,0,0-5.32,5.9c0,2.64,2.09,4.3,3.33,6.4s1,5.74,4.36,5.74A3.35,3.35,0,0,0,360,519.8"/><path class="cls-21" d="M413.24,502.91a5.63,5.63,0,0,1,5.32,5.9c0,2.64-2.09,4.3-3.33,6.4s-1,5.74-4.36,5.74a3.35,3.35,0,0,1-2.49-1.15"/><path d="M363,487.61c6.6,2.59,13.16,7,20.35,7.92a42.21,42.21,0,0,0,17.31-1.4c4.83-1.45,10.14-3.16,13.28-7.4s2.09-10.81-.62-15A19.35,19.35,0,0,0,397.61,463c-5.6-.27-12.13,1.13-17.73.92-2.41-.09-4.7-.82-7.12-.84-14.1-.16-22.42,15.58-22.42,28.05,0,7.22,4.94,14.34,8.61,20.41a8.12,8.12,0,0,0,1.62-3.34C362,503.2,363.66,493.81,363,487.61Z"/><path class="cls-23" d="M407.21,489.21a11.8,11.8,0,0,0,.11,4.49c.71,3.19,1.42,6.39,1.84,9.62l1.07,8.25a12.22,12.22,0,0,0,2.2-4.75c1.17-5.83,4.47-12.77.81-18.38Z"/><path d="M409,518.09a2.07,2.07,0,0,0-1.75,1.34,78.78,78.78,0,0,1-3.65,7.15l-.65,1s-2.24,5-5.6,5.63c-1.4-3.36-6.49-5.85-12.57-5.85s-11.28,2.54-12.62,6c-3.7-.5-6.23-5.73-6.23-5.73l-.65-1a76.21,76.21,0,0,1-3.64-7.15,2.08,2.08,0,0,0-1.75-1.34c-2.37,0-1.57,2.53-1.15,4a63.53,63.53,0,0,1,2.54,12.89s9,15.3,23.16,16.19c14.19-.89,23.17-16.19,23.17-16.19a48.92,48.92,0,0,1,2.63-10.83C410.78,522.36,412.22,518.09,409,518.09Z"/><path class="cls-16" d="M385,512s.72,8.69,4.52,11.53c0,0-1.63,6.25-7.59,4.54"/><path class="cls-24" d="M371,484.28c9.08,6.85,28.83,5.52,39.29-2.66"/><path class="cls-20" d="M273.71,799.53s32.26,2.66,31.26-12-21.62-15.63-21.62-15.63c-8.31,15.3-35.58,10.64-35.58,10.64"/><path class="cls-10" d="M326.58,781.91s47.22-33.26,59.2-75.82"/><path class="cls-25" d="M421.36,833.45C415,792.55,418.7,776.92,418,746s-36.58-26.6-36.58-26.6"/><polygon points="362.15 520.56 358.33 520.57 356.24 506.9 360.57 508.23 362.15 520.56"/><rect x="408.31" y="505" width="3.61" height="14.46" transform="translate(746.22 1075.81) rotate(-172.13)"/><polygon class="cls-7" points="754.5 489.86 757.6 495.18 746.38 545.64 734.32 543.29 719.11 536.33 721.91 500.5 744.96 488.31 754.5 489.86"/><path class="cls-26" d="M741.39,529.26s-2.93,11.78-18.12,10.89l3.16-8.4,7.15-7.89Z"/><path class="cls-7" d="M764.59,523.86c1.44-.44,2.91-2.26,3.82-3.57a1.59,1.59,0,0,0-.37-2.18c-3.35-2.56-8.77-11.38-8.77-11.38l-.33,12.06,5,5.15Z"/><path class="cls-7" d="M758.26,483.87l4.12,16.65a8.63,8.63,0,0,1-.66,5.93l-.21.42a8.6,8.6,0,0,0-.35,6.92l1,2.55,1.28,3.38a8.63,8.63,0,0,1,.56,3.45c-.18,3.74-.82,12.24-3.08,15.6a9.87,9.87,0,0,0-1.11,2l-.39,1a8.61,8.61,0,0,1-6.59,5.44,21.43,21.43,0,0,1-8.95-.2"/><path class="cls-6" d="M763.92,523.94a8.63,8.63,0,0,0,1.94-1.49,18.3,18.3,0,0,0,1.64-1.78,3.94,3.94,0,0,0,.61-.89,1.06,1.06,0,0,0,0-.82c-.12-.28-.3-.4-.7-.72s-.65-.57-1-.88a38.59,38.59,0,0,1-3.26-3.87c-1-1.33-2-2.7-2.9-4.09l-.13-.2,0-.25a10.2,10.2,0,0,1,.48-1.67c.21-.55.5-1,.68-1.49a8.07,8.07,0,0,0,.67-2.93,7.61,7.61,0,0,0-.09-1.51c-.07-.48-.22-1-.35-1.53l-.77-3.16c-1-4.21-2-8.45-3-12.67l1-.24c1.07,4.21,2.2,8.4,3.23,12.61l.79,3.16c.12.52.27,1.05.37,1.64a9.24,9.24,0,0,1,.1,1.74,9.39,9.39,0,0,1-.76,3.38c-.24.56-.51,1-.69,1.45a8.06,8.06,0,0,0-.43,1.45l-.09-.44c.9,1.38,1.83,2.75,2.81,4.08a37,37,0,0,0,3.11,3.8c.28.29.57.57.86.83a2.81,2.81,0,0,1,1,1.1,2.11,2.11,0,0,1,0,1.6,4.48,4.48,0,0,1-.82,1.15,10.75,10.75,0,0,1-2,1.68A5.55,5.55,0,0,1,763.92,523.94Z"/><path d="M749.14,463.05c-6.26-1.29-15.56-2.1-23.44,1.68a69.75,69.75,0,0,1-12,4.58c-6.8,1.83-13.81,6.52-18.52,17a44.07,44.07,0,0,0-3.64,21.12C692.1,516,694,529.1,700,537.3c0,0,2.88,11.54,14.57,10.34a18.27,18.27,0,0,0,13.22-8.25c2.93-4.42,6.62-10.92,7-16,0,0,.89-12.86,5.1-14.19a29.36,29.36,0,0,1,3.59,5.3,2.25,2.25,0,0,0,3.37.79h0a2.3,2.3,0,0,0,.89-2c-.25-2.83-.42-9.77,3.24-12.73,2.57-2.08,8.23-9.75,10.42-17.81A15.93,15.93,0,0,0,749.14,463.05Z"/><path class="cls-24" d="M699.51,506.86a36.22,36.22,0,0,1,3-17.3c3.09-6.85,7.45-10.94,13.32-12.53"/><path class="cls-7" d="M678,577.87s-25.49.89-23.28,39.24c0,0-.44,9.53-1.55,14.41s-5.76,45,15.74,56.53l12.19-40.12,10-54.54-6.65-17.73Z"/><path class="cls-26" d="M678,577.87s-25.49.89-23.28,39.24c0,0-.44,9.53-1.55,14.41s-5.76,45,15.74,56.53l12.19-40.12,10-54.54-6.65-17.73Z"/><path class="cls-7" d="M782.21,623.76s5.1-18.4,17.51-24.16c11-5.11,39.59-31.63,47.5-41a13.21,13.21,0,0,1,5.93-4c3.13-9.06,3.1-20.07,3.66-29.54.4-6.75-.17-13.49.31-20.25a128.26,128.26,0,0,1,3.41-21.61c1.56-6.31,5.12-11.55,8.82-16.77a10.14,10.14,0,0,0,1-9.95l-6.56-15a2.66,2.66,0,0,0-4-1.06l-8,6,7.54-28.16-4.44.45-11.47,27.57a25.55,25.55,0,0,0-1.91,11.36L843,480.77c-4,6.87-14.19,60.74-14.19,60.74-17.29,5.77-31.92,16.63-31.92,16.63-7.76.44-22.84,8.09-22.84,8.09l-7.53,2.55L766,624.21Z"/><path class="cls-27" d="M743.85,537.3a144.67,144.67,0,0,0-.33,17.3,8.62,8.62,0,0,0,5.68,7.48c4.65,1.69,11.39,4.49,12.39,6.92"/><path class="cls-6" d="M775.4,590.91l-.46-1.1c-2.5-6,.27-23.2.3-23.38l.3-1.82-14.89,3.32-.24.65c-3.58,9.87-13.07,15.44-28.21,16.55A89.8,89.8,0,0,1,710,583.74l-.23,0c-8.13-.21-17.53-13.52-17.63-13.66l-.56-.8-15.56,6-.18.17c-7.61,7.38-5.21,34.28-3,42.25,2,7.4-2.31,16.08-2.35,16.16l-.93,1.82H780.76l.34-.68C788.1,621.19,778.87,599.19,775.4,590.91Z"/><path class="cls-2" d="M741.23,605.33c-1.26-8.89-1.88-12.12-2.21-21.09a59.37,59.37,0,0,1-6.82.89A89.8,89.8,0,0,1,710,583.74l-.23,0c-8.13-.21-17.53-13.52-17.63-13.66l-.56-.8-15.56,6-.18.17c-7.61,7.38-5.21,34.28-3,42.25,2,7.4-2.31,16.08-2.35,16.16l-.93,1.82H736C736.44,627.41,742.34,613.16,741.23,605.33Z"/><circle class="cls-2" cx="705.5" cy="534.64" r="7.98"/><path d="M706.44,530.85a8.64,8.64,0,0,0-8.77-.21c-7.54,4.17-20.35,16-15.56,47.12,6.65,43.23,0,42.57-4.32,54.54h46.56s12.3-30.6-4.33-53.21c-12.25-16.65-11.68-31-9.74-38.81a8.65,8.65,0,0,0-3.84-9.43Z"/><path class="cls-6" d="M678.45,715.77s-10,9.64-3.65,28.59c0,0,52.87,19.62,112.06-.33,0,0,6-19.62-1-29.93Z"/><path class="cls-2" d="M754.05,727.72l.06-.14a9.4,9.4,0,0,0-8.82-12.93l-66.84,1.12s-10,9.64-3.65,28.59c0,0,34.58,12.83,79.11,7.19C754.53,743.4,751.07,735.35,754.05,727.72Z"/><path d="M780.85,721.35a786.65,786.65,0,0,1-104.36,0,10,10,0,0,1-9.33-8.91,359.52,359.52,0,0,1,0-76.49,10,10,0,0,1,9.33-8.91,790.07,790.07,0,0,1,104.36,0,10,10,0,0,1,9.32,8.91,358.21,358.21,0,0,1,0,76.49A10,10,0,0,1,780.85,721.35Z"/><path class="cls-2" d="M735.14,724.06q-17.64.2-35.27-.39-8.8-.28-17.61-.78l-4.41-.26a13.85,13.85,0,0,1-4.66-.78,11.18,11.18,0,0,1-6.7-6.82,11.7,11.7,0,0,1-.55-2.41l-.22-2.2c-.15-1.47-.3-2.93-.42-4.4-.27-2.93-.48-5.87-.68-8.81q-.57-8.82-.7-17.65-.27-17.67,1.2-35.31c.25-3,.51-5.83.85-8.84a11.28,11.28,0,0,1,10-9.55c1.56-.14,3-.19,4.45-.29,2.93-.18,5.87-.32,8.8-.47q17.63-.83,35.26-.9t35.26.68q8.82.38,17.61.93l2.2.15c.74,0,1.45.07,2.27.2a10.23,10.23,0,0,1,4.42,1.8,9.94,9.94,0,0,1,3,3.56,8.87,8.87,0,0,1,.92,4.43,12.38,12.38,0,0,0-1.88-3.84,10.83,10.83,0,0,0-3-2.7,10.41,10.41,0,0,0-3.75-1.3c-.63-.07-1.39-.11-2.12-.15l-2.19-.13c-5.85-.36-11.71-.63-17.57-.85q-17.58-.66-35.16-.52c-11.73.07-23.45.45-35.16,1-2.92.17-5.85.31-8.77.51-1.44.1-3,.18-4.34.3a8.8,8.8,0,0,0-7.73,7.45c-.32,2.81-.59,5.79-.84,8.69q-1.46,17.49-1.21,35.06.12,8.78.68,17.53c.2,2.92.41,5.84.67,8.75.12,1.46.27,2.92.41,4.37l.22,2.18a10,10,0,0,0,.43,1.88,8.8,8.8,0,0,0,5.21,5.36,12,12,0,0,0,4,.66l4.38.29q8.77.54,17.57.9,17.56.7,35.16.62a1,1,0,0,1,0,2Z"/><path d="M838.08,651.28h22a8,8,0,0,1,8,8v0a0,0,0,0,1,0,0H830.11a0,0,0,0,1,0,0v0A8,8,0,0,1,838.08,651.28Z"/><path class="cls-2" d="M436.32,676.83c-4.5-.08-8.87-1.44-13.08-3a120.67,120.67,0,0,1-12.34-5.4c-4-2-8-4.15-11.86-6.39s-7.72-4.58-11.5-7.05h0l.45.16-3.73-.35c-1.24,0-2.49-.11-3.73-.08s-2.48,0-3.71.21c-.61.07-1.23.13-1.84.21l-1.83.33a31.37,31.37,0,0,0-7,2.26,24.79,24.79,0,0,0-3.18,1.8,15.49,15.49,0,0,0-2.69,2.25l.22-.55a52.41,52.41,0,0,1-3.73,14.31,113.2,113.2,0,0,1-6.39,13.21,239.76,239.76,0,0,1-15.94,24.47c-5.74,7.86-11.8,15.46-18,22.91S303.73,750.91,297,758l-.39-1.64a78.46,78.46,0,0,1,9.32,4.12,69.31,69.31,0,0,1,8.71,5.3,43.92,43.92,0,0,1,7.64,6.86,25.82,25.82,0,0,1,5.22,9l-1.53-.52a207.46,207.46,0,0,0,35.28-33.28A148.18,148.18,0,0,0,375.24,728a118.74,118.74,0,0,0,5.48-10.79,98,98,0,0,0,4.09-11.36l1.93.54A99.32,99.32,0,0,1,382.55,718,118,118,0,0,1,377,729a148.38,148.38,0,0,1-14.14,20.11A197.49,197.49,0,0,1,346,767a199.32,199.32,0,0,1-18.83,15.78l-1.1.8-.43-1.32a23.82,23.82,0,0,0-4.83-8.28,41.71,41.71,0,0,0-7.29-6.54,67.92,67.92,0,0,0-8.46-5.15,75.62,75.62,0,0,0-9.05-4l-1.45-.53,1.05-1.11c6.63-7,13-14.31,19.27-21.71s12.25-15,17.95-22.81a236.29,236.29,0,0,0,15.81-24.27,111.41,111.41,0,0,0,6.28-13,50.45,50.45,0,0,0,3.6-13.73l0-.35.19-.21a16.83,16.83,0,0,1,3.12-2.63,24.9,24.9,0,0,1,3.44-1.95,33.18,33.18,0,0,1,7.46-2.42l1.92-.35,1.94-.22c1.29-.18,2.59-.16,3.88-.22s2.59.06,3.89.08l3.85.37.23,0,.21.15h0c3.63,2.57,7.37,5,11.14,7.41s7.63,4.66,11.55,6.79a120.55,120.55,0,0,0,12.06,5.83C427.55,675.07,431.83,676.58,436.32,676.83Z"/><path d="M797.4,764.47a204.66,204.66,0,0,1-137.47,0,10,10,0,0,1-6.58-9.41v-6.83a10,10,0,0,1,13-9.51,204.62,204.62,0,0,0,124.54,0,10,10,0,0,1,13,9.51v6.83A10,10,0,0,1,797.4,764.47Z"/><polygon class="cls-4" points="511.82 344.94 511.82 381.89 479.82 400.37 447.82 381.89 447.82 344.94 479.82 326.47 511.82 344.94"/><g class="cls-28"><path d="M453.91,316c-1.92,2.07-2.79,6.19-3.62,8.77A58.37,58.37,0,0,0,447,341.62c-.1,7.89,5,15.33,10,21.1,4.81,5.55,11.12,9.66,15.53,15.57a28.3,28.3,0,0,1,2.17,3.36c3.86,7.12,5,15.46,4.24,23.46,0,.38-.09,2.77-.73,2.79l-43.39,1.51-3.32-92.53S454.7,315.14,453.91,316Z"/></g><g class="cls-28"><line class="cls-29" x1="447.82" y1="344.94" x2="479.85" y2="363.43"/><line class="cls-29" x1="511.82" y1="344.94" x2="479.85" y2="363.43"/><line class="cls-30" x1="479.85" y1="363.43" x2="479.85" y2="406.3"/></g><path class="cls-6" d="M766,623.21l16.18-.45-.94.74a56.58,56.58,0,0,1,5.11-11.78,35.88,35.88,0,0,1,8.16-10,22.06,22.06,0,0,1,2.68-1.91c.91-.57,2-1.07,2.85-1.51a47.17,47.17,0,0,0,5.24-3.24c3.41-2.38,6.7-5,9.93-7.63,6.46-5.33,12.7-10.94,18.78-16.72,3-2.89,6-5.83,8.9-8.85.72-.76,1.43-1.52,2.13-2.29s1.31-1.53,2.12-2.39a14.23,14.23,0,0,1,5.69-3.55h0l-.63.62c2.46-7,3-14.63,3.5-22.17l.35-5.69c.13-1.9.24-3.76.28-5.65.09-3.78,0-7.58.1-11.39a120.28,120.28,0,0,1,3-22.62c.43-1.85.85-3.7,1.45-5.52a33.86,33.86,0,0,1,2.25-5.25,78.91,78.91,0,0,1,6.2-9.56,78.41,78.41,0,0,0-6,9.67,34.94,34.94,0,0,0-2.12,5.25c-.54,1.8-.92,3.67-1.31,5.52a119.58,119.58,0,0,0-2.51,22.52c0,3.78.15,7.58.15,11.39,0,1.9-.07,3.84-.16,5.72l-.22,5.68c-.31,7.58-.69,15.31-3.11,22.75l-.14.45-.48.17h0a12.32,12.32,0,0,0-4.89,3.06c-.64.67-1.36,1.57-2.07,2.33s-1.43,1.56-2.16,2.33c-2.92,3.06-5.93,6-9,8.92C829.26,578,823,583.62,816.48,589c-3.26,2.68-6.57,5.3-10.06,7.73A49.53,49.53,0,0,1,801,600.1c-1,.52-1.85.9-2.72,1.44a20.91,20.91,0,0,0-2.45,1.74,34.42,34.42,0,0,0-7.7,9.44A54.69,54.69,0,0,0,783.17,624l-.21.71-.73,0-16.18.45Z"/><polygon class="cls-4" points="1000.43 569.9 1000.43 606.85 968.43 625.33 936.43 606.85 936.43 569.9 968.43 551.42 1000.43 569.9"/><g class="cls-31"><path d="M942.52,540.94c-1.92,2.07-2.79,6.19-3.62,8.77a58,58,0,0,0-3.25,16.86c-.1,7.89,5,15.34,10,21.11,4.82,5.55,11.13,9.65,15.54,15.57a28.3,28.3,0,0,1,2.17,3.36c3.86,7.12,5,15.46,4.24,23.45,0,.39-.09,2.78-.74,2.8l-43.39,1.51-3.31-92.54S943.3,540.1,942.52,540.94Z"/></g><g class="cls-31"><line class="cls-29" x1="936.43" y1="569.9" x2="968.46" y2="588.39"/><line class="cls-29" x1="1000.43" y1="569.9" x2="968.46" y2="588.39"/><line class="cls-30" x1="968.46" y1="588.39" x2="968.46" y2="631.26"/></g><path class="cls-7" d="M739.86,509.15c-5.44-4-10.7,1.49-10.7,6.85,0,3.16,2.5,5.15,4,7.67s1.18,6.87,5.22,6.87a4,4,0,0,0,3-1.37"/><rect class="cls-4" x="713.54" y="670.2" width="30.26" height="98" rx="14.75"/><rect class="cls-4" x="719.83" y="764.28" width="17.68" height="43.51"/><path class="cls-4" d="M711.83,840.77V809.2a8,8,0,0,1,8-8H737.5a8,8,0,0,1,8,8v39.11"/><line class="cls-32" x1="737.51" y1="765.78" x2="737.51" y2="801.2"/><path class="cls-32" d="M728.29,670.2h.76A14.75,14.75,0,0,1,743.8,685v68.5a14.76,14.76,0,0,1-14.75,14.75h-.76"/><path class="cls-32" d="M711.83,840.77V809.2a8,8,0,0,1,8-8H737.5a8,8,0,0,1,8,8v39.11"/><path class="cls-17" d="M385,512s.72,8.69,4.52,11.53c0,0-1.63,6.25-7.59,4.54"/><path d="M385.51,512a29.22,29.22,0,0,0,1.5,6,15.42,15.42,0,0,0,1.31,2.71,7.05,7.05,0,0,0,1.84,2l0,0a.91.91,0,0,1,.35,1,9.42,9.42,0,0,1-1.3,2.48,6.93,6.93,0,0,1-2.06,1.9,5.4,5.4,0,0,1-2.68.8,7.84,7.84,0,0,1-2.66-.4.51.51,0,0,1-.35-.63.49.49,0,0,1,.57-.35h.06a6.43,6.43,0,0,0,2.26.12,4.08,4.08,0,0,0,2-.8,5.37,5.37,0,0,0,1.42-1.61,7.28,7.28,0,0,0,.82-2l.37,1.05a8.87,8.87,0,0,1-2.15-2.8,16.17,16.17,0,0,1-1.19-3.11,27.19,27.19,0,0,1-.69-3.17,30.89,30.89,0,0,1-.35-3.21.46.46,0,0,1,.92-.09Z"/><path d="M364.81,505c1.16-.42,2.32-.81,3.47-1.19.6-.17,1.11-.38,1.85-.55a5.8,5.8,0,0,1,2.24,0,36.3,36.3,0,0,1,3.7.94c1.2.34,2.37.72,3.55,1.12a1.56,1.56,0,0,1-1,3l-.1,0h0l-3.37-1.4c-1.11-.44-2.27-.95-3.31-1.29a4,4,0,0,0-1.42-.17c-.46,0-1.13.16-1.74.24-1.24.18-2.47.34-3.7.48a.53.53,0,0,1-.58-.47.54.54,0,0,1,.34-.56Z"/><path d="M404.45,506q-1.84-.21-3.69-.48c-.61-.08-1.28-.22-1.75-.24a4.08,4.08,0,0,0-1.42.17c-1,.34-2.19.85-3.3,1.29l-3.37,1.4h0a1.56,1.56,0,0,1-1.2-2.88l.1,0c1.18-.4,2.35-.78,3.55-1.12a37.19,37.19,0,0,1,3.71-.94,5.75,5.75,0,0,1,2.23,0c.75.17,1.26.38,1.85.55,1.16.38,2.31.77,3.47,1.19l.07,0a.54.54,0,0,1,.32.68A.53.53,0,0,1,404.45,506Z"/><ellipse cx="372.9" cy="514.57" rx="2.5" ry="2.05"/><path class="cls-33" d="M379.07,512.22c-3.8.77-7.07,1-11.65-1.69"/><ellipse cx="396.54" cy="514.57" rx="2.5" ry="2.05"/><path class="cls-33" d="M390.37,512.22c3.79.77,7.07,1,11.64-1.69"/><path class="cls-21" d="M379.1,535.54a22.28,22.28,0,0,0,5.71-.1,16.59,16.59,0,0,0,2.75-.59,5.28,5.28,0,0,0,2.21-1.17l0,0a.75.75,0,1,1,1.1,1l-.06.06a6.57,6.57,0,0,1-3,1.33,20.39,20.39,0,0,1-3,.37,26.55,26.55,0,0,1-3,0A18.24,18.24,0,0,1,379,536a.24.24,0,0,1-.18-.29.23.23,0,0,1,.26-.18Z"/></svg>