<?xml version="1.0" encoding="UTF-8"?><svg id="Layer_2" xmlns="http://www.w3.org/2000/svg" viewBox="0 0 58.44 63"><defs><style>.cls-1{fill:none;stroke:#1a1a1a;stroke-linecap:round;stroke-linejoin:round;stroke-width:4px;}.cls-2{fill:#ff976d;stroke-width:0px;}</style></defs><g id="Layer_1-2"><rect class="cls-2" x="5.44" y="10" width="53" height="53" rx="8.1" ry="8.1"/><path class="cls-1" d="M40.88,53.38c3.07,0,5.55-2.49,5.55-5.55s-2.49-5.55-5.55-5.55-5.55,2.49-5.55,5.55,2.49,5.55,5.55,5.55Z"/><path class="cls-1" d="M7.55,14.5c3.07,0,5.55-2.49,5.55-5.55s-2.49-5.55-5.55-5.55-5.55,2.49-5.55,5.55,2.49,5.55,5.55,5.55Z"/><path class="cls-1" d="M7.55,53.38c3.07,0,5.55-2.49,5.55-5.55s-2.49-5.55-5.55-5.55-5.55,2.49-5.55,5.55,2.49,5.55,5.55,5.55Z"/><path class="cls-1" d="M7.55,14.5v27.77"/><path class="cls-1" d="M40.88,42.27V14.5s0-5.55-5.55-5.55h-8.33"/><path class="cls-1" d="M32.55,15.89l-6.94-6.94,6.94-6.94"/></g></svg>