<?xml version="1.0" encoding="UTF-8"?><svg id="Layer_2" xmlns="http://www.w3.org/2000/svg" viewBox="0 0 68.04 63.72"><defs><style>.cls-1{stroke-miterlimit:6.67;}.cls-1,.cls-2{fill:none;stroke:#000;stroke-width:4px;}.cls-2{stroke-linecap:round;stroke-linejoin:round;}.cls-3{fill:#ff9d76;stroke-width:0px;}</style></defs><g id="Layer_1-2"><rect class="cls-3" x="7.04" y="6.72" width="61" height="57" rx="8.1" ry="8.1"/><path class="cls-1" d="M2,46.33V10.87C2,5.97,5.97,2,10.87,2h5.91c4.9,0,8.87,3.97,8.87,8.87v35.46c0,4.9-3.97,8.87-8.87,8.87h-5.91c-4.9,0-8.87-3.97-8.87-8.87Z"/><path class="cls-2" d="M43.37,2h5.91c6.53,0,11.82,5.29,11.82,11.82v29.55c0,6.53-5.29,11.82-11.82,11.82h-5.91"/><path class="cls-2" d="M25.64,28.6h23.64M49.28,28.6l-8.87-8.87M49.28,28.6l-8.87,8.87"/></g></svg>