<?xml version="1.0" encoding="UTF-8"?><svg id="Layer_2" xmlns="http://www.w3.org/2000/svg" viewBox="0 0 92.91 45.1"><defs><style>.cls-1{fill:#0166cc;stroke-width:0px;}</style></defs><g id="Layer_1-2"><path class="cls-1" d="m37.96,14.17c-1.94-2-5.03,1.1-3.03,3.04,0,0,3.2,3.2,3.2,3.2h-13.26v-8.15c0-1.18-.96-2.14-2.14-2.14H2.14c-1.18,0-2.14.96-2.14,2.14v20.58c0,1.18.96,2.14,2.14,2.14h20.58c1.18,0,2.14-.96,2.14-2.14v-8.15h13.26l-3.2,3.2c-1.97,1.99,1.04,5.01,3.03,3.03,0,0,6.86-6.86,6.86-6.86.58-.62.75-1.55.47-2.33.38-.07-7.21-7.36-7.33-7.56Zm-17.38,16.53H4.29V14.4h16.29v16.29Z"/><path class="cls-1" d="m90.86,0h-41c-1.13,0-2.05.92-2.05,2.05v41c0,1.13.92,2.05,2.05,2.05h41c1.13,0,2.05-.92,2.05-2.05V2.05c0-1.13-.92-2.05-2.05-2.05Zm-2.05,41h-36.9V4.1h36.9v36.9Z"/></g></svg>