<?xml version="1.0" encoding="UTF-8"?><svg id="Layer_2" xmlns="http://www.w3.org/2000/svg" viewBox="0 0 57.51 78.45"><defs><style>.cls-1{fill:#333;}.cls-2{fill:#b0dcde;}</style></defs><g id="Icon"><rect class="cls-2" x="6.91" y="27.85" width="50.6" height="50.6" rx="2.23" ry="2.23"/><path class="cls-1" d="m50.63,21.75h-9.17v-6.46c0-8.43-6.86-15.29-15.29-15.29s-15.29,6.86-15.29,15.29v6.46H1.7c-.94,0-1.7.76-1.7,1.7v48.93c0,.94.76,1.7,1.7,1.7h48.93c.94,0,1.7-.76,1.7-1.7V23.45c0-.94-.76-1.7-1.7-1.7ZM14.27,15.29c0-6.56,5.34-11.89,11.89-11.89s11.89,5.34,11.89,11.89v6.46H14.27v-6.46ZM3.4,70.68V25.15h45.53v10.19h-22.77c-.94,0-1.7.76-1.7,1.7s.76,1.7,1.7,1.7h22.77v7.48h-22.77c-.94,0-1.7.76-1.7,1.7s.76,1.7,1.7,1.7h22.77v7.48h-22.77c-.94,0-1.7.76-1.7,1.7s.76,1.7,1.7,1.7h22.77v10.19H3.4Z"/></g></svg>