<?xml version="1.0" encoding="UTF-8"?><svg id="Layer_2" xmlns="http://www.w3.org/2000/svg" viewBox="0 0 63.14 59.74"><defs><style>.cls-1{fill:#333;}.cls-2{fill:#aedcdd;}</style></defs><g id="Layer_1-2"><g><rect class="cls-2" x="6.54" y="7.93" width="51.81" height="51.81" rx=".68" ry=".68"/><g><path class="cls-1" d="m50.12,31.29c-.8,0-1.45.65-1.45,1.45v15.93H2.9V2.9h45.77v15.93c0,1.89,2.89,1.89,2.9,0,0,0,0-17.38,0-17.38,0-.8-.65-1.45-1.45-1.45H1.45C.65,0,0,.65,0,1.45v48.67c0,.8.65,1.45,1.45,1.45h48.67c.8,0,1.45-.65,1.45-1.45v-17.38c0-.8-.65-1.45-1.45-1.45Z"/><path class="cls-1" d="m63.12,25.97c.08-.45-.08-.89-.39-1.21,0,0-4.64-4.64-4.64-4.64-1.31-1.35-3.4.74-2.05,2.05,0,0,2.16,2.16,2.16,2.16h-24.31c-.8,0-1.45.65-1.45,1.45s.65,1.45,1.45,1.45h24.31l-2.16,2.16c-.92.86-.22,2.52,1.03,2.47.37,0,.74-.14,1.03-.42l4.64-4.64c.23-.23.34-.53.39-.84Z"/></g></g></g></svg>