<?xml version="1.0" encoding="UTF-8"?><svg id="Layer_2" xmlns="http://www.w3.org/2000/svg" viewBox="0 0 64.04 68"><defs><style>.cls-1{fill:none;stroke:#000;stroke-linecap:round;stroke-linejoin:round;stroke-width:4px;}.cls-2{fill:#ff9d76;stroke-width:0px;}</style></defs><g id="Layer_1-2"><path class="cls-2" d="M16.47,57.52l-5.6-39.2c-.22-1.55.79-3,2.32-3.33l22.95-5.1c.86-.19,1.74-.19,2.6,0l22.95,5.1c1.53.34,2.54,1.79,2.32,3.33l-5.6,39.2c-.21,1.48-1.5,10.48-20.97,10.48s-20.75-9-20.97-10.48Z"/><path class="cls-1" d="M18.11,30.31l8.99,8.99,14.98-14.98"/><path class="cls-1" d="M7.63,49.78L2.03,10.58c-.22-1.55.79-3,2.32-3.33L27.3,2.14c.86-.19,1.74-.19,2.6,0l22.95,5.1c1.53.34,2.54,1.79,2.32,3.33l-5.6,39.2c-.21,1.48-1.5,10.48-20.97,10.48s-20.75-9-20.97-10.48Z"/></g></svg>