<svg xmlns="http://www.w3.org/2000/svg" id="Layer_2" viewBox="0 0 53.41 58.68"><defs><style>.cls-1{fill:#333;}.cls-2{fill:#acdadb;}</style></defs><g id="Layer_1-2"><path class="cls-2" d="m49.8,20.63L28.09,7.84,6.38,20.63s-2.41,25.44,21.71,38.05c24.13-12.61,21.71-38.05,21.71-38.05Zm-13.05,26.82c-4.79,0-8.67-3.88-8.67-8.67s3.88-8.67,8.67-8.67,8.67,3.88,8.67,8.67-3.88,8.67-8.67,8.67Z"/><path class="cls-1" d="m47.09,14.32c-.05-.48-.32-.91-.74-1.15L24.33.2c-.47-.27-1.05-.27-1.52,0L.79,13.17c-.42.24-.69.67-.73,1.15-.03.27-2.26,26.96,22.82,40.06.21.12.45.17.69.17s.48-.05.7-.17c1.09-.57,2.14-1.17,3.14-1.8.79-.5.84-1.61.12-2.21-.05-.04-.1-.09-.15-.13-.47-.4-1.13-.47-1.66-.14-.69.43-1.41.85-2.15,1.25C3.01,40.16,2.8,19.6,2.99,15.35L23.57,3.23l20.58,12.12c.07,1.56.09,5.32-.94,10.01-.13.61.13,1.24.67,1.56,0,0,.02.01.03.02.83.48,1.9.03,2.12-.91,1.49-6.64,1.07-11.58,1.06-11.7Z"/><path class="cls-1" d="m36.76,31.02c4.61,0,8.36,3.75,8.36,8.36s-3.75,8.36-8.36,8.36-8.36-3.75-8.36-8.36,3.75-8.36,8.36-8.36m0-3c-6.27,0-11.36,5.09-11.36,11.36s5.09,11.36,11.36,11.36,11.36-5.09,11.36-11.36-5.09-11.36-11.36-11.36h0Z"/><path class="cls-1" d="m36.84,44.05c-.38,0-.77-.15-1.06-.44l-4.69-4.69c-.59-.59-.59-1.54,0-2.12.58-.59,1.54-.59,2.12,0l3.63,3.63,14-14c.59-.59,1.54-.59,2.12,0s.59,1.54,0,2.12l-15.06,15.06c-.29.29-.68.44-1.06.44Z"/></g></svg>