<?xml version="1.0" encoding="UTF-8"?><svg id="Layer_2" xmlns="http://www.w3.org/2000/svg" viewBox="0 0 54.74 54.32"><defs><style>.cls-1{fill:#aedcdd;}.cls-2{fill:#333;stroke:#333;stroke-miterlimit:10;}</style></defs><g id="Layer_1-2"><g><circle class="cls-1" cx="30.24" cy="29.82" r="24.5"/><path class="cls-2" d="m25.06.5C11.52.5.5,11.52.5,25.06c1.35,32.59,47.78,32.58,49.13,0,0-13.54-11.02-24.56-24.56-24.56Zm0,47.03c-12.39,0-22.46-10.08-22.46-22.46,1.23-29.8,43.7-29.79,44.93,0,0,12.39-10.08,22.46-22.46,22.46Z"/><path class="cls-2" d="m34.4,17.6l-12.69,12.7-5.98-5.98c-.95-.98-2.46.53-1.49,1.49,0,0,6.72,6.72,6.72,6.72.21.21.47.31.74.31s.54-.1.74-.31l13.44-13.44c.97-.95-.53-2.47-1.49-1.49Z"/></g></g></svg>