<?xml version="1.0" encoding="UTF-8"?>
<svg width="1160px" height="220px" viewBox="0 0 1160 220" version="1.1" xmlns="http://www.w3.org/2000/svg" xmlns:xlink="http://www.w3.org/1999/xlink">
    <title>App workflow</title>
    <defs>
        <path d="M110,18 L110,70 L0,70 L0,18 L110,18 Z M55,0 L73,18 L37,18 L55,0 Z" id="path-1"></path>
        <filter x="-25.5%" y="-28.6%" width="150.9%" height="180.0%" filterUnits="objectBoundingBox" id="filter-2">
            <feOffset dx="0" dy="0" in="SourceAlpha" result="shadowOffsetOuter1"></feOffset>
            <feGaussianBlur stdDeviation="3" in="shadowOffsetOuter1" result="shadowBlurOuter1"></feGaussianBlur>
            <feColorMatrix values="0 0 0 0 0   0 0 0 0 0   0 0 0 0 0  0 0 0 0.08 0" type="matrix" in="shadowBlurOuter1" result="shadowMatrixOuter1"></feColorMatrix>
            <feOffset dx="0" dy="8" in="SourceAlpha" result="shadowOffsetOuter2"></feOffset>
            <feGaussianBlur stdDeviation="8" in="shadowOffsetOuter2" result="shadowBlurOuter2"></feGaussianBlur>
            <feColorMatrix values="0 0 0 0 0   0 0 0 0 0   0 0 0 0 0  0 0 0 0.16 0" type="matrix" in="shadowBlurOuter2" result="shadowMatrixOuter2"></feColorMatrix>
            <feMerge>
                <feMergeNode in="shadowMatrixOuter1"></feMergeNode>
                <feMergeNode in="shadowMatrixOuter2"></feMergeNode>
            </feMerge>
        </filter>
        <path d="M100,18 L100,70 L0,70 L0,18 L100,18 Z M50.25,0 L68.25,18 L32.25,18 L50.25,0 Z" id="path-3"></path>
        <filter x="-28.0%" y="-28.6%" width="156.0%" height="180.0%" filterUnits="objectBoundingBox" id="filter-4">
            <feOffset dx="0" dy="0" in="SourceAlpha" result="shadowOffsetOuter1"></feOffset>
            <feGaussianBlur stdDeviation="3" in="shadowOffsetOuter1" result="shadowBlurOuter1"></feGaussianBlur>
            <feColorMatrix values="0 0 0 0 0   0 0 0 0 0   0 0 0 0 0  0 0 0 0.08 0" type="matrix" in="shadowBlurOuter1" result="shadowMatrixOuter1"></feColorMatrix>
            <feOffset dx="0" dy="8" in="SourceAlpha" result="shadowOffsetOuter2"></feOffset>
            <feGaussianBlur stdDeviation="8" in="shadowOffsetOuter2" result="shadowBlurOuter2"></feGaussianBlur>
            <feColorMatrix values="0 0 0 0 0   0 0 0 0 0   0 0 0 0 0  0 0 0 0.16 0" type="matrix" in="shadowBlurOuter2" result="shadowMatrixOuter2"></feColorMatrix>
            <feMerge>
                <feMergeNode in="shadowMatrixOuter1"></feMergeNode>
                <feMergeNode in="shadowMatrixOuter2"></feMergeNode>
            </feMerge>
        </filter>
        <path d="M120,18 L120,70 L0,70 L0,18 L120,18 Z M60,0 L78,18 L42,18 L60,0 Z" id="path-5"></path>
        <filter x="-23.3%" y="-28.6%" width="146.7%" height="180.0%" filterUnits="objectBoundingBox" id="filter-6">
            <feOffset dx="0" dy="0" in="SourceAlpha" result="shadowOffsetOuter1"></feOffset>
            <feGaussianBlur stdDeviation="3" in="shadowOffsetOuter1" result="shadowBlurOuter1"></feGaussianBlur>
            <feColorMatrix values="0 0 0 0 0   0 0 0 0 0   0 0 0 0 0  0 0 0 0.08 0" type="matrix" in="shadowBlurOuter1" result="shadowMatrixOuter1"></feColorMatrix>
            <feOffset dx="0" dy="8" in="SourceAlpha" result="shadowOffsetOuter2"></feOffset>
            <feGaussianBlur stdDeviation="8" in="shadowOffsetOuter2" result="shadowBlurOuter2"></feGaussianBlur>
            <feColorMatrix values="0 0 0 0 0   0 0 0 0 0   0 0 0 0 0  0 0 0 0.16 0" type="matrix" in="shadowBlurOuter2" result="shadowMatrixOuter2"></feColorMatrix>
            <feMerge>
                <feMergeNode in="shadowMatrixOuter1"></feMergeNode>
                <feMergeNode in="shadowMatrixOuter2"></feMergeNode>
            </feMerge>
        </filter>
    </defs>
    <g id="App-workflow" stroke="none" stroke-width="1" fill="none" fill-rule="evenodd">
        <g id="Group-12-Copy">
            <rect id="Rectangle" fill="#F1F1F1" x="0" y="0" width="1160" height="220" rx="10"></rect>
            <g id="Group-6-Copy" transform="translate(40.000000, 27.000000)">
                <g id="Group-9">
                    <path d="M0,38 L0,33 C-3.38176876e-16,30.2385763 2.23857625,28 5,28 L239,28 C241.761424,28 244,30.2385763 244,33 L244,38 L244,38" id="Rectangle" stroke="#004080" stroke-width="3" stroke-linecap="round"></path>
                    <text id="Application-definiti" font-family="RedHatText-Medium, Red Hat Text" font-size="14" font-weight="400" fill="#002952">
                        <tspan x="51.559" y="14">Application definition</tspan>
                    </text>
                </g>
                <g id="Group-9-Copy-2" transform="translate(265.000000, 0.000000)">
                    <path d="M0,38 L0,33 C-3.38176876e-16,30.2385763 2.23857625,28 5,28 L530,28 C532.761424,28 535,30.2385763 535,33 L535,38 L535,38" id="Rectangle" stroke="#C58C00" stroke-width="3" stroke-linecap="round"></path>
                    <text id="Integration-tests-&amp;" font-family="RedHatText-Medium, Red Hat Text" font-size="14" font-weight="400" fill="#795600">
                        <tspan x="138.43" y="14"> Integration tests &amp; Static environments</tspan>
                    </text>
                </g>
                <g id="Group-9-Copy-6" transform="translate(820.000000, 0.000000)">
                    <path d="M0,38 L0,33 C-3.38176876e-16,30.2385763 2.23857625,28 5,28 L255,28 C257.761424,28 260,30.2385763 260,33 L260,38 L260,38" id="Rectangle" stroke="#3E8635" stroke-width="3" stroke-linecap="round"></path>
                    <text id="Release" font-family="RedHatText-Medium, Red Hat Text" font-size="14" font-weight="400" fill="#1E4F18">
                        <tspan x="104.464" y="14">Release</tspan>
                    </text>
                </g>
            </g>
            <g id="Group-5" transform="translate(40.000000, 80.000000)">
                <g id="Group-10-Copy" transform="translate(0.000000, 20.000000)">
                    <g id="task-success--default-copy" transform="translate(25.000000, 0.000000)">
                        <rect id="Rectangle-Copy-11" stroke="#D2D2D2" fill="#FFFFFF" x="0.5" y="0.5" width="104" height="31" rx="15.5"></rect>
                        <text id="Components" font-family="RedHatText-Regular, Red Hat Text" font-size="14" font-weight="normal" fill="#030303">
                            <tspan x="13" y="21">Components</tspan>
                        </text>
                    </g>
                    <path id="Line" d="M141.5,12 L150.5,16.5 L141.5,21 L141.5,17 L129.5,17 L129.5,16 L141.5,16 L141.5,12 Z" fill="#979797" fill-rule="nonzero"></path>
                    <g id="Group-3-Copy-2">
                        <g id="zoom-status--success-copy-3" fill="#FFFFFF" stroke="#D2D2D2">
                            <circle id="Oval" cx="16" cy="16" r="15.5"></circle>
                        </g>
                        <g id="Icons/3.-Size-lg/Status/check-circle-Copy-4" transform="translate(8.000000, 8.000012)" fill="#6A6E73">
                            <path d="M5.83747998,14.7218277 C5.83747998,14.5557776 5.83059672,13.7468494 5.82863008,13.1058516 L5.8281111,12.8031006 L5.8281111,12.8031006 C5.8281111,12.8031006 3.64061632,13.2718495 3.18123631,11.8718589 C3.18123631,11.8718589 2.82500547,10.9624678 2.31249449,10.7280933 C2.31249449,10.7280933 1.59685899,10.2374634 2.36248216,10.2468628 C2.36248216,10.2468628 3.14061751,10.3093626 3.56874759,11.0531048 C4.25310265,12.2593397 5.39998102,11.9124777 5.84684885,11.7062099 C5.9187481,11.2062111 6.12187261,10.8593491 6.34684766,10.6531118 C4.59999514,10.4593562 2.83748713,10.2062135 2.83748713,7.19999504 C2.83748713,6.34062209 3.07500488,5.9093487 3.57500368,5.35936222 C3.49373557,5.15623771 3.2281112,4.31874581 3.65624128,3.23748007 C4.30937693,3.03435556 5.81248614,4.08122806 5.81248614,4.08122806 C6.43748465,3.90624069 7.10935805,3.8156037 7.77497536,3.8156037 C8.44059267,3.8156037 9.11246607,3.90624069 9.73746458,4.08122806 C9.73746458,4.08122806 11.2406043,3.03124277 11.8937094,3.23748007 C12.3218395,4.32185859 12.0562152,5.15623771 11.9749776,5.35936222 C12.4749764,5.91249201 12.7812195,6.34373488 12.7812195,7.19999504 C12.7812195,10.0480785 11.1394205,10.4209147 9.48541292,10.6194223 L9.19373418,10.6531118 L9.19373418,10.6531118 C9.4812396,10.8999679 9.72498292,11.3687168 9.72498292,12.10309 L9.72411831,12.7132933 C9.72179896,13.6080875 9.71561404,14.5073945 9.71561404,14.7156021 C9.71561404,14.9187266 9.85935149,15.1655827 10.2562317,15.093714 C13.3812242,14.0562104 15.499963,11.0906108 15.499963,7.62498182 C15.499963,3.29061105 11.9843464,0 7.64997566,0 C3.31560489,0 0,3.29061105 0,7.62498182 C0,11.0906108 2.1812387,14.0562104 5.29686237,15.0999701 C5.69685531,15.1718388 5.83747998,14.9249522 5.83747998,14.7218277 Z" id="github"></path>
                        </g>
                    </g>
                </g>
                <g id="Group-10-Copy" transform="translate(150.000000, 20.000000)">
                    <g id="task-success--default-copy" transform="translate(25.000000, 0.000000)">
                        <rect id="Rectangle-Copy-11" stroke="#D2D2D2" fill="#FFFFFF" x="0.5" y="0.5" width="69" height="31" rx="15.5"></rect>
                        <text id="Builds" font-family="RedHatText-Regular, Red Hat Text" font-size="14" font-weight="normal" fill="#030303">
                            <tspan x="16.663" y="21">Builds</tspan>
                        </text>
                    </g>
                    <line x1="95" y1="16.5" x2="105" y2="16.5" id="Line" stroke="#979797" stroke-linecap="square"></line>
                    <g id="Group-3-Copy-2">
                        <g id="zoom-status--success-copy-3" fill="#FFFFFF" stroke="#D2D2D2">
                            <circle id="Oval" cx="16" cy="16" r="15.5"></circle>
                        </g>
                        <g id="" transform="translate(11.000000, 9.428571)" fill="#6A6E73" fill-rule="nonzero">
                            <path d="M2.32142857,12.6071429 C2.48809524,12.4404762 2.57142857,12.2380952 2.57142857,12 C2.57142857,11.7619048 2.48809524,11.5595238 2.32142857,11.3928571 C2.1547619,11.2261905 1.95238095,11.1428571 1.71428571,11.1428571 C1.47619048,11.1428571 1.27380952,11.2261905 1.10714286,11.3928571 C0.94047619,11.5595238 0.857142857,11.7619048 0.857142857,12 C0.857142857,12.2380952 0.94047619,12.4404762 1.10714286,12.6071429 C1.27380952,12.7738095 1.47619048,12.8571429 1.71428571,12.8571429 C1.95238095,12.8571429 2.1547619,12.7738095 2.32142857,12.6071429 Z M2.32142857,2.32142857 C2.48809524,2.1547619 2.57142857,1.95238095 2.57142857,1.71428571 C2.57142857,1.47619048 2.48809524,1.27380952 2.32142857,1.10714286 C2.1547619,0.94047619 1.95238095,0.857142857 1.71428571,0.857142857 C1.47619048,0.857142857 1.27380952,0.94047619 1.10714286,1.10714286 C0.94047619,1.27380952 0.857142857,1.47619048 0.857142857,1.71428571 C0.857142857,1.95238095 0.94047619,2.1547619 1.10714286,2.32142857 C1.27380952,2.48809524 1.47619048,2.57142857 1.71428571,2.57142857 C1.95238095,2.57142857 2.1547619,2.48809524 2.32142857,2.32142857 Z M8.03571429,3.46428571 C8.20238095,3.29761905 8.28571429,3.0952381 8.28571429,2.85714286 C8.28571429,2.61904762 8.20238095,2.41666667 8.03571429,2.25 C7.86904762,2.08333333 7.66666667,2 7.42857143,2 C7.19047619,2 6.98809524,2.08333333 6.82142857,2.25 C6.6547619,2.41666667 6.57142857,2.61904762 6.57142857,2.85714286 C6.57142857,3.0952381 6.6547619,3.29761905 6.82142857,3.46428571 C6.98809524,3.63095238 7.19047619,3.71428571 7.42857143,3.71428571 C7.66666667,3.71428571 7.86904762,3.63095238 8.03571429,3.46428571 Z M9.14285714,2.85714286 C9.14285714,3.16666667 9.06547619,3.45386905 8.91071429,3.71875 C8.75595238,3.98363095 8.54761905,4.19047619 8.28571429,4.33928571 C8.27380952,6.04761905 7.60119048,7.2797619 6.26785714,8.03571429 C5.86904762,8.26190476 5.26488095,8.50297619 4.45535714,8.75892857 C3.69345238,8.99702381 3.1889881,9.20833333 2.94196429,9.39285714 C2.69494048,9.57738095 2.57142857,9.875 2.57142857,10.2857143 L2.57142857,10.5178571 C2.83333333,10.6666667 3.04166667,10.8735119 3.19642857,11.1383929 C3.35119048,11.4032738 3.42857143,11.6904762 3.42857143,12 C3.42857143,12.4761905 3.26190476,12.8809524 2.92857143,13.2142857 C2.5952381,13.547619 2.19047619,13.7142857 1.71428571,13.7142857 C1.23809524,13.7142857 0.833333333,13.547619 0.5,13.2142857 C0.166666667,12.8809524 0,12.4761905 0,12 C0,11.6904762 0.0773809524,11.4032738 0.232142857,11.1383929 C0.386904762,10.8735119 0.595238095,10.6666667 0.857142857,10.5178571 L0.857142857,3.19642857 C0.595238095,3.04761905 0.386904762,2.84077381 0.232142857,2.57589286 C0.0773809524,2.3110119 0,2.02380952 0,1.71428571 C0,1.23809524 0.166666667,0.833333333 0.5,0.5 C0.833333333,0.166666667 1.23809524,0 1.71428571,0 C2.19047619,0 2.5952381,0.166666667 2.92857143,0.5 C3.26190476,0.833333333 3.42857143,1.23809524 3.42857143,1.71428571 C3.42857143,2.02380952 3.35119048,2.3110119 3.19642857,2.57589286 C3.04166667,2.84077381 2.83333333,3.04761905 2.57142857,3.19642857 L2.57142857,7.63392857 C2.89285714,7.47916667 3.35119048,7.30952381 3.94642857,7.125 C4.27380952,7.02380952 4.53422619,6.9360119 4.72767857,6.86160714 C4.92113095,6.78720238 5.13095238,6.69494048 5.35714286,6.58482143 C5.58333333,6.47470238 5.75892857,6.35714286 5.88392857,6.23214286 C6.00892857,6.10714286 6.12946429,5.95535714 6.24553571,5.77678571 C6.36160714,5.59821429 6.44494048,5.39136905 6.49553571,5.15625 C6.54613095,4.92113095 6.57142857,4.64880952 6.57142857,4.33928571 C6.30952381,4.19047619 6.10119048,3.98363095 5.94642857,3.71875 C5.79166667,3.45386905 5.71428571,3.16666667 5.71428571,2.85714286 C5.71428571,2.38095238 5.88095238,1.97619048 6.21428571,1.64285714 C6.54761905,1.30952381 6.95238095,1.14285714 7.42857143,1.14285714 C7.9047619,1.14285714 8.30952381,1.30952381 8.64285714,1.64285714 C8.97619048,1.97619048 9.14285714,2.38095238 9.14285714,2.85714286 Z" id="Shape"></path>
                        </g>
                    </g>
                </g>
                <g id="Group-6" transform="translate(255.000000, 0.000000)">
                    <path d="M147,16 L220,16 C222.761424,16 225,18.2385763 225,21 L225,51 C225,53.7614237 222.761424,56 220,56 L147,56 L147,56" id="Rectangle" stroke="#979797"></path>
                    <path id="Line" d="M236.5,32 L245.5,36.5 L236.5,41 L236.5,37 L224.5,37 L224.5,36 L236.5,36 L236.5,32 Z" fill="#979797" fill-rule="nonzero"></path>
                    <g id="Group-10-Copy-2" transform="translate(10.000000, 0.000000)">
                        <g id="task-success--default-copy" transform="translate(25.000000, 0.000000)">
                            <rect id="Rectangle-Copy-11" stroke="#D2D2D2" fill="#FFFFFF" x="0.5" y="0.5" width="179" height="31" rx="15.5"></rect>
                            <text id="Enterprise-Ccontract" font-family="RedHatText-Regular, Red Hat Text" font-size="14" font-weight="normal" fill="#030303">
                                <tspan x="11.103" y="21">Enterprise Ccontract test</tspan>
                            </text>
                        </g>
                        <g id="Group-3-Copy-2">
                            <g id="zoom-status--success-copy-3" fill="#FFFFFF" stroke="#D2D2D2">
                                <circle id="Oval" cx="16" cy="16" r="15.5"></circle>
                            </g>
                            <g id="" transform="translate(11.000000, 9.428571)" fill="#6A6E73" fill-rule="nonzero">
                                <path d="M2.32142857,12.6071429 C2.48809524,12.4404762 2.57142857,12.2380952 2.57142857,12 C2.57142857,11.7619048 2.48809524,11.5595238 2.32142857,11.3928571 C2.1547619,11.2261905 1.95238095,11.1428571 1.71428571,11.1428571 C1.47619048,11.1428571 1.27380952,11.2261905 1.10714286,11.3928571 C0.94047619,11.5595238 0.857142857,11.7619048 0.857142857,12 C0.857142857,12.2380952 0.94047619,12.4404762 1.10714286,12.6071429 C1.27380952,12.7738095 1.47619048,12.8571429 1.71428571,12.8571429 C1.95238095,12.8571429 2.1547619,12.7738095 2.32142857,12.6071429 Z M2.32142857,2.32142857 C2.48809524,2.1547619 2.57142857,1.95238095 2.57142857,1.71428571 C2.57142857,1.47619048 2.48809524,1.27380952 2.32142857,1.10714286 C2.1547619,0.94047619 1.95238095,0.857142857 1.71428571,0.857142857 C1.47619048,0.857142857 1.27380952,0.94047619 1.10714286,1.10714286 C0.94047619,1.27380952 0.857142857,1.47619048 0.857142857,1.71428571 C0.857142857,1.95238095 0.94047619,2.1547619 1.10714286,2.32142857 C1.27380952,2.48809524 1.47619048,2.57142857 1.71428571,2.57142857 C1.95238095,2.57142857 2.1547619,2.48809524 2.32142857,2.32142857 Z M8.03571429,3.46428571 C8.20238095,3.29761905 8.28571429,3.0952381 8.28571429,2.85714286 C8.28571429,2.61904762 8.20238095,2.41666667 8.03571429,2.25 C7.86904762,2.08333333 7.66666667,2 7.42857143,2 C7.19047619,2 6.98809524,2.08333333 6.82142857,2.25 C6.6547619,2.41666667 6.57142857,2.61904762 6.57142857,2.85714286 C6.57142857,3.0952381 6.6547619,3.29761905 6.82142857,3.46428571 C6.98809524,3.63095238 7.19047619,3.71428571 7.42857143,3.71428571 C7.66666667,3.71428571 7.86904762,3.63095238 8.03571429,3.46428571 Z M9.14285714,2.85714286 C9.14285714,3.16666667 9.06547619,3.45386905 8.91071429,3.71875 C8.75595238,3.98363095 8.54761905,4.19047619 8.28571429,4.33928571 C8.27380952,6.04761905 7.60119048,7.2797619 6.26785714,8.03571429 C5.86904762,8.26190476 5.26488095,8.50297619 4.45535714,8.75892857 C3.69345238,8.99702381 3.1889881,9.20833333 2.94196429,9.39285714 C2.69494048,9.57738095 2.57142857,9.875 2.57142857,10.2857143 L2.57142857,10.5178571 C2.83333333,10.6666667 3.04166667,10.8735119 3.19642857,11.1383929 C3.35119048,11.4032738 3.42857143,11.6904762 3.42857143,12 C3.42857143,12.4761905 3.26190476,12.8809524 2.92857143,13.2142857 C2.5952381,13.547619 2.19047619,13.7142857 1.71428571,13.7142857 C1.23809524,13.7142857 0.833333333,13.547619 0.5,13.2142857 C0.166666667,12.8809524 0,12.4761905 0,12 C0,11.6904762 0.0773809524,11.4032738 0.232142857,11.1383929 C0.386904762,10.8735119 0.595238095,10.6666667 0.857142857,10.5178571 L0.857142857,3.19642857 C0.595238095,3.04761905 0.386904762,2.84077381 0.232142857,2.57589286 C0.0773809524,2.3110119 0,2.02380952 0,1.71428571 C0,1.23809524 0.166666667,0.833333333 0.5,0.5 C0.833333333,0.166666667 1.23809524,0 1.71428571,0 C2.19047619,0 2.5952381,0.166666667 2.92857143,0.5 C3.26190476,0.833333333 3.42857143,1.23809524 3.42857143,1.71428571 C3.42857143,2.02380952 3.35119048,2.3110119 3.19642857,2.57589286 C3.04166667,2.84077381 2.83333333,3.04761905 2.57142857,3.19642857 L2.57142857,7.63392857 C2.89285714,7.47916667 3.35119048,7.30952381 3.94642857,7.125 C4.27380952,7.02380952 4.53422619,6.9360119 4.72767857,6.86160714 C4.92113095,6.78720238 5.13095238,6.69494048 5.35714286,6.58482143 C5.58333333,6.47470238 5.75892857,6.35714286 5.88392857,6.23214286 C6.00892857,6.10714286 6.12946429,5.95535714 6.24553571,5.77678571 C6.36160714,5.59821429 6.44494048,5.39136905 6.49553571,5.15625 C6.54613095,4.92113095 6.57142857,4.64880952 6.57142857,4.33928571 C6.30952381,4.19047619 6.10119048,3.98363095 5.94642857,3.71875 C5.79166667,3.45386905 5.71428571,3.16666667 5.71428571,2.85714286 C5.71428571,2.38095238 5.88095238,1.97619048 6.21428571,1.64285714 C6.54761905,1.30952381 6.95238095,1.14285714 7.42857143,1.14285714 C7.9047619,1.14285714 8.30952381,1.30952381 8.64285714,1.64285714 C8.97619048,1.97619048 9.14285714,2.38095238 9.14285714,2.85714286 Z" id="Shape"></path>
                            </g>
                        </g>
                    </g>
                    <path d="M0,16 L5,16 C7.76142375,16 10,18.2385763 10,21 L10,51 C10,53.7614237 7.76142375,56 5,56 L0,56 L0,56" id="Rectangle" stroke="#979797" transform="translate(5.000000, 36.000000) scale(-1, 1) translate(-5.000000, -36.000000) "></path>
                    <g id="Group-10-Copy-9" transform="translate(10.000000, 40.000000)">
                        <g id="task-success--default-copy" transform="translate(25.000000, 0.000000)">
                            <rect id="Rectangle-Copy-11" stroke="#D2D2D2" fill="#FFFFFF" x="0.5" y="0.5" width="124" height="31" rx="15.5"></rect>
                            <text id="Integration-test" font-family="RedHatText-Regular, Red Hat Text" font-size="14" font-weight="normal" fill="#030303">
                                <tspan x="15.043" y="21">Integration test</tspan>
                            </text>
                        </g>
                        <g id="Group-3-Copy-2">
                            <g id="zoom-status--success-copy-3" fill="#FFFFFF" stroke="#D2D2D2">
                                <rect id="Rectangle-Copy-11" x="0.5" y="0.5" width="31" height="31" rx="15.5"></rect>
                            </g>
                            <g id="" transform="translate(11.000000, 9.428571)" fill="#6A6E73" fill-rule="nonzero">
                                <path d="M2.32142857,12.6071429 C2.48809524,12.4404762 2.57142857,12.2380952 2.57142857,12 C2.57142857,11.7619048 2.48809524,11.5595238 2.32142857,11.3928571 C2.1547619,11.2261905 1.95238095,11.1428571 1.71428571,11.1428571 C1.47619048,11.1428571 1.27380952,11.2261905 1.10714286,11.3928571 C0.94047619,11.5595238 0.857142857,11.7619048 0.857142857,12 C0.857142857,12.2380952 0.94047619,12.4404762 1.10714286,12.6071429 C1.27380952,12.7738095 1.47619048,12.8571429 1.71428571,12.8571429 C1.95238095,12.8571429 2.1547619,12.7738095 2.32142857,12.6071429 Z M2.32142857,2.32142857 C2.48809524,2.1547619 2.57142857,1.95238095 2.57142857,1.71428571 C2.57142857,1.47619048 2.48809524,1.27380952 2.32142857,1.10714286 C2.1547619,0.94047619 1.95238095,0.857142857 1.71428571,0.857142857 C1.47619048,0.857142857 1.27380952,0.94047619 1.10714286,1.10714286 C0.94047619,1.27380952 0.857142857,1.47619048 0.857142857,1.71428571 C0.857142857,1.95238095 0.94047619,2.1547619 1.10714286,2.32142857 C1.27380952,2.48809524 1.47619048,2.57142857 1.71428571,2.57142857 C1.95238095,2.57142857 2.1547619,2.48809524 2.32142857,2.32142857 Z M8.03571429,3.46428571 C8.20238095,3.29761905 8.28571429,3.0952381 8.28571429,2.85714286 C8.28571429,2.61904762 8.20238095,2.41666667 8.03571429,2.25 C7.86904762,2.08333333 7.66666667,2 7.42857143,2 C7.19047619,2 6.98809524,2.08333333 6.82142857,2.25 C6.6547619,2.41666667 6.57142857,2.61904762 6.57142857,2.85714286 C6.57142857,3.0952381 6.6547619,3.29761905 6.82142857,3.46428571 C6.98809524,3.63095238 7.19047619,3.71428571 7.42857143,3.71428571 C7.66666667,3.71428571 7.86904762,3.63095238 8.03571429,3.46428571 Z M9.14285714,2.85714286 C9.14285714,3.16666667 9.06547619,3.45386905 8.91071429,3.71875 C8.75595238,3.98363095 8.54761905,4.19047619 8.28571429,4.33928571 C8.27380952,6.04761905 7.60119048,7.2797619 6.26785714,8.03571429 C5.86904762,8.26190476 5.26488095,8.50297619 4.45535714,8.75892857 C3.69345238,8.99702381 3.1889881,9.20833333 2.94196429,9.39285714 C2.69494048,9.57738095 2.57142857,9.875 2.57142857,10.2857143 L2.57142857,10.5178571 C2.83333333,10.6666667 3.04166667,10.8735119 3.19642857,11.1383929 C3.35119048,11.4032738 3.42857143,11.6904762 3.42857143,12 C3.42857143,12.4761905 3.26190476,12.8809524 2.92857143,13.2142857 C2.5952381,13.547619 2.19047619,13.7142857 1.71428571,13.7142857 C1.23809524,13.7142857 0.833333333,13.547619 0.5,13.2142857 C0.166666667,12.8809524 0,12.4761905 0,12 C0,11.6904762 0.0773809524,11.4032738 0.232142857,11.1383929 C0.386904762,10.8735119 0.595238095,10.6666667 0.857142857,10.5178571 L0.857142857,3.19642857 C0.595238095,3.04761905 0.386904762,2.84077381 0.232142857,2.57589286 C0.0773809524,2.3110119 0,2.02380952 0,1.71428571 C0,1.23809524 0.166666667,0.833333333 0.5,0.5 C0.833333333,0.166666667 1.23809524,0 1.71428571,0 C2.19047619,0 2.5952381,0.166666667 2.92857143,0.5 C3.26190476,0.833333333 3.42857143,1.23809524 3.42857143,1.71428571 C3.42857143,2.02380952 3.35119048,2.3110119 3.19642857,2.57589286 C3.04166667,2.84077381 2.83333333,3.04761905 2.57142857,3.19642857 L2.57142857,7.63392857 C2.89285714,7.47916667 3.35119048,7.30952381 3.94642857,7.125 C4.27380952,7.02380952 4.53422619,6.9360119 4.72767857,6.86160714 C4.92113095,6.78720238 5.13095238,6.69494048 5.35714286,6.58482143 C5.58333333,6.47470238 5.75892857,6.35714286 5.88392857,6.23214286 C6.00892857,6.10714286 6.12946429,5.95535714 6.24553571,5.77678571 C6.36160714,5.59821429 6.44494048,5.39136905 6.49553571,5.15625 C6.54613095,4.92113095 6.57142857,4.64880952 6.57142857,4.33928571 C6.30952381,4.19047619 6.10119048,3.98363095 5.94642857,3.71875 C5.79166667,3.45386905 5.71428571,3.16666667 5.71428571,2.85714286 C5.71428571,2.38095238 5.88095238,1.97619048 6.21428571,1.64285714 C6.54761905,1.30952381 6.95238095,1.14285714 7.42857143,1.14285714 C7.9047619,1.14285714 8.30952381,1.30952381 8.64285714,1.64285714 C8.97619048,1.97619048 9.14285714,2.38095238 9.14285714,2.85714286 Z" id="Shape"></path>
                            </g>
                        </g>
                    </g>
                </g>
                <g id="Group-10-Copy-6" transform="translate(500.000000, 20.000000)">
                    <g id="task-success--default-copy" transform="translate(25.000000, 0.000000)">
                        <rect id="Rectangle-Copy-11" stroke="#D2D2D2" fill="#FFFFFF" x="0.5" y="0.5" width="124" height="31" rx="15.5"></rect>
                        <text id="Integration-test" font-family="RedHatText-Regular, Red Hat Text" font-size="14" font-weight="normal" fill="#030303">
                            <tspan x="15.043" y="21">Integration test</tspan>
                        </text>
                    </g>
                    <path id="Line" d="M161.5,12 L170.5,16.5 L161.5,21 L161.5,17 L149.5,17 L149.5,16 L161.5,16 L161.5,12 Z" fill="#979797" fill-rule="nonzero"></path>
                    <g id="Group-3-Copy-2">
                        <g id="zoom-status--success-copy-3" fill="#FFFFFF" stroke="#D2D2D2">
                            <rect id="Rectangle-Copy-11" x="0.5" y="0.5" width="31" height="31" rx="15.5"></rect>
                        </g>
                        <g id="" transform="translate(11.000000, 9.428571)" fill="#6A6E73" fill-rule="nonzero">
                            <path d="M2.32142857,12.6071429 C2.48809524,12.4404762 2.57142857,12.2380952 2.57142857,12 C2.57142857,11.7619048 2.48809524,11.5595238 2.32142857,11.3928571 C2.1547619,11.2261905 1.95238095,11.1428571 1.71428571,11.1428571 C1.47619048,11.1428571 1.27380952,11.2261905 1.10714286,11.3928571 C0.94047619,11.5595238 0.857142857,11.7619048 0.857142857,12 C0.857142857,12.2380952 0.94047619,12.4404762 1.10714286,12.6071429 C1.27380952,12.7738095 1.47619048,12.8571429 1.71428571,12.8571429 C1.95238095,12.8571429 2.1547619,12.7738095 2.32142857,12.6071429 Z M2.32142857,2.32142857 C2.48809524,2.1547619 2.57142857,1.95238095 2.57142857,1.71428571 C2.57142857,1.47619048 2.48809524,1.27380952 2.32142857,1.10714286 C2.1547619,0.94047619 1.95238095,0.857142857 1.71428571,0.857142857 C1.47619048,0.857142857 1.27380952,0.94047619 1.10714286,1.10714286 C0.94047619,1.27380952 0.857142857,1.47619048 0.857142857,1.71428571 C0.857142857,1.95238095 0.94047619,2.1547619 1.10714286,2.32142857 C1.27380952,2.48809524 1.47619048,2.57142857 1.71428571,2.57142857 C1.95238095,2.57142857 2.1547619,2.48809524 2.32142857,2.32142857 Z M8.03571429,3.46428571 C8.20238095,3.29761905 8.28571429,3.0952381 8.28571429,2.85714286 C8.28571429,2.61904762 8.20238095,2.41666667 8.03571429,2.25 C7.86904762,2.08333333 7.66666667,2 7.42857143,2 C7.19047619,2 6.98809524,2.08333333 6.82142857,2.25 C6.6547619,2.41666667 6.57142857,2.61904762 6.57142857,2.85714286 C6.57142857,3.0952381 6.6547619,3.29761905 6.82142857,3.46428571 C6.98809524,3.63095238 7.19047619,3.71428571 7.42857143,3.71428571 C7.66666667,3.71428571 7.86904762,3.63095238 8.03571429,3.46428571 Z M9.14285714,2.85714286 C9.14285714,3.16666667 9.06547619,3.45386905 8.91071429,3.71875 C8.75595238,3.98363095 8.54761905,4.19047619 8.28571429,4.33928571 C8.27380952,6.04761905 7.60119048,7.2797619 6.26785714,8.03571429 C5.86904762,8.26190476 5.26488095,8.50297619 4.45535714,8.75892857 C3.69345238,8.99702381 3.1889881,9.20833333 2.94196429,9.39285714 C2.69494048,9.57738095 2.57142857,9.875 2.57142857,10.2857143 L2.57142857,10.5178571 C2.83333333,10.6666667 3.04166667,10.8735119 3.19642857,11.1383929 C3.35119048,11.4032738 3.42857143,11.6904762 3.42857143,12 C3.42857143,12.4761905 3.26190476,12.8809524 2.92857143,13.2142857 C2.5952381,13.547619 2.19047619,13.7142857 1.71428571,13.7142857 C1.23809524,13.7142857 0.833333333,13.547619 0.5,13.2142857 C0.166666667,12.8809524 0,12.4761905 0,12 C0,11.6904762 0.0773809524,11.4032738 0.232142857,11.1383929 C0.386904762,10.8735119 0.595238095,10.6666667 0.857142857,10.5178571 L0.857142857,3.19642857 C0.595238095,3.04761905 0.386904762,2.84077381 0.232142857,2.57589286 C0.0773809524,2.3110119 0,2.02380952 0,1.71428571 C0,1.23809524 0.166666667,0.833333333 0.5,0.5 C0.833333333,0.166666667 1.23809524,0 1.71428571,0 C2.19047619,0 2.5952381,0.166666667 2.92857143,0.5 C3.26190476,0.833333333 3.42857143,1.23809524 3.42857143,1.71428571 C3.42857143,2.02380952 3.35119048,2.3110119 3.19642857,2.57589286 C3.04166667,2.84077381 2.83333333,3.04761905 2.57142857,3.19642857 L2.57142857,7.63392857 C2.89285714,7.47916667 3.35119048,7.30952381 3.94642857,7.125 C4.27380952,7.02380952 4.53422619,6.9360119 4.72767857,6.86160714 C4.92113095,6.78720238 5.13095238,6.69494048 5.35714286,6.58482143 C5.58333333,6.47470238 5.75892857,6.35714286 5.88392857,6.23214286 C6.00892857,6.10714286 6.12946429,5.95535714 6.24553571,5.77678571 C6.36160714,5.59821429 6.44494048,5.39136905 6.49553571,5.15625 C6.54613095,4.92113095 6.57142857,4.64880952 6.57142857,4.33928571 C6.30952381,4.19047619 6.10119048,3.98363095 5.94642857,3.71875 C5.79166667,3.45386905 5.71428571,3.16666667 5.71428571,2.85714286 C5.71428571,2.38095238 5.88095238,1.97619048 6.21428571,1.64285714 C6.54761905,1.30952381 6.95238095,1.14285714 7.42857143,1.14285714 C7.9047619,1.14285714 8.30952381,1.30952381 8.64285714,1.64285714 C8.97619048,1.97619048 9.14285714,2.38095238 9.14285714,2.85714286 Z" id="Shape"></path>
                        </g>
                    </g>
                </g>
                <g id="Group-10-Copy-8" transform="translate(825.000000, 20.000000)">
                    <g id="task-success--default-copy" transform="translate(25.000000, 0.000000)">
                        <rect id="Rectangle-Copy-11" stroke="#D2D2D2" fill="#FFFFFF" x="0.5" y="0.5" width="84" height="31" rx="15.5"></rect>
                        <text id="Release" font-family="RedHatText-Regular, Red Hat Text" font-size="14" font-weight="normal" fill="#030303">
                            <tspan x="18.563" y="21">Release</tspan>
                        </text>
                    </g>
                    <path id="Line" d="M121.5,12 L130.5,16.5 L121.5,21 L121.5,17 L109.5,17 L109.5,16 L121.5,16 L121.5,12 Z" fill="#979797" fill-rule="nonzero"></path>
                    <g id="Group-3-Copy-2">
                        <g id="zoom-status--success-copy-3" fill="#FFFFFF" stroke="#D2D2D2">
                            <rect id="Rectangle-Copy-11" x="0.5" y="0.5" width="31" height="31" rx="15.5"></rect>
                        </g>
                        <g id="" transform="translate(11.000000, 9.428571)" fill="#6A6E73" fill-rule="nonzero">
                            <path d="M2.32142857,12.6071429 C2.48809524,12.4404762 2.57142857,12.2380952 2.57142857,12 C2.57142857,11.7619048 2.48809524,11.5595238 2.32142857,11.3928571 C2.1547619,11.2261905 1.95238095,11.1428571 1.71428571,11.1428571 C1.47619048,11.1428571 1.27380952,11.2261905 1.10714286,11.3928571 C0.94047619,11.5595238 0.857142857,11.7619048 0.857142857,12 C0.857142857,12.2380952 0.94047619,12.4404762 1.10714286,12.6071429 C1.27380952,12.7738095 1.47619048,12.8571429 1.71428571,12.8571429 C1.95238095,12.8571429 2.1547619,12.7738095 2.32142857,12.6071429 Z M2.32142857,2.32142857 C2.48809524,2.1547619 2.57142857,1.95238095 2.57142857,1.71428571 C2.57142857,1.47619048 2.48809524,1.27380952 2.32142857,1.10714286 C2.1547619,0.94047619 1.95238095,0.857142857 1.71428571,0.857142857 C1.47619048,0.857142857 1.27380952,0.94047619 1.10714286,1.10714286 C0.94047619,1.27380952 0.857142857,1.47619048 0.857142857,1.71428571 C0.857142857,1.95238095 0.94047619,2.1547619 1.10714286,2.32142857 C1.27380952,2.48809524 1.47619048,2.57142857 1.71428571,2.57142857 C1.95238095,2.57142857 2.1547619,2.48809524 2.32142857,2.32142857 Z M8.03571429,3.46428571 C8.20238095,3.29761905 8.28571429,3.0952381 8.28571429,2.85714286 C8.28571429,2.61904762 8.20238095,2.41666667 8.03571429,2.25 C7.86904762,2.08333333 7.66666667,2 7.42857143,2 C7.19047619,2 6.98809524,2.08333333 6.82142857,2.25 C6.6547619,2.41666667 6.57142857,2.61904762 6.57142857,2.85714286 C6.57142857,3.0952381 6.6547619,3.29761905 6.82142857,3.46428571 C6.98809524,3.63095238 7.19047619,3.71428571 7.42857143,3.71428571 C7.66666667,3.71428571 7.86904762,3.63095238 8.03571429,3.46428571 Z M9.14285714,2.85714286 C9.14285714,3.16666667 9.06547619,3.45386905 8.91071429,3.71875 C8.75595238,3.98363095 8.54761905,4.19047619 8.28571429,4.33928571 C8.27380952,6.04761905 7.60119048,7.2797619 6.26785714,8.03571429 C5.86904762,8.26190476 5.26488095,8.50297619 4.45535714,8.75892857 C3.69345238,8.99702381 3.1889881,9.20833333 2.94196429,9.39285714 C2.69494048,9.57738095 2.57142857,9.875 2.57142857,10.2857143 L2.57142857,10.5178571 C2.83333333,10.6666667 3.04166667,10.8735119 3.19642857,11.1383929 C3.35119048,11.4032738 3.42857143,11.6904762 3.42857143,12 C3.42857143,12.4761905 3.26190476,12.8809524 2.92857143,13.2142857 C2.5952381,13.547619 2.19047619,13.7142857 1.71428571,13.7142857 C1.23809524,13.7142857 0.833333333,13.547619 0.5,13.2142857 C0.166666667,12.8809524 0,12.4761905 0,12 C0,11.6904762 0.0773809524,11.4032738 0.232142857,11.1383929 C0.386904762,10.8735119 0.595238095,10.6666667 0.857142857,10.5178571 L0.857142857,3.19642857 C0.595238095,3.04761905 0.386904762,2.84077381 0.232142857,2.57589286 C0.0773809524,2.3110119 0,2.02380952 0,1.71428571 C0,1.23809524 0.166666667,0.833333333 0.5,0.5 C0.833333333,0.166666667 1.23809524,0 1.71428571,0 C2.19047619,0 2.5952381,0.166666667 2.92857143,0.5 C3.26190476,0.833333333 3.42857143,1.23809524 3.42857143,1.71428571 C3.42857143,2.02380952 3.35119048,2.3110119 3.19642857,2.57589286 C3.04166667,2.84077381 2.83333333,3.04761905 2.57142857,3.19642857 L2.57142857,7.63392857 C2.89285714,7.47916667 3.35119048,7.30952381 3.94642857,7.125 C4.27380952,7.02380952 4.53422619,6.9360119 4.72767857,6.86160714 C4.92113095,6.78720238 5.13095238,6.69494048 5.35714286,6.58482143 C5.58333333,6.47470238 5.75892857,6.35714286 5.88392857,6.23214286 C6.00892857,6.10714286 6.12946429,5.95535714 6.24553571,5.77678571 C6.36160714,5.59821429 6.44494048,5.39136905 6.49553571,5.15625 C6.54613095,4.92113095 6.57142857,4.64880952 6.57142857,4.33928571 C6.30952381,4.19047619 6.10119048,3.98363095 5.94642857,3.71875 C5.79166667,3.45386905 5.71428571,3.16666667 5.71428571,2.85714286 C5.71428571,2.38095238 5.88095238,1.97619048 6.21428571,1.64285714 C6.54761905,1.30952381 6.95238095,1.14285714 7.42857143,1.14285714 C7.9047619,1.14285714 8.30952381,1.30952381 8.64285714,1.64285714 C8.97619048,1.97619048 9.14285714,2.38095238 9.14285714,2.85714286 Z" id="Shape"></path>
                        </g>
                    </g>
                </g>
                <g id="Group-10-Copy-6" transform="translate(670.000000, 20.000000)">
                    <g id="task-success--default-copy" transform="translate(25.000000, 0.000000)">
                        <rect id="Rectangle-Copy-11" stroke="#D2D2D2" fill="#FFFFFF" x="0.5" y="0.5" width="109" height="31" rx="15.5"></rect>
                        <text id="Development" font-family="RedHatText-Regular, Red Hat Text" font-size="14" font-weight="normal" fill="#030303">
                            <tspan x="13.381" y="21">Development</tspan>
                        </text>
                    </g>
                    <path id="Line" d="M146.5,12 L155.5,16.5 L146.5,21 L146.5,17 L134.5,17 L134.5,16 L146.5,16 L146.5,12 Z" fill="#979797" fill-rule="nonzero"></path>
                    <g id="Group-3-Copy-2">
                        <g id="zoom-status--success-copy-3" fill="#FFFFFF" stroke="#D2D2D2">
                            <rect id="Rectangle-Copy-11" x="0.5" y="0.5" width="31" height="31" rx="15.5"></rect>
                        </g>
                        <g id="" transform="translate(9.000000, 9.428571)" fill="#6A6E73" fill-rule="nonzero">
                            <path d="M11.3035714,7.26785714 C11.4107143,7.16071429 11.4642857,7.02678571 11.4642857,6.86607143 C11.4642857,6.70535714 11.4107143,6.57142857 11.3035714,6.46428571 L10.4910714,5.65178571 C10.3839286,5.54464286 10.25,5.49107143 10.0892857,5.49107143 C9.92857143,5.49107143 9.79464286,5.54464286 9.6875,5.65178571 L8,7.33928571 L8,2.85714286 C8,2.70238095 7.94345238,2.56845238 7.83035714,2.45535714 C7.7172619,2.3422619 7.58333333,2.28571429 7.42857143,2.28571429 L6.28571429,2.28571429 C6.13095238,2.28571429 5.99702381,2.3422619 5.88392857,2.45535714 C5.77083333,2.56845238 5.71428571,2.70238095 5.71428571,2.85714286 L5.71428571,7.33928571 L4.02678571,5.65178571 C3.91369048,5.53869048 3.7797619,5.48214286 3.625,5.48214286 C3.4702381,5.48214286 3.33630952,5.53869048 3.22321429,5.65178571 L2.41071429,6.46428571 C2.30357143,6.57142857 2.25,6.70535714 2.25,6.86607143 C2.25,7.02678571 2.30357143,7.16071429 2.41071429,7.26785714 L5.64285714,10.5 L6.45535714,11.3125 C6.5625,11.4196429 6.69642857,11.4732143 6.85714286,11.4732143 C7.01785714,11.4732143 7.15178571,11.4196429 7.25892857,11.3125 L8.07142857,10.5 L11.3035714,7.26785714 Z M12.7946429,3.41964286 C13.4077381,4.4672619 13.7142857,5.61309524 13.7142857,6.85714286 C13.7142857,8.10119048 13.4077381,9.2485119 12.7946429,10.2991071 C12.1815476,11.3497024 11.3497024,12.1815476 10.2991071,12.7946429 C9.2485119,13.4077381 8.10119048,13.7142857 6.85714286,13.7142857 C5.61309524,13.7142857 4.46577381,13.4077381 3.41517857,12.7946429 C2.36458333,12.1815476 1.5327381,11.3497024 0.919642857,10.2991071 C0.306547619,9.2485119 0,8.10119048 0,6.85714286 C0,5.61309524 0.306547619,4.46577381 0.919642857,3.41517857 C1.5327381,2.36458333 2.36458333,1.5327381 3.41517857,0.919642857 C4.46577381,0.306547619 5.61309524,0 6.85714286,0 C8.10119048,0 9.2485119,0.306547619 10.2991071,0.919642857 C11.3497024,1.5327381 12.1815476,2.36607143 12.7946429,3.41964286 Z" id="Shape"></path>
                        </g>
                    </g>
                </g>
                <g id="Group-10-Copy-7" transform="translate(955.000000, 20.000000)">
                    <g id="task-success--default-copy" transform="translate(25.000000, 0.000000)">
                        <rect id="Rectangle-Copy-11" stroke="#D2D2D2" fill="#FFFFFF" x="0.5" y="0.5" width="99" height="31" rx="15.5"></rect>
                        <text id="Production" font-family="RedHatText-Regular, Red Hat Text" font-size="14" font-weight="normal" fill="#030303">
                            <tspan x="15.392" y="21">Production</tspan>
                        </text>
                    </g>
                    <g id="Group-3-Copy-2">
                        <g id="zoom-status--success-copy-3" fill="#FFFFFF" stroke="#D2D2D2">
                            <rect id="Rectangle-Copy-11" x="0.5" y="0.5" width="31" height="31" rx="15.5"></rect>
                        </g>
                        <g id="" transform="translate(9.000000, 9.428571)" fill="#6A6E73" fill-rule="nonzero">
                            <path d="M11.3035714,7.26785714 C11.4107143,7.16071429 11.4642857,7.02678571 11.4642857,6.86607143 C11.4642857,6.70535714 11.4107143,6.57142857 11.3035714,6.46428571 L10.4910714,5.65178571 C10.3839286,5.54464286 10.25,5.49107143 10.0892857,5.49107143 C9.92857143,5.49107143 9.79464286,5.54464286 9.6875,5.65178571 L8,7.33928571 L8,2.85714286 C8,2.70238095 7.94345238,2.56845238 7.83035714,2.45535714 C7.7172619,2.3422619 7.58333333,2.28571429 7.42857143,2.28571429 L6.28571429,2.28571429 C6.13095238,2.28571429 5.99702381,2.3422619 5.88392857,2.45535714 C5.77083333,2.56845238 5.71428571,2.70238095 5.71428571,2.85714286 L5.71428571,7.33928571 L4.02678571,5.65178571 C3.91369048,5.53869048 3.7797619,5.48214286 3.625,5.48214286 C3.4702381,5.48214286 3.33630952,5.53869048 3.22321429,5.65178571 L2.41071429,6.46428571 C2.30357143,6.57142857 2.25,6.70535714 2.25,6.86607143 C2.25,7.02678571 2.30357143,7.16071429 2.41071429,7.26785714 L5.64285714,10.5 L6.45535714,11.3125 C6.5625,11.4196429 6.69642857,11.4732143 6.85714286,11.4732143 C7.01785714,11.4732143 7.15178571,11.4196429 7.25892857,11.3125 L8.07142857,10.5 L11.3035714,7.26785714 Z M12.7946429,3.41964286 C13.4077381,4.4672619 13.7142857,5.61309524 13.7142857,6.85714286 C13.7142857,8.10119048 13.4077381,9.2485119 12.7946429,10.2991071 C12.1815476,11.3497024 11.3497024,12.1815476 10.2991071,12.7946429 C9.2485119,13.4077381 8.10119048,13.7142857 6.85714286,13.7142857 C5.61309524,13.7142857 4.46577381,13.4077381 3.41517857,12.7946429 C2.36458333,12.1815476 1.5327381,11.3497024 0.919642857,10.2991071 C0.306547619,9.2485119 0,8.10119048 0,6.85714286 C0,5.61309524 0.306547619,4.46577381 0.919642857,3.41517857 C1.5327381,2.36458333 2.36458333,1.5327381 3.41517857,0.919642857 C4.46577381,0.306547619 5.61309524,0 6.85714286,0 C8.10119048,0 9.2485119,0.306547619 10.2991071,0.919642857 C11.3497024,1.5327381 12.1815476,2.36607143 12.7946429,3.41964286 Z" id="Shape"></path>
                        </g>
                    </g>
                </g>
            </g>
            <g id="pop-copy-3" transform="translate(2.000000, 132.000000)">
                <g id="Background">
                    <use fill="black" fill-opacity="1" filter="url(#filter-2)" xlink:href="#path-1"></use>
                    <use fill="#151515" fill-rule="evenodd" xlink:href="#path-1"></use>
                </g>
                <text id="✏️-Title" font-family="RedHatText-Regular, Red Hat Text" font-size="14" font-weight="normal" line-spacing="24" fill="#FFFFFF">
                    <tspan x="15.548" y="46">Source code</tspan>
                </text>
            </g>
            <g id="pop-copy-4" transform="translate(509.000000, 132.000000)">
                <g id="Background">
                    <use fill="black" fill-opacity="1" filter="url(#filter-4)" xlink:href="#path-3"></use>
                    <use fill="#151515" fill-rule="evenodd" xlink:href="#path-3"></use>
                </g>
                <text id="✏️-Title" font-family="RedHatText-Regular, Red Hat Text" font-size="14" font-weight="normal" line-spacing="24" fill="#FFFFFF">
                    <tspan x="25.496" y="46">Pipeline</tspan>
                </text>
            </g>
            <g id="pop-copy-5" transform="translate(670.000000, 132.000000)">
                <g id="Background">
                    <use fill="black" fill-opacity="1" filter="url(#filter-6)" xlink:href="#path-5"></use>
                    <use fill="#151515" fill-rule="evenodd" xlink:href="#path-5"></use>
                </g>
                <text id="✏️-Title" font-family="RedHatText-Regular, Red Hat Text" font-size="14" font-weight="normal" line-spacing="24" fill="#FFFFFF">
                    <tspan x="20.016" y="46">Environment</tspan>
                </text>
            </g>
        </g>
    </g>
</svg>