<?xml version="1.0" encoding="UTF-8"?><svg version="1.1" width="750px" height="150px" viewBox="0 0 750.0 150.0" xmlns="http://www.w3.org/2000/svg" xmlns:xlink="http://www.w3.org/1999/xlink"><defs><clipPath id="i0"><path d="M750,0 L750,150 L0,150 L0,0 L750,0 Z"></path></clipPath><clipPath id="i1"><path d="M740,0 C745.522847,-1.01453063e-15 750,4.4771525 750,10 L750,140 C750,145.522847 745.522847,150 740,150 L10,150 C4.4771525,150 -1.70872146e-14,145.522847 0,140 L0,10 C-6.76353751e-16,4.4771525 4.4771525,-7.61826213e-16 10,0 L740,0 Z"></path></clipPath><clipPath id="i2"><path d="M64,0 C72.836556,-1.623249e-15 80,7.163444 80,16 C80,24.836556 72.836556,32 64,32 L16,32 C7.163444,32 1.082166e-15,24.836556 0,16 C-1.082166e-15,7.163444 7.163444,1.623249e-15 16,0 L64,0 Z"></path></clipPath><clipPath id="i3"><path d="M16,0 C24.836556,0 32,7.163444 32,16 C32,24.836556 24.836556,32 16,32 C7.163444,32 0,24.836556 0,16 C0,7.163444 7.163444,0 16,0 Z"></path></clipPath><clipPath id="i4"><path d="M2,0 L2,6 L0,6 L0,0 L2,0 Z"></path></clipPath><clipPath id="i5"><path d="M74,0 C82.836556,-1.623249e-15 90,7.163444 90,16 C90,24.836556 82.836556,32 74,32 L16,32 C7.163444,32 4.63487968e-15,24.836556 0,16 C-1.082166e-15,7.163444 7.163444,1.623249e-15 16,0 L74,0 Z"></path></clipPath><filter id="i6" x="-20.5761317%" y="-50%" filterUnits="userSpaceOnUse" width="127.983539%" height="166.666667%"><feDropShadow stdDeviation="4" dx="0" dy="1" flood-color="rgba(0, 0, 0, 0.3)"></feDropShadow></filter><clipPath id="i7"><path d="M54,0 C62.836556,-1.623249e-15 70,7.163444 70,16 C70,24.836556 62.836556,32 54,32 L16,32 C7.163444,32 -2.47054768e-15,24.836556 0,16 C-1.082166e-15,7.163444 7.163444,1.623249e-15 16,0 L54,0 Z"></path></clipPath><clipPath id="i8"><path d="M16,9.14285714 L16,12.5714286 L0,12.5714286 L0,9.14285714 L16,9.14285714 Z M14.2857143,10 C14.047619,10 13.8452381,10.0833333 13.6785714,10.25 C13.5119048,10.4166667 13.4285714,10.6190476 13.4285714,10.8571429 C13.4285714,11.0952381 13.5119048,11.297619 13.6785714,11.4642857 C13.8452381,11.6309524 14.047619,11.7142857 14.2857143,11.7142857 C14.5238095,11.7142857 14.7261905,11.6309524 14.8928571,11.4642857 C15.0595238,11.297619 15.1428571,11.0952381 15.1428571,10.8571429 C15.1428571,10.6190476 15.0595238,10.4166667 14.8928571,10.25 C14.7261905,10.0833333 14.5238095,10 14.2857143,10 Z M10.2857143,10.2857143 L1.14285714,10.2857143 L1.14285714,11.4285714 L10.2857143,11.4285714 L10.2857143,10.2857143 Z M16,4.57142857 L16,8 L0,8 L0,4.57142857 L16,4.57142857 Z M14.2857143,5.42857143 C14.047619,5.42857143 13.8452381,5.51190476 13.6785714,5.67857143 C13.5119048,5.8452381 13.4285714,6.04761905 13.4285714,6.28571429 C13.4285714,6.52380952 13.5119048,6.72619048 13.6785714,6.89285714 C13.8452381,7.05952381 14.047619,7.14285714 14.2857143,7.14285714 C14.5238095,7.14285714 14.7261905,7.05952381 14.8928571,6.89285714 C15.0595238,6.72619048 15.1428571,6.52380952 15.1428571,6.28571429 C15.1428571,6.04761905 15.0595238,5.8452381 14.8928571,5.67857143 C14.7261905,5.51190476 14.5238095,5.42857143 14.2857143,5.42857143 Z M10.2857143,5.71428571 L1.14285714,5.71428571 L1.14285714,6.85714286 L10.2857143,6.85714286 L10.2857143,5.71428571 Z M16,0 L16,3.42857143 L0,3.42857143 L0,0 L16,0 Z M14.2857143,0.857142857 C14.047619,0.857142857 13.8452381,0.94047619 13.6785714,1.10714286 C13.5119048,1.27380952 13.4285714,1.47619048 13.4285714,1.71428571 C13.4285714,1.95238095 13.5119048,2.1547619 13.6785714,2.32142857 C13.8452381,2.48809524 14.047619,2.57142857 14.2857143,2.57142857 C14.5238095,2.57142857 14.7261905,2.48809524 14.8928571,2.32142857 C15.0595238,2.1547619 15.1428571,1.95238095 15.1428571,1.71428571 C15.1428571,1.47619048 15.0595238,1.27380952 14.8928571,1.10714286 C14.7261905,0.94047619 14.5238095,0.857142857 14.2857143,0.857142857 Z M10.2857143,1.14285714 L1.14285714,1.14285714 L1.14285714,2.28571429 L10.2857143,2.28571429 L10.2857143,1.14285714 Z"></path></clipPath><filter id="i9" x="-67.0866415%" y="-42.8571429%" filterUnits="userSpaceOnUse" width="195.838059%" height="171.428571%"><feGaussianBlur stdDeviation="2" in="SourceAlpha" result="i10"></feGaussianBlur><feOffset dx="0" dy="2" in="i10" result="i11"></feOffset><feColorMatrix values="0 0 0 0.0 0 0 0 0 0.0 0 0 0 0 0.0 0 0 0 0 0.5 0" type="matrix" in="i11"></feColorMatrix></filter><clipPath id="i12"><path d="M0.714285714,0 C0.915178571,0 1.08258929,0.0706845238 1.21651786,0.212053571 L12.6450893,11.640625 C12.875744,11.8638393 12.9278274,12.1205357 12.8013393,12.4107143 C12.6748512,12.7083333 12.4553571,12.8571429 12.1428571,12.8571429 L7.87946429,12.8571429 L10.1227679,18.1696429 C10.1971726,18.3556548 10.1971726,18.5379464 10.1227679,18.7165179 C10.0483631,18.8950893 9.921875,19.0252976 9.74330357,19.1071429 L7.76785714,19.9441964 C7.58184524,20.0186012 7.39955357,20.0186012 7.22098214,19.9441964 C7.04241071,19.8697917 6.91220238,19.7433036 6.83035714,19.5647321 L4.69866071,14.5200893 L1.21651786,18.0022321 C1.07514881,18.1436012 0.907738095,18.2142857 0.714285714,18.2142857 C0.625,18.2142857 0.535714286,18.1956845 0.446428571,18.1584821 C0.148809524,18.031994 0,17.8125 0,17.5 L0,0.714285714 C0,0.401785714 0.148809524,0.182291667 0.446428571,0.0558035714 C0.535714286,0.0186011905 0.625,0 0.714285714,0 Z"></path></clipPath><clipPath id="i13"><path d="M104,0 C112.836556,-1.623249e-15 120,7.163444 120,16 C120,24.836556 112.836556,32 104,32 L16,32 C7.163444,32 -2.47054768e-15,24.836556 0,16 C-1.082166e-15,7.163444 7.163444,1.623249e-15 16,0 L104,0 Z"></path></clipPath><clipPath id="i14"><path d="M7.64997566,0 C11.9843464,0 15.499963,3.29061105 15.499963,7.62498182 C15.499963,11.0906108 13.3812242,14.0562104 10.2562317,15.093714 C9.85935149,15.1655827 9.71561404,14.9187266 9.71561404,14.7156021 L9.71596341,14.5860861 C9.71707913,14.3064658 9.72061788,13.7249444 9.72291694,13.0950248 L9.72411831,12.7132933 L9.72498292,12.10309 C9.72498292,11.3687168 9.4812396,10.8999679 9.19373418,10.6531118 L9.48541292,10.6194223 C11.1394205,10.4209147 12.7812195,10.0480785 12.7812195,7.19999504 C12.7812195,6.34373488 12.4749764,5.91249201 11.9749776,5.35936222 C12.0562152,5.15623771 12.3218395,4.32185859 11.8937094,3.23748007 C11.2406043,3.03124277 9.73746458,4.08122806 9.73746458,4.08122806 C9.11246607,3.90624069 8.44059267,3.8156037 7.77497536,3.8156037 C7.10935805,3.8156037 6.43748465,3.90624069 5.81248614,4.08122806 C5.81248614,4.08122806 4.30937693,3.03435556 3.65624128,3.23748007 C3.2281112,4.31874581 3.49373557,5.15623771 3.57500368,5.35936222 C3.07500488,5.9093487 2.83748713,6.34062209 2.83748713,7.19999504 C2.83748713,10.2062135 4.59999514,10.4593562 6.34684766,10.6531118 C6.12187261,10.8593491 5.9187481,11.2062111 5.84684885,11.7062099 C5.39998102,11.9124777 4.25310265,12.2593397 3.56874759,11.0531048 C3.14061751,10.3093626 2.36248216,10.2468628 2.36248216,10.2468628 C1.59685899,10.2374634 2.31249449,10.7280933 2.31249449,10.7280933 C2.82500547,10.9624678 3.18123631,11.8718589 3.18123631,11.8718589 C3.64061632,13.2718495 5.8281111,12.8031006 5.8281111,12.8031006 L5.82863008,13.1058516 C5.83059672,13.7468494 5.83747998,14.5557776 5.83747998,14.7218277 C5.83747998,14.9249522 5.69685531,15.1718388 5.29686237,15.0999701 C2.1812387,14.0562104 0,11.0906108 0,7.62498182 C0,3.29061105 3.31560489,0 7.64997566,0 Z"></path></clipPath><filter id="i15" x="-21.9512195%" y="-25%" filterUnits="userSpaceOnUse" width="129.268293%" height="133.333333%"><feGaussianBlur stdDeviation="3" in="SourceAlpha" result="i16"></feGaussianBlur><feOffset dx="0" dy="0" in="i16" result="i17"></feOffset><feColorMatrix values="0 0 0 0.0 0 0 0 0 0.0 0 0 0 0 0.0 0 0 0 0 0.08 0" type="matrix" in="i17"></feColorMatrix></filter><filter id="i18" x="-54.9019608%" y="-52.173913%" filterUnits="userSpaceOnUse" width="178.431373%" height="186.956522%"><feGaussianBlur stdDeviation="8" in="SourceAlpha" result="i19"></feGaussianBlur><feOffset dx="0" dy="8" in="i19" result="i20"></feOffset><feColorMatrix values="0 0 0 0.0 0 0 0 0 0.0 0 0 0 0 0.0 0 0 0 0 0.16 0" type="matrix" in="i20"></feColorMatrix></filter><clipPath id="i21"><path d="M35,0 L43,8 L70,8 L70,60 L0,60 L0,8 L27,8 L35,0 Z"></path></clipPath><filter id="i22" x="-17.6470588%" y="-25%" filterUnits="userSpaceOnUse" width="123.529412%" height="133.333333%"><feGaussianBlur stdDeviation="3" in="SourceAlpha" result="i23"></feGaussianBlur><feOffset dx="0" dy="0" in="i23" result="i24"></feOffset><feColorMatrix values="0 0 0 0.0 0 0 0 0 0.0 0 0 0 0 0.0 0 0 0 0 0.08 0" type="matrix" in="i24"></feColorMatrix></filter><filter id="i25" x="-45.9016393%" y="-52.173913%" filterUnits="userSpaceOnUse" width="165.57377%" height="186.956522%"><feGaussianBlur stdDeviation="8" in="SourceAlpha" result="i26"></feGaussianBlur><feOffset dx="0" dy="8" in="i26" result="i27"></feOffset><feColorMatrix values="0 0 0 0.0 0 0 0 0 0.0 0 0 0 0 0.0 0 0 0 0 0.16 0" type="matrix" in="i27"></feColorMatrix></filter><clipPath id="i28"><path d="M45,0 L53,8 L90,8 L90,60 L0,60 L0,8 L37,8 L45,0 Z"></path></clipPath><filter id="i29" x="-13.8461538%" y="-25%" filterUnits="userSpaceOnUse" width="118.461538%" height="133.333333%"><feGaussianBlur stdDeviation="3" in="SourceAlpha" result="i30"></feGaussianBlur><feOffset dx="0" dy="0" in="i30" result="i31"></feOffset><feColorMatrix values="0 0 0 0.0 0 0 0 0 0.0 0 0 0 0 0.0 0 0 0 0 0.08 0" type="matrix" in="i31"></feColorMatrix></filter><filter id="i32" x="-37.3333333%" y="-52.173913%" filterUnits="userSpaceOnUse" width="153.333333%" height="186.956522%"><feGaussianBlur stdDeviation="8" in="SourceAlpha" result="i33"></feGaussianBlur><feOffset dx="0" dy="8" in="i33" result="i34"></feOffset><feColorMatrix values="0 0 0 0.0 0 0 0 0 0.0 0 0 0 0 0.0 0 0 0 0 0.16 0" type="matrix" in="i34"></feColorMatrix></filter><clipPath id="i35"><path d="M59,0 L67,8 L118,8 L118,60 L0,60 L0,8 L51,8 L59,0 Z"></path></clipPath></defs><rect x="0px" y="0px" width="750px" height="150px" fill="#FFFFFF"></rect><g clip-path="url(#i0)"><g clip-path="url(#i1)"><polygon points="0,0 750,0 750,150 0,150 0,0" stroke="none" fill="#F1F1F1"></polygon></g><g transform="translate(20.0 30.0)"><g transform="translate(155.0 0.0)"><g transform="translate(20.0 0.0)"><g clip-path="url(#i2)"><polygon points="0,0 80,0 80,32 0,32 0,0" stroke="none" fill="#FFFFFF"></polygon><path d="M16,0 L64,0 C72.836556,-1.623249e-15 80,7.163444 80,16 C80,24.836556 72.836556,32 64,32 L16,32 C7.163444,32 1.082166e-15,24.836556 0,16 C-1.082166e-15,7.163444 7.163444,1.623249e-15 16,0 Z" stroke="#D2D2D2" stroke-width="2" fill="none" stroke-miterlimit="5"></path></g><g transform="translate(0.0 6.0)"><text transform="translate(18.392 16.0)" font-family="RedHatText-Regular, Red Hat Text" font-size="16.0" font-weight="normal" fill="#151515" text-anchor="center">Builds</text></g></g><g clip-path="url(#i3)"><polygon points="0,0 32,0 32,32 0,32 0,0" stroke="none" fill="#FFFFFF"></polygon><path d="M16,32 C24.836556,32 32,24.836556 32,16 C32,7.163444 24.836556,0 16,0 C7.163444,0 0,7.163444 0,16 C0,24.836556 7.163444,32 16,32 Z" stroke="#D2D2D2" stroke-width="2" fill="none" stroke-miterlimit="5"></path></g><g transform="translate(8.0 9.0)"><g transform="translate(2.0 3.0)"><path d="M0,0 L4,0 C5.1045695,-2.02906125e-16 6,0.8954305 6,2 L6,4 L6,4" stroke="#696E73" stroke-width="3" fill="none" stroke-miterlimit="10"></path></g><g clip-path="url(#i4)"><polygon points="0,0 2,0 2,6 0,6 0,0 0,0" stroke="#696E73" stroke-width="2" fill="none" stroke-miterlimit="5"></polygon></g><g transform="translate(15.999999999997616 14.936781305317709) rotate(-180.0)"><g transform="translate(2.000000000002383 3.0)"><path d="M0,0 L4,0 C5.1045695,-2.02906125e-16 6,0.8954305 6,2 L6,4 L6,4" stroke="#696E73" stroke-width="3" fill="none" stroke-miterlimit="10"></path></g><g transform=""><g clip-path="url(#i4)"><polygon points="0,0 2,0 2,6 0,6 0,0 0,0" stroke="#696E73" stroke-width="2" fill="none" stroke-miterlimit="5"></polygon></g></g></g></g><g transform="translate(100.0 16.0)"><path d="M0,0.5 L15,0.5" stroke="#969696" stroke-width="1" fill="none" stroke-linecap="square" stroke-miterlimit="10"></path></g></g><g transform="translate(270.0 0.0)"><g transform="translate(20.0 0.0)"><g clip-path="url(#i2)"><polygon points="0,0 80,0 80,32 0,32 0,0" stroke="none" fill="#FFFFFF"></polygon><path d="M16,0 L64,0 C72.836556,-1.623249e-15 80,7.163444 80,16 C80,24.836556 72.836556,32 64,32 L16,32 C7.163444,32 1.082166e-15,24.836556 0,16 C-1.082166e-15,7.163444 7.163444,1.623249e-15 16,0 Z" stroke="#D2D2D2" stroke-width="2" fill="none" stroke-miterlimit="5"></path></g><g transform="translate(0.0 6.0)"><text transform="translate(20.352 16.0)" font-family="RedHatText-Regular, Red Hat Text" font-size="16.0" font-weight="normal" fill="#151515" text-anchor="center">Tests</text></g></g><g clip-path="url(#i3)"><polygon points="0,0 32,0 32,32 0,32 0,0" stroke="none" fill="#FFFFFF"></polygon><path d="M16,32 C24.836556,32 32,24.836556 32,16 C32,7.163444 24.836556,0 16,0 C7.163444,0 0,7.163444 0,16 C0,24.836556 7.163444,32 16,32 Z" stroke="#D2D2D2" stroke-width="2" fill="none" stroke-miterlimit="5"></path></g><g transform="translate(8.0 9.0)"><g transform="translate(2.0 3.0)"><path d="M0,0 L4,0 C5.1045695,-2.02906125e-16 6,0.8954305 6,2 L6,4 L6,4" stroke="#696E73" stroke-width="3" fill="none" stroke-miterlimit="10"></path></g><g clip-path="url(#i4)"><polygon points="0,0 2,0 2,6 0,6 0,0 0,0" stroke="#696E73" stroke-width="2" fill="none" stroke-miterlimit="5"></polygon></g><g transform="translate(15.999999999997616 14.936781305317709) rotate(-180.0)"><g transform="translate(2.000000000002383 3.0)"><path d="M0,0 L4,0 C5.1045695,-2.02906125e-16 6,0.8954305 6,2 L6,4 L6,4" stroke="#696E73" stroke-width="3" fill="none" stroke-miterlimit="10"></path></g><g transform=""><g clip-path="url(#i4)"><polygon points="0,0 2,0 2,6 0,6 0,0 0,0" stroke="#696E73" stroke-width="2" fill="none" stroke-miterlimit="5"></polygon></g></g></g></g><g transform="translate(100.0 16.0)"><path d="M0,0.5 L15,0.5" stroke="#969696" stroke-width="1" fill="none" stroke-linecap="square" stroke-miterlimit="10"></path></g></g><g transform="translate(490.0 0.0)"><g transform="translate(20.0 0.0)"><g clip-path="url(#i5)"><polygon points="0,0 90,0 90,32 0,32 0,0" stroke="none" fill="#FFFFFF"></polygon><path d="M16,0 L74,0 C82.836556,-1.623249e-15 90,7.163444 90,16 C90,24.836556 82.836556,32 74,32 L16,32 C7.163444,32 4.63487968e-15,24.836556 0,16 C-1.082166e-15,7.163444 7.163444,1.623249e-15 16,0 Z" stroke="#D2D2D2" stroke-width="2" fill="none" stroke-miterlimit="5"></path></g><g transform="translate(0.0 6.0)"><text transform="translate(16.848 16.0)" font-family="RedHatText-Regular, Red Hat Text" font-size="16.0" font-weight="normal" fill="#151515" text-anchor="center">Release</text></g></g><g clip-path="url(#i3)"><polygon points="0,0 32,0 32,32 0,32 0,0" stroke="none" fill="#FFFFFF"></polygon><path d="M16,32 C24.836556,32 32,24.836556 32,16 C32,7.163444 24.836556,0 16,0 C7.163444,0 0,7.163444 0,16 C0,24.836556 7.163444,32 16,32 Z" stroke="#D2D2D2" stroke-width="2" fill="none" stroke-miterlimit="5"></path></g><g transform="translate(8.0 9.0)"><g transform="translate(2.0 3.0)"><path d="M0,0 L4,0 C5.1045695,-2.02906125e-16 6,0.8954305 6,2 L6,4 L6,4" stroke="#696E73" stroke-width="3" fill="none" stroke-miterlimit="10"></path></g><g clip-path="url(#i4)"><polygon points="0,0 2,0 2,6 0,6 0,0 0,0" stroke="#696E73" stroke-width="2" fill="none" stroke-miterlimit="5"></polygon></g><g transform="translate(15.999999999997616 14.936781305317709) rotate(-180.0)"><g transform="translate(2.000000000002383 3.0)"><path d="M0,0 L4,0 C5.1045695,-2.02906125e-16 6,0.8954305 6,2 L6,4 L6,4" stroke="#696E73" stroke-width="3" fill="none" stroke-miterlimit="10"></path></g><g transform=""><g clip-path="url(#i4)"><polygon points="0,0 2,0 2,6 0,6 0,0 0,0" stroke="#696E73" stroke-width="2" fill="none" stroke-miterlimit="5"></polygon></g></g></g></g><g transform="translate(110.0 16.0)"><path d="M0,0.5 L15,0.5" stroke="#969696" stroke-width="1" fill="none" stroke-linecap="square" stroke-miterlimit="10"></path></g></g><g transform="translate(385.0 0.0)"><g filter="url(#i6)"><g transform="translate(90.0 16.0)"><path d="M0,0.5 L15,0.5" stroke="#969696" stroke-width="1" fill="none" stroke-linecap="square" stroke-miterlimit="10"></path></g><g transform="translate(20.0 0.0)"><g clip-path="url(#i7)"><polygon points="0,0 70,0 70,32 0,32 0,0" stroke="none" fill="#FFFFFF"></polygon></g><g clip-path="url(#i7)"><path d="M16,0 L54,0 C62.836556,-1.623249e-15 70,7.163444 70,16 C70,24.836556 62.836556,32 54,32 L16,32 C7.163444,32 -2.47054768e-15,24.836556 0,16 C-1.082166e-15,7.163444 7.163444,1.623249e-15 16,0 Z" stroke="#D2D2D2" stroke-width="2" fill="none" stroke-miterlimit="5"></path></g><path d="M16,0 L54,0 C62.836556,-1.623249e-15 70,7.163444 70,16 C70,24.836556 62.836556,32 54,32 L16,32 C7.163444,32 -2.47054768e-15,24.836556 0,16 C-1.082166e-15,7.163444 7.163444,1.623249e-15 16,0 Z" stroke="#0066CC" stroke-width="3" fill="none" stroke-miterlimit="10"></path><g transform="translate(0.0 6.0)"><text transform="translate(19.864 16.0)" font-family="RedHatText-Regular, Red Hat Text" font-size="16.0" font-weight="normal" fill="#151515" text-anchor="center">Env.</text></g></g><g clip-path="url(#i3)"><polygon points="0,0 32,0 32,32 0,32 0,0" stroke="none" fill="#FFFFFF"></polygon><path d="M16,32 C24.836556,32 32,24.836556 32,16 C32,7.163444 24.836556,0 16,0 C7.163444,0 0,7.163444 0,16 C0,24.836556 7.163444,32 16,32 Z" stroke="#D2D2D2" stroke-width="2" fill="none" stroke-miterlimit="5"></path></g><g transform="translate(8.0 9.42857142857143)"><g clip-path="url(#i8)"><polygon points="0,0 16,0 16,12.5714286 0,12.5714286 0,0" stroke="none" fill="#696E73"></polygon></g></g></g></g><g transform="translate(431.0 40.0)"><text transform="translate(0.0 17.0)" font-family="FontAwesome" font-size="20.0" font-weight="normal" fill="#0066CC" text-anchor="left">ï•</text></g><g transform="translate(456.0 26.857142857141298)"><path d="M12.6450893,11.640625 C12.875744,11.8638393 12.9278274,12.1205357 12.8013393,12.4107143 C12.6748512,12.7083333 12.4553571,12.8571429 12.1428571,12.8571429 L7.87946429,12.8571429 L10.1227679,18.1696429 C10.1971726,18.3556548 10.1971726,18.5379464 10.1227679,18.7165179 C10.0483631,18.8950893 9.921875,19.0252976 9.74330357,19.1071429 L7.76785714,19.9441964 C7.58184524,20.0186012 7.39955357,20.0186012 7.22098214,19.9441964 C7.04241071,19.8697917 6.91220238,19.7433036 6.83035714,19.5647321 L4.69866071,14.5200893 L1.21651786,18.0022321 C1.07514881,18.1436012 0.907738095,18.2142857 0.714285714,18.2142857 C0.625,18.2142857 0.535714286,18.1956845 0.446428571,18.1584821 C0.148809524,18.031994 0,17.8125 0,17.5 L0,0.714285714 C0,0.401785714 0.148809524,0.182291667 0.446428571,0.0558035714 C0.535714286,0.0186011905 0.625,0 0.714285714,0 C0.915178571,0 1.08258929,0.0706845238 1.21651786,0.212053571 L12.6450893,11.640625 Z" stroke="none" fill="#000000" filter="url(#i9)"></path><g clip-path="url(#i12)"><polygon points="0,0 12.8685361,0 12.8685361,20 0,20 0,0" stroke="none" fill="#151515"></polygon></g></g><g transform="translate(615.0 0.0)"><g transform="translate(20.0 0.0)"><g clip-path="url(#i7)"><path d="M16,0 L54,0 C62.836556,-1.623249e-15 70,7.163444 70,16 C70,24.836556 62.836556,32 54,32 L16,32 C7.163444,32 -2.47054768e-15,24.836556 0,16 C-1.082166e-15,7.163444 7.163444,1.623249e-15 16,0 Z" stroke="#D2D2D2" stroke-width="2" fill="none" stroke-miterlimit="5"></path></g><g transform="translate(0.0 6.0)"><text transform="translate(20.408 16.0)" font-family="RedHatText-Regular, Red Hat Text" font-size="16.0" font-weight="normal" fill="#151515" text-anchor="center">Add</text></g></g><g clip-path="url(#i3)"><polygon points="0,0 32,0 32,32 0,32 0,0" stroke="none" fill="#FFFFFF"></polygon><path d="M16,32 C24.836556,32 32,24.836556 32,16 C32,7.163444 24.836556,0 16,0 C7.163444,0 0,7.163444 0,16 C0,24.836556 7.163444,32 16,32 Z" stroke="#D2D2D2" stroke-width="2" fill="none" stroke-miterlimit="5"></path></g><g transform="translate(8.0 9.42857142857143)"><g clip-path="url(#i8)"><polygon points="0,0 16,0 16,12.5714286 0,12.5714286 0,0" stroke="none" fill="#696E73"></polygon></g></g></g><g transform="translate(20.0 0.0)"><g clip-path="url(#i13)"><polygon points="0,0 120,0 120,32 0,32 0,0" stroke="none" fill="#FFFFFF"></polygon><path d="M16,0 L104,0 C112.836556,-1.623249e-15 120,7.163444 120,16 C120,24.836556 112.836556,32 104,32 L16,32 C7.163444,32 -2.47054768e-15,24.836556 0,16 C-1.082166e-15,7.163444 7.163444,1.623249e-15 16,0 Z" stroke="#D2D2D2" stroke-width="2" fill="none" stroke-miterlimit="5"></path></g><g transform="translate(0.0 6.0)"><text transform="translate(13.543999999999997 16.0)" font-family="RedHatText-Regular, Red Hat Text" font-size="16.0" font-weight="normal" fill="#151515" text-anchor="center">Components</text></g></g><g clip-path="url(#i3)"><polygon points="0,0 32,0 32,32 0,32 0,0" stroke="none" fill="#FFFFFF"></polygon><path d="M16,32 C24.836556,32 32,24.836556 32,16 C32,7.163444 24.836556,0 16,0 C7.163444,0 0,7.163444 0,16 C0,24.836556 7.163444,32 16,32 Z" stroke="#D2D2D2" stroke-width="2" fill="none" stroke-miterlimit="5"></path></g><g transform="translate(4.0 4.0)"><g transform="translate(4.0 3.999999999999999)"><g clip-path="url(#i14)"><polygon points="0,0 15.499963,0 15.499963,15.1127 0,15.1127 0,0" stroke="none" fill="#696E73"></polygon></g></g></g><g transform="translate(140.0 16.0)"><path d="M0,0.5 L15,0.5" stroke="#969696" stroke-width="1" fill="none" stroke-linecap="square" stroke-miterlimit="10"></path></g></g><g transform="translate(0.0 62.0)"><polygon points="35,0 43,8 70,8 70,60 0,60 0,8 27,8 35,0 35,0" stroke="none" fill="#000000" filter="url(#i15)"></polygon><polygon points="35,0 43,8 70,8 70,60 0,60 0,8 27,8 35,0 35,0" stroke="none" fill="#000000" filter="url(#i18)"></polygon><g clip-path="url(#i21)"><polygon points="0,0 70,0 70,60 0,60 0,0" stroke="none" fill="#151515"></polygon></g><g transform="translate(12.0 23.0)"><text transform="translate(0.782 14.0)" font-family="RedHatText-Regular, Red Hat Text" font-size="14.0" font-weight="normal" fill="#FFFFFF" text-anchor="center" line-spacing="24.0">Source</text></g></g><g transform="translate(148.0 62.0)"><polygon points="45,0 53,8 90,8 90,60 0,60 0,8 37,8 45,0 45,0" stroke="none" fill="#000000" filter="url(#i22)"></polygon><polygon points="45,0 53,8 90,8 90,60 0,60 0,8 37,8 45,0 45,0" stroke="none" fill="#000000" filter="url(#i25)"></polygon><g clip-path="url(#i28)"><polygon points="0,0 90,0 90,60 0,60 0,0" stroke="none" fill="#151515"></polygon></g><g transform="translate(19.0 23.0)"><text transform="translate(0.9960000000000022 14.0)" font-family="RedHatText-Regular, Red Hat Text" font-size="14.0" font-weight="normal" fill="#FFFFFF" text-anchor="center" line-spacing="24.0">Pipeline</text></g></g><g transform="translate(592.0 62.0)"><polygon points="59,0 67,8 118,8 118,60 0,60 0,8 51,8 59,0 59,0" stroke="none" fill="#000000" filter="url(#i29)"></polygon><polygon points="59,0 67,8 118,8 118,60 0,60 0,8 51,8 59,0 59,0" stroke="none" fill="#000000" filter="url(#i32)"></polygon><g clip-path="url(#i35)"><polygon points="0,0 118,0 118,60 0,60 0,0" stroke="none" fill="#151515"></polygon></g><g transform="translate(19.0 23.0)"><text transform="translate(0.015999999999998238 14.0)" font-family="RedHatText-Regular, Red Hat Text" font-size="14.0" font-weight="normal" fill="#FFFFFF" text-anchor="center" line-spacing="24.0">Environment</text></g></g></g></svg>