<?xml version="1.0" encoding="UTF-8"?><svg version="1.1" width="700px" height="110px" viewBox="0 0 700.0 110.0" xmlns="http://www.w3.org/2000/svg" xmlns:xlink="http://www.w3.org/1999/xlink"><defs><clipPath id="i0"><path d="M700,0 L700,110 L0,110 L0,0 L700,0 Z"></path></clipPath><clipPath id="i1"><path d="M690,0 C695.522847,-1.01453063e-15 700,4.4771525 700,10 L700,100 C700,105.522847 695.522847,110 690,110 L10,110 C4.4771525,110 6.00542427e-15,105.522847 0,100 L0,10 C-6.76353751e-16,4.4771525 4.4771525,6.34360114e-15 10,0 L690,0 Z"></path></clipPath><clipPath id="i2"><path d="M74,0 C82.836556,-1.623249e-15 90,7.163444 90,16 C90,24.836556 82.836556,32 74,32 L16,32 C7.163444,32 4.63487968e-15,24.836556 0,16 C-1.082166e-15,7.163444 7.163444,1.623249e-15 16,0 L74,0 Z"></path></clipPath><clipPath id="i3"><path d="M7.74998152,0 C12.0301837,0 15.499963,3.46977933 15.499963,7.74998152 C15.499963,12.0301837 12.0301837,15.499963 7.74998152,15.499963 C3.46977933,15.499963 0,12.0301837 0,7.74998152 C0,3.46977933 3.46977933,0 7.74998152,0 Z M11.8964255,4.68935039 C11.701205,4.49406888 11.3845859,4.49406888 11.1893044,4.68935039 L6.4999845,9.37867027 L4.31065867,7.18931391 C4.11540767,6.99406291 3.79878855,6.99406291 3.60353755,7.18931391 L2.89641643,7.89640451 C2.70119595,8.09165551 2.70119595,8.40827463 2.89641643,8.60352563 L6.14640869,11.8535179 C6.3416902,12.0487689 6.6582788,12.0487689 6.85356032,11.8535484 L12.6035466,6.10356211 C12.7987671,5.90831111 12.7987671,5.59169199 12.6035466,5.39644099 Z"></path></clipPath><clipPath id="i4"><path d="M16,0 C24.836556,0 32,7.163444 32,16 C32,24.836556 24.836556,32 16,32 C7.163444,32 0,24.836556 0,16 C0,7.163444 7.163444,0 16,0 Z"></path></clipPath><clipPath id="i5"><path d="M2,0 L2,6 L0,6 L0,0 L2,0 Z"></path></clipPath><clipPath id="i6"><path d="M84,0 C92.836556,-1.623249e-15 100,7.163444 100,16 C100,24.836556 92.836556,32 84,32 L16,32 C7.163444,32 4.63487968e-15,24.836556 0,16 C-1.082166e-15,7.163444 7.163444,1.623249e-15 16,0 L84,0 Z"></path></clipPath><clipPath id="i7"><path d="M7.99319415,0 C12.3988917,0 15.9843902,3.58649756 15.9843902,7.99219512 C15.9843902,12.3998907 12.3988917,15.9843902 7.99319415,15.9843902 C3.58449951,15.9843902 0,12.3998907 0,7.99219512 C0,3.58649756 3.58449951,0 7.99319415,0 Z M7.99319415,1.99704976 C4.68742244,1.99704976 1.9990478,4.68642341 1.9990478,7.9911961 C1.9990478,11.2989659 4.68742244,13.9853424 7.99319415,13.9853424 C11.2979668,13.9853424 13.9873405,11.2979668 13.9873405,7.9911961 C13.9863415,4.68642341 11.2979668,1.99704976 7.99319415,1.99704976 Z M4.1204761,6.74391415 C4.81015852,6.74391415 5.36925659,7.30301221 5.36925659,7.99269463 C5.36925659,8.68237705 4.81015852,9.24147512 4.1204761,9.24147512 C3.43079368,9.24147512 2.87169561,8.68237705 2.87169561,7.99269463 C2.87169561,7.30301221 3.43079368,6.74391415 4.1204761,6.74391415 Z M8.00730537,6.74391415 C8.69698779,6.74391415 9.25608585,7.30301221 9.25608585,7.99269463 C9.25608585,8.68237705 8.69698779,9.24147512 8.00730537,9.24147512 C7.31762295,9.24147512 6.75852488,8.68237705 6.75852488,7.99269463 C6.75852488,7.30301221 7.31762295,6.74391415 8.00730537,6.74391415 Z M11.8785249,6.74391415 C12.5682073,6.74391415 13.1273054,7.30301221 13.1273054,7.99269463 C13.1273054,8.68237705 12.5682073,9.24147512 11.8785249,9.24147512 C11.1888425,9.24147512 10.6297444,8.68237705 10.6297444,7.99269463 C10.6297444,7.30301221 11.1888425,6.74391415 11.8785249,6.74391415 Z"></path></clipPath><clipPath id="i8"><path d="M7.64997566,0 C11.9843464,0 15.499963,3.29061105 15.499963,7.62498182 C15.499963,11.0906108 13.3812242,14.0562104 10.2562317,15.093714 C9.85935149,15.1655827 9.71561404,14.9187266 9.71561404,14.7156021 L9.71596341,14.5860861 C9.71707913,14.3064658 9.72061788,13.7249444 9.72291694,13.0950248 L9.72411831,12.7132933 L9.72498292,12.10309 C9.72498292,11.3687168 9.4812396,10.8999679 9.19373418,10.6531118 L9.48541292,10.6194223 C11.1394205,10.4209147 12.7812195,10.0480785 12.7812195,7.19999504 C12.7812195,6.34373488 12.4749764,5.91249201 11.9749776,5.35936222 C12.0562152,5.15623771 12.3218395,4.32185859 11.8937094,3.23748007 C11.2406043,3.03124277 9.73746458,4.08122806 9.73746458,4.08122806 C9.11246607,3.90624069 8.44059267,3.8156037 7.77497536,3.8156037 C7.10935805,3.8156037 6.43748465,3.90624069 5.81248614,4.08122806 C5.81248614,4.08122806 4.30937693,3.03435556 3.65624128,3.23748007 C3.2281112,4.31874581 3.49373557,5.15623771 3.57500368,5.35936222 C3.07500488,5.9093487 2.83748713,6.34062209 2.83748713,7.19999504 C2.83748713,10.2062135 4.59999514,10.4593562 6.34684766,10.6531118 C6.12187261,10.8593491 5.9187481,11.2062111 5.84684885,11.7062099 C5.39998102,11.9124777 4.25310265,12.2593397 3.56874759,11.0531048 C3.14061751,10.3093626 2.36248216,10.2468628 2.36248216,10.2468628 C1.59685899,10.2374634 2.31249449,10.7280933 2.31249449,10.7280933 C2.82500547,10.9624678 3.18123631,11.8718589 3.18123631,11.8718589 C3.64061632,13.2718495 5.8281111,12.8031006 5.8281111,12.8031006 L5.82863008,13.1058516 C5.83059672,13.7468494 5.83747998,14.5557776 5.83747998,14.7218277 C5.83747998,14.9249522 5.69685531,15.1718388 5.29686237,15.0999701 C2.1812387,14.0562104 0,11.0906108 0,7.62498182 C0,3.29061105 3.31560489,0 7.64997566,0 Z"></path></clipPath><filter id="i9" x="-17.6678445%" y="-50%" filterUnits="userSpaceOnUse" width="124.028269%" height="170.833333%"><feDropShadow stdDeviation="4" dx="0" dy="1" flood-color="rgba(0, 0, 0, 0.3)"></feDropShadow></filter><clipPath id="i10"><path d="M7.984375,0 C8.53645833,0 9.0703125,0.0520833333 9.5859375,0.15625 C10.1015625,0.260416667 10.6041667,0.421875 11.09375,0.640625 C11.5729167,0.848958333 12.0260417,1.09635417 12.453125,1.3828125 C12.8802083,1.66927083 13.2708333,1.99479167 13.625,2.359375 C13.9895833,2.71354167 14.3151042,3.10416667 14.6015625,3.53125 C14.8880208,3.95833333 15.1354167,4.41145833 15.34375,4.890625 C15.5625,5.38020833 15.7239583,5.8828125 15.828125,6.3984375 C15.9322917,6.9140625 15.984375,7.44791667 15.984375,8 C15.984375,8.55208333 15.9322917,9.08854167 15.828125,9.609375 C15.7239583,10.1302083 15.5625,10.6302083 15.34375,11.109375 C15.1354167,11.5989583 14.8880208,12.0546875 14.6015625,12.4765625 C14.3151042,12.8984375 13.9895833,13.2916667 13.625,13.65625 C13.2708333,14.0208333 12.8802083,14.3463542 12.453125,14.6328125 C12.0260417,14.9192708 11.5729167,15.1666667 11.09375,15.375 C10.6041667,15.5833333 10.1015625,15.7395833 9.5859375,15.84375 C9.0703125,15.9479167 8.53645833,16 7.984375,16 C7.453125,16 6.9375,15.953125 6.4375,15.859375 C5.9375,15.765625 5.453125,15.6197917 4.984375,15.421875 L6.03125,13.59375 C6.33333333,13.6979167 6.64322917,13.7760417 6.9609375,13.828125 C7.27864583,13.8802083 7.609375,13.90625 7.953125,13.90625 C8.34895833,13.90625 8.73697917,13.8697917 9.1171875,13.796875 C9.49739583,13.7239583 9.86979167,13.609375 10.234375,13.453125 C10.5885417,13.296875 10.9192708,13.1145833 11.2265625,12.90625 C11.5338542,12.6979167 11.8229167,12.4583333 12.09375,12.1875 C12.3645833,11.9270833 12.6041667,11.640625 12.8125,11.328125 C13.0208333,11.015625 13.203125,10.6822917 13.359375,10.328125 C13.515625,9.96354167 13.6328125,9.59114583 13.7109375,9.2109375 C13.7890625,8.83072917 13.828125,8.4375 13.828125,8.03125 C13.828125,7.63541667 13.7890625,7.24739583 13.7109375,6.8671875 C13.6328125,6.48697917 13.515625,6.11458333 13.359375,5.75 C13.203125,5.39583333 13.0208333,5.06510417 12.8125,4.7578125 C12.6041667,4.45052083 12.3645833,4.16145833 12.09375,3.890625 C11.8229167,3.61979167 11.5338542,3.38020833 11.2265625,3.171875 C10.9192708,2.96354167 10.5885417,2.78125 10.234375,2.625 C9.88020833,2.46875 9.515625,2.35416667 9.140625,2.28125 C8.765625,2.20833333 8.38020833,2.16666667 7.984375,2.15625 Z M2.28125,9.578125 C2.3125,9.703125 2.34895833,9.828125 2.390625,9.953125 C2.43229167,10.078125 2.47916667,10.203125 2.53125,10.328125 C2.6875,10.6822917 2.87239583,11.015625 3.0859375,11.328125 C3.29947917,11.640625 3.53645833,11.9322917 3.796875,12.203125 C3.83854167,12.2447917 3.8828125,12.2838542 3.9296875,12.3203125 C3.9765625,12.3567708 4.02083333,12.3958333 4.0625,12.4375 L3.015625,14.265625 C2.890625,14.171875 2.7734375,14.0755208 2.6640625,13.9765625 C2.5546875,13.8776042 2.44791667,13.7708333 2.34375,13.65625 C1.97916667,13.2916667 1.65364583,12.8984375 1.3671875,12.4765625 C1.08072917,12.0546875 0.833333333,11.5989583 0.625,11.109375 C0.520833333,10.890625 0.432291667,10.6640625 0.359375,10.4296875 C0.286458333,10.1953125 0.223958333,9.95833333 0.171875,9.71875 Z M0.84375,4.40625 L2.734375,5.34375 C2.69270833,5.41666667 2.65625,5.48697917 2.625,5.5546875 C2.59375,5.62239583 2.5625,5.69270833 2.53125,5.765625 C2.42708333,6.00520833 2.34114583,6.25260417 2.2734375,6.5078125 C2.20572917,6.76302083 2.15625,7.02604167 2.125,7.296875 L0,7.4375 C0.03125,6.98958333 0.0989583333,6.5546875 0.203125,6.1328125 C0.307291667,5.7109375 0.447916667,5.296875 0.625,4.890625 C0.65625,4.80729167 0.690104167,4.72395833 0.7265625,4.640625 C0.763020833,4.55729167 0.802083333,4.47916667 0.84375,4.40625 Z"></path></clipPath><clipPath id="i11"><path d="M94,0 C102.836556,-1.623249e-15 110,7.163444 110,16 C110,24.836556 102.836556,32 94,32 L16,32 C7.163444,32 1.082166e-15,24.836556 0,16 C-1.082166e-15,7.163444 7.163444,1.623249e-15 16,0 L94,0 Z"></path></clipPath><clipPath id="i12"><path d="M69,0 C77.836556,-1.623249e-15 85,7.163444 85,16 C85,24.836556 77.836556,32 69,32 L16,32 C7.163444,32 1.082166e-15,24.836556 0,16 C-1.082166e-15,7.163444 7.163444,1.623249e-15 16,0 L69,0 Z"></path></clipPath><clipPath id="i13"><path d="M1.07142857,0 C1.37276786,0 1.62388393,0.106026786 1.82477679,0.318080357 L18.9676339,17.4609375 C19.3136161,17.7957589 19.3917411,18.1808036 19.2020089,18.6160714 C19.0122768,19.0625 18.6830357,19.2857143 18.2142857,19.2857143 L11.8191964,19.2857143 L15.1841518,27.2544643 C15.2957589,27.5334821 15.2957589,27.8069196 15.1841518,28.0747768 C15.0725446,28.3426339 14.8828125,28.5379464 14.6149554,28.6607143 L11.6517857,29.9162946 C11.3727679,30.0279018 11.0993304,30.0279018 10.8314732,29.9162946 C10.5636161,29.8046875 10.3683036,29.6149554 10.2455357,29.3470982 L7.04799107,21.7801339 L1.82477679,27.0033482 C1.61272321,27.2154018 1.36160714,27.3214286 1.07142857,27.3214286 C0.9375,27.3214286 0.803571429,27.2935268 0.669642857,27.2377232 C0.223214286,27.0479911 0,26.71875 0,26.25 L0,1.07142857 C0,0.602678571 0.223214286,0.2734375 0.669642857,0.0837053571 C0.803571429,0.0279017857 0.9375,0 1.07142857,0 Z"></path></clipPath></defs><rect x="0px" y="0px" width="700px" height="110px" fill="#FFFFFF"></rect><g clip-path="url(#i0)"><g clip-path="url(#i1)"><polygon points="0,0 700,0 700,110 0,110 0,0" stroke="none" fill="#F1F1F1"></polygon></g><g transform="translate(33.0 39.0)"><g transform="translate(145.0 0.0)"><g transform="translate(20.0 0.0)"><g clip-path="url(#i2)"><polygon points="0,0 90,0 90,32 0,32 0,0" stroke="none" fill="#FFFFFF"></polygon><path d="M16,0 L74,0 C82.836556,-1.623249e-15 90,7.163444 90,16 C90,24.836556 82.836556,32 74,32 L16,32 C7.163444,32 4.63487968e-15,24.836556 0,16 C-1.082166e-15,7.163444 7.163444,1.623249e-15 16,0 Z" stroke="#3E8634" stroke-width="2" fill="none" stroke-miterlimit="5"></path></g><g transform="translate(22.0 6.0)"><text transform="translate(16.008 16.0)" font-family="RedHatText-Regular, Red Hat Text" font-size="16.0" font-weight="normal" fill="#151515" text-anchor="center">Build</text></g><g transform="translate(14.0 8.0)"><g clip-path="url(#i3)"><polygon points="0,0 15.499963,0 15.499963,15.499963 0,15.499963 0,0" stroke="none" fill="#3E8634"></polygon></g></g></g><g clip-path="url(#i4)"><polygon points="0,0 32,0 32,32 0,32 0,0" stroke="none" fill="#FFFFFF"></polygon><path d="M16,32 C24.836556,32 32,24.836556 32,16 C32,7.163444 24.836556,0 16,0 C7.163444,0 0,7.163444 0,16 C0,24.836556 7.163444,32 16,32 Z" stroke="#D2D2D2" stroke-width="2" fill="none" stroke-miterlimit="5"></path></g><g transform="translate(8.0 9.0)"><g transform="translate(2.0 3.0)"><path d="M0,0 L4,0 C5.1045695,-2.02906125e-16 6,0.8954305 6,2 L6,4 L6,4" stroke="#696E73" stroke-width="3" fill="none" stroke-miterlimit="10"></path></g><g clip-path="url(#i5)"><polygon points="0,0 2,0 2,6 0,6 0,0 0,0" stroke="#696E73" stroke-width="2" fill="none" stroke-miterlimit="5"></polygon></g><g transform="translate(15.999999999997616 14.936781305317709) rotate(-180.0)"><g transform="translate(2.000000000002383 3.0)"><path d="M0,0 L4,0 C5.1045695,-2.02906125e-16 6,0.8954305 6,2 L6,4 L6,4" stroke="#696E73" stroke-width="3" fill="none" stroke-miterlimit="10"></path></g><g transform=""><g clip-path="url(#i5)"><polygon points="0,0 2,0 2,6 0,6 0,0 0,0" stroke="#696E73" stroke-width="2" fill="none" stroke-miterlimit="5"></polygon></g></g></g></g><g transform="translate(110.0 16.0)"><path d="M0,0.5 L15,0.5" stroke="#969696" stroke-width="1" fill="none" stroke-linecap="square" stroke-miterlimit="10"></path></g></g><g transform="translate(395.0 0.0)"><g opacity="69.9491%"><g transform="translate(20.0 0.0)"><g clip-path="url(#i6)"><polygon points="0,0 100,0 100,32 0,32 0,0" stroke="none" fill="#FFFFFF"></polygon><path d="M16,0 L84,0 C92.836556,-1.623249e-15 100,7.163444 100,16 C100,24.836556 92.836556,32 84,32 L16,32 C7.163444,32 4.63487968e-15,24.836556 0,16 C-1.082166e-15,7.163444 7.163444,1.623249e-15 16,0 Z" stroke="#D2D2D2" stroke-width="2" fill="none" stroke-miterlimit="5"></path></g><g transform="translate(22.0 6.0)"><text transform="translate(15.727999999999998 16.0)" font-family="RedHatText-Regular, Red Hat Text" font-size="16.0" font-weight="normal" fill="#151515" text-anchor="center">Merge</text></g><g transform="translate(10.0 4.0)"><g transform="translate(4.000499512195119 4.01511024390244)"><g clip-path="url(#i7)"><polygon points="0,0 15.9843902,0 15.9843902,15.9843902 0,15.9843902 0,0" stroke="none" fill="#151515" opacity="49.9374%"></polygon></g></g></g></g><g clip-path="url(#i4)"><polygon points="0,0 32,0 32,32 0,32 0,0" stroke="none" fill="#FFFFFF"></polygon><path d="M16,32 C24.836556,32 32,24.836556 32,16 C32,7.163444 24.836556,0 16,0 C7.163444,0 0,7.163444 0,16 C0,24.836556 7.163444,32 16,32 Z" stroke="#D2D2D2" stroke-width="2" fill="none" stroke-miterlimit="5"></path></g><g transform="translate(4.0 4.0)"><g transform="translate(4.0 3.999999999999999)"><g clip-path="url(#i8)"><polygon points="0,0 15.499963,0 15.499963,15.1127 0,15.1127 0,0" stroke="none" fill="#696E73"></polygon></g></g></g><g transform="translate(120.0 16.0)"><path d="M0,0.5 L15,0.5" stroke="#969696" stroke-width="1" fill="none" stroke-linecap="square" stroke-miterlimit="10"></path></g></g></g><g transform="translate(270.0 0.0)"><g filter="url(#i9)"><g transform="translate(20.0 0.0)"><g clip-path="url(#i2)"><polygon points="0,0 90,0 90,32 0,32 0,0" stroke="none" fill="#FFFFFF"></polygon><path d="M16,0 L74,0 C82.836556,-1.623249e-15 90,7.163444 90,16 C90,24.836556 82.836556,32 74,32 L16,32 C7.163444,32 4.63487968e-15,24.836556 0,16 C-1.082166e-15,7.163444 7.163444,1.623249e-15 16,0 Z" stroke="#2B9AF3" stroke-width="2" fill="none" stroke-miterlimit="5"></path></g><g transform="translate(22.0 6.0)"><text transform="translate(17.968 16.0)" font-family="RedHatText-Regular, Red Hat Text" font-size="16.0" font-weight="normal" fill="#151515" text-anchor="center">Test</text></g><g transform="translate(14.0 8.0)"><g clip-path="url(#i10)"><polygon points="0,0 15.984375,0 15.984375,16 0,16 0,0" stroke="none" fill="#2B9AF3"></polygon></g></g></g><g clip-path="url(#i4)"><polygon points="0,0 32,0 32,32 0,32 0,0" stroke="none" fill="#FFFFFF"></polygon><path d="M16,32 C24.836556,32 32,24.836556 32,16 C32,7.163444 24.836556,0 16,0 C7.163444,0 0,7.163444 0,16 C0,24.836556 7.163444,32 16,32 Z" stroke="#D2D2D2" stroke-width="2" fill="none" stroke-miterlimit="5"></path></g><g transform="translate(8.0 9.0)"><g transform="translate(2.0 3.0)"><path d="M0,0 L4,0 C5.1045695,-2.02906125e-16 6,0.8954305 6,2 L6,4 L6,4" stroke="#696E73" stroke-width="3" fill="none" stroke-miterlimit="10"></path></g><g clip-path="url(#i5)"><polygon points="0,0 2,0 2,6 0,6 0,0 0,0" stroke="#696E73" stroke-width="2" fill="none" stroke-miterlimit="5"></polygon></g><g transform="translate(15.999999999997616 14.936781305317709) rotate(-180.0)"><g transform="translate(2.000000000002383 3.0)"><path d="M0,0 L4,0 C5.1045695,-2.02906125e-16 6,0.8954305 6,2 L6,4 L6,4" stroke="#696E73" stroke-width="3" fill="none" stroke-miterlimit="10"></path></g><g transform=""><g clip-path="url(#i5)"><polygon points="0,0 2,0 2,6 0,6 0,0 0,0" stroke="#696E73" stroke-width="2" fill="none" stroke-miterlimit="5"></polygon></g></g></g></g><g transform="translate(110.0 16.0)"><path d="M0,0.5 L15,0.5" stroke="#969696" stroke-width="1" fill="none" stroke-linecap="square" stroke-miterlimit="10"></path></g></g></g><g transform="translate(20.0 0.0)"><g clip-path="url(#i11)"><polygon points="0,0 110,0 110,32 0,32 0,0" stroke="none" fill="#FFFFFF"></polygon><path d="M16,0 L94,0 C102.836556,-1.623249e-15 110,7.163444 110,16 C110,24.836556 102.836556,32 94,32 L16,32 C7.163444,32 1.082166e-15,24.836556 0,16 C-1.082166e-15,7.163444 7.163444,1.623249e-15 16,0 Z" stroke="#3E8634" stroke-width="2" fill="none" stroke-miterlimit="5"></path></g><g transform="translate(22.0 6.0)"><text transform="translate(15.216000000000001 16.0)" font-family="RedHatText-Regular, Red Hat Text" font-size="16.0" font-weight="normal" fill="#151515" text-anchor="center">Commit</text></g><g transform="translate(14.0 8.0)"><g clip-path="url(#i3)"><polygon points="0,0 15.499963,0 15.499963,15.499963 0,15.499963 0,0" stroke="none" fill="#3E8634"></polygon></g></g></g><g clip-path="url(#i4)"><polygon points="0,0 32,0 32,32 0,32 0,0" stroke="none" fill="#FFFFFF"></polygon><path d="M16,32 C24.836556,32 32,24.836556 32,16 C32,7.163444 24.836556,0 16,0 C7.163444,0 0,7.163444 0,16 C0,24.836556 7.163444,32 16,32 Z" stroke="#D2D2D2" stroke-width="2" fill="none" stroke-miterlimit="5"></path></g><g transform="translate(4.0 4.0)"><g transform="translate(4.0 3.999999999999999)"><g clip-path="url(#i8)"><polygon points="0,0 15.499963,0 15.499963,15.1127 0,15.1127 0,0" stroke="none" fill="#696E73"></polygon></g></g></g><g transform="translate(130.0 16.0)"><path d="M0,0.5 L15,0.5" stroke="#969696" stroke-width="1" fill="none" stroke-linecap="square" stroke-miterlimit="10"></path></g><g transform="translate(530.0 0.0)"><g opacity="50.1019%"><g transform="translate(20.0 0.0)"><g clip-path="url(#i12)"><polygon points="0,0 85,0 85,32 0,32 0,0" stroke="none" fill="#FFFFFF"></polygon><path d="M16,0 L69,0 C77.836556,-1.623249e-15 85,7.163444 85,16 C85,24.836556 77.836556,32 69,32 L16,32 C7.163444,32 1.082166e-15,24.836556 0,16 C-1.082166e-15,7.163444 7.163444,1.623249e-15 16,0 Z" stroke="#D2D2D2" stroke-width="2" fill="none" stroke-miterlimit="5"></path></g></g><g clip-path="url(#i4)"><polygon points="0,0 32,0 32,32 0,32 0,0" stroke="none" fill="#FFFFFF"></polygon><path d="M16,32 C24.836556,32 32,24.836556 32,16 C32,7.163444 24.836556,0 16,0 C7.163444,0 0,7.163444 0,16 C0,24.836556 7.163444,32 16,32 Z" stroke="#D2D2D2" stroke-width="2" fill="none" stroke-miterlimit="5"></path></g><g transform="translate(8.0 8.0)"><text transform="translate(0.0 14.0)" font-family="FontAwesome" font-size="16.0" font-weight="normal" fill="#696E73" text-anchor="left"></text></g></g></g></g><g transform="translate(385.2857142857143 65.28571428571428)"><g clip-path="url(#i13)"><polygon points="0,0 19.3028041,0 19.3028041,30 0,30 0,0" stroke="none" fill="#151515"></polygon></g></g></g></svg>