<?xml version="1.0" encoding="UTF-8"?><svg id="Layer_2" xmlns="http://www.w3.org/2000/svg" xmlns:xlink="http://www.w3.org/1999/xlink" viewBox="0 0 72.26 72.2"><defs><style>.cls-1{clip-path:url(#clippath);}.cls-2{fill:#333;}.cls-3{fill:#aedcdd;}</style><clipPath id="clippath"><path class="cls-2" d="m37.63,38.12l-10.83,10.83-2.91-2.91c-.58-.58-1.52-.58-2.1,0-.58.58-.58,1.52,0,2.1l3.95,3.95s0,0,0,0c.29.29.67.43,1.05.43s.76-.14,1.05-.43l11.87-11.87c.58-.58.58-1.52,0-2.1s-1.52-.58-2.1,0h0Z"/></clipPath></defs><g id="Layer_1-2"><g><circle class="cls-3" cx="38.19" cy="44.7" r="22.09"/><g><path class="cls-2" d="m72.14,65.87c.27-.62.09-1.33-.36-1.81,0,0-5.31-5.31-5.31-5.31-1.5-1.54-3.89.85-2.34,2.35,0,0,2.48,2.47,2.48,2.47H30.81c-10.79,0-19.57-8.78-19.57-19.57.92-25.9,38.22-25.89,39.13,0,0,4.43-1.52,8.79-4.29,12.23-.57.72-.46,1.76.26,2.33,2.24,1.47,3.47-2.04,4.49-3.47,6.14-10.44,1.87-25.09-8.39-30.76,6.28-.53,11.25-5.75,11.25-12.17-.38-15.23-22.04-16.62-24.38-1.63l-2.06-2.74c-1.3-1.73-3.95.25-2.65,1.99,0,0,4.5,6,4.5,6,.52.72,1.62.88,2.32.33l6-4.5c1.73-1.31-.25-3.95-1.99-2.65,0,0-2.87,2.15-2.87,2.15,1.48-11.02,17.58-10.12,17.8,1.05,0,4.94-4.02,8.95-8.95,8.95h-10.61c-30.33,1.2-30.33,44.57,0,45.77,0,0,35.79,0,35.79,0l-2.48,2.47c-1.06.98-.25,2.88,1.17,2.83.42,0,.85-.16,1.17-.48.09-.15,5.96-5.8,5.66-5.84Z"/><path class="cls-2" d="m12.24,63.58H1.63c-2.17,0-2.17,3.31,0,3.32,0,0,10.61,0,10.61,0,2.17,0,2.17-3.31,0-3.32Z"/></g><g><path class="cls-2" d="m37.63,38.12l-10.83,10.83-2.91-2.91c-.58-.58-1.52-.58-2.1,0-.58.58-.58,1.52,0,2.1l3.95,3.95s0,0,0,0c.29.29.67.43,1.05.43s.76-.14,1.05-.43l11.87-11.87c.58-.58.58-1.52,0-2.1s-1.52-.58-2.1,0h0Z"/><g class="cls-1"><rect class="cls-2" x="20.02" y="36.35" width="21.49" height="17.39"/></g></g></g></g></svg>