<?xml version="1.0" encoding="UTF-8"?><svg id="Layer_2" xmlns="http://www.w3.org/2000/svg" xmlns:xlink="http://www.w3.org/1999/xlink" viewBox="0 0 58.81 82.28"><defs><style>.cls-1{clip-path:url(#clippath);}.cls-2{fill:#fff;}.cls-3{fill:#333;}.cls-4{fill:#aedcdd;}.cls-5{clip-path:url(#clippath-1);}.cls-6{clip-path:url(#clippath-2);}</style><clipPath id="clippath"><path class="cls-3" d="m24.09,34.33c.81.16,1.59-.36,1.76-1.17l2.95-13.9c.16-.81-.34-1.6-1.14-1.79-.81-.16-1.59.36-1.76,1.17l-2.95,13.9c-.18.81.33,1.61,1.14,1.79Z"/></clipPath><clipPath id="clippath-1"><path class="cls-3" d="m33.04,33.14c.58.57,1.51.57,2.09,0l6.09-6.09c.57-.59.57-1.53,0-2.12l-6.09-6.09c-1.36-1.38-3.5.76-2.09,2.09l5.05,5.05-5.05,5.05c-.29.28-.45.66-.45,1.06s.16.78.45,1.06Z"/></clipPath><clipPath id="clippath-2"><path class="cls-3" d="m18.76,18.83c-.27-.29-.65-.45-1.05-.45s-.77.16-1.05.45l-6.09,6.09c-.57.59-.57,1.53,0,2.12l6.09,6.09c.6.47,1.46.41,1.99-.13.54-.54.58-1.4.1-1.99l-5.05-5.05,5.05-5.05c.29-.27.45-.65.45-1.05s-.16-.77-.45-1.05Z"/></clipPath></defs><g id="Layer_1-2"><g><rect class="cls-4" x="7" y="7.66" width="51.81" height="51.81" rx=".68" ry=".68"/><g><g><path class="cls-3" d="m24.09,34.33c.81.16,1.59-.36,1.76-1.17l2.95-13.9c.16-.81-.34-1.6-1.14-1.79-.81-.16-1.59.36-1.76,1.17l-2.95,13.9c-.18.81.33,1.61,1.14,1.79Z"/><g class="cls-1"><rect class="cls-3" x="21.93" y="16.47" width="7.89" height="18.87"/></g></g><g><path class="cls-3" d="m33.04,33.14c.58.57,1.51.57,2.09,0l6.09-6.09c.57-.59.57-1.53,0-2.12l-6.09-6.09c-1.36-1.38-3.5.76-2.09,2.09l5.05,5.05-5.05,5.05c-.29.28-.45.66-.45,1.06s.16.78.45,1.06Z"/><g class="cls-5"><rect class="cls-3" x="30.79" y="16.6" width="11.86" height="17.95"/></g></g><g><path class="cls-3" d="m18.76,18.83c-.27-.29-.65-.45-1.05-.45s-.77.16-1.05.45l-6.09,6.09c-.57.59-.57,1.53,0,2.12l6.09,6.09c.6.47,1.46.41,1.99-.13.54-.54.58-1.4.1-1.99l-5.05-5.05,5.05-5.05c.29-.27.45-.65.45-1.05s-.16-.77-.45-1.05Z"/><g class="cls-6"><rect class="cls-3" x="9.15" y="17.54" width="10.93" height="16.92"/></g></g></g><path class="cls-2" d="m53.79,56.52l-15.61-3.47v-10.89c-.08-3.05-2.39-4.44-4.5-4.44s-4.41,1.39-4.49,4.45v18.39c-2.49-2.91-4.77-4.39-6.78-4.39-2.48,0-4.49,2.02-4.49,4.49,0,1.48.72,2.86,1.91,3.67,1.02.74,1.7,1.99,1.87,3.45,1.56,10.08,9.51,14.48,16.64,14.48.36,0,.72-.01,1.08-.03,7.35-.46,15.39-5.84,15.69-16.57v-7.52c0-.79-.54-1.46-1.31-1.64Z"/><path class="cls-3" d="m50.28,0H1.52C.68,0,0,.68,0,1.52v48.76c0,.84.68,1.52,1.52,1.52h21.39c.84,0,1.52-.68,1.52-1.52s-.68-1.52-1.52-1.52H3.05V3.05h45.71v45.71h-4.56c-.76,0-1.47.7-1.47,1.52s.66,1.49,1.47,1.52h6.09c.84,0,1.52-.68,1.52-1.52V1.52c0-.84-.68-1.52-1.52-1.52Z"/><path class="cls-3" d="m53.79,56.52l-15.61-3.47v-10.89c-.08-3.05-2.39-4.44-4.5-4.44s-4.41,1.39-4.49,4.45v18.39c-2.49-2.91-4.77-4.39-6.78-4.39-2.48,0-4.49,2.02-4.49,4.49,0,1.48.72,2.86,1.91,3.67,1.02.74,1.7,1.99,1.87,3.45,1.56,10.08,9.51,14.48,16.64,14.48.36,0,.72-.01,1.08-.03,7.35-.46,15.39-5.84,15.69-16.57v-7.52c0-.79-.54-1.46-1.31-1.64Zm-1.54,9.12c-.22,8.94-6.7,13.33-13.02,13.73-.3.02-.61.03-.91.03-5.94,0-12.54-3.65-13.8-12.01-.28-2.26-1.4-4.23-3.07-5.42-.7-.45-.76-1.26-.59-1.81.17-.54.66-1.16,1.51-1.16,1.71,0,4.71,2.92,7.5,7.26.27.45.8.64,1.32.49.52-.15.86-.59.84-1.09v-23.51c0-.91.74-1.64,1.64-1.64s1.64.74,1.64,1.64v12.22c0,.55.38,1.03.92,1.15l15.61,3.47c.23.05.39.25.39.49v6.17Z"/></g></g></svg>