<?xml version="1.0" encoding="UTF-8"?><svg id="Layer_2" xmlns="http://www.w3.org/2000/svg" viewBox="0 0 66.02 67.52"><defs><style>.cls-1{fill:#333;}.cls-2{fill:#aedcdd;}</style></defs><g id="Layer_1-2"><g><rect class="cls-2" x="5.31" y="4.75" width="16.22" height="16.22" rx=".68" ry=".68"/><rect class="cls-2" x="36.36" y="37.86" width="29.66" height="29.66" rx=".68" ry=".68"/><path class="cls-1" d="m16.22,14.82V1.4c0-.77-.63-1.4-1.4-1.4H1.4C.63,0,0,.63,0,1.4v13.42c0,.77.63,1.4,1.4,1.4h13.42c.77,0,1.4-.63,1.4-1.4Zm-2.8-1.4H2.8V2.8h10.63v10.63Z"/><path class="cls-1" d="m59.57,49.22c-.77,0-1.4.63-1.4,1.4v7.55h-24.05v-24.05h16.5c.77,0,1.4-.63,1.4-1.4s-.63-1.4-1.4-1.4h-17.9c-.77,0-1.4.63-1.4,1.4v26.85c0,.77.63,1.4,1.4,1.4h26.85c.77,0,1.4-.63,1.4-1.4v-8.95c0-.77-.63-1.4-1.4-1.4Z"/><path class="cls-1" d="m42.66,45.16c-1.26-1.3-3.28.72-1.98,1.98,0,0,4.47,4.47,4.47,4.47.55.55,1.43.55,1.98,0l13.42-13.42c1.3-1.26-.71-3.29-1.98-1.98,0,0-12.44,12.44-12.44,12.44l-3.49-3.49Z"/><path class="cls-1" d="m27.15,25.17h12.29c12.19-.39,12.2-18.07,0-18.46,0,0-17.9,0-17.9,0-.77,0-1.4.63-1.4,1.4s.63,1.4,1.4,1.4h17.9c8.48.22,8.48,12.64,0,12.87,0,0-12.29,0-12.29,0l2.09-2.09c1.3-1.26-.71-3.28-1.98-1.98,0,0-4.47,4.47-4.47,4.47-.51.54-.53,1.45,0,1.98l4.47,4.47c.27.27.63.41.99.41,1.2.04,1.88-1.56.99-2.39,0,0-2.09-2.09-2.09-2.09Z"/><path class="cls-1" d="m27.37,41.49c.24-.59-4.11-4.4-4.85-5.28-1.26-1.3-3.28.72-1.98,1.98,0,0,2.09,2.09,2.09,2.09h-10.05c-9.96-.26-9.96-14.84,0-15.1,0,0,4.47,0,4.47,0,.77,0,1.4-.63,1.4-1.4s-.63-1.4-1.4-1.4h-4.47c-13.67.43-13.67,20.26,0,20.7,0,0,10.05,0,10.05,0l-2.09,2.09c-1.29,1.3.68,3.27,1.98,1.98,0,0,4.47-4.47,4.47-4.47.3-.31.45-.74.37-1.17Z"/></g></g></svg>