<?xml version="1.0" encoding="UTF-8"?><svg id="Layer_2" xmlns="http://www.w3.org/2000/svg" viewBox="0 0 66.96 66.96"><defs><style>.cls-1{fill:#333;}.cls-2{fill:#aedcdd;}</style></defs><g id="Layer_1-2"><g><circle class="cls-2" cx="30.76" cy="30.15" r="24.87"/><path class="cls-1" d="m24.87,0C11.16,0,0,11.16,0,24.87s11.16,24.87,24.87,24.87,24.87-11.16,24.87-24.87S38.59,0,24.87,0Zm0,46.68c-12.02,0-21.8-9.78-21.8-21.8S12.85,3.07,24.87,3.07s21.8,9.78,21.8,21.8-9.78,21.8-21.8,21.8Z"/><path class="cls-1" d="m66.5,64.33l-14.74-14.74c-1.39-1.43-3.6.79-2.17,2.17l14.74,14.74c1.43,1.41,3.58-.75,2.17-2.17Z"/><path class="cls-1" d="m24.87,7.37c-9.65,0-17.5,7.85-17.5,17.5,0,.85.69,1.54,1.54,1.54s1.54-.69,1.54-1.54c0-7.96,6.48-14.43,14.43-14.43.85,0,1.54-.69,1.54-1.54s-.69-1.54-1.54-1.54Z"/><path class="cls-1" d="m45.76,44.23c-.85,0-1.53.69-1.53,1.53s.69,1.53,1.53,1.53,1.53-.69,1.53-1.53-.69-1.53-1.53-1.53Z"/></g></g></svg>