<?xml version="1.0" encoding="UTF-8"?><svg id="Layer_2" xmlns="http://www.w3.org/2000/svg" viewBox="0 0 69.7 59.22"><defs><style>.cls-1{fill:#333;}.cls-2{fill:#aedcdd;}</style></defs><g id="Layer_1-2"><g><path class="cls-2" d="m68.26,8.4H17.28c-.4,0-.76.16-1.02.43l-9.27,9.27c-.26.26-.42.62-.42,1.02v38.66c0,.8.65,1.45,1.45,1.45h60.24c.8,0,1.45-.65,1.45-1.45V9.85c0-.8-.65-1.45-1.45-1.45ZM15.49,28.49c-2.14,0-3.87-1.73-3.87-3.87s1.73-3.87,3.87-3.87,3.87,1.73,3.87,3.87-1.73,3.87-3.87,3.87Zm32.3,11.59c-2.14,0-3.87-1.73-3.87-3.87s1.73-3.87,3.87-3.87,3.87,1.73,3.87,3.87-1.73,3.87-3.87,3.87Zm0-23.17c-2.14,0-3.87-1.73-3.87-3.87s1.73-3.87,3.87-3.87,3.87,1.73,3.87,3.87-1.73,3.87-3.87,3.87Z"/><path class="cls-1" d="m61.69,0H10.72c-.4,0-.76.16-1.02.42L.42,9.69c-.26.26-.42.62-.42,1.02v37.07c0,.8.65,1.45,1.45,1.45h60.24c.8,0,1.45-.65,1.45-1.45V1.45c0-.8-.65-1.45-1.45-1.45ZM9.27,4.94v4.32h-4.32l4.32-4.32Zm50.97,41.4H2.9V12.16h7.82c.8,0,1.45-.65,1.45-1.45V2.9h48.08v43.44Z"/><path class="cls-1" d="m24.62,26.07h5.5v10.14c0,.8.65,1.45,1.45,1.45h6.95c.8,0,1.45-.65,1.45-1.45s-.65-1.45-1.45-1.45h-5.5V14.48h5.5c.8,0,1.45-.65,1.45-1.45s-.65-1.45-1.45-1.45h-6.95c-.8,0-1.45.65-1.45,1.45v10.14h-5.5c-.8,0-1.45.65-1.45,1.45s.65,1.45,1.45,1.45Z"/><path class="cls-1" d="m47.79,19.12c3.35,0,6.08-2.73,6.08-6.08s-2.73-6.08-6.08-6.08-6.08,2.73-6.08,6.08,2.73,6.08,6.08,6.08Zm0-9.27c1.76,0,3.19,1.43,3.19,3.19s-1.43,3.19-3.19,3.19-3.19-1.43-3.19-3.19,1.43-3.19,3.19-3.19Z"/><path class="cls-1" d="m9.27,24.62c0,3.35,2.73,6.08,6.08,6.08s6.08-2.73,6.08-6.08-2.73-6.08-6.08-6.08-6.08,2.73-6.08,6.08Zm9.27,0c0,1.76-1.43,3.19-3.19,3.19s-3.19-1.43-3.19-3.19,1.43-3.19,3.19-3.19,3.19,1.43,3.19,3.19Z"/><path class="cls-1" d="m47.79,42.29c3.35,0,6.08-2.73,6.08-6.08s-2.73-6.08-6.08-6.08-6.08,2.73-6.08,6.08,2.73,6.08,6.08,6.08Zm0-9.27c1.76,0,3.19,1.43,3.19,3.19s-1.43,3.19-3.19,3.19-3.19-1.43-3.19-3.19,1.43-3.19,3.19-3.19Z"/></g></g></svg>