<?xml version="1.0" encoding="UTF-8"?><svg id="Layer_2" xmlns="http://www.w3.org/2000/svg" viewBox="0 0 90 90"><defs><style>.cls-1{fill:#ed2435;}.cls-2{fill:#fff7c4;}</style></defs><g id="Layer_3"><g><rect class="cls-2" width="90" height="90" rx="3.1" ry="3.1"/><g><path class="cls-1" d="m27.82,29.74c-2.06-2.06-5.41-2.06-7.46,0-1,1-1.55,2.32-1.55,3.73s.55,2.74,1.55,3.73l3.84,3.84c1,1,2.32,1.55,3.73,1.55s2.73-.55,3.73-1.55h0c1-1,1.55-2.32,1.55-3.73s-.55-2.73-1.55-3.73l-3.84-3.84Zm2.15,9.61h0c-1.09,1.09-2.98,1.09-4.07,0l-3.84-3.84c-.54-.54-.84-1.26-.84-2.03s.3-1.49.84-2.03c.56-.56,1.3-.84,2.03-.84s1.47.28,2.03.84l3.84,3.84c.54.54.84,1.27.84,2.03s-.3,1.49-.84,2.03Z"/><path class="cls-1" d="m41.04,31.67s0,0,0,0c1-1,1.55-2.32,1.55-3.73s-.55-2.73-1.55-3.73l-3.84-3.84c-1.99-1.99-5.47-1.99-7.46,0-2.06,2.06-2.06,5.41,0,7.46l3.84,3.84c1,1,2.32,1.55,3.73,1.55s2.74-.55,3.73-1.55Zm-9.61-5.54c-1.12-1.12-1.12-2.94,0-4.07.54-.54,1.27-.84,2.03-.84s1.49.3,2.03.84l3.84,3.84c.54.54.84,1.27.84,2.03s-.3,1.49-.84,2.03c0,0,0,0,0,0-1.08,1.08-2.98,1.09-4.07,0l-3.84-3.84Z"/><path class="cls-1" d="m27.59,47.03c-2.06-2.06-5.4-2.06-7.47,0-2.06,2.06-2.06,5.41,0,7.46l3.84,3.84c1,1,2.32,1.55,3.73,1.55s2.74-.55,3.73-1.55t0,0c1-1,1.55-2.32,1.55-3.73s-.55-2.73-1.55-3.73l-3.84-3.84Zm2.15,9.61s0,0,0,0c-1.08,1.08-2.98,1.09-4.07,0l-3.84-3.84c-1.12-1.12-1.12-2.94,0-4.07.56-.56,1.3-.84,2.03-.84s1.47.28,2.03.84l3.84,3.84c.54.54.84,1.27.84,2.03s-.3,1.49-.84,2.03Z"/><path class="cls-1" d="m50.88,31.44c1,1,2.32,1.55,3.73,1.55s2.74-.55,3.73-1.55h0c2.06-2.06,2.06-5.41,0-7.47l-3.84-3.84c-2.06-2.06-5.41-2.06-7.46,0-1,1-1.55,2.32-1.55,3.73s.55,2.74,1.55,3.73l3.84,3.84Zm-2.14-9.61c.56-.56,1.3-.84,2.03-.84s1.47.28,2.03.84l3.84,3.84c1.12,1.12,1.12,2.95,0,4.07h0c-1.09,1.09-2.98,1.09-4.07,0l-3.84-3.84c-.54-.54-.84-1.26-.84-2.03s.3-1.49.84-2.03Z"/><path class="cls-1" d="m67.69,40.08c-2.4-2.41-5.6-3.73-9-3.73h-13.45c-4.9,0-8.89,3.99-8.89,8.89v13.45c0,3.4,1.32,6.6,3.73,9.01,2.48,2.48,5.74,3.72,9,3.72s6.52-1.24,9-3.72l9.61-9.61c2.41-2.41,3.73-5.6,3.73-9s-1.32-6.6-3.73-9Zm-1.7,16.31l-9.61,9.61c-4.03,4.03-10.58,4.03-14.61,0-1.95-1.95-3.03-4.55-3.03-7.31v-13.45c0-3.58,2.91-6.49,6.49-6.49h13.45c2.76,0,5.35,1.08,7.3,3.03,1.95,1.95,3.03,4.54,3.03,7.3s-1.07,5.35-3.03,7.3Z"/></g></g></g></svg>