<?xml version="1.0" encoding="UTF-8"?><svg id="Layer_2" xmlns="http://www.w3.org/2000/svg" viewBox="0 0 90 90"><defs><style>.cls-1{fill:#1a1a1a;}.cls-1,.cls-2{stroke-width:0px;}.cls-2{fill:#afe3f9;}</style></defs><g id="Layer_1-2"><rect class="cls-2" width="90" height="90" rx="3.1" ry="3.1"/><path class="cls-1" d="M45.49,53.12c-4.14,0-7.51-3.37-7.51-7.51s3.37-7.51,7.51-7.51,7.51,3.37,7.51,7.51-3.37,7.51-7.51,7.51ZM45.49,40.1c-3.04,0-5.51,2.47-5.51,5.51s2.47,5.51,5.51,5.51,5.51-2.47,5.51-5.51-2.47-5.51-5.51-5.51Z"/><path class="cls-1" d="M47.66,40.1c-.15,0-.3-.03-.45-.11-.49-.25-.69-.85-.45-1.34.02-.04,2.07-4.19,2.07-8.24,0-2.86-2.18-5.82-3.34-7.19-1.16,1.37-3.34,4.34-3.34,7.19,0,4.04,2.05,8.2,2.07,8.24.25.49.05,1.09-.45,1.34-.49.25-1.09.05-1.34-.45-.09-.19-2.28-4.61-2.28-9.13s4.45-9.2,4.64-9.39c.39-.39,1.02-.39,1.41,0,.19.19,4.63,4.69,4.63,9.39s-2.18,8.95-2.28,9.13c-.18.35-.53.55-.9.55Z"/><path class="cls-1" d="M30.3,50.95c-4.7,0-9.2-4.45-9.39-4.63-.39-.39-.39-1.02,0-1.41.19-.19,4.69-4.64,9.39-4.64s8.95,2.18,9.13,2.28c.49.25.69.85.45,1.34-.25.5-.85.7-1.34.45-.04-.02-4.19-2.07-8.24-2.07-2.85,0-5.82,2.18-7.19,3.34,1.37,1.16,4.34,3.34,7.19,3.34,4.06,0,8.2-2.04,8.24-2.07.5-.25,1.1-.05,1.34.45.25.49.05,1.09-.45,1.34-.19.09-4.61,2.28-9.13,2.28Z"/><path class="cls-1" d="M45.49,70.49c-.26,0-.51-.1-.71-.29-.19-.19-4.64-4.69-4.64-9.39s2.18-8.95,2.28-9.13c.25-.49.85-.69,1.34-.45.49.25.69.85.45,1.34-.02.04-2.07,4.19-2.07,8.24,0,2.85,2.18,5.82,3.34,7.19,1.16-1.37,3.34-4.34,3.34-7.19,0-4.04-2.04-8.2-2.07-8.24-.25-.49-.05-1.09.45-1.34.49-.25,1.09-.05,1.34.45.09.19,2.28,4.6,2.28,9.13s-4.45,9.2-4.63,9.39c-.2.2-.45.29-.71.29Z"/><path class="cls-1" d="M60.69,50.95c-4.53,0-8.95-2.18-9.13-2.28-.49-.25-.69-.85-.45-1.34.25-.49.85-.7,1.34-.45.04.02,4.19,2.07,8.24,2.07,2.86,0,5.82-2.18,7.19-3.34-1.37-1.16-4.34-3.34-7.19-3.34-4.04,0-8.2,2.05-8.24,2.07-.49.25-1.09.05-1.34-.45-.25-.49-.05-1.09.45-1.34.19-.09,4.6-2.28,9.13-2.28s9.2,4.45,9.39,4.64c.39.39.39,1.02,0,1.41-.19.19-4.69,4.63-9.39,4.63Z"/><path class="cls-1" d="M39.35,43.54c-.1,0-.21-.02-.32-.05-.2-.07-4.87-1.65-8.07-4.85-3.33-3.32-3.36-9.65-3.36-9.92,0-.55.45-1,1-1,.27,0,6.59.04,9.92,3.36,3.2,3.2,4.78,7.87,4.85,8.07.17.52-.11,1.09-.63,1.26-.52.17-1.09-.11-1.27-.63-.02-.04-1.5-4.43-4.36-7.29-2.02-2.02-5.65-2.57-7.45-2.72.15,1.79.7,5.43,2.72,7.45,2.87,2.87,7.24,4.35,7.29,4.36.52.17.81.74.63,1.27-.14.42-.53.68-.95.68Z"/><path class="cls-1" d="M28.61,63.5c-.55,0-1-.45-1-1,0-.27.04-6.59,3.36-9.92,3.2-3.2,7.87-4.78,8.07-4.85.52-.18,1.09.11,1.26.63.17.52-.11,1.09-.63,1.27-.04.02-4.43,1.5-7.29,4.36-2.02,2.02-2.57,5.65-2.72,7.45,1.79-.15,5.43-.7,7.45-2.72,2.87-2.87,4.35-7.24,4.36-7.29.17-.52.74-.81,1.27-.63.52.17.81.74.63,1.27-.07.2-1.65,4.87-4.85,8.07-3.32,3.33-9.65,3.36-9.92,3.36Z"/><path class="cls-1" d="M62.38,63.5c-.27,0-6.59-.04-9.92-3.36-3.2-3.2-4.78-7.87-4.85-8.07-.17-.52.11-1.09.63-1.26.52-.18,1.09.11,1.27.63.02.04,1.5,4.43,4.36,7.29,2.02,2.02,5.65,2.57,7.45,2.72-.15-1.79-.7-5.43-2.72-7.45-2.87-2.87-7.24-4.35-7.29-4.36-.52-.17-.81-.74-.63-1.27.17-.52.74-.81,1.27-.63.2.07,4.87,1.65,8.07,4.85,3.33,3.32,3.36,9.65,3.36,9.92,0,.55-.45,1-1,1Z"/><path class="cls-1" d="M51.63,43.54c-.42,0-.81-.27-.95-.68-.17-.52.11-1.09.63-1.27.04-.02,4.43-1.5,7.29-4.36,2.02-2.02,2.57-5.65,2.72-7.45-1.79.15-5.43.7-7.45,2.72-2.87,2.87-4.35,7.24-4.36,7.29-.17.52-.74.81-1.27.63-.52-.17-.81-.74-.63-1.27.07-.2,1.65-4.87,4.85-8.07,3.32-3.33,9.65-3.36,9.92-3.36.55,0,1,.45,1,1,0,.27-.04,6.59-3.36,9.92-3.2,3.2-7.87,4.78-8.07,4.85-.1.04-.21.05-.32.05Z"/></g></svg>