<?xml version="1.0" encoding="UTF-8"?><svg id="Layer_2" xmlns="http://www.w3.org/2000/svg" viewBox="0 0 90 90"><defs><style>.cls-1{fill:#ed2435;}.cls-2{fill:#e4f3f4;}</style></defs><g id="Layer_3"><g><rect class="cls-2" width="90" height="90" rx="3.1" ry="3.1"/><g><path class="cls-1" d="m45.01,32.27c-7.02,0-12.73,5.71-12.73,12.73.6,16.85,24.87,16.85,25.47,0,0-7.02-5.71-12.73-12.73-12.73Zm0,23.06c-13.65-.43-13.65-20.23,0-20.66,13.65.43,13.65,20.23,0,20.66Z"/><path class="cls-1" d="m45.01,27.57c.66,0,1.2-.54,1.2-1.2v-8.28c0-.66-.54-1.2-1.2-1.2s-1.2.54-1.2,1.2v8.28c0,.66.54,1.2,1.2,1.2Z"/><path class="cls-1" d="m45.01,62.43c-.66,0-1.2.54-1.2,1.2v8.28c0,.66.54,1.2,1.2,1.2s1.2-.54,1.2-1.2v-8.28c0-.66-.54-1.2-1.2-1.2Z"/><path class="cls-1" d="m71.92,43.8h-8.28c-1.57,0-1.57,2.39,0,2.4,0,0,8.28,0,8.28,0,1.57,0,1.57-2.39,0-2.4Z"/><path class="cls-1" d="m27.59,45c0-.66-.54-1.2-1.2-1.2h-8.28c-.66,0-1.2.54-1.2,1.2s.54,1.2,1.2,1.2h8.28c.66,0,1.2-.54,1.2-1.2Z"/><path class="cls-1" d="m58.18,33.03c.31,0,.62-.12.85-.35l5.85-5.85c1.11-1.09-.61-2.82-1.7-1.7,0,0-5.85,5.85-5.85,5.85-.76.71-.18,2.09.85,2.05Z"/><path class="cls-1" d="m30.99,57.32l-5.85,5.85c-1.1,1.12.58,2.81,1.7,1.7,0,0,5.85-5.85,5.85-5.85,1.11-1.09-.61-2.82-1.7-1.7Z"/><path class="cls-1" d="m59.03,57.32c-1.09-1.12-2.82.61-1.7,1.7,0,0,5.85,5.85,5.85,5.85,1.12,1.1,2.8-.58,1.7-1.7,0,0-5.85-5.85-5.85-5.85Z"/><path class="cls-1" d="m30.99,32.68c1.12,1.1,2.8-.58,1.7-1.7,0,0-5.85-5.85-5.85-5.85-1.09-1.12-2.82.61-1.7,1.7,0,0,5.85,5.85,5.85,5.85Z"/></g></g></g></svg>