<?xml version="1.0" encoding="UTF-8"?><svg id="Layer_2" xmlns="http://www.w3.org/2000/svg" viewBox="0 0 90 90"><defs><style>.cls-1{fill:#1a1a1a;}.cls-1,.cls-2{stroke-width:0px;}.cls-2{fill:#ffea80;}</style></defs><g id="Layer_1-2"><rect class="cls-2" width="90" height="90" rx="3.1" ry="3.1"/><path class="cls-1" d="M44.26,70.51c-12.52,0-22.71-10.19-22.71-22.71s10.19-22.71,22.71-22.71,22.71,10.19,22.71,22.71-10.19,22.71-22.71,22.71ZM44.26,27.09c-11.42,0-20.71,9.29-20.71,20.71s9.29,20.71,20.71,20.71,20.71-9.29,20.71-20.71-9.29-20.71-20.71-20.71Z"/><path class="cls-1" d="M33.41,42.28c-3.85,0-7.07-2.89-7.47-6.71l1.99-.21c.3,2.81,2.65,4.92,5.48,4.92,3.04,0,5.51-2.47,5.51-5.51,0-2.58-1.83-4.85-4.35-5.39l.42-1.96c3.44.74,5.93,3.83,5.93,7.35,0,4.14-3.37,7.51-7.51,7.51Z"/><path class="cls-1" d="M59.32,63.91c-4.2-.6-7.37-4.26-7.37-8.51,0-4.74,3.86-8.6,8.6-8.6,2.33,0,4.51.92,6.14,2.58l-1.43,1.4c-1.25-1.28-2.92-1.98-4.71-1.98-3.64,0-6.6,2.96-6.6,6.6,0,3.26,2.43,6.07,5.65,6.53l-.28,1.98Z"/><path class="cls-1" d="M49.7,41.2c-.24,0-.49-.09-.68-.27-.4-.38-.43-1-.06-1.4l.02-.02c.38-.4,1.01-.42,1.41-.04.4.38.42,1.01.04,1.41-.2.21-.47.32-.75.32Z"/><path class="cls-1" d="M39.92,59.65c-2.95,0-5.34-2.4-5.34-5.34s2.4-5.34,5.34-5.34,5.34,2.4,5.34,5.34-2.4,5.34-5.34,5.34ZM39.92,50.97c-1.84,0-3.34,1.5-3.34,3.34s1.5,3.34,3.34,3.34,3.34-1.5,3.34-3.34-1.5-3.34-3.34-3.34Z"/></g></svg>