<?xml version="1.0" encoding="UTF-8"?><svg id="Layer_2" xmlns="http://www.w3.org/2000/svg" viewBox="0 0 90 90"><defs><style>.cls-1{fill:#1a1a1a;}.cls-1,.cls-2{stroke-width:0px;}.cls-2{fill:#ffb3ce;}</style></defs><g id="Layer_1-2"><rect class="cls-2" width="90" height="90" rx="3.1" ry="3.1"/><path class="cls-1" d="M34.11,56.44c-.24,0-.47-.08-.66-.25-.41-.37-.46-.99-.09-1.4l.02-.02c.37-.41,1-.44,1.41-.08.41.37.45,1,.08,1.41-.2.22-.48.34-.76.34Z"/><path class="cls-1" d="M55.82,56.44c-.24,0-.47-.08-.66-.25-.41-.37-.46-.99-.09-1.4l.02-.02c.37-.41,1-.44,1.41-.08.41.37.45,1,.08,1.41-.2.22-.48.34-.76.34Z"/><path class="cls-1" d="M62.33,65.12H27.59c-1.75,0-3.17-1.42-3.17-3.17v-15.2c0-.55.45-1,1-1h39.08c.55,0,1,.45,1,1v15.2c0,1.75-1.42,3.17-3.17,3.17ZM26.42,47.76v14.2c0,.65.53,1.17,1.17,1.17h34.74c.65,0,1.17-.53,1.17-1.17v-14.2H26.42Z"/><path class="cls-1" d="M64.5,39.07c-.55,0-1-.45-1-1v-4.34c0-4.24-3.45-7.68-7.68-7.68h-21.71c-4.24,0-7.68,3.45-7.68,7.68v4.34c0,.55-.45,1-1,1s-1-.45-1-1v-4.34c0-5.34,4.34-9.68,9.68-9.68h21.71c5.34,0,9.68,4.34,9.68,9.68v4.34c0,.55-.45,1-1,1Z"/><path class="cls-1" d="M55.82,39.07h-21.71c-.55,0-1-.45-1-1s.45-1,1-1h21.71c.55,0,1,.45,1,1s-.45,1-1,1Z"/><path class="cls-1" d="M36.06,70.55h-6.08c-1.27,0-2.3-1.03-2.3-2.3v-4.12c0-.55.45-1,1-1s1,.45,1,1v4.12c0,.17.14.3.3.3h6.08c.17,0,.3-.14.3-.3v-4.12c0-.55.45-1,1-1s1,.45,1,1v4.12c0,1.27-1.03,2.3-2.3,2.3Z"/><path class="cls-1" d="M59.94,70.55h-6.08c-1.27,0-2.3-1.03-2.3-2.3v-4.12c0-.55.45-1,1-1s1,.45,1,1v4.12c0,.17.14.3.3.3h6.08c.17,0,.3-.14.3-.3v-4.12c0-.55.45-1,1-1s1,.45,1,1v4.12c0,1.27-1.03,2.3-2.3,2.3Z"/></g></svg>