<?xml version="1.0" encoding="UTF-8"?><svg id="Layer_2" xmlns="http://www.w3.org/2000/svg" viewBox="0 0 90 90"><defs><style>.cls-1{fill:#ed2435;}.cls-2{fill:#dbf0f7;}</style></defs><g id="Layer_3"><g><rect class="cls-2" width="90" height="90" rx="3.1" ry="3.1"/><g><path class="cls-1" d="m56.53,34.19h-23.06c-5.96,0-10.81,4.85-10.81,10.81s4.95,10.81,10.81,10.81c5.21,0,9.67-3.71,10.63-8.82.09-.46.46-.79.9-.79s.82.32.9.79c.95,5.11,5.42,8.82,10.63,8.82,5.86,0,10.81-4.95,10.81-10.81s-4.85-10.81-10.81-10.81Zm0,19.22c-4.05,0-7.52-2.88-8.27-6.86-.3-1.6-1.67-2.75-3.26-2.75s-2.97,1.16-3.26,2.75c-.74,3.97-4.22,6.86-8.27,6.86-4.56,0-8.41-3.85-8.41-8.41s3.77-8.41,8.41-8.41h23.06c4.64,0,8.41,3.77,8.41,8.41s-3.85,8.41-8.41,8.41Z"/><path class="cls-1" d="m69.98,39.96c-.66,0-1.2.54-1.2,1.2v7.69c0,.66.54,1.2,1.2,1.2s1.2-.54,1.2-1.2v-7.69c0-.66-.54-1.2-1.2-1.2Z"/><path class="cls-1" d="m20.02,39.96c-.66,0-1.2.54-1.2,1.2v7.69c0,.66.54,1.2,1.2,1.2s1.2-.54,1.2-1.2v-7.69c0-.66-.54-1.2-1.2-1.2Z"/><path class="cls-1" d="m33.47,38.03c-3.84,0-6.97,3.12-6.97,6.97,0,.66.54,1.2,1.2,1.2s1.2-.54,1.2-1.2c0-2.52,2.05-4.56,4.56-4.56.66,0,1.2-.54,1.2-1.2s-.54-1.2-1.2-1.2Z"/></g></g></g></svg>