<?xml version="1.0" encoding="UTF-8"?><svg id="Layer_2" xmlns="http://www.w3.org/2000/svg" viewBox="0 0 90 90"><defs><style>.cls-1{fill:#fa783d;}.cls-1,.cls-2{stroke-width:0px;}.cls-2{fill:#fff;}</style></defs><g id="Layer_1-2"><rect class="cls-1" width="90" height="90" rx="3.1" ry="3.1"/><rect class="cls-2" x="31.34" y="52.27" width="32" height="1.94"/><path class="cls-2" d="M56,30.36h-17.37c-.55,0-1-.45-1-1s.45-1,1-1h17.37c.55,0,1,.45,1,1s-.45,1-1,1Z"/><path class="cls-2" d="M60.23,67.27h-25.83c-2.25,0-4.14-1.34-4.71-3.33-.49-1.73-.75-3.53-.75-5.35,0-6.04,3.35-11.9,8.96-15.67,1.19-.8,1.9-2.01,1.9-3.23v-9.23c0-.55.45-1,1-1s1,.45,1,1v9.23c0,1.89-1.04,3.72-2.78,4.89-4.98,3.35-8.07,8.72-8.07,14.01,0,1.63.22,3.25.67,4.8.32,1.12,1.44,1.88,2.78,1.88h25.83c1.34,0,2.46-.76,2.79-1.88.44-1.55.67-3.17.67-4.8,0-5.3-3.09-10.67-8.07-14.01-1.74-1.17-2.78-3-2.78-4.89v-9.23c0-.55.45-1,1-1s1,.45,1,1v9.23c0,1.22.71,2.43,1.9,3.23,5.61,3.77,8.96,9.63,8.96,15.67,0,1.82-.25,3.62-.74,5.35-.57,1.99-2.46,3.33-4.71,3.33Z"/><path class="cls-2" d="M49.49,36.88c-.23,0-.47-.08-.65-.24-.42-.36-.47-.98-.1-1.4l.02-.02c.37-.41,1-.45,1.41-.09.42.36.46,1,.09,1.41-.2.23-.49.35-.77.35Z"/><path class="cls-2" d="M45.15,26.02c-.24,0-.49-.09-.68-.27-.4-.38-.43-1-.06-1.4l.02-.02c.38-.4,1.01-.42,1.41-.04.4.38.42,1.01.04,1.41-.2.21-.47.32-.75.32Z"/></g></svg>