<?xml version="1.0" encoding="UTF-8"?><svg id="Layer_2" xmlns="http://www.w3.org/2000/svg" viewBox="0 0 90 90"><defs><style>.cls-1{fill:#1a1a1a;}.cls-1,.cls-2{stroke-width:0px;}.cls-2{fill:#ffea80;}</style></defs><g id="Layer_1-2"><rect class="cls-2" width="90" height="90" rx="3.1" ry="3.1"/><path class="cls-1" d="M45.78,67.01c-.55,0-1-.45-1-1v-5.83l-3.91,2.35c-.47.28-1.09.13-1.37-.34-.28-.47-.13-1.09.34-1.37l4.94-2.97v-11.86l-10.02,5.47-1.01,7.1c-.08.55-.58.93-1.13.85-.55-.08-.93-.58-.85-1.13l.8-5.57-5.82,3.33c-.48.27-1.09.11-1.36-.37-.27-.48-.11-1.09.37-1.36l5.54-3.16-5.32-1.52c-.53-.15-.84-.71-.69-1.24.15-.53.7-.84,1.24-.69l7.2,2.06,9.97-5.44-9.97-5.44-7.2,2.06c-.53.15-1.08-.16-1.24-.69-.15-.53.16-1.08.69-1.24l5.32-1.52-5.54-3.16c-.48-.27-.65-.88-.37-1.36.27-.48.89-.65,1.36-.37l5.82,3.33-.8-5.57c-.08-.55.3-1.05.85-1.13.55-.08,1.05.3,1.13.85l1.01,7.1,10.02,5.47v-12.84l-4.8-1.92c-.51-.21-.76-.79-.56-1.3.21-.51.79-.76,1.3-.56l4.06,1.62v-5.04c0-.55.45-1,1-1s1,.45,1,1v5.04l4.06-1.62c.52-.2,1.1.04,1.3.56.21.51-.04,1.09-.56,1.3l-4.8,1.92v12.84l10.02-5.47,1.01-7.1c.08-.55.58-.93,1.13-.85.55.08.93.58.85,1.13l-.8,5.57,5.82-3.33c.48-.27,1.09-.11,1.36.37.27.48.11,1.09-.37,1.36l-5.54,3.16,5.32,1.52c.53.15.84.71.69,1.24-.15.53-.7.84-1.24.69l-7.2-2.06-9.97,5.44,9.97,5.44,7.2-2.06c.53-.15,1.08.16,1.24.69.15.53-.16,1.08-.69,1.24l-5.32,1.52,5.54,3.16c.48.27.65.88.37,1.36-.27.48-.88.65-1.36.37l-5.82-3.33.8,5.57c.08.55-.3,1.05-.85,1.13-.55.08-1.05-.3-1.13-.85l-1.01-7.1-10.02-5.47v11.86l4.94,2.97c.47.28.63.9.34,1.37-.28.47-.9.63-1.37.34l-3.91-2.35v5.83c0,.55-.45,1-1,1Z"/></g></svg>