<?xml version="1.0" encoding="UTF-8"?><svg id="Layer_2" xmlns="http://www.w3.org/2000/svg" viewBox="0 0 90 90"><defs><style>.cls-1{fill:#61f7b6;}.cls-1,.cls-2{stroke-width:0px;}.cls-2{fill:#1a1a1a;}</style></defs><g id="Layer_1-2"><rect class="cls-1" width="90" height="90" rx="3.1" ry="3.1"/><path class="cls-2" d="M29.83,62.15c-.55,0-1-.45-1-1v-30.39c0-.55.45-1,1-1h2.17c.55,0,1,.45,1,1s-.45,1-1,1h-1.17v29.39c0,.55-.45,1-1,1Z"/><path class="cls-2" d="M45.03,62.15c-.55,0-1-.45-1-1v-30.39c0-.55.45-1,1-1h2.17c.55,0,1,.45,1,1s-.45,1-1,1h-1.17v29.39c0,.55-.45,1-1,1Z"/><path class="cls-2" d="M38.52,62.15c-.55,0-1-.45-1-1v-30.39c0-.55.45-1,1-1s1,.45,1,1v30.39c0,.55-.45,1-1,1Z"/><path class="cls-2" d="M53.71,62.15c-.55,0-1-.45-1-1v-30.39c0-.55.45-1,1-1s1,.45,1,1v30.39c0,.55-.45,1-1,1Z"/><path class="cls-2" d="M60.23,62.15c-.55,0-1-.45-1-1v-30.39c0-.55.45-1,1-1s1,.45,1,1v30.39c0,.55-.45,1-1,1Z"/><path class="cls-2" d="M32,62.15h-2.17c-.55,0-1-.45-1-1s.45-1,1-1h1.17v-29.39c0-.55.45-1,1-1s1,.45,1,1v30.39c0,.55-.45,1-1,1Z"/><path class="cls-2" d="M47.2,62.15h-2.17c-.55,0-1-.45-1-1s.45-1,1-1h1.17v-29.39c0-.55.45-1,1-1s1,.45,1,1v30.39c0,.55-.45,1-1,1Z"/></g></svg>