<?xml version="1.0" encoding="UTF-8"?><svg id="Layer_2" xmlns="http://www.w3.org/2000/svg" viewBox="0 0 90 90"><defs><style>.cls-1{fill:#ee2435;}.cls-2{fill:#e8e4f6;}</style></defs><g id="Layer_3"><g><rect class="cls-2" width="90" height="90" rx="3.1" ry="3.1"/><g><path class="cls-1" d="m65.09,36.59c-.48-.48-.98-.93-1.49-1.35-.51-.41-1.25-.34-1.67.16s-.34,1.25.16,1.67c.46.37.9.77,1.32,1.2,6.94,6.94,6.94,18.22,0,25.16-6.94,6.94-18.22,6.94-25.16,0-.42-.42-.82-.87-1.2-1.32-.41-.51-1.16-.58-1.67-.17-.51.42-.58,1.16-.17,1.67.42.52.87,1.02,1.35,1.5,3.93,3.93,9.09,5.89,14.26,5.89s10.33-1.96,14.26-5.89c7.86-7.86,7.86-20.65,0-28.52Z"/><path class="cls-1" d="m62.57,28.7l-2.68-2.68c-4.53-4.52-10.54-7.02-16.94-7.02-6,0-11.65,2.22-16.06,6.22l-3.19-3.19c-.46-.46-1.21-.46-1.68,0s-.46,1.22,0,1.68l3.19,3.19c-8.51,9.39-8.26,23.94.8,33l2.68,2.68c.23.23.53.35.84.35s.61-.11.84-.35L62.57,30.38c.46-.46.46-1.22,0-1.68Zm-33.04,31.37l-1.84-1.85c-8.42-8.42-8.42-22.11,0-30.53,4.08-4.08,9.5-6.32,15.26-6.32s11.19,2.24,15.26,6.32l1.84,1.84-30.53,30.53Z"/><path class="cls-1" d="m68.13,66.59c-.42-.17-.95-.08-1.29.27-.23.23-.34.51-.34.84s.11.63.34.83c.23.23.53.36.83.36.17,0,.32-.04.46-.09.15-.06.27-.15.38-.27.23-.21.36-.51.36-.83,0-.3-.13-.61-.36-.84-.11-.11-.23-.19-.38-.27Z"/><path class="cls-1" d="m54.06,27.72c-.46-.46-1.21-.46-1.68,0l-1.06,1.06-4.85-4.85c-.46-.46-1.21-.46-1.68,0s-.46,1.22,0,1.68l1.06,1.06-4.01,4.01-1.06-1.06c-.46-.46-1.21-.46-1.68,0s-.46,1.22,0,1.68l1.06,1.06-2.96,2.96c-.46.46-.46,1.22,0,1.68.23.23.53.35.84.35s.61-.11.84-.35l2.96-2.96,2.12,2.12-4.85,4.85c-.46.46-.46,1.22,0,1.68.23.23.53.35.84.35s.61-.11.84-.35l4.85-4.85,1.06,1.06c.23.23.53.35.84.35s.61-.11.84-.35c.46-.46.46-1.22,0-1.68l-1.06-1.06,4.01-4.01,1.06,1.06c.23.23.53.35.84.35s.61-.11.84-.35c.46-.46.46-1.22,0-1.68l-1.06-1.06,1.06-1.06c.46-.46.46-1.22,0-1.68Zm-8.43,6.75l-2.12-2.12,4.01-4.01,2.12,2.12-4.01,4.01Z"/></g></g></g></svg>