<?xml version="1.0" encoding="UTF-8"?><svg id="Layer_2" xmlns="http://www.w3.org/2000/svg" viewBox="0 0 90 90"><defs><style>.cls-1{fill:#ed2435;}.cls-2{fill:#edf6f0;}</style></defs><g id="Layer_3"><g><rect class="cls-2" width="90" height="90" rx="3.1" ry="3.1"/><path class="cls-1" d="m65.92,45l4.92-4.92c.47-.47.47-1.23,0-1.7s-1.23-.47-1.7,0l-5.41,5.41h-13.84c-.12-.5-.32-.97-.58-1.4l7.73-7.73h7.19c.66,0,1.2-.54,1.2-1.2s-.54-1.2-1.2-1.2h-4.79l5.64-5.64c.47-.47.47-1.23,0-1.7s-1.23-.47-1.7,0l-5.64,5.64v-4.79c0-.66-.54-1.2-1.2-1.2s-1.2.54-1.2,1.2v7.19l-7.73,7.73c-.43-.26-.9-.46-1.4-.58v-13.84l5.41-5.41c.47-.47.47-1.23,0-1.7s-1.23-.47-1.7,0l-4.92,4.92-4.92-4.92c-.47-.47-1.23-.47-1.7,0s-.47,1.23,0,1.7l5.41,5.41v13.84c-.5.12-.97.32-1.4.58l-7.73-7.73v-7.19c0-.66-.54-1.2-1.2-1.2s-1.2.54-1.2,1.2v4.79l-5.64-5.64c-.47-.47-1.23-.47-1.7,0s-.47,1.23,0,1.7l5.64,5.64h-4.79c-.66,0-1.2.54-1.2,1.2s.54,1.2,1.2,1.2h7.19l7.73,7.73c-.26.43-.46.9-.58,1.4h-13.84l-5.41-5.41c-.47-.47-1.23-.47-1.7,0s-.47,1.23,0,1.7l4.92,4.92-4.92,4.92c-.47.47-.47,1.23,0,1.7.23.23.54.35.85.35s.61-.12.85-.35l5.41-5.41h13.84c.12.5.32.97.58,1.4l-7.73,7.73h-7.19c-.66,0-1.2.54-1.2,1.2s.54,1.2,1.2,1.2h4.79l-5.64,5.64c-.47.47-.47,1.23,0,1.7.23.23.54.35.85.35s.61-.12.85-.35l5.64-5.64v4.79c0,.66.54,1.2,1.2,1.2s1.2-.54,1.2-1.2v-7.19l7.73-7.73c.43.26.9.46,1.4.58v13.84l-5.41,5.41c-.47.47-.47,1.23,0,1.7s1.23.47,1.7,0l4.92-4.92,4.92,4.92c.23.23.54.35.85.35s.61-.12.85-.35c.47-.47.47-1.23,0-1.7l-5.41-5.41v-13.84c.5-.12.97-.32,1.4-.58l7.73,7.73v7.19c0,.66.54,1.2,1.2,1.2s1.2-.54,1.2-1.2v-4.79l5.64,5.64c.23.23.54.35.85.35s.61-.12.85-.35c.47-.47.47-1.23,0-1.7l-5.64-5.64h4.79c.66,0,1.2-.54,1.2-1.2s-.54-1.2-1.2-1.2h-7.19l-7.73-7.73c.26-.43.46-.9.58-1.4h13.84l5.41,5.41c.23.23.54.35.85.35s.61-.12.85-.35c.47-.47.47-1.23,0-1.7l-4.92-4.92Zm-23.56,0c0-1.46,1.19-2.64,2.64-2.64s2.64,1.19,2.64,2.64-1.19,2.64-2.64,2.64-2.64-1.19-2.64-2.64Z"/></g></g></svg>