<?xml version="1.0" encoding="UTF-8"?><svg id="Layer_2" xmlns="http://www.w3.org/2000/svg" viewBox="0 0 90 90"><defs><style>.cls-1{fill:#f2f7e6;}.cls-2{fill:#ed2435;}</style></defs><g id="Layer_3"><g><rect class="cls-1" width="90" height="90" rx="3.1" ry="3.1"/><g><path class="cls-2" d="m60.83,39.77c-1.79-.64-2.35,2.22-.46,2.33,1.28.01,1.66-1.85.46-2.33Z"/><path class="cls-2" d="m69,39.79c-2.89-7.91-13.27-10.96-19.98-6.19l-10.86-10.86c-.47-.47-1.23-.47-1.7,0s-.47,1.23,0,1.7l10.69,10.69s-.08.07-.12.11l-2.03,2.03c-4.18-4.17-13.03-13.04-17.15-17.15-.47-.47-1.23-.47-1.7,0-9.28,8.71-5.96,25.53,5.87,30.12-3.53,3.54-11.33,11.32-14.78,14.78-.47.45-.47,1.25,0,1.7,4.45,4.45,11.62,4.69,16.35.6,8.98,2.74,18.78.52,25.7-6.36,3.46-3.72,10.07-8.6,10.49-14.12.08-.64-.36-1.24-1-1.37.04-.03-2.6,0-2.66-.02-1.57,0-1.57,2.39,0,2.4,0,0,.95,0,.95,0-.72,3.75-7.07,8.69-9.49,11.4-8.78,8.79-22.9,9.06-32.02.83l8.99-8.99c1.68.52,10.1,1.56,9.68-1.29-.15-.65-.79-1.05-1.44-.9-2.76.62-5.56.51-8.16-.26-4.88-5-5.09-13.56-.49-18.8,0,0,9.98,9.98,9.98,9.98l7.69,7.69c.47.47,1.23.47,1.7,0,.47-.47.47-1.23,0-1.7l-6.84-6.84,2.03-2.03c6.14-6.09,15.92-3.05,18.61,4.83.21.2.49.29.77.32,1.43.03,2.59,1.22,2.59,2.64,0,1.57,2.4,1.57,2.4,0,0-2.44-1.78-4.5-4.11-4.94Zm-38.04,26.55c-3.4,2.15-7.89,1.98-11.11-.52l4.06-4.06c2.14,1.95,4.52,3.48,7.05,4.57Zm-2.53-27.37c0,2.67.64,5.24,1.83,7.56-7.92-4.98-9.47-16.92-3.2-23.81l5.43,5.43c-2.61,3.01-4.05,6.81-4.05,10.83Z"/></g></g></g></svg>