<?xml version="1.0" encoding="UTF-8"?><svg id="Layer_2" xmlns="http://www.w3.org/2000/svg" viewBox="0 0 90 90"><defs><style>.cls-1{fill:#ee2435;}.cls-2{fill:#fddbdb;}</style></defs><g id="Layer_3"><g><rect class="cls-2" width="90" height="90" rx="3.1" ry="3.1"/><g><path class="cls-1" d="m66.22,29.41c-.07-.12-.15-.23-.25-.32-2.5-3.13-5.7-5.73-9.43-7.51-3.62-1.72-7.5-2.59-11.54-2.59-10.67,0-19.88,6.25-24.23,15.27-.11.14-.19.3-.23.47-1.56,3.41-2.46,7.18-2.46,11.17,0,.63.52,1.15,1.15,1.15h32.63s0,0,0,0c0,0,0,0,0,0h18.89c.64,0,1.15-.52,1.15-1.15,0-6.07-2.09-11.86-5.7-16.51Zm-2.22.89c-.21,1.32-.82,2.5-1.72,3.4-.13.13-.27.26-.42.38-.17.14-.34.28-.52.4-.17.11-.34.21-.52.3-.18.1-.35.19-.53.27-.23.1-.47.17-.71.23-.15.04-.29.1-.45.13-.41.08-.82.13-1.24.13-3.43,0-6.21-2.79-6.21-6.21,0-.31.03-.61.07-.9.01-.09.04-.18.05-.27.04-.21.09-.41.15-.61.03-.1.06-.19.1-.29.07-.19.14-.37.23-.55.04-.09.09-.19.14-.28.66-1.24,1.74-2.24,3.08-2.8.02.01.05.02.07.03,3.33,1.58,6.18,3.88,8.45,6.64Zm-41.54,5.76c.15-.01.3-.04.45-.04,3.43,0,6.21,2.79,6.21,6.21,0,.88-.19,1.74-.55,2.53h-8.17c.14-3.09.87-6.02,2.05-8.7Zm23.69,8.01c0-1.39,1.14-2.53,2.53-2.53s2.53,1.14,2.53,2.53c0,.24-.04.47-.1.69h-4.86c-.06-.22-.1-.46-.1-.69Zm7.27.69c.03-.23.09-.46.09-.69,0-2.66-2.17-4.83-4.83-4.83s-4.83,2.17-4.83,4.83c0,.23.06.46.09.69h-12.92c.25-.82.4-1.67.4-2.53,0-4.46-3.46-8.09-7.83-8.44,4.24-7.45,12.24-12.49,21.41-12.49,2.67,0,5.27.43,7.75,1.26-.88.66-1.59,1.5-2.15,2.43-.03.04-.07.06-.09.11-.05.09-.09.19-.14.28-.07.12-.12.25-.18.37-.12.25-.22.5-.31.76-.05.14-.1.27-.14.41-.08.27-.14.54-.2.82-.03.13-.06.26-.08.39-.06.41-.1.82-.1,1.24,0,4.69,3.82,8.51,8.51,8.51.58,0,1.15-.07,1.7-.18.21-.04.41-.12.62-.18.33-.09.65-.19.96-.32.26-.11.49-.25.74-.38.24-.13.48-.26.7-.41.25-.17.48-.35.71-.55.2-.17.39-.34.57-.52.12-.12.26-.21.37-.34.05-.06.07-.13.11-.19.54-.64.98-1.36,1.32-2.14,2.3,3.59,3.69,7.76,3.89,12.12h-16.17Z"/><path class="cls-1" d="m37.64,26.36c-2.66,0-4.83,2.17-4.83,4.83s2.17,4.83,4.83,4.83,4.83-2.17,4.83-4.83-2.17-4.83-4.83-4.83Zm0,7.36c-1.4,0-2.53-1.14-2.53-2.53s1.14-2.53,2.53-2.53,2.53,1.14,2.53,2.53-1.14,2.53-2.53,2.53Z"/><path class="cls-1" d="m49.66,48.48c-.62.13-1.02.74-.89,1.36l4.01,18.86h-15.57l4.01-18.86c.13-.62-.26-1.23-.89-1.36-.62-.14-1.23.26-1.36.89l-4.3,20.25c-.07.34.01.69.23.96s.55.43.89.43h18.41c.35,0,.68-.16.89-.43s.3-.62.23-.96l-4.3-20.25c-.13-.62-.74-1.03-1.36-.89Z"/></g></g></g></svg>