<?xml version="1.0" encoding="UTF-8"?><svg id="Layer_2" xmlns="http://www.w3.org/2000/svg" viewBox="0 0 90 90"><defs><style>.cls-1,.cls-2,.cls-3{stroke-width:0px;}.cls-2{fill:#f7bfad;}.cls-3{fill:#1a1a1a;}</style></defs><g id="Layer_1-2"><rect class="cls-2" width="90" height="90" rx="3.1" ry="3.1"/><path class="cls-1" d="M64.82,36.65c0,1.08-.87,1.95-1.95,1.95s-1.95-.87-1.95-1.95.87-1.95,1.95-1.95,1.95.87,1.95,1.95Z"/><path class="cls-3" d="M62.86,39.6c-1.63,0-2.95-1.33-2.95-2.95s1.33-2.95,2.95-2.95,2.95,1.33,2.95,2.95-1.33,2.95-2.95,2.95ZM62.86,35.69c-.53,0-.95.43-.95.95s.43.95.95.95.95-.43.95-.95-.43-.95-.95-.95Z"/><path class="cls-3" d="M62.86,39.6c-1.63,0-2.95-1.33-2.95-2.95s1.33-2.95,2.95-2.95c.33,0,.65.06.95.16v-6.97c0-1.27,1.03-2.3,2.3-2.3h3.47c.55,0,1,.45,1,1s-.45,1-1,1h-3.47c-.17,0-.3.14-.3.3v9.77h0c0,1.63-1.33,2.95-2.95,2.95ZM62.86,35.69c-.53,0-.95.43-.95.95s.43.95.95.95.95-.43.95-.95-.43-.95-.95-.95Z"/><path class="cls-3" d="M54.39,56.97c-2.95,0-5.34-2.4-5.34-5.34s2.4-5.34,5.34-5.34,5.34,2.4,5.34,5.34-2.4,5.34-5.34,5.34ZM54.39,48.28c-1.84,0-3.34,1.5-3.34,3.34s1.5,3.34,3.34,3.34,3.34-1.5,3.34-3.34-1.5-3.34-3.34-3.34Z"/><path class="cls-3" d="M45.71,67.82c-12.52,0-22.71-10.19-22.71-22.71s10.19-22.71,22.71-22.71c3.16,0,6.21.64,9.08,1.89.51.22.74.81.52,1.32-.22.51-.81.74-1.32.52-2.62-1.14-5.4-1.72-8.28-1.72-11.42,0-20.71,9.29-20.71,20.71s9.29,20.71,20.71,20.71c10.69,0,19.55-8.01,20.61-18.64.05-.55.55-.95,1.09-.9.55.05.95.54.9,1.09-1.16,11.65-10.87,20.44-22.6,20.44Z"/><path class="cls-1" d="M38.11,38.6c-.6,0-1.09-.49-1.09-1.09s.49-1.09,1.09-1.09,1.09.49,1.09,1.09-.49,1.09-1.09,1.09Z"/><path class="cls-3" d="M38.11,39.6c-1.15,0-2.09-.94-2.09-2.09s.94-2.09,2.09-2.09,2.09.94,2.09,2.09-.94,2.09-2.09,2.09ZM38.11,37.43s-.09.04-.09.09c0,.09.17.09.17,0,0-.05-.04-.09-.09-.09Z"/><path class="cls-1" d="M53.31,38.6c-.6,0-1.09-.49-1.09-1.09s.49-1.09,1.09-1.09,1.09.49,1.09,1.09-.49,1.09-1.09,1.09Z"/><path class="cls-3" d="M53.31,39.6c-1.15,0-2.09-.94-2.09-2.09s.94-2.09,2.09-2.09,2.09.94,2.09,2.09-.94,2.09-2.09,2.09ZM53.31,37.43s-.09.04-.09.09c0,.09.17.09.17,0,0-.05-.04-.09-.09-.09Z"/></g></svg>