<?xml version="1.0" encoding="UTF-8"?><svg id="Layer_2" xmlns="http://www.w3.org/2000/svg" viewBox="0 0 90 90"><defs><style>.cls-1{fill:#ed2435;}.cls-2{fill:#e2eaf6;}</style></defs><g id="Layer_3"><g><rect class="cls-2" width="90" height="90" rx="3.1" ry="3.1"/><path class="cls-1" d="m72.95,65.89l-11.53-20.41c-.43-.75-1.66-.75-2.09,0l-1.56,2.76-14.33-25.36c-.43-.75-1.66-.75-2.09,0l-24.3,43.01c-.46.76.15,1.82,1.05,1.79,11.3,0,37.59,0,48.61,0h5.21c.89.03,1.51-1.03,1.05-1.79Zm-30.56-39.98l5.64,9.99-2.17,2.17c-3.97-3.96-2.99-3.94-6.94,0l-2.17-2.17,5.64-9.98Zm24.3,39.37H20.15l15.38-27.21c3.94,3.98,2.99,3.75,6.87-.08,3.91,3.85,2.92,4.05,6.87.08l7.13,12.61-4.04,7.16c-.77,1.37,1.31,2.54,2.09,1.18,0,0,5.94-10.5,5.94-10.5l9.47,16.76h-3.15Z"/></g></g></svg>