<?xml version="1.0" encoding="UTF-8"?><svg id="Layer_2" xmlns="http://www.w3.org/2000/svg" viewBox="0 0 90 90"><defs><style>.cls-1{fill:#ed2435;}.cls-2{fill:#fddbc7;}</style></defs><g id="Layer_3"><g><rect class="cls-2" width="90" height="90" rx="3.1" ry="3.1"/><g><path class="cls-1" d="m40.31,31.43c.34.35.85.46,1.31.27.28-.12.53-.38.65-.65.49-1.17-1.08-2.23-1.96-1.31-.35.33-.43.86-.27,1.31.06.13.15.27.27.38Z"/><path class="cls-1" d="m48,31.43c.57.63,1.64.38,1.96-.38.63-2.17-2.86-2.17-2.23,0,.06.13.15.27.27.38Z"/><path class="cls-1" d="m70.83,52.79l-3.84-3.84c-.23-.23-.53-.35-.85-.35h-4.63c-.21-2.86-1.13-5.52-2.61-7.8,1.6-.85,2.67-2.54,2.67-4.45v-.84c8.26-1.56,7.27-13.67-1.2-13.81-.66,0-1.2.54-1.2,1.2v4.36l-4.2-.89c-.31-.07-.64,0-.91.17-.27.18-.46.45-.52.77-.81,3.81,1.89,7.6,5.63,8.21v.84c0,1.15-.75,2.1-1.8,2.46-6.04-7.34-18.7-7.34-24.75,0-1.05-.36-1.8-1.31-1.8-2.46v-.84c3.74-.61,6.44-4.4,5.63-8.21-.06-.32-.25-.59-.52-.77-.27-.18-.6-.24-.91-.17l-4.2.89v-4.36c0-.66-.54-1.2-1.2-1.2-8.47.15-9.46,12.25-1.2,13.81v.84c0,1.91,1.07,3.6,2.67,4.45-1.48,2.28-2.41,4.94-2.61,7.8h-4.63c-.32,0-.62.13-.85.35l-3.84,3.84c-1.11,1.12.58,2.81,1.7,1.7l3.49-3.49h4.13c.13,1.86.56,3.64,1.26,5.29h-3.97c-.32,0-.62.13-.85.35l-3.84,3.84c-1.11,1.12.58,2.81,1.7,1.7l3.49-3.49h4.75c.8,1.25,1.75,2.37,2.84,3.36h-2.33c-.32,0-.62.13-.85.35l-3.84,3.84c-1.11,1.12.58,2.81,1.7,1.7l3.49-3.49h5.23c4.55,2.54,10.9,2.54,15.45,0h5.23l3.49,3.49c1.12,1.11,2.8-.58,1.7-1.7l-3.84-3.84c-.23-.23-.53-.35-.85-.35h-2.33c1.09-.99,2.05-2.12,2.84-3.36h4.75l3.49,3.49c1.12,1.11,2.8-.58,1.7-1.7l-3.84-3.84c-.23-.23-.53-.35-.85-.35h-3.97c.7-1.64,1.13-3.42,1.26-5.29h4.13l3.49,3.49c1.12,1.11,2.8-.58,1.7-1.7Zm-15.01-23.8l4.3.91c.35.07.72-.02,1.01-.24.28-.23.44-.57.44-.93v-4.48c5.04,1.37,4.09,8.95-1.2,8.97-2.4,0-4.38-1.87-4.55-4.23Zm-30.76-.34c0-2.1,1.43-3.88,3.36-4.4v4.48c0,.36.16.71.44.93.28.23.65.32,1.01.24l4.3-.91c-.54,5.77-8.99,5.48-9.12-.34Zm19.94,35.31c-7.82,0-14.17-6.36-14.17-14.17.74-18.79,27.61-18.78,28.35,0,0,7.82-6.36,14.17-14.17,14.17Z"/></g></g></g></svg>