<?xml version="1.0" encoding="UTF-8"?><svg id="Layer_2" xmlns="http://www.w3.org/2000/svg" viewBox="0 0 90 90"><defs><style>.cls-1{fill:#1a1a1a;}.cls-1,.cls-2{stroke-width:0px;}.cls-2{fill:#ffb3ce;}</style></defs><g id="Layer_1-2"><rect class="cls-2" width="90" height="90" rx="3.1" ry="3.1"/><path class="cls-1" d="M66.62,53.4c-3.58,0-7.72-4.11-9.44-6-1.75,1.86-6.18,6-10.77,6s-7.9-3.78-9.43-5.78c-1.54,2-5.02,5.78-9.43,5.78-.55,0-1-.45-1-1s.45-1,1-1c4.78,0,8.55-5.98,8.58-6.04.18-.29.5-.47.85-.47h0c.34,0,.67.18.85.47.04.06,3.82,6.04,8.58,6.04s9.96-6.09,10.01-6.15c.19-.23.47-.36.77-.36h0c.3,0,.58.13.77.36,1.42,1.71,5.74,6.15,8.66,6.15.55,0,1,.45,1,1s-.45,1-1,1Z"/><path class="cls-1" d="M66.62,64.25c-3.58,0-7.72-4.11-9.44-6-1.75,1.86-6.18,6-10.77,6s-7.9-3.78-9.43-5.78c-1.54,2-5.02,5.78-9.43,5.78-.55,0-1-.45-1-1s.45-1,1-1c4.78,0,8.55-5.98,8.58-6.04.18-.29.5-.47.85-.47h0c.35,0,.67.18.85.47.04.06,3.82,6.04,8.58,6.04s9.96-6.09,10.01-6.15c.19-.23.47-.36.77-.36h0c.3,0,.58.13.77.36,1.42,1.71,5.74,6.15,8.66,6.15.55,0,1,.45,1,1s-.45,1-1,1Z"/><path class="cls-1" d="M31.89,43.63c-.33,0-.66-.17-.85-.47-.29-.47-.15-1.08.32-1.38l7.73-4.83-1.88-2.34c-.64-.8-.92-1.79-.79-2.81s.65-1.91,1.47-2.52c1.59-1.2,3.84-.93,5.12.6l9.19,11.03c.35.42.3,1.05-.13,1.41-.42.35-1.06.3-1.41-.13l-9.19-11.03c-.59-.71-1.64-.83-2.38-.28-.38.29-.62.7-.68,1.17-.06.47.07.93.37,1.3l2.58,3.22c.18.22.25.51.21.79s-.21.53-.46.68l-8.68,5.43c-.16.1-.35.15-.53.15Z"/><path class="cls-1" d="M56.85,38.2c-3.54,0-6.43-2.88-6.43-6.43s2.88-6.43,6.43-6.43,6.43,2.88,6.43,6.43-2.88,6.43-6.43,6.43ZM56.85,27.34c-2.44,0-4.43,1.99-4.43,4.43s1.99,4.43,4.43,4.43,4.43-1.99,4.43-4.43-1.99-4.43-4.43-4.43Z"/></g></svg>