<?xml version="1.0" encoding="UTF-8"?><svg id="Layer_2" xmlns="http://www.w3.org/2000/svg" viewBox="0 0 90 90"><defs><style>.cls-1{fill:#ee2435;}.cls-2{fill:#fee7cd;}</style></defs><g id="Layer_3"><g><rect class="cls-2" width="90" height="90" rx="3.1" ry="3.1"/><g><path class="cls-1" d="m65.56,33.47c-1.13-.96-2.63-1.37-4.11-1.13-2.4.39-4.21,2.62-4.21,5.18v9.4c0,.4-.32.72-.72.72h-4.56v-21.86c0-3.84-3.12-6.97-6.97-6.97s-6.97,3.12-6.97,6.97v14.17h-4.56c-.4,0-.72-.32-.72-.72v-5.77c0-2.56-1.81-4.79-4.21-5.18-1.48-.24-2.98.17-4.11,1.14-1.13.96-1.78,2.36-1.78,3.84v9.82c0,3.84,3.12,6.97,6.97,6.97h8.41v16.1c0,.66.54,1.2,1.2,1.2s1.2-.54,1.2-1.2v-17.3c0-.66-.54-1.2-1.2-1.2h-9.61c-2.52,0-4.56-2.05-4.56-4.56v-9.82c0-.78.34-1.51.93-2.01.6-.51,1.37-.73,2.16-.59,1.25.2,2.19,1.41,2.19,2.81v5.77c0,1.72,1.4,3.12,3.12,3.12h5.77c.66,0,1.2-.54,1.2-1.2v-15.38c0-2.52,2.05-4.56,4.56-4.56s4.56,2.05,4.56,4.56v23.06c0,.66.54,1.2,1.2,1.2h5.77c1.72,0,3.12-1.4,3.12-3.12v-9.4c0-1.4.94-2.61,2.19-2.81.79-.14,1.56.08,2.16.59.59.5.93,1.24.93,2.02v13.45c0,2.52-2.05,4.56-4.56,4.56h-9.61c-.66,0-1.2.54-1.2,1.2v9.61c0,.66.54,1.2,1.2,1.2s1.2-.54,1.2-1.2v-8.41h8.41c3.84,0,6.97-3.12,6.97-6.97v-13.45c0-1.48-.65-2.88-1.78-3.85Z"/><path class="cls-1" d="m54.61,68.78h-19.22c-.66,0-1.2.54-1.2,1.2s.54,1.2,1.2,1.2h19.22c.66,0,1.2-.54,1.2-1.2s-.54-1.2-1.2-1.2Z"/></g></g></g></svg>