<?xml version="1.0" encoding="UTF-8"?><svg id="Layer_2" xmlns="http://www.w3.org/2000/svg" viewBox="0 0 90 90"><defs><style>.cls-1{fill:#1a1a1a;}.cls-1,.cls-2{stroke-width:0px;}.cls-2{fill:#b892ff;}</style></defs><g id="Layer_1-2"><rect class="cls-2" width="90" height="90" rx="3.1" ry="3.1"/><path class="cls-1" d="M37.87,64.59c-.29,0-.58-.07-.85-.22l-4.03-2.22-4.03,2.22c-.6.33-1.31.29-1.87-.1-.58-.41-.86-1.1-.75-1.8l.78-4.76-3.29-3.36c-.49-.5-.65-1.22-.43-1.88.22-.65.76-1.12,1.43-1.22l4.52-.69,2.03-4.3c.3-.64.92-1.03,1.61-1.03h0c.69,0,1.31.4,1.61,1.03l2.03,4.3,4.52.69c.66.1,1.21.57,1.43,1.22.22.66.06,1.39-.43,1.88l-3.3,3.36.78,4.76c.12.7-.17,1.4-.75,1.8-.31.22-.66.33-1.02.33ZM25.48,53.18l3.43,3.49c.22.23.32.55.27.86l-.8,4.88,4.12-2.27c.3-.17.66-.17.96,0l4.12,2.27-.8-4.88c-.05-.31.05-.63.27-.86l3.43-3.49-4.7-.72c-.33-.05-.61-.26-.75-.56l-2.06-4.37-2.06,4.37c-.14.3-.42.51-.75.56l-4.7.72ZM30.02,51.47h0,0Z"/><path class="cls-1" d="M54.16,64.59c-.36,0-.71-.11-1.02-.33-.58-.41-.86-1.1-.75-1.8l.78-4.75-3.29-3.36c-.49-.5-.65-1.22-.43-1.88.22-.65.76-1.12,1.43-1.22l4.52-.69,2.03-4.3c.3-.64.92-1.03,1.61-1.03s1.31.4,1.61,1.03l2.03,4.3,4.52.69c.67.1,1.21.57,1.43,1.22.22.66.06,1.38-.43,1.88l-3.29,3.36.78,4.76c.12.71-.17,1.4-.75,1.8-.56.39-1.27.43-1.87.1l-4.03-2.22-4.03,2.22c-.27.15-.56.22-.85.22ZM51.53,53.18l3.43,3.49c.22.23.32.55.27.86l-.8,4.88,4.12-2.27c.3-.17.66-.17.96,0l4.12,2.27-.8-4.88c-.05-.31.05-.63.27-.86l3.43-3.49-4.7-.72c-.33-.05-.61-.26-.75-.56l-2.06-4.37-2.06,4.37c-.14.3-.42.51-.75.56l-4.7.72ZM56.08,51.47h0,0Z"/><path class="cls-1" d="M50.89,45.05c-.29,0-.58-.07-.85-.22l-4.03-2.22-4.03,2.22c-.6.33-1.31.29-1.87-.1-.58-.41-.86-1.1-.75-1.8l.78-4.76-3.29-3.36c-.49-.5-.65-1.22-.43-1.88.22-.65.76-1.12,1.43-1.22l4.52-.69,2.03-4.3c.3-.64.92-1.03,1.61-1.03s1.31.4,1.61,1.03l2.03,4.3,4.52.69c.67.1,1.21.57,1.43,1.22.22.66.06,1.38-.43,1.88l-3.29,3.36.78,4.76c.12.7-.17,1.4-.75,1.8-.31.22-.66.33-1.02.33ZM38.51,33.64l3.43,3.49c.22.23.32.55.27.86l-.8,4.88,4.12-2.27c.3-.17.66-.17.96,0l4.12,2.27-.8-4.88c-.05-.31.05-.63.27-.86l3.43-3.49-4.7-.72c-.33-.05-.61-.26-.75-.56l-2.06-4.37-2.06,4.37c-.14.3-.42.51-.75.56l-4.7.72ZM43.05,31.93h0,0Z"/></g></svg>