<?xml version="1.0" encoding="UTF-8"?><svg id="Layer_2" xmlns="http://www.w3.org/2000/svg" viewBox="0 0 90 90"><defs><style>.cls-1{fill:#5a9dba;}.cls-1,.cls-2{stroke-width:0px;}.cls-2{fill:#fff;}</style></defs><g id="Layer_1-2"><rect class="cls-1" width="90" height="90" rx="3.1" ry="3.1"/><path class="cls-2" d="M50.15,42.57c-.55,0-1-.45-1-1v-12.72c0-1.38-1.12-2.5-2.5-2.5s-2.5,1.12-2.5,2.5v10.5c0,.55-.45,1-1,1s-1-.45-1-1v-10.5c0-2.48,2.02-4.5,4.5-4.5s4.5,2.02,4.5,4.5v12.72c0,.55-.45,1-1,1Z"/><path class="cls-2" d="M54.92,49.89c-.09,0-.19-.01-.29-.04-.53-.16-.83-.72-.67-1.25l4.72-15.75c.19-.63.12-1.29-.2-1.87-.32-.58-.84-.99-1.47-1.17-.63-.18-1.29-.1-1.86.22-.57.32-.98.84-1.16,1.47l-2.89,10.34c-.15.53-.7.84-1.23.69-.53-.15-.84-.7-.69-1.23l2.89-10.34c.32-1.15,1.07-2.1,2.11-2.68s2.25-.72,3.39-.39c1.15.33,2.1,1.09,2.68,2.14s.7,2.26.36,3.41l-4.72,15.75c-.13.43-.53.71-.96.71Z"/><path class="cls-2" d="M35.08,52.11c-.54,0-1.07-.1-1.59-.29-1.13-.42-2.02-1.26-2.52-2.36l-2.29-5.08c-1.01-2.25-.01-4.92,2.24-5.94,1.09-.5,2.32-.54,3.45-.12,1.13.42,2.02,1.26,2.52,2.36h0s2.29,5.08,2.29,5.08c1.01,2.25.01,4.92-2.24,5.94-.6.27-1.23.41-1.86.41ZM32.78,40.03c-.35,0-.7.08-1.03.23-1.25.57-1.81,2.05-1.24,3.3l2.29,5.08c.28.61.77,1.08,1.4,1.31.63.24,1.31.21,1.92-.06,1.25-.57,1.8-2.05,1.24-3.3l-2.29-5.08c-.28-.61-.77-1.08-1.4-1.31-.29-.11-.58-.16-.88-.16Z"/><path class="cls-2" d="M44.87,48.63c-.11,0-.23-.02-.34-.06-.52-.19-.79-.76-.6-1.28.36-.99.32-2.07-.12-3.03l-2.33-5.17c-.27-.6-.75-1.05-1.36-1.28-.61-.23-1.27-.21-1.87.06-.61.28-1.06.77-1.29,1.4-.22.63-.18,1.3.11,1.9l.29.6c.24.5.04,1.1-.46,1.34-.5.24-1.1.04-1.34-.46l-.29-.6c-.54-1.08-.61-2.31-.2-3.45.41-1.14,1.24-2.05,2.34-2.55,1.08-.49,2.29-.53,3.4-.11,1.11.42,2,1.25,2.48,2.33l2.33,5.17c.65,1.44.71,3.05.17,4.53-.15.41-.53.66-.94.66Z"/><path class="cls-2" d="M49.51,70.56h-10.81c-5.64,0-10.22-4.59-10.22-10.22l-.32-17.79c0-.55.43-1.01.98-1.02.57.02,1.01.43,1.02.98l.32,17.81c0,4.55,3.69,8.24,8.22,8.24h10.81c5.61,0,6.37-2.19,9.18-10.32l.05-.14c.76-2.2.73-4.03-.11-5.42-1.37-2.28-4.48-2.8-4.51-2.81l-10.33-.96c-1.26-.11-2.41.82-2.54,2.08-.12,1.12.58,2.17,1.67,2.49l7.71,2.27c.39.12.71.4.88.78.16.38.15.8-.03,1.17l-1.07,2.14c-.25.49-.85.69-1.34.45s-.69-.85-.45-1.34l.74-1.48-7-2.06c-2.01-.59-3.31-2.53-3.09-4.61.25-2.35,2.35-4.09,4.71-3.86l10.39.97c.22.03,4.11.66,5.97,3.75,1.16,1.93,1.26,4.32.29,7.12l-.05.14c-2.85,8.25-4.04,11.66-11.07,11.66Z"/></g></svg>