<?xml version="1.0" encoding="utf-8"?>
<svg width="96" height="96" viewBox="0 0 41.5 41.5" xmlns="http://www.w3.org/2000/svg" xmlns:svg="http://www.w3.org/2000/svg" xmlns:xlink="http://www.w3.org/1999/xlink" preserveAspectRatio="X96Y96 meet">
 <style type="text/css">
    .st0{fill:#E9654B;}
	.st1{fill:#B6CFEA;}
	.st2{fill:#E6F5F8;}
	.st3{fill:#D0E8F0;}
	.st4{fill:#EE794B;}
	.st5{clip-path:url(#SVGID_2_);}
	.st6{opacity:0.22;}
	.st7{fill:#E34E3B;}
	.st8{opacity:0.5;}
	.st9{fill:#FBDFC3;}
	.st10{fill:#010101;}
	.st11{fill:#FFFFFF;}
	.st12{opacity:0.25;}
</style>
 <g class="layer">
  <title>Layer 1</title>
  <g id="svg_1">
   <g id="svg_2">
    <g id="svg_3">
     <path class="st0" d="m14.205263,29.059649c0,0 -0.273683,0.821051 -0.68421,1.231579c-0.273683,0.273684 -0.547368,0.410526 -0.957893,0.410526c-0.957894,0.273685 -2.052632,0.410528 -2.052632,0.410528s0.957894,0.136839 2.052632,0.273682c0.410525,0 0.410525,0 0.684211,0.136845c0.68421,0 0.957892,-0.410526 0.957892,-0.410526l0,-2.052633z" id="svg_4"/>
    </g>
    <g id="svg_5">
     <path class="st0" d="m26.794739,29.059649c0,0 0.273682,0.821051 0.684212,1.231579c0.273682,0.273684 0.547367,0.410526 0.957891,0.410526c0.957895,0.273685 2.052631,0.410528 2.052631,0.410528s-0.957893,0.136839 -2.189472,0.273682c-0.410524,0 -0.410524,0 -0.684212,0.136845c-0.821051,0 -0.957893,-0.410526 -0.957893,-0.410526l0.136843,-2.052633z" id="svg_6"/>
    </g>
   </g>
   <g id="svg_7">
    <g id="svg_8">
     <circle class="st1" cx="20.636842" cy="15.512283" id="svg_9" r="14.778944"/>
    </g>
    <g id="svg_10">
     <circle class="st2" cx="20.636842" cy="15.512283" id="svg_11" r="14.231576"/>
    </g>
    <g id="svg_12">
     <circle class="st3" cx="20.636842" cy="15.785967" id="svg_13" r="11.631577"/>
    </g>
    <g id="Body_1_">
     <g id="svg_14">
      <path class="st4" d="m13.794737,21.259651c0,0 0.957896,15.463154 0.957896,15.736839c0,0.136837 0.13684,0.410522 -0.54737,0.684216s-2.873683,0.821041 -2.873683,0.821041s1.642105,0 3.284209,0c1.505264,0 1.505264,-1.231575 1.505264,-1.505257s0.41053,-6.157894 0.41053,-6.157894s0.136841,6.978939 0.136841,7.252628s-0.136841,0.684212 -1.094742,0.957901c-0.68421,0.136829 -2.73684,0.547367 -2.73684,0.547367s2.326317,0 3.147368,0c1.915794,0 1.915794,-1.231583 1.915794,-1.231583l0.410524,-6.157894c0,0 0.136841,6.157894 0.136841,6.84211c0,0.547367 -0.410526,0.957893 -1.915787,1.231579c-0.957901,0.273674 -2.189477,0.547363 -2.189477,0.547363s2.600001,0 3.557899,0c1.778946,-0.136845 2.052629,-1.368423 2.052629,-1.368423l3.010525,-15.326311l-9.168423,-2.873682z" id="svg_15"/>
     </g>
     <g id="svg_16">
      <path class="st4" d="m27.478951,21.259651c0,0 -0.957897,15.463154 -0.957897,15.736839c0,0.136837 -0.136841,0.410522 0.547367,0.684216s2.873688,0.821041 2.873688,0.821041s-1.642107,0 -3.284212,0c-1.505262,0 -1.505262,-1.231575 -1.505262,-1.505257s-0.410524,-6.157894 -0.410524,-6.157894s-0.136843,6.978939 -0.136843,7.252628s0.136843,0.684212 1.094734,0.957901c0.684212,0.136829 2.736841,0.547367 2.736841,0.547367s-2.326313,0 -3.147364,0c-1.915792,0 -1.915792,-1.231583 -1.915792,-1.231583l-0.410526,-6.157894c0,0 -0.136845,6.157894 -0.136845,6.84211c0,0.547367 0.41053,0.957893 1.915794,1.231579c0.957891,0.273674 2.189472,0.547363 2.189472,0.547363s-2.600002,0 -3.557896,0c-1.778948,-0.136845 -2.052629,-1.368423 -2.052629,-1.368423l-3.010527,-15.326311l9.168421,-2.873682z" id="svg_17"/>
     </g>
     <g id="svg_18">
      <path class="st4" d="m27.615789,13.733335c0,3.831578 -3.147366,6.842107 -6.842104,6.842107s-6.842105,-3.147371 -6.842105,-6.842107s3.14737,-6.842103 6.842105,-6.842103s6.842104,3.010525 6.842104,6.842103z" id="svg_19"/>
     </g>
     <g id="svg_20">
      <g id="svg_21">
       <defs transform="translate(0.6 0) translate(0.4 0) translate(0.2 0) translate(-1 0.4) translate(-0.3 1.1) translate(-2.9 2) translate(9.2 36.3) scale(1.21491 1.21491) translate(-9.2 -36.3) translate(5.18556 31.5249) scale(1.04332 1.04332) translate(-5.18556 -31.5249) translate(4.73356 31.0837) scale(1.0346 1.0346) translate(-4.73356 -31.0837) translate(26.7652 1.04917) scale(1.02676 1.02676) translate(-26.7652 -1.04917) translate(26.0678 30.3218) scale(1.01629 1.01629) translate(-26.0678 -30.3218)">
        <polyline id="SVGID_1_" points="25.8,16.3 25.2,30 16.2,30 15.7,16.3       "/>
       </defs>
       <clipPath id="SVGID_2_" transform="translate(0.6 0) translate(0.4 0) translate(0.2 0) translate(-1 0.4) translate(-0.3 1.1) translate(-2.9 2) translate(9.2 36.3) scale(1.21491 1.21491) translate(-9.2 -36.3) translate(5.18556 31.5249) scale(1.04332 1.04332) translate(-5.18556 -31.5249) translate(4.73356 31.0837) scale(1.0346 1.0346) translate(-4.73356 -31.0837) translate(26.7652 1.04917) scale(1.02676 1.02676) translate(-26.7652 -1.04917) translate(26.0678 30.3218) scale(1.01629 1.01629) translate(-26.0678 -30.3218)">
        <use id="svg_22" xlink:href="#SVGID_1_"/>
       </clipPath>
       <g class="st5" id="svg_23">
        <circle class="st4" cx="20.773684" cy="17.428072" id="svg_24" r="12.178946"/>
       </g>
      </g>
     </g>
     <g class="st6" id="svg_25">
      <path class="st7" d="m27.205265,21.259651c0,0 0.821053,-7.25263 -0.273684,-9.989473c-2.052631,-4.789474 -6.842108,-4.378946 -6.842108,-4.378946s2.736841,1.094736 2.873686,5.199998c0.136843,2.873685 0,7.115789 0,7.115789l4.242105,2.052631z" id="svg_26"/>
     </g>
    </g>
    <g id="Face_1_">
     <g class="st8" id="svg_27">
      <g id="svg_28">
       <circle class="st9" cx="17.900001" cy="10.038599" id="svg_29" r="0.957895"/>
      </g>
     </g>
     <g id="svg_30">
      <g id="svg_31">
       <g id="svg_32">
        <path class="st10" d="m23.100002,23.996494c0,2.326313 -1.094736,3.831577 -2.463158,3.831577s-2.463156,-1.778948 -2.463156,-4.105265c0,0 1.094736,2.189474 2.599997,2.189474s2.326317,-1.915787 2.326317,-1.915787z" id="svg_33"/>
       </g>
       <g id="svg_34">
        <path class="st11" d="m23.100002,23.996494c0,1.50526 -1.094736,2.326313 -2.463158,2.326313s-2.326315,-1.09474 -2.326315,-2.46316c0,0 1.094734,1.36842 2.599998,1.36842s2.189474,-1.231573 2.189474,-1.231573z" id="svg_35"/>
       </g>
      </g>
      <g id="svg_36">
       <g id="svg_37">
        <g id="svg_38">
         <g id="svg_39">
          <circle class="st0" cx="25.426315" cy="17.564914" id="svg_40" r="4.242105"/>
         </g>
         <g id="svg_41">
          <circle class="st0" cx="15.847369" cy="17.564914" id="svg_42" r="4.242105"/>
         </g>
        </g>
        <g id="svg_43">
         <g id="svg_44">
          <circle class="st11" cx="25.426315" cy="17.564914" id="svg_45" r="3.28421"/>
         </g>
         <g id="svg_46">
          <circle class="st11" cx="15.573685" cy="17.564914" id="svg_47" r="3.28421"/>
         </g>
        </g>
       </g>
       <g id="svg_48">
        <g id="svg_49">
         <circle class="st10" cx="15.573685" cy="17.154388" id="svg_50" r="0.957895"/>
        </g>
        <g id="svg_51">
         <circle class="st10" cx="25.426315" cy="17.154388" id="svg_52" r="0.957895"/>
        </g>
       </g>
      </g>
     </g>
    </g>
    <g id="svg_53">
     <path class="st1" d="m5.584212,19.20702l0,0c-0.410527,0 -0.684211,-0.273685 -0.684211,-0.684216l0,-5.473679c0,-0.410528 0.273684,-0.684212 0.684211,-0.684212l0,0c0.410526,0 0.68421,0.273684 0.68421,0.684212l0,5.473679c0,0.41053 -0.273684,0.684216 -0.68421,0.684216z" id="svg_54"/>
    </g>
    <g id="svg_55">
     <path class="st1" d="m35.415791,19.20702l0,0c-0.410526,0 -0.684216,-0.273685 -0.684216,-0.684216l0,-5.473679c0,-0.410528 0.273689,-0.684212 0.684216,-0.684212l0,0c0.410519,0 0.684208,0.273684 0.684208,0.684212l0,5.473679c0,0.41053 -0.273689,0.684216 -0.684208,0.684216z" id="svg_56"/>
    </g>
    <g id="svg_57">
     <circle class="st11" cx="15.984211" cy="4.564916" id="svg_58" r="0.68421"/>
    </g>
    <g id="svg_59">
     <path class="st11" d="m11.057897,23.038595c-0.136842,0 -0.273684,0 -0.410527,-0.136839c-1.642105,-2.052633 -2.463157,-4.652634 -2.463157,-7.252631c0,-2.189475 0.547366,-4.242105 1.642104,-6.157895c1.094738,-1.778946 2.6,-3.28421 4.378946,-4.378947c0.273685,-0.136841 0.54737,0 0.68421,0.136843c0.136844,0.273684 0,0.547367 -0.13684,0.684211c-3.421053,1.915788 -5.610526,5.610523 -5.610526,9.578944c0,2.463158 0.821052,4.789473 2.326315,6.705265c0.136844,0.136839 0.136844,0.547367 -0.136842,0.68421c-0.136841,0.136839 -0.136841,0.136839 -0.273684,0.136839z" id="svg_60"/>
    </g>
    <g class="st12" id="svg_61">
     <path class="st0" d="m26.794739,29.470177l0,-1.094736c-1.915789,1.094736 -3.968424,2.18947 -6.431578,2.18947c-2.736845,0 -4.515787,-1.231577 -6.294738,-2.18947l0.13684,1.094736c0,0 2.052633,2.189472 6.294739,2.189472c3.968422,-0.136841 6.294737,-2.189472 6.294737,-2.189472z" id="svg_62"/>
    </g>
   </g>
  </g>
 </g>
</svg>