<?xml version="1.0" encoding="UTF-8"?>
<svg width="96px" height="96px" viewBox="0 0 96 96" version="1.1" xmlns="http://www.w3.org/2000/svg" xmlns:xlink="http://www.w3.org/1999/xlink">
    <title>Group 31</title>
    <g id="February-MVP" stroke="none" stroke-width="1" fill="none" fill-rule="evenodd">
        <g id="Group-31">
            <rect id="Rectangle-Copy" x="0" y="0" width="96" height="96"></rect>
            <g id="clair-logo-svg-vector" fill-rule="nonzero">
                <g id="Group">
                    <path d="M48.6049641,0.00480778006 C22.171673,-0.36618578 0.37580128,20.7804472 0.00480772006,47.2137383 C-0.36618584,73.6470295 20.7804471,95.4429012 47.3064867,95.8138948 L87.095546,95.8138948 C92.9386946,95.8138948 95.9996967,92.8459463 95.9996967,87.3737913 L95.9996967,48.2339706 C96.0921399,21.9861762 75.0382553,0.37580134 48.6049641,0.00480778006 L48.6049641,0.00480778006 Z M47.3064867,84.6840879 C27.0873376,84.4058428 10.9491178,67.8038809 11.2273629,47.5847319 C11.5056081,27.3655829 28.1075699,11.227363 48.326719,11.5056082 C68.545868,11.7838533 84.6840879,28.3858152 84.4058427,48.6049642 C84.1275975,68.8241132 67.5256357,84.9623331 47.3064867,84.6840879 Z" id="Shape" fill="#56A3D9"></path>
                    <path d="M34.9709508,41.9270801 C36.1766799,39.3301252 38.2171444,37.1041638 40.9068478,35.6201896 C43.5038027,34.2289637 46.3790028,33.6724734 49.0687061,33.9507186 L52.9641385,19.6674665 C46.6572479,18.5544858 39.8866155,19.3892213 33.8579701,22.8209117 C27.5510796,26.3453506 23.0991569,31.8175056 20.7804471,38.0316477 L34.9709508,41.9270801 L34.9709508,41.9270801 Z M41.6488349,61.0332485 C39.05188,59.8275194 36.7331702,57.7870548 35.249196,55.0973515 C33.8579701,52.5003966 33.3014798,49.6251965 33.5797249,46.9354932 L19.2964729,43.0400608 C18.0907438,49.3469513 19.0182277,56.1175838 22.4499181,62.2389775 C25.974357,68.4531197 31.5392604,72.9050424 37.7534025,75.2237522 L41.6488349,61.0332485 L41.6488349,61.0332485 Z" id="Shape" fill="#56A3D9"></path>
                    <path d="M60.6622549,54.262616 C59.4565258,56.8595709 57.4160612,59.1782807 54.7263579,60.6622549 C52.129403,62.0534808 49.3469513,62.6099711 46.6572479,62.3317259 L42.6690672,76.614978 C48.9759577,77.7279587 55.7465902,76.8004748 61.7752355,73.4615327 C68.0821261,69.9370939 72.5340488,64.4649389 74.8527585,58.1580484 L60.6622549,54.262616 L60.6622549,54.262616 Z" id="Path" fill="#F1626E"></path>
                </g>
            </g>
        </g>
    </g>
</svg>