<?xml version="1.0" encoding="UTF-8"?>
<svg width="96px" height="96px" viewBox="0 0 96 96" version="1.1" xmlns="http://www.w3.org/2000/svg" xmlns:xlink="http://www.w3.org/1999/xlink">
    <title>Group 32</title>
    <g id="February-MVP" stroke="none" stroke-width="1" fill="none" fill-rule="evenodd">
        <g id="Group-32">
            <rect id="Rectangle" x="0" y="0" width="96" height="96"></rect>
            <g id="nodejs-icon" transform="translate(4.000000, 0.000000)" fill="#8CC84B" fill-rule="nonzero">
                <path d="M39.636447,1.02554377 C42.0459449,-0.338834393 45.1180546,-0.344858138 47.4673151,1.02554377 L83.4411182,21.3044802 C85.6909868,22.5694666 87.196923,25.0783562 87.1760584,27.6715783 L87.1760584,68.3318548 C87.1908992,71.0335042 85.5373813,73.5966076 83.1640259,74.837499 L47.3829826,95.0230673 C44.8906307,96.4003869 41.8470516,96.3161954 39.4346515,94.8032007 L28.6973267,88.5987437 C27.9654417,88.1620222 27.1432006,87.8156569 26.6251585,87.1078669 C27.0829631,86.4934449 27.8961686,86.4151362 28.5587806,86.1440677 C30.0526692,85.6681919 31.4200593,84.9393188 32.7934731,84.1682795 C33.1398384,83.9273297 33.5645124,84.0176859 33.8958183,84.2345407 L43.0519102,89.5294122 C43.7054865,89.9058963 44.3680984,89.4089373 44.9283067,89.0926907 L80.0617974,69.2655352 C80.495507,69.0547041 80.7364568,68.5968995 80.7003144,68.1210237 L80.7003144,27.8522906 C80.7485043,27.3101536 80.4382815,26.8162065 79.9473463,26.5963399 L44.2566591,6.4981158 C43.8355829,6.20687823 43.2784635,6.20568013 42.8561385,6.49510393 L7.21665322,26.6354942 C6.73475365,26.8553609 6.40344769,27.3432842 6.46368514,27.8854212 L6.46368514,68.1541543 C6.42151893,68.6300301 6.6745162,69.0787991 7.11123769,69.2836064 L16.634778,74.6597985 C18.4238302,75.6235977 20.6194851,76.1657347 22.5892496,75.4579447 C24.3544807,74.7926752 25.5205346,73.1006361 25.5137776,71.2142166 L25.5228133,31.1864333 C25.480647,30.5930944 26.0408553,30.1021593 26.6161229,30.1623967 L31.1941688,30.1623967 C31.7965433,30.1473373 32.2694073,30.7858543 32.1880867,31.382205 L32.1790511,71.6629855 C32.182063,75.2410899 30.7122693,79.1324289 27.4022216,80.8883505 C23.3241464,82.9966611 18.2822722,82.5539159 14.252387,80.5269258 L4.01202106,74.8646058 C1.6025232,73.6598569 -0.0148522435,71.0575992 0.000102842543,68.3589616 L0.000102842543,27.6986851 C0.0206091903,25.0074713 1.49872685,22.5389456 3.86142745,21.2502665 L39.636447,1.02554377 Z M50.0093353,29.210645 C55.2108388,28.9094578 60.7797908,29.0118615 65.4602404,31.5749648 C69.0835228,33.5387056 71.0924416,37.6589469 71.1587028,41.6888321 C71.0562991,42.2309691 70.4900672,42.5321564 69.9720251,42.493002 C68.4660889,42.4899902 66.954129,42.5140851 65.4421691,42.4839664 C64.8006403,42.5080614 64.43018,41.9177344 64.3488595,41.3515024 C63.9151499,39.4239041 62.8640064,37.5173889 61.0508593,36.5867204 C58.2678892,35.1922235 55.0391621,35.2614966 52.0031948,35.2916153 C49.7864567,35.4120902 47.4040657,35.6018381 45.5276693,36.902967 C44.0819706,37.8908611 43.6482609,39.9148393 44.1632911,41.4870367 C44.6451907,42.6405838 45.9794501,43.0110441 47.066736,43.3543975 C53.3374542,44.9928561 59.9786327,44.8603337 66.1318879,46.9897274 C68.67692,47.8691941 71.1677384,49.5799376 72.0411814,52.2454446 C73.1796691,55.8175252 72.6827102,60.0883602 70.1437018,62.9556626 C68.0835812,65.3169705 65.0837563,66.5699094 62.0869433,67.2987825 C58.1022363,68.1872849 53.9699474,68.208368 49.9250029,67.8108008 C46.1210081,67.3770912 42.1634079,66.3771496 39.2268324,63.7869394 C36.7149308,61.6063438 35.4921107,58.2089518 35.6125856,54.9320348 C35.6427043,54.3778502 36.1938769,53.9923306 36.7269783,54.0375087 L41.2447868,54.0375087 C41.853185,53.9953425 42.2989421,54.5194082 42.3290609,55.091664 C42.609165,56.8987874 43.2988837,58.8565044 44.9011998,59.9106597 C47.9913808,61.9045192 51.8676605,61.7659731 55.4035986,61.8231986 C58.3341504,61.6936881 61.623115,61.6545338 64.0175535,59.714888 C65.2825399,58.6095309 65.6530002,56.7632531 65.3126586,55.1729845 C64.9421983,53.8296895 63.5055352,53.2062319 62.3007863,52.7634867 C56.1113886,50.8057697 49.3949133,51.5165715 43.2657532,49.2998335 C40.7779466,48.4203668 38.3714606,46.7578132 37.4166971,44.2007336 C36.0824376,40.5864868 36.6938477,36.1078327 39.5039246,33.3369101 C42.2146097,30.581047 46.1902812,29.517856 49.9551216,29.1383601 L50.0093353,29.210645 Z" id="Shape"></path>
            </g>
        </g>
    </g>
</svg>