<?xml version="1.0" encoding="UTF-8"?>
<svg width="33px" height="38px" viewBox="0 0 33 38" version="1.1" xmlns="http://www.w3.org/2000/svg" xmlns:xlink="http://www.w3.org/1999/xlink">
    <title>Icons / 🖼 Dynamic Icon</title>
    <g id="February-MVP" stroke="none" stroke-width="1" fill="none" fill-rule="evenodd">
        <g id="Icons-/-🖼-Dynamic-Icon" transform="translate(-0.000000, 0.000000)" fill="#EE0000" fill-rule="nonzero">
            <g id="Icon-Red_Hat-Containerized_App-A-Black-RGB">
                <path d="M16.2232368,15.2601036 C16.0140001,15.2634512 15.8146663,15.3497946 15.6691003,15.5001333 C15.5235343,15.6504719 15.4436643,15.8524866 15.4470663,16.0617224 C15.4436552,16.2697713 15.5239217,16.470478 15.6698532,16.6188019 C15.8157848,16.7671258 16.0151599,16.850645 16.2232368,16.850617 C16.4346605,16.8540275 16.6386034,16.7724201 16.7893133,16.6241024 C16.9400232,16.4757847 17.0248831,16.2731736 17.0248556,16.0617224 C17.0248556,15.8491199 16.9403995,15.645225 16.7900669,15.4948923 C16.6397342,15.3445596 16.4358393,15.2601036 16.2232368,15.2601036 L16.2232368,15.2601036 Z" id="Path"></path>
                <path d="M18.7680583,15.2601036 C18.5588216,15.2634512 18.3594878,15.3497946 18.2139218,15.5001333 C18.0683557,15.6504719 17.9884857,15.8524866 17.9918877,16.0617224 C17.9884766,16.2697713 18.0687431,16.470478 18.2146747,16.6188019 C18.3606063,16.7671258 18.5599814,16.850645 18.7680583,16.850617 C18.979482,16.8540275 19.1834248,16.7724201 19.3341348,16.6241024 C19.4848447,16.4757847 19.5697045,16.2731736 19.569677,16.0617224 C19.569677,15.8491199 19.485221,15.645225 19.3348883,15.4948923 C19.1845556,15.3445596 18.9806608,15.2601036 18.7680583,15.2601036 L18.7680583,15.2601036 Z" id="Path"></path>
                <g id="Group">
                    <path d="M32.0520263,9.01256695 L16.6176841,0.105691842 C16.3735993,-0.0352306142 16.0728743,-0.0352306142 15.8287895,0.105691842 L0.394447326,9.01256695 C0.15106181,9.15608007 0.00120279961,9.4171248 0,9.69966874 L0,27.513419 C0.00120279961,27.7959629 0.15106181,28.0570076 0.394447326,28.2005207 L15.8287895,37.1073959 C16.0742025,37.2432712 16.3722711,37.2432712 16.6176841,37.1073959 L32.0520263,28.2005207 C32.2954118,28.0570076 32.4452708,27.7959629 32.4464736,27.513419 L32.4464736,9.69966874 C32.4452708,9.4171248 32.2954118,9.15608007 32.0520263,9.01256695 Z M30.8559602,27.0553511 L16.2232368,35.5041583 L1.59051341,27.0553511 L1.59051341,10.1577366 L16.2232368,1.70892936 L30.8559602,10.1577366 L30.8559602,27.0553511 Z" id="Shape"></path>
                    <path d="M9.0722885,12.2444902 L9.0722885,24.9685975 C9.0722885,25.404292 9.42548867,25.7574921 9.86118315,25.7574921 L22.5852904,25.7574921 C23.0209849,25.7574921 23.3741851,25.404292 23.3741851,24.9685975 L23.3741851,12.2444902 C23.3741851,11.8087957 23.0209849,11.4555955 22.5852904,11.4555955 L9.86118315,11.4555955 C9.42548867,11.4555955 9.0722885,11.8087957 9.0722885,12.2444902 Z M10.6500778,13.0333849 L21.7963958,13.0333849 L21.7963958,24.1797028 L10.6500778,24.1797028 L10.6500778,13.0333849 Z" id="Shape"></path>
                </g>
            </g>
        </g>
    </g>
</svg>