<?xml version="1.0" encoding="UTF-8"?>
<svg width="32px" height="30px" viewBox="0 0 32 30" version="1.1" xmlns="http://www.w3.org/2000/svg" xmlns:xlink="http://www.w3.org/1999/xlink">
    <title>Icons / 🖼 Dynamic Icon 2</title>
    <g id="February-MVP" stroke="none" stroke-width="1" fill="none" fill-rule="evenodd">
        <g id="Icons-/-🖼-Dynamic-Icon" transform="translate(0.640000, 0.000000)" fill="#EE0000" fill-rule="nonzero">
            <g id="Icon-Red_Hat-Cloud_migration-A-Black-RGB">
                <path d="M29.2595823,19.4338427 C30.9286308,18.1291431 31.6937459,15.9776814 31.2232537,13.9121061 C30.7527616,11.8465309 29.1313554,10.2386657 27.0619071,9.78551263 L27.0619071,9.78551263 C27.0654245,5.24848982 23.9472244,1.3051691 19.5316128,0.262594143 C15.1160012,-0.779980818 10.5633173,1.35215896 8.53711339,5.411603 C5.57138359,5.05178166 2.66937989,6.46018862 1.11707591,9.01271228 C-0.435228067,11.5652359 -0.350768828,14.7898448 1.33302695,17.2576082 C-0.265949765,19.5950424 -0.439330784,22.6256404 0.88263566,25.1301822 C2.2046021,27.6347241 4.80458504,29.2014638 7.63660258,29.2000977 L26.3972443,29.2000977 C26.5051069,29.1980527 26.6112169,29.1724399 26.708135,29.1250542 C28.8408742,28.7851238 30.5724542,27.2193258 31.1245848,25.1314368 C31.6767155,23.0435477 30.9454944,20.8264757 29.2595823,19.4767241 L29.2595823,19.4338427 Z M25.861226,27.8709276 L7.63660258,27.8709276 C5.23331185,27.8876496 3.02954376,26.5364663 1.95452153,24.3869504 C0.87949929,22.2374345 1.12030713,19.6636626 2.57540795,17.7508708 C4.03050876,15.8380789 6.44667392,14.9191468 8.80512256,15.3815441 C9.11057008,15.4348189 9.41378835,15.2766181 9.54482786,14.9956109 C10.3815395,13.0634252 11.9113315,11.5145108 13.8329745,10.6538623 C14.1304522,10.4781902 14.2473977,10.106346 14.1040234,9.79202532 C13.9606491,9.47770466 13.6031849,9.32225784 13.2755155,9.43174052 C11.2240337,10.3598891 9.55727288,11.9698285 8.55855412,13.9878964 C6.23440457,13.6768122 3.89844304,14.470008 2.24425812,16.1319697 C1.65658459,15.1625733 1.34862397,14.0494626 1.35446768,12.9158597 C1.33947263,11.028699 2.17655702,9.23546498 3.63281877,8.03508922 C5.08908052,6.83471347 7.00911999,6.35528972 8.85872439,6.73020811 C9.16477548,6.78744837 9.47029738,6.62804564 9.59842969,6.34427491 C11.1816411,2.66205327 15.1370044,0.601990988 19.0617304,1.4155269 C22.9864563,2.22906282 25.7970671,5.69160845 25.7861834,9.69974969 C25.7861834,9.83911446 25.7861834,9.97847923 25.7861834,10.117844 L25.7861834,10.3108106 C25.7669623,10.6685563 26.0304233,10.9790639 26.386524,11.0183548 C28.1607188,11.1936625 29.6218121,12.4883477 30.0093374,14.2285558 C30.3968628,15.9687639 29.6232157,17.7611013 28.0910623,18.6726966 C27.7868986,18.5400902 27.4710789,18.4360133 27.14767,18.361806 L27.14767,18.361806 C27.1594929,14.9849963 25.4184711,11.8438521 22.5486327,10.0642422 C22.3991125,9.9661328 22.2159362,9.93353802 22.0417501,9.97404641 C21.867564,10.0145548 21.7175671,10.1246317 21.6266812,10.2786495 C21.4348205,10.5930219 21.5301985,11.0031474 21.8410885,11.200601 C24.3190985,12.7363375 25.8242959,15.4465042 25.8183445,18.361806 C25.8183445,18.5011708 25.8183445,18.6405355 25.8183445,18.7799003 L25.8183445,18.887104 C25.7991234,19.2448497 26.0625844,19.5553573 26.4186851,19.5946482 C28.5803748,19.8627763 30.1665982,21.7570089 30.0509271,23.9321905 C29.9352559,26.1073722 28.1570847,27.822694 25.97915,27.8600509 L25.861226,27.8709276 Z" id="Shape"></path>
                <path d="M18.2926471,4.4789311 C18.0302923,4.22291161 17.6116097,4.22291161 17.3492548,4.4789311 L15.2051815,6.62300444 C14.5834002,7.22334498 15.5482332,8.18817798 16.1485738,7.56639671 L17.1562882,6.56940261 L17.1562882,14.5989573 C17.1562882,14.9660404 17.4538679,15.26362 17.820951,15.26362 C18.1880341,15.26362 18.4856137,14.9660404 18.4856137,14.5989573 L18.4856137,6.56940261 L19.4933282,7.56639671 C19.7538388,7.82690728 20.1762099,7.82690727 20.4367204,7.5663967 C20.697231,7.30588612 20.697231,6.88351503 20.4367204,6.62300444 L18.2926471,4.4789311 Z" id="Path"></path>
            </g>
        </g>
    </g>
</svg>