<?xml version="1.0" encoding="UTF-8"?>
<svg id="Layer_2" data-name="Layer 2" xmlns="http://www.w3.org/2000/svg" viewBox="0 0 608.95 429.86">
  <defs>
    <style>
      .cls-1 {
        fill: #e00;
      }

      .cls-2 {
        fill: #fff;
      }

      .cls-3 {
        fill: #f1efef;
      }

      .cls-4 {
        fill: #efefef;
      }

      .cls-5 {
        fill: #777;
      }

      .cls-6 {
        opacity: .5;
      }
    </style>
  </defs>
  <g id="Hero_graphic" data-name="Hero graphic">
    <g>
      <g>
        <g class="cls-6">
          <path class="cls-4" d="M77.79,19.5h-2c-.55,0-1-.45-1-1s.45-1,1-1h2c.55,0,1,.45,1,1s-.45,1-1,1Z"/>
          <path class="cls-4" d="M104.09,19.5h-4.38c-.55,0-1-.45-1-1s.45-1,1-1h4.38c.55,0,1,.45,1,1s-.45,1-1,1Zm-13.15,0h-4.38c-.55,0-1-.45-1-1s.45-1,1-1h4.38c.55,0,1,.45,1,1s-.45,1-1,1Z"/>
          <path class="cls-4" d="M114.86,19.5h-2c-.55,0-1-.45-1-1s.45-1,1-1h2c.55,0,1,.45,1,1s-.45,1-1,1Z"/>
        </g>
        <g class="cls-6">
          <path class="cls-4" d="M193.56,19.5h-2c-.55,0-1-.45-1-1s.45-1,1-1h2c.55,0,1,.45,1,1s-.45,1-1,1Z"/>
          <path class="cls-4" d="M219.86,19.5h-4.38c-.55,0-1-.45-1-1s.45-1,1-1h4.38c.55,0,1,.45,1,1s-.45,1-1,1Zm-13.15,0h-4.38c-.55,0-1-.45-1-1s.45-1,1-1h4.38c.55,0,1,.45,1,1s-.45,1-1,1Z"/>
          <path class="cls-4" d="M230.63,19.5h-2c-.55,0-1-.45-1-1s.45-1,1-1h2c.55,0,1,.45,1,1s-.45,1-1,1Z"/>
        </g>
        <g class="cls-6">
          <path class="cls-4" d="M540.88,19.5h-2c-.55,0-1-.45-1-1s.45-1,1-1h2c.55,0,1,.45,1,1s-.45,1-1,1Z"/>
          <path class="cls-4" d="M567.19,19.5h-4.38c-.55,0-1-.45-1-1s.45-1,1-1h4.38c.55,0,1,.45,1,1s-.45,1-1,1Zm-13.15,0h-4.38c-.55,0-1-.45-1-1s.45-1,1-1h4.38c.55,0,1,.45,1,1s-.45,1-1,1Z"/>
          <path class="cls-4" d="M577.95,19.5h-2c-.55,0-1-.45-1-1s.45-1,1-1h2c.55,0,1,.45,1,1s-.45,1-1,1Z"/>
        </g>
        <g class="cls-6">
          <path class="cls-4" d="M309.34,19.5h-2c-.55,0-1-.45-1-1s.45-1,1-1h2c.55,0,1,.45,1,1s-.45,1-1,1Z"/>
          <path class="cls-4" d="M335.64,19.5h-4.38c-.55,0-1-.45-1-1s.45-1,1-1h4.38c.55,0,1,.45,1,1s-.45,1-1,1Zm-13.15,0h-4.38c-.55,0-1-.45-1-1s.45-1,1-1h4.38c.55,0,1,.45,1,1s-.45,1-1,1Z"/>
          <path class="cls-4" d="M346.4,19.5h-2c-.55,0-1-.45-1-1s.45-1,1-1h2c.55,0,1,.45,1,1s-.45,1-1,1Z"/>
        </g>
        <g class="cls-6">
          <path class="cls-4" d="M425.11,19.5h-2c-.55,0-1-.45-1-1s.45-1,1-1h2c.55,0,1,.45,1,1s-.45,1-1,1Z"/>
          <path class="cls-4" d="M451.41,19.5h-4.38c-.55,0-1-.45-1-1s.45-1,1-1h4.38c.55,0,1,.45,1,1s-.45,1-1,1Zm-13.15,0h-4.38c-.55,0-1-.45-1-1s.45-1,1-1h4.38c.55,0,1,.45,1,1s-.45,1-1,1Z"/>
          <path class="cls-4" d="M462.18,19.5h-2c-.55,0-1-.45-1-1s.45-1,1-1h2c.55,0,1,.45,1,1s-.45,1-1,1Z"/>
        </g>
        <g>
          <path class="cls-1" d="M177.5,36.99h-48.58c-7.05,0-12.79-5.74-12.79-12.79V12.79C116.13,5.74,121.86,0,128.92,0h48.58c7.05,0,12.79,5.74,12.79,12.79v11.41c0,7.05-5.74,12.79-12.79,12.79ZM128.92,2c-5.95,0-10.79,4.84-10.79,10.79v11.41c0,5.95,4.84,10.79,10.79,10.79h48.58c5.95,0,10.79-4.84,10.79-10.79V12.79c0-5.95-4.84-10.79-10.79-10.79h-48.58Z"/>
          <g>
            <path class="cls-1" d="M154.28,27.23c-.46,0-.83-.37-.83-.83V8.51c0-.46,.37-.83,.83-.83h11.93c.46,0,.83,.37,.83,.83s-.37,.83-.83,.83h-11.1V25.57h16.23v-5.13c0-.46,.37-.83,.83-.83s.83,.37,.83,.83v5.96c0,.46-.37,.83-.83,.83h-17.89Z"/>
            <path class="cls-1" d="M163.22,21.26c-.22,0-.43-.09-.59-.24l-2.98-2.98c-.33-.32-.26-.67-.19-.84,.14-.34,.48-.58,.82-.58,.2,0,.39,.09,.55,.25l2.4,2.4,8.36-8.36c.16-.16,.35-.25,.55-.25,.33,0,.68,.24,.81,.58,.12,.3,.05,.61-.19,.84l-8.95,8.95c-.16,.16-.36,.24-.59,.24Z"/>
            <path class="cls-1" d="M133.41,22.75c-.46,0-.83-.37-.83-.83V12.98c0-.46,.37-.83,.83-.83h8.95c.46,0,.83,.37,.83,.83v3.64h6.11l-1.57-1.56c-.33-.32-.26-.67-.19-.84,.14-.34,.48-.58,.82-.58,.2,0,.39,.09,.55,.25,0,.01,.1,.11,.75,.75,.72,.71,2.17,2.14,2.39,2.45l.02,.06c.11,.31,.04,.67-.18,.91l-2.98,2.98c-.16,.16-.36,.25-.56,.25h0c-.33,0-.66-.23-.8-.56-.13-.3-.06-.62,.19-.87l1.57-1.56h-6.11v3.64c0,.46-.37,.83-.83,.83h-8.95Zm.83-1.66h7.29v-7.29h-7.29v7.29Z"/>
          </g>
        </g>
        <g>
          <path class="cls-3" d="M293.27,36.99h-48.58c-7.05,0-12.79-5.74-12.79-12.79V12.79C231.9,5.74,237.64,0,244.69,0h48.58c7.05,0,12.79,5.74,12.79,12.79v11.41c0,7.05-5.74,12.79-12.79,12.79ZM244.69,2c-5.95,0-10.79,4.84-10.79,10.79v11.41c0,5.95,4.84,10.79,10.79,10.79h48.58c5.95,0,10.79-4.84,10.79-10.79V12.79c0-5.95-4.84-10.79-10.79-10.79h-48.58Z"/>
          <g>
            <path class="cls-3" d="M282.99,7.14h-22.62c-.19,0-.37,.07-.51,.21l-4.11,4.11c-.14,.14-.21,.32-.21,.51V28.42c0,.4,.32,.72,.72,.72h26.73c.4,0,.72-.32,.72-.72V7.86c0-.4-.32-.72-.72-.72Zm-25,4.11l1.66-1.66v1.66h-1.66Zm2.64,1.38c.17-.07,.31-.21,.38-.38h0s0,0,0,0c0,0,0-.01,.01-.02l.13-.34-.08,.08s0,0,0,0v-3.4h21.18V27.7h-25.3V12.69h3.4s0,0,0,0l-.08,.08,.34-.13Z"/>
            <path class="cls-3" d="M266.54,18.86h2.37v4.42c0,.4,.32,.72,.72,.72h3.08c.4,0,.72-.32,.72-.72s-.32-.72-.72-.72h-2.37V13.72h2.37c.4,0,.72-.32,.72-.72s-.32-.72-.72-.72h-3.08c-.4,0-.72,.32-.72,.72v4.42h-2.37c-.4,0-.72,.32-.72,.72s.32,.72,.72,.72Z"/>
            <path class="cls-3" d="M276.82,15.77c1.53,0,2.77-1.24,2.77-2.77s-1.24-2.77-2.77-2.77-2.77,1.24-2.77,2.77,1.24,2.77,2.77,2.77Zm-1.64-2.77c0-.91,.74-1.64,1.64-1.64s1.64,.74,1.64,1.64-.74,1.64-1.64,1.64-1.64-.74-1.64-1.64Z"/>
            <path class="cls-3" d="M262.43,20.91c1.53,0,2.77-1.24,2.77-2.77s-1.24-2.77-2.77-2.77-2.77,1.24-2.77,2.77,1.24,2.77,2.77,2.77Zm.06-1.13c-.91,0-1.64-.74-1.64-1.64s.74-1.64,1.64-1.64,1.64,.74,1.64,1.64-.74,1.64-1.64,1.64Z"/>
            <path class="cls-3" d="M276.82,26.05c1.53,0,2.77-1.24,2.77-2.77s-1.24-2.77-2.77-2.77-2.77,1.24-2.77,2.77,1.24,2.77,2.77,2.77Zm-1.64-2.77c0-.91,.74-1.64,1.64-1.64s1.64,.74,1.64,1.64-.74,1.64-1.64,1.64-1.64-.74-1.64-1.64Z"/>
          </g>
        </g>
        <g>
          <path class="cls-3" d="M524.93,36.99h-48.58c-7.05,0-12.79-5.74-12.79-12.79V12.79C463.56,5.74,469.29,0,476.35,0h48.58c7.05,0,12.79,5.74,12.79,12.79v11.41c0,7.05-5.74,12.79-12.79,12.79ZM476.35,2c-5.95,0-10.79,4.84-10.79,10.79v11.41c0,5.95,4.84,10.79,10.79,10.79h48.58c5.95,0,10.79-4.84,10.79-10.79V12.79c0-5.95-4.84-10.79-10.79-10.79h-48.58Z"/>
          <g>
            <path class="cls-1" d="M514.41,27.87l-1.95-1.95c-.19-.19-.42-.26-.67-.2-.27,.07-.5,.3-.57,.57-.06,.25,0,.48,.2,.67l.69,.69h-12.83c-.55,0-1.13-.07-1.71-.22-3.15-.79-5.35-3.6-5.35-6.83,.17-4.84,3.74-7,7.06-7,.07,0,.13,0,.2,0,3.29,.09,6.69,2.28,6.85,6.99,0,1.6-.55,3.17-1.55,4.41-.12,.15-.18,.34-.16,.54,.02,.19,.12,.37,.28,.5,.2,.13,.41,.18,.6,.13,.43-.1,.72-.61,.98-1.06,.08-.14,.16-.28,.24-.39,1.08-1.83,1.35-4.15,.74-6.36-.57-2.09-1.86-3.86-3.55-4.91,.37-.06,.74-.17,1.1-.33,1.68-.74,2.77-2.39,2.77-4.22-.07-2.96-2.29-4.45-4.33-4.58-1.96-.13-4.26,.98-4.82,3.68l-.58-.78c-.28-.38-.73-.35-1.02-.14-.29,.22-.44,.64-.15,1.02l1.65,2.2c.11,.15,.29,.26,.48,.29,.2,.03,.4-.02,.54-.14l2.2-1.65c.38-.29,.35-.73,.14-1.02-.22-.29-.64-.44-1.02-.15l-.8,.6c.39-1.78,1.92-2.52,3.25-2.45,1.45,.08,2.94,1.08,2.98,3.12,0,1.74-1.42,3.16-3.16,3.16h-3.9c-5.82,.23-8.47,4.58-8.47,8.52s2.65,8.29,8.47,8.52h12.83l-.69,.69c-.21,.2-.28,.51-.16,.8,.12,.28,.37,.46,.65,.46,.19,0,.4-.07,.55-.23,.02-.03,.23-.23,.45-.44,1.47-1.45,1.66-1.67,1.67-1.77,.09-.25,.03-.54-.17-.76Z"/>
            <path class="cls-1" d="M492.47,27.65h-3.9c-.47,0-.72,.37-.72,.73s.25,.73,.72,.73h3.89c.47,0,.72-.37,.72-.73s-.25-.73-.72-.73Z"/>
            <path class="cls-1" d="M502.49,17.23l-4.23,4.23-1.12-1.12c-.15-.16-.36-.22-.56-.17-.22,.06-.41,.25-.47,.47-.05,.2,0,.41,.16,.56l1.56,1.56c.12,.12,.28,.18,.43,.18s.31-.06,.43-.18l4.67-4.67c.16-.15,.22-.36,.17-.56-.06-.22-.25-.41-.47-.47-.2-.05-.4,0-.56,.17Z"/>
          </g>
        </g>
        <g>
          <path class="cls-5" d="M409.09,36.99h-48.58c-7.05,0-12.79-5.74-12.79-12.79V12.79c0-7.05,5.74-12.79,12.79-12.79h48.58c7.05,0,12.79,5.74,12.79,12.79v11.41c0,7.05-5.74,12.79-12.79,12.79ZM360.51,2c-5.95,0-10.79,4.84-10.79,10.79v11.41c0,5.95,4.84,10.79,10.79,10.79h48.58c5.95,0,10.79-4.84,10.79-10.79V12.79c0-5.95-4.84-10.79-10.79-10.79h-48.58Z"/>
          <rect class="cls-5" x="376.85" y="17.75" width="15.91" height="1.5" rx=".75" ry=".75" transform="translate(202.46 357.86) rotate(-64.5)"/>
          <path class="cls-5" d="M392.01,23.32h0c-.27-.31-.24-.79,.07-1.06l4.13-3.63-4.17-3.89c-.3-.28-.32-.76-.04-1.06h0c.28-.3,.76-.32,1.06-.04l5.38,5.02-5.38,4.72c-.31,.27-.79,.24-1.06-.07Z"/>
          <path class="cls-5" d="M376.53,23.38l-5.38-4.72,5.38-5.02c.3-.28,.78-.27,1.06,.04h0c.28,.3,.27,.78-.04,1.06l-4.17,3.89,4.13,3.63c.31,.27,.34,.75,.07,1.06h0c-.27,.31-.75,.34-1.06,.07Z"/>
        </g>
        <g>
          <path class="cls-5" d="M61.37,36.99H12.79c-7.05,0-12.79-5.74-12.79-12.79V12.79C0,5.74,5.74,0,12.79,0H61.37c7.05,0,12.79,5.74,12.79,12.79v11.41c0,7.05-5.74,12.79-12.79,12.79ZM12.79,2C6.84,2,2,6.84,2,12.79v11.41c0,5.95,4.84,10.79,10.79,10.79H61.37c5.95,0,10.79-4.84,10.79-10.79V12.79c0-5.95-4.84-10.79-10.79-10.79H12.79Z"/>
          <rect class="cls-5" x="29.13" y="17.75" width="15.91" height="1.5" rx=".75" ry=".75" transform="translate(4.42 44.01) rotate(-64.5)"/>
          <path class="cls-5" d="M44.3,23.32h0c-.27-.31-.24-.79,.07-1.06l4.13-3.63-4.17-3.89c-.3-.28-.32-.76-.04-1.06h0c.28-.3,.76-.32,1.06-.04l5.38,5.02-5.38,4.72c-.31,.27-.79,.24-1.06-.07Z"/>
          <path class="cls-5" d="M28.81,23.38l-5.38-4.72,5.38-5.02c.3-.28,.78-.27,1.06,.04h0c.28,.3,.27,.78-.04,1.06l-4.17,3.89,4.13,3.63c.31,.27,.34,.75,.07,1.06h0c-.27,.31-.75,.34-1.06,.07Z"/>
        </g>
      </g>
      <g>
        <g class="cls-6">
          <path class="cls-4" d="M77.79,131.01h-2c-.55,0-1-.45-1-1s.45-1,1-1h2c.55,0,1,.45,1,1s-.45,1-1,1Z"/>
          <path class="cls-4" d="M104.09,131.01h-4.38c-.55,0-1-.45-1-1s.45-1,1-1h4.38c.55,0,1,.45,1,1s-.45,1-1,1Zm-13.15,0h-4.38c-.55,0-1-.45-1-1s.45-1,1-1h4.38c.55,0,1,.45,1,1s-.45,1-1,1Z"/>
          <path class="cls-4" d="M114.86,131.01h-2c-.55,0-1-.45-1-1s.45-1,1-1h2c.55,0,1,.45,1,1s-.45,1-1,1Z"/>
        </g>
        <g class="cls-6">
          <path class="cls-4" d="M193.56,131.01h-2c-.55,0-1-.45-1-1s.45-1,1-1h2c.55,0,1,.45,1,1s-.45,1-1,1Z"/>
          <path class="cls-4" d="M219.86,131.01h-4.38c-.55,0-1-.45-1-1s.45-1,1-1h4.38c.55,0,1,.45,1,1s-.45,1-1,1Zm-13.15,0h-4.38c-.55,0-1-.45-1-1s.45-1,1-1h4.38c.55,0,1,.45,1,1s-.45,1-1,1Z"/>
          <path class="cls-4" d="M230.63,131.01h-2c-.55,0-1-.45-1-1s.45-1,1-1h2c.55,0,1,.45,1,1s-.45,1-1,1Z"/>
        </g>
        <g class="cls-6">
          <path class="cls-4" d="M540.88,131.01h-2c-.55,0-1-.45-1-1s.45-1,1-1h2c.55,0,1,.45,1,1s-.45,1-1,1Z"/>
          <path class="cls-4" d="M567.19,131.01h-4.38c-.55,0-1-.45-1-1s.45-1,1-1h4.38c.55,0,1,.45,1,1s-.45,1-1,1Zm-13.15,0h-4.38c-.55,0-1-.45-1-1s.45-1,1-1h4.38c.55,0,1,.45,1,1s-.45,1-1,1Z"/>
          <path class="cls-4" d="M577.95,131.01h-2c-.55,0-1-.45-1-1s.45-1,1-1h2c.55,0,1,.45,1,1s-.45,1-1,1Z"/>
        </g>
        <g class="cls-6">
          <path class="cls-4" d="M309.34,131.01h-2c-.55,0-1-.45-1-1s.45-1,1-1h2c.55,0,1,.45,1,1s-.45,1-1,1Z"/>
          <path class="cls-4" d="M335.64,131.01h-4.38c-.55,0-1-.45-1-1s.45-1,1-1h4.38c.55,0,1,.45,1,1s-.45,1-1,1Zm-13.15,0h-4.38c-.55,0-1-.45-1-1s.45-1,1-1h4.38c.55,0,1,.45,1,1s-.45,1-1,1Z"/>
          <path class="cls-4" d="M346.4,131.01h-2c-.55,0-1-.45-1-1s.45-1,1-1h2c.55,0,1,.45,1,1s-.45,1-1,1Z"/>
        </g>
        <g class="cls-6">
          <path class="cls-4" d="M425.11,131.01h-2c-.55,0-1-.45-1-1s.45-1,1-1h2c.55,0,1,.45,1,1s-.45,1-1,1Z"/>
          <path class="cls-4" d="M451.41,131.01h-4.38c-.55,0-1-.45-1-1s.45-1,1-1h4.38c.55,0,1,.45,1,1s-.45,1-1,1Zm-13.15,0h-4.38c-.55,0-1-.45-1-1s.45-1,1-1h4.38c.55,0,1,.45,1,1s-.45,1-1,1Z"/>
          <path class="cls-4" d="M462.18,131.01h-2c-.55,0-1-.45-1-1s.45-1,1-1h2c.55,0,1,.45,1,1s-.45,1-1,1Z"/>
        </g>
        <g>
          <path class="cls-1" d="M61.37,148.51H12.79c-7.05,0-12.79-5.74-12.79-12.79v-11.41c0-7.05,5.74-12.79,12.79-12.79H61.37c7.05,0,12.79,5.74,12.79,12.79v11.41c0,7.05-5.74,12.79-12.79,12.79ZM12.79,113.51c-5.95,0-10.79,4.84-10.79,10.79v11.41c0,5.95,4.84,10.79,10.79,10.79H61.37c5.95,0,10.79-4.84,10.79-10.79v-11.41c0-5.95-4.84-10.79-10.79-10.79H12.79Z"/>
          <g>
            <path class="cls-1" d="M38.15,138.74c-.46,0-.83-.37-.83-.83v-17.89c0-.46,.37-.83,.83-.83h11.93c.46,0,.83,.37,.83,.83s-.37,.83-.83,.83h-11.1v16.23h16.23v-5.13c0-.46,.37-.83,.83-.83s.83,.37,.83,.83v5.96c0,.46-.37,.83-.83,.83h-17.89Z"/>
            <path class="cls-1" d="M47.1,132.78c-.22,0-.43-.09-.59-.24l-2.98-2.98c-.33-.32-.26-.67-.19-.84,.14-.34,.48-.58,.82-.58,.2,0,.39,.09,.55,.25l2.4,2.4,8.36-8.36c.16-.16,.35-.25,.55-.25,.33,0,.68,.24,.81,.58,.12,.3,.05,.61-.19,.84l-8.95,8.95c-.16,.16-.36,.24-.59,.24Z"/>
            <path class="cls-1" d="M17.28,134.27c-.46,0-.83-.37-.83-.83v-8.94c0-.46,.37-.83,.83-.83h8.95c.46,0,.83,.37,.83,.83v3.64h6.11l-1.57-1.56c-.33-.32-.26-.67-.19-.84,.14-.34,.48-.58,.82-.58,.2,0,.39,.09,.55,.25,0,.01,.1,.11,.75,.75,.72,.71,2.17,2.14,2.39,2.45l.02,.06c.11,.31,.04,.67-.18,.91l-2.98,2.98c-.16,.16-.36,.25-.56,.25h0c-.33,0-.66-.23-.8-.56-.13-.3-.06-.62,.19-.87l1.57-1.56h-6.11v3.64c0,.46-.37,.83-.83,.83h-8.95Zm.83-1.66h7.29v-7.29h-7.29v7.29Z"/>
          </g>
        </g>
        <g>
          <path class="cls-3" d="M409.05,148.51h-48.58c-7.05,0-12.79-5.74-12.79-12.79v-11.41c0-7.05,5.74-12.79,12.79-12.79h48.58c7.05,0,12.79,5.74,12.79,12.79v11.41c0,7.05-5.74,12.79-12.79,12.79Zm-48.58-34.99c-5.95,0-10.79,4.84-10.79,10.79v11.41c0,5.95,4.84,10.79,10.79,10.79h48.58c5.95,0,10.79-4.84,10.79-10.79v-11.41c0-5.95-4.84-10.79-10.79-10.79h-48.58Z"/>
          <g>
            <path class="cls-3" d="M398.77,118.65h-22.62c-.19,0-.37,.07-.51,.21l-4.11,4.11c-.14,.14-.21,.32-.21,.51v16.45c0,.4,.32,.72,.72,.72h26.73c.4,0,.72-.32,.72-.72v-20.56c0-.4-.32-.72-.72-.72Zm-25,4.11l1.66-1.66v1.66h-1.66Zm2.64,1.38c.17-.07,.31-.21,.38-.38h0s0,0,0,0c0,0,0-.01,.01-.02l.13-.34-.08,.08s0,0,0,0v-3.4h21.18v19.13h-25.3v-15.01h3.4s0,0,0,0l-.08,.08,.34-.13Z"/>
            <path class="cls-3" d="M382.31,130.37h2.37v4.42c0,.4,.32,.72,.72,.72h3.08c.4,0,.72-.32,.72-.72s-.32-.72-.72-.72h-2.37v-8.85h2.37c.4,0,.72-.32,.72-.72s-.32-.72-.72-.72h-3.08c-.4,0-.72,.32-.72,.72v4.42h-2.37c-.4,0-.72,.32-.72,.72s.32,.72,.72,.72Z"/>
            <path class="cls-3" d="M392.6,127.29c1.53,0,2.77-1.24,2.77-2.77s-1.24-2.77-2.77-2.77-2.77,1.24-2.77,2.77,1.24,2.77,2.77,2.77Zm-1.64-2.77c0-.91,.74-1.64,1.64-1.64s1.64,.74,1.64,1.64-.74,1.64-1.64,1.64-1.64-.74-1.64-1.64Z"/>
            <path class="cls-3" d="M378.2,132.43c1.53,0,2.77-1.24,2.77-2.77s-1.24-2.77-2.77-2.77-2.77,1.24-2.77,2.77,1.24,2.77,2.77,2.77Zm.06-1.13c-.91,0-1.64-.74-1.64-1.64s.74-1.64,1.64-1.64,1.64,.74,1.64,1.64-.74,1.64-1.64,1.64Z"/>
            <path class="cls-3" d="M392.6,137.57c1.53,0,2.77-1.24,2.77-2.77s-1.24-2.77-2.77-2.77-2.77,1.24-2.77,2.77,1.24,2.77,2.77,2.77Zm-1.64-2.77c0-.91,.74-1.64,1.64-1.64s1.64,.74,1.64,1.64-.74,1.64-1.64,1.64-1.64-.74-1.64-1.64Z"/>
          </g>
        </g>
        <g>
          <path class="cls-1" d="M293.92,148.51h-48.58c-7.05,0-12.79-5.74-12.79-12.79v-11.41c0-7.05,5.74-12.79,12.79-12.79h48.58c7.05,0,12.79,5.74,12.79,12.79v11.41c0,7.05-5.74,12.79-12.79,12.79Zm-48.58-34.99c-5.95,0-10.79,4.84-10.79,10.79v11.41c0,5.95,4.84,10.79,10.79,10.79h48.58c5.95,0,10.79-4.84,10.79-10.79v-11.41c0-5.95-4.84-10.79-10.79-10.79h-48.58Z"/>
          <g>
            <path class="cls-1" d="M283.4,139.38l-1.95-1.95c-.19-.19-.42-.26-.67-.2-.27,.07-.5,.3-.57,.57-.06,.25,0,.48,.2,.67l.69,.69h-12.83c-.55,0-1.13-.07-1.71-.22-3.15-.79-5.35-3.6-5.35-6.83,.17-4.84,3.74-7,7.06-7,.07,0,.13,0,.2,0,3.29,.09,6.69,2.28,6.85,6.99,0,1.6-.55,3.17-1.55,4.41-.12,.15-.18,.34-.16,.54,.02,.19,.12,.37,.28,.5,.2,.13,.41,.18,.6,.13,.43-.1,.72-.61,.98-1.06,.08-.14,.16-.28,.24-.39,1.08-1.83,1.35-4.15,.74-6.36-.57-2.09-1.86-3.86-3.55-4.91,.37-.06,.74-.17,1.1-.33,1.68-.74,2.77-2.39,2.77-4.22-.07-2.96-2.29-4.45-4.33-4.58-1.96-.13-4.26,.98-4.82,3.68l-.58-.78c-.28-.38-.73-.35-1.02-.14-.29,.22-.44,.64-.15,1.02l1.65,2.2c.11,.15,.29,.26,.48,.29,.2,.03,.4-.02,.54-.14l2.2-1.65c.38-.29,.35-.73,.14-1.02-.22-.29-.64-.44-1.02-.15l-.8,.6c.39-1.78,1.92-2.52,3.25-2.45,1.45,.08,2.94,1.08,2.98,3.12,0,1.74-1.42,3.16-3.16,3.16h-3.9c-5.82,.23-8.47,4.58-8.47,8.52s2.65,8.29,8.47,8.52h12.83l-.69,.69c-.21,.2-.28,.51-.16,.8,.12,.28,.37,.46,.65,.46,.19,0,.4-.07,.55-.23,.02-.03,.23-.23,.45-.44,1.47-1.45,1.66-1.67,1.67-1.77,.09-.25,.03-.54-.17-.76Z"/>
            <path class="cls-1" d="M261.46,139.17h-3.9c-.47,0-.72,.37-.72,.73s.25,.73,.72,.73h3.89c.47,0,.72-.37,.72-.73s-.25-.73-.72-.73Z"/>
            <path class="cls-1" d="M271.48,128.75l-4.23,4.23-1.12-1.12c-.15-.16-.36-.22-.56-.17-.22,.06-.41,.25-.47,.47-.05,.2,0,.41,.16,.56l1.56,1.56c.12,.12,.28,.18,.43,.18s.31-.06,.43-.18l4.67-4.67c.16-.15,.22-.36,.17-.56-.06-.22-.25-.41-.47-.47-.2-.05-.4,0-.56,.17Z"/>
          </g>
        </g>
        <g>
          <path class="cls-2" d="M524.93,148.51h-48.58c-7.05,0-12.79-5.74-12.79-12.79v-11.41c0-7.05,5.74-12.79,12.79-12.79h48.58c7.05,0,12.79,5.74,12.79,12.79v11.41c0,7.05-5.74,12.79-12.79,12.79Zm-48.58-34.99c-5.95,0-10.79,4.84-10.79,10.79v11.41c0,5.95,4.84,10.79,10.79,10.79h48.58c5.95,0,10.79-4.84,10.79-10.79v-11.41c0-5.95-4.84-10.79-10.79-10.79h-48.58Z"/>
          <rect class="cls-1" x="492.68" y="129.26" width="15.91" height="1.5" rx=".75" ry=".75" transform="translate(167.78 525.93) rotate(-64.5)"/>
          <path class="cls-1" d="M507.85,134.83h0c-.27-.31-.24-.79,.07-1.06l4.13-3.63-4.17-3.89c-.3-.28-.32-.76-.04-1.06h0c.28-.3,.76-.32,1.06-.04l5.38,5.02-5.38,4.72c-.31,.27-.79,.24-1.06-.07Z"/>
          <path class="cls-1" d="M492.37,134.9l-5.38-4.72,5.38-5.02c.3-.28,.78-.27,1.06,.04h0c.28,.3,.27,.78-.04,1.06l-4.17,3.89,4.13,3.63c.31,.27,.34,.75,.07,1.06h0c-.27,.31-.75,.34-1.06,.07Z"/>
        </g>
        <g>
          <path class="cls-2" d="M177.32,148.51h-48.58c-7.05,0-12.79-5.74-12.79-12.79v-11.41c0-7.05,5.74-12.79,12.79-12.79h48.58c7.05,0,12.79,5.74,12.79,12.79v11.41c0,7.05-5.74,12.79-12.79,12.79Zm-48.58-34.99c-5.95,0-10.79,4.84-10.79,10.79v11.41c0,5.95,4.84,10.79,10.79,10.79h48.58c5.95,0,10.79-4.84,10.79-10.79v-11.41c0-5.95-4.84-10.79-10.79-10.79h-48.58Z"/>
          <rect class="cls-2" x="145.08" y="129.26" width="15.91" height="1.5" rx=".75" ry=".75" transform="translate(-30.19 212.17) rotate(-64.5)"/>
          <path class="cls-2" d="M160.25,134.83h0c-.27-.31-.24-.79,.07-1.06l4.13-3.63-4.17-3.89c-.3-.28-.32-.76-.04-1.06h0c.28-.3,.76-.32,1.06-.04l5.38,5.02-5.38,4.72c-.31,.27-.79,.24-1.06-.07Z"/>
          <path class="cls-2" d="M144.76,134.9l-5.38-4.72,5.38-5.02c.3-.28,.78-.27,1.06,.04h0c.28,.3,.27,.78-.04,1.06l-4.17,3.89,4.13,3.63c.31,.27,.34,.75,.07,1.06h0c-.27,.31-.75,.34-1.06,.07Z"/>
        </g>
      </g>
      <g>
        <path class="cls-4" d="M107.79,75.25h-2c-.55,0-1-.45-1-1s.45-1,1-1h2c.55,0,1,.45,1,1s-.45,1-1,1Z"/>
        <path class="cls-4" d="M134.09,75.25h-4.38c-.55,0-1-.45-1-1s.45-1,1-1h4.38c.55,0,1,.45,1,1s-.45,1-1,1Zm-13.15,0h-4.38c-.55,0-1-.45-1-1s.45-1,1-1h4.38c.55,0,1,.45,1,1s-.45,1-1,1Z"/>
        <path class="cls-4" d="M144.86,75.25h-2c-.55,0-1-.45-1-1s.45-1,1-1h2c.55,0,1,.45,1,1s-.45,1-1,1Z"/>
        <path class="cls-4" d="M223.56,75.25h-2c-.55,0-1-.45-1-1s.45-1,1-1h2c.55,0,1,.45,1,1s-.45,1-1,1Z"/>
        <path class="cls-4" d="M249.86,75.25h-4.38c-.55,0-1-.45-1-1s.45-1,1-1h4.38c.55,0,1,.45,1,1s-.45,1-1,1Zm-13.15,0h-4.38c-.55,0-1-.45-1-1s.45-1,1-1h4.38c.55,0,1,.45,1,1s-.45,1-1,1Z"/>
        <path class="cls-4" d="M260.63,75.25h-2c-.55,0-1-.45-1-1s.45-1,1-1h2c.55,0,1,.45,1,1s-.45,1-1,1Z"/>
        <path class="cls-4" d="M570.88,75.25h-2c-.55,0-1-.45-1-1s.45-1,1-1h2c.55,0,1,.45,1,1s-.45,1-1,1Z"/>
        <path class="cls-4" d="M597.19,75.25h-4.38c-.55,0-1-.45-1-1s.45-1,1-1h4.38c.55,0,1,.45,1,1s-.45,1-1,1Zm-13.15,0h-4.38c-.55,0-1-.45-1-1s.45-1,1-1h4.38c.55,0,1,.45,1,1s-.45,1-1,1Z"/>
        <path class="cls-4" d="M607.95,75.25h-2c-.55,0-1-.45-1-1s.45-1,1-1h2c.55,0,1,.45,1,1s-.45,1-1,1Z"/>
        <path class="cls-4" d="M339.34,75.25h-2c-.55,0-1-.45-1-1s.45-1,1-1h2c.55,0,1,.45,1,1s-.45,1-1,1Z"/>
        <path class="cls-4" d="M365.64,75.25h-4.38c-.55,0-1-.45-1-1s.45-1,1-1h4.38c.55,0,1,.45,1,1s-.45,1-1,1Zm-13.15,0h-4.38c-.55,0-1-.45-1-1s.45-1,1-1h4.38c.55,0,1,.45,1,1s-.45,1-1,1Z"/>
        <path class="cls-4" d="M376.4,75.25h-2c-.55,0-1-.45-1-1s.45-1,1-1h2c.55,0,1,.45,1,1s-.45,1-1,1Z"/>
        <path class="cls-4" d="M455.11,75.25h-2c-.55,0-1-.45-1-1s.45-1,1-1h2c.55,0,1,.45,1,1s-.45,1-1,1Z"/>
        <path class="cls-4" d="M481.41,75.25h-4.38c-.55,0-1-.45-1-1s.45-1,1-1h4.38c.55,0,1,.45,1,1s-.45,1-1,1Zm-13.15,0h-4.38c-.55,0-1-.45-1-1s.45-1,1-1h4.38c.55,0,1,.45,1,1s-.45,1-1,1Z"/>
        <path class="cls-4" d="M492.18,75.25h-2c-.55,0-1-.45-1-1s.45-1,1-1h2c.55,0,1,.45,1,1s-.45,1-1,1Z"/>
        <g>
          <path class="cls-1" d="M440.29,92.75h-48.58c-7.05,0-12.79-5.74-12.79-12.79v-11.41c0-7.05,5.74-12.79,12.79-12.79h48.58c7.05,0,12.79,5.74,12.79,12.79v11.41c0,7.05-5.74,12.79-12.79,12.79Zm-48.58-34.99c-5.95,0-10.79,4.84-10.79,10.79v11.41c0,5.95,4.84,10.79,10.79,10.79h48.58c5.95,0,10.79-4.84,10.79-10.79v-11.41c0-5.95-4.84-10.79-10.79-10.79h-48.58Z"/>
          <g>
            <path class="cls-1" d="M417.07,82.98c-.46,0-.83-.37-.83-.83v-17.89c0-.46,.37-.83,.83-.83h11.93c.46,0,.83,.37,.83,.83s-.37,.83-.83,.83h-11.1v16.23h16.23v-5.13c0-.46,.37-.83,.83-.83s.83,.37,.83,.83v5.96c0,.46-.37,.83-.83,.83h-17.89Z"/>
            <path class="cls-1" d="M426.02,77.02c-.22,0-.43-.09-.59-.24l-2.98-2.98c-.33-.32-.26-.67-.19-.84,.14-.34,.48-.58,.82-.58,.2,0,.39,.09,.55,.25l2.4,2.4,8.36-8.36c.16-.16,.35-.25,.55-.25,.33,0,.68,.24,.81,.58,.12,.3,.05,.61-.19,.84l-8.95,8.95c-.16,.16-.36,.24-.59,.24Z"/>
            <path class="cls-1" d="M396.2,78.51c-.46,0-.83-.37-.83-.83v-8.94c0-.46,.37-.83,.83-.83h8.95c.46,0,.83,.37,.83,.83v3.64h6.11l-1.57-1.56c-.33-.32-.26-.67-.19-.84,.14-.34,.48-.58,.82-.58,.2,0,.39,.09,.55,.25,0,.01,.1,.11,.75,.75,.72,.71,2.17,2.14,2.39,2.45l.02,.06c.11,.31,.04,.67-.18,.91l-2.98,2.98c-.16,.16-.36,.25-.56,.25h0c-.33,0-.66-.23-.8-.56-.13-.3-.06-.62,.19-.87l1.57-1.56h-6.11v3.64c0,.46-.37,.83-.83,.83h-8.95Zm.83-1.66h7.29v-7.29h-7.29v7.29Z"/>
          </g>
        </g>
        <g>
          <path class="cls-3" d="M90.9,92.75H42.31c-7.05,0-12.79-5.74-12.79-12.79v-11.41c0-7.05,5.74-12.79,12.79-12.79h48.58c7.05,0,12.79,5.74,12.79,12.79v11.41c0,7.05-5.74,12.79-12.79,12.79ZM42.31,57.76c-5.95,0-10.79,4.84-10.79,10.79v11.41c0,5.95,4.84,10.79,10.79,10.79h48.58c5.95,0,10.79-4.84,10.79-10.79v-11.41c0-5.95-4.84-10.79-10.79-10.79H42.31Z"/>
          <g>
            <path class="cls-3" d="M80.61,62.9h-22.62c-.19,0-.37,.07-.51,.21l-4.11,4.11c-.14,.14-.21,.32-.21,.51v16.45c0,.4,.32,.72,.72,.72h26.73c.4,0,.72-.32,.72-.72v-20.56c0-.4-.32-.72-.72-.72Zm-25,4.11l1.66-1.66v1.66h-1.66Zm2.64,1.38c.17-.07,.31-.21,.38-.38h0s0,0,0,0c0,0,0-.01,.01-.02l.13-.34-.08,.08s0,0,0,0v-3.4h21.18v19.13h-25.3v-15.01h3.4s0,0,0,0l-.08,.08,.34-.13Z"/>
            <path class="cls-3" d="M64.16,74.61h2.37v4.42c0,.4,.32,.72,.72,.72h3.08c.4,0,.72-.32,.72-.72s-.32-.72-.72-.72h-2.37v-8.85h2.37c.4,0,.72-.32,.72-.72s-.32-.72-.72-.72h-3.08c-.4,0-.72,.32-.72,.72v4.42h-2.37c-.4,0-.72,.32-.72,.72s.32,.72,.72,.72Z"/>
            <path class="cls-3" d="M74.45,71.53c1.53,0,2.77-1.24,2.77-2.77s-1.24-2.77-2.77-2.77-2.77,1.24-2.77,2.77,1.24,2.77,2.77,2.77Zm-1.64-2.77c0-.91,.74-1.64,1.64-1.64s1.64,.74,1.64,1.64-.74,1.64-1.64,1.64-1.64-.74-1.64-1.64Z"/>
            <path class="cls-3" d="M60.05,76.67c1.53,0,2.77-1.24,2.77-2.77s-1.24-2.77-2.77-2.77-2.77,1.24-2.77,2.77,1.24,2.77,2.77,2.77Zm.06-1.13c-.91,0-1.64-.74-1.64-1.64s.74-1.64,1.64-1.64,1.64,.74,1.64,1.64-.74,1.64-1.64,1.64Z"/>
            <path class="cls-3" d="M74.45,81.81c1.53,0,2.77-1.24,2.77-2.77s-1.24-2.77-2.77-2.77-2.77,1.24-2.77,2.77,1.24,2.77,2.77,2.77Zm-1.64-2.77c0-.91,.74-1.64,1.64-1.64s1.64,.74,1.64,1.64-.74,1.64-1.64,1.64-1.64-.74-1.64-1.64Z"/>
          </g>
        </g>
        <g>
          <path class="cls-3" d="M206.82,92.75h-48.58c-7.05,0-12.79-5.74-12.79-12.79v-11.41c0-7.05,5.74-12.79,12.79-12.79h48.58c7.05,0,12.79,5.74,12.79,12.79v11.41c0,7.05-5.74,12.79-12.79,12.79Zm-48.58-34.99c-5.95,0-10.79,4.84-10.79,10.79v11.41c0,5.95,4.84,10.79,10.79,10.79h48.58c5.95,0,10.79-4.84,10.79-10.79v-11.41c0-5.95-4.84-10.79-10.79-10.79h-48.58Z"/>
          <g>
            <path class="cls-1" d="M196.3,83.63l-1.95-1.95c-.19-.19-.42-.26-.67-.2-.27,.07-.5,.3-.57,.57-.06,.25,0,.48,.2,.67l.69,.69h-12.83c-.55,0-1.13-.07-1.71-.22-3.15-.79-5.35-3.6-5.35-6.83,.17-4.84,3.74-7,7.06-7,.07,0,.13,0,.2,0,3.29,.09,6.69,2.28,6.85,6.99,0,1.6-.55,3.17-1.55,4.41-.12,.15-.18,.34-.16,.54,.02,.19,.12,.37,.28,.5,.2,.13,.41,.18,.6,.13,.43-.1,.72-.61,.98-1.06,.08-.14,.16-.28,.24-.39,1.08-1.83,1.35-4.15,.74-6.36-.57-2.09-1.86-3.86-3.55-4.91,.37-.06,.74-.17,1.1-.33,1.68-.74,2.77-2.39,2.77-4.22-.07-2.96-2.29-4.45-4.33-4.58-1.96-.13-4.26,.98-4.82,3.68l-.58-.78c-.28-.38-.73-.35-1.02-.14-.29,.22-.44,.64-.15,1.02l1.65,2.2c.11,.15,.29,.26,.48,.29,.2,.03,.4-.02,.54-.14l2.2-1.65c.38-.29,.35-.73,.14-1.02-.22-.29-.64-.44-1.02-.15l-.8,.6c.39-1.78,1.92-2.52,3.25-2.45,1.45,.08,2.94,1.08,2.98,3.12,0,1.74-1.42,3.16-3.16,3.16h-3.9c-5.82,.23-8.47,4.58-8.47,8.52s2.65,8.29,8.47,8.52h12.83l-.69,.69c-.21,.2-.28,.51-.16,.8,.12,.28,.37,.46,.65,.46,.19,0,.4-.07,.55-.23,.02-.03,.23-.23,.45-.44,1.47-1.45,1.66-1.67,1.67-1.77,.09-.25,.03-.54-.17-.76Z"/>
            <path class="cls-1" d="M174.36,83.41h-3.9c-.47,0-.72,.37-.72,.73s.25,.73,.72,.73h3.89c.47,0,.72-.37,.72-.73s-.25-.73-.72-.73Z"/>
            <path class="cls-1" d="M184.38,72.99l-4.23,4.23-1.12-1.12c-.15-.16-.36-.22-.56-.17-.22,.06-.41,.25-.47,.47-.05,.2,0,.41,.16,.56l1.56,1.56c.12,.12,.28,.18,.43,.18s.31-.06,.43-.18l4.67-4.67c.16-.15,.22-.36,.17-.56-.06-.22-.25-.41-.47-.47-.2-.05-.4,0-.56,.17Z"/>
          </g>
        </g>
        <g>
          <path class="cls-2" d="M552.48,92.75h-48.58c-7.05,0-12.79-5.74-12.79-12.79v-11.41c0-7.05,5.74-12.79,12.79-12.79h48.58c7.05,0,12.79,5.74,12.79,12.79v11.41c0,7.05-5.74,12.79-12.79,12.79Zm-48.58-34.99c-5.95,0-10.79,4.84-10.79,10.79v11.41c0,5.95,4.84,10.79,10.79,10.79h48.58c5.95,0,10.79-4.84,10.79-10.79v-11.41c0-5.95-4.84-10.79-10.79-10.79h-48.58Z"/>
          <rect class="cls-2" x="520.24" y="73.5" width="15.91" height="1.5" rx=".75" ry=".75" transform="translate(233.8 519.04) rotate(-64.5)"/>
          <path class="cls-2" d="M535.4,79.07h0c-.27-.31-.24-.79,.07-1.06l4.13-3.63-4.17-3.89c-.3-.28-.32-.76-.04-1.06h0c.28-.3,.76-.32,1.06-.04l5.38,5.02-5.38,4.72c-.31,.27-.79,.24-1.06-.07Z"/>
          <path class="cls-2" d="M519.92,79.14l-5.38-4.72,5.38-5.02c.3-.28,.78-.27,1.06,.04h0c.28,.3,.27,.78-.04,1.06l-4.17,3.89,4.13,3.63c.31,.27,.34,.75,.07,1.06h0c-.27,.31-.75,.34-1.06,.07Z"/>
        </g>
        <g>
          <path class="cls-5" d="M323.27,92.75h-48.58c-7.05,0-12.79-5.74-12.79-12.79v-11.41c0-7.05,5.74-12.79,12.79-12.79h48.58c7.05,0,12.79,5.74,12.79,12.79v11.41c0,7.05-5.74,12.79-12.79,12.79Zm-48.58-34.99c-5.95,0-10.79,4.84-10.79,10.79v11.41c0,5.95,4.84,10.79,10.79,10.79h48.58c5.95,0,10.79-4.84,10.79-10.79v-11.41c0-5.95-4.84-10.79-10.79-10.79h-48.58Z"/>
          <rect class="cls-5" x="291.03" y="73.5" width="15.91" height="1.5" rx=".75" ry=".75" transform="translate(103.26 312.15) rotate(-64.5)"/>
          <path class="cls-5" d="M306.2,79.07h0c-.27-.31-.24-.79,.07-1.06l4.13-3.63-4.17-3.89c-.3-.28-.32-.76-.04-1.06h0c.28-.3,.76-.32,1.06-.04l5.38,5.02-5.38,4.72c-.31,.27-.79,.24-1.06-.07Z"/>
          <path class="cls-5" d="M290.71,79.14l-5.38-4.72,5.38-5.02c.3-.28,.78-.27,1.06,.04h0c.28,.3,.27,.78-.04,1.06l-4.17,3.89,4.13,3.63c.31,.27,.34,.75,.07,1.06h0c-.27,.31-.75,.34-1.06,.07Z"/>
        </g>
      </g>
      <g>
        <path class="cls-4" d="M107.79,186.77h-2c-.55,0-1-.45-1-1s.45-1,1-1h2c.55,0,1,.45,1,1s-.45,1-1,1Z"/>
        <path class="cls-4" d="M134.09,186.77h-4.38c-.55,0-1-.45-1-1s.45-1,1-1h4.38c.55,0,1,.45,1,1s-.45,1-1,1Zm-13.15,0h-4.38c-.55,0-1-.45-1-1s.45-1,1-1h4.38c.55,0,1,.45,1,1s-.45,1-1,1Z"/>
        <path class="cls-4" d="M144.86,186.77h-2c-.55,0-1-.45-1-1s.45-1,1-1h2c.55,0,1,.45,1,1s-.45,1-1,1Z"/>
        <path class="cls-4" d="M223.56,186.77h-2c-.55,0-1-.45-1-1s.45-1,1-1h2c.55,0,1,.45,1,1s-.45,1-1,1Z"/>
        <path class="cls-4" d="M249.86,186.77h-4.38c-.55,0-1-.45-1-1s.45-1,1-1h4.38c.55,0,1,.45,1,1s-.45,1-1,1Zm-13.15,0h-4.38c-.55,0-1-.45-1-1s.45-1,1-1h4.38c.55,0,1,.45,1,1s-.45,1-1,1Z"/>
        <path class="cls-4" d="M260.63,186.77h-2c-.55,0-1-.45-1-1s.45-1,1-1h2c.55,0,1,.45,1,1s-.45,1-1,1Z"/>
        <path class="cls-4" d="M570.88,186.77h-2c-.55,0-1-.45-1-1s.45-1,1-1h2c.55,0,1,.45,1,1s-.45,1-1,1Z"/>
        <path class="cls-4" d="M597.19,186.77h-4.38c-.55,0-1-.45-1-1s.45-1,1-1h4.38c.55,0,1,.45,1,1s-.45,1-1,1Zm-13.15,0h-4.38c-.55,0-1-.45-1-1s.45-1,1-1h4.38c.55,0,1,.45,1,1s-.45,1-1,1Z"/>
        <path class="cls-4" d="M607.95,186.77h-2c-.55,0-1-.45-1-1s.45-1,1-1h2c.55,0,1,.45,1,1s-.45,1-1,1Z"/>
        <path class="cls-4" d="M339.34,186.77h-2c-.55,0-1-.45-1-1s.45-1,1-1h2c.55,0,1,.45,1,1s-.45,1-1,1Z"/>
        <path class="cls-4" d="M365.64,186.77h-4.38c-.55,0-1-.45-1-1s.45-1,1-1h4.38c.55,0,1,.45,1,1s-.45,1-1,1Zm-13.15,0h-4.38c-.55,0-1-.45-1-1s.45-1,1-1h4.38c.55,0,1,.45,1,1s-.45,1-1,1Z"/>
        <path class="cls-4" d="M376.4,186.77h-2c-.55,0-1-.45-1-1s.45-1,1-1h2c.55,0,1,.45,1,1s-.45,1-1,1Z"/>
        <path class="cls-4" d="M455.11,186.77h-2c-.55,0-1-.45-1-1s.45-1,1-1h2c.55,0,1,.45,1,1s-.45,1-1,1Z"/>
        <path class="cls-4" d="M481.41,186.77h-4.38c-.55,0-1-.45-1-1s.45-1,1-1h4.38c.55,0,1,.45,1,1s-.45,1-1,1Zm-13.15,0h-4.38c-.55,0-1-.45-1-1s.45-1,1-1h4.38c.55,0,1,.45,1,1s-.45,1-1,1Z"/>
        <path class="cls-4" d="M492.18,186.77h-2c-.55,0-1-.45-1-1s.45-1,1-1h2c.55,0,1,.45,1,1s-.45,1-1,1Z"/>
        <g>
          <path class="cls-1" d="M554.82,204.75h-48.58c-7.05,0-12.79-5.74-12.79-12.79v-11.41c0-7.05,5.74-12.79,12.79-12.79h48.58c7.05,0,12.79,5.74,12.79,12.79v11.41c0,7.05-5.74,12.79-12.79,12.79Zm-48.58-34.99c-5.95,0-10.79,4.84-10.79,10.79v11.41c0,5.95,4.84,10.79,10.79,10.79h48.58c5.95,0,10.79-4.84,10.79-10.79v-11.41c0-5.95-4.84-10.79-10.79-10.79h-48.58Z"/>
          <g>
            <path class="cls-1" d="M531.6,194.98c-.46,0-.83-.37-.83-.83v-17.89c0-.46,.37-.83,.83-.83h11.93c.46,0,.83,.37,.83,.83s-.37,.83-.83,.83h-11.1v16.23h16.23v-5.13c0-.46,.37-.83,.83-.83s.83,.37,.83,.83v5.96c0,.46-.37,.83-.83,.83h-17.89Z"/>
            <path class="cls-1" d="M540.55,189.02c-.22,0-.43-.09-.59-.24l-2.98-2.98c-.33-.32-.26-.67-.19-.84,.14-.34,.48-.58,.82-.58,.2,0,.39,.09,.55,.25l2.4,2.4,8.36-8.36c.16-.16,.35-.25,.55-.25,.33,0,.68,.24,.81,.58,.12,.3,.05,.61-.19,.84l-8.95,8.95c-.16,.16-.36,.24-.59,.24Z"/>
            <path class="cls-1" d="M510.73,190.51c-.46,0-.83-.37-.83-.83v-8.94c0-.46,.37-.83,.83-.83h8.95c.46,0,.83,.37,.83,.83v3.64h6.11l-1.57-1.56c-.33-.32-.26-.67-.19-.84,.14-.34,.48-.58,.82-.58,.2,0,.39,.09,.55,.25,0,.01,.1,.11,.75,.75,.72,.71,2.17,2.14,2.39,2.45l.02,.06c.11,.31,.04,.67-.18,.91l-2.98,2.98c-.16,.16-.36,.25-.56,.25h0c-.33,0-.66-.23-.8-.56-.13-.3-.06-.62,.19-.87l1.57-1.56h-6.11v3.64c0,.46-.37,.83-.83,.83h-8.95Zm.83-1.66h7.29v-7.29h-7.29v7.29Z"/>
          </g>
        </g>
        <g>
          <path class="cls-5" d="M207.5,204.26h-48.58c-7.05,0-12.79-5.74-12.79-12.79v-11.41c0-7.05,5.74-12.79,12.79-12.79h48.58c7.05,0,12.79,5.74,12.79,12.79v11.41c0,7.05-5.74,12.79-12.79,12.79Zm-48.58-34.99c-5.95,0-10.79,4.84-10.79,10.79v11.41c0,5.95,4.84,10.79,10.79,10.79h48.58c5.95,0,10.79-4.84,10.79-10.79v-11.41c0-5.95-4.84-10.79-10.79-10.79h-48.58Z"/>
          <g>
            <path class="cls-5" d="M197.22,174.41h-22.62c-.19,0-.37,.07-.51,.21l-4.11,4.11c-.14,.14-.21,.32-.21,.51v16.45c0,.4,.32,.72,.72,.72h26.73c.4,0,.72-.32,.72-.72v-20.56c0-.4-.32-.72-.72-.72Zm-25,4.11l1.66-1.66v1.66h-1.66Zm2.64,1.38c.17-.07,.31-.21,.38-.38h0s0,0,0,0c0,0,0-.01,.01-.02l.13-.34-.08,.08s0,0,0,0v-3.4h21.18v19.13h-25.3v-15.01h3.4s0,0,0,0l-.08,.08,.34-.13Z"/>
            <path class="cls-5" d="M180.77,186.13h2.37v4.42c0,.4,.32,.72,.72,.72h3.08c.4,0,.72-.32,.72-.72s-.32-.72-.72-.72h-2.37v-8.85h2.37c.4,0,.72-.32,.72-.72s-.32-.72-.72-.72h-3.08c-.4,0-.72,.32-.72,.72v4.42h-2.37c-.4,0-.72,.32-.72,.72s.32,.72,.72,.72Z"/>
            <path class="cls-5" d="M191.05,183.04c1.53,0,2.77-1.24,2.77-2.77s-1.24-2.77-2.77-2.77-2.77,1.24-2.77,2.77,1.24,2.77,2.77,2.77Zm-1.64-2.77c0-.91,.74-1.64,1.64-1.64s1.64,.74,1.64,1.64-.74,1.64-1.64,1.64-1.64-.74-1.64-1.64Z"/>
            <path class="cls-5" d="M176.65,188.18c1.53,0,2.77-1.24,2.77-2.77s-1.24-2.77-2.77-2.77-2.77,1.24-2.77,2.77,1.24,2.77,2.77,2.77Zm.06-1.13c-.91,0-1.64-.74-1.64-1.64s.74-1.64,1.64-1.64,1.64,.74,1.64,1.64-.74,1.64-1.64,1.64Z"/>
            <path class="cls-5" d="M191.05,193.32c1.53,0,2.77-1.24,2.77-2.77s-1.24-2.77-2.77-2.77-2.77,1.24-2.77,2.77,1.24,2.77,2.77,2.77Zm-1.64-2.77c0-.91,.74-1.64,1.64-1.64s1.64,.74,1.64,1.64-.74,1.64-1.64,1.64-1.64-.74-1.64-1.64Z"/>
          </g>
        </g>
        <g>
          <path class="cls-3" d="M91.17,205.55H42.59c-7.05,0-12.79-5.74-12.79-12.79v-11.41c0-7.05,5.74-12.79,12.79-12.79h48.58c7.05,0,12.79,5.74,12.79,12.79v11.41c0,7.05-5.74,12.79-12.79,12.79Zm-48.58-34.99c-5.95,0-10.79,4.84-10.79,10.79v11.41c0,5.95,4.84,10.79,10.79,10.79h48.58c5.95,0,10.79-4.84,10.79-10.79v-11.41c0-5.95-4.84-10.79-10.79-10.79H42.59Z"/>
          <g>
            <path class="cls-1" d="M80.65,196.43l-1.95-1.95c-.19-.19-.42-.26-.67-.2-.27,.07-.5,.3-.57,.57-.06,.25,0,.48,.2,.67l.69,.69h-12.83c-.55,0-1.13-.07-1.71-.22-3.15-.79-5.35-3.6-5.35-6.83,.17-4.84,3.74-7,7.06-7,.07,0,.13,0,.2,0,3.29,.09,6.69,2.28,6.85,6.99,0,1.6-.55,3.17-1.55,4.41-.12,.15-.18,.34-.16,.54,.02,.19,.12,.37,.28,.5,.2,.13,.41,.18,.6,.13,.43-.1,.72-.61,.98-1.06,.08-.14,.16-.28,.24-.39,1.08-1.83,1.35-4.15,.74-6.36-.57-2.09-1.86-3.86-3.55-4.91,.37-.06,.74-.17,1.1-.33,1.68-.74,2.77-2.39,2.77-4.22-.07-2.96-2.29-4.45-4.33-4.58-1.96-.13-4.26,.98-4.82,3.68l-.58-.78c-.28-.38-.73-.35-1.02-.14-.29,.22-.44,.64-.15,1.02l1.65,2.2c.11,.15,.29,.26,.48,.29,.2,.03,.4-.02,.54-.14l2.2-1.65c.38-.29,.35-.73,.14-1.02-.22-.29-.64-.44-1.02-.15l-.8,.6c.39-1.78,1.92-2.52,3.25-2.45,1.45,.08,2.94,1.08,2.98,3.12,0,1.74-1.42,3.16-3.16,3.16h-3.9c-5.82,.23-8.47,4.58-8.47,8.52s2.65,8.29,8.47,8.52h12.83l-.69,.69c-.21,.2-.28,.51-.16,.8,.12,.28,.37,.46,.65,.46,.19,0,.4-.07,.55-.23,.02-.03,.23-.23,.45-.44,1.47-1.45,1.66-1.67,1.67-1.77,.09-.25,.03-.54-.17-.76Z"/>
            <path class="cls-1" d="M58.71,196.21h-3.9c-.47,0-.72,.37-.72,.73s.25,.73,.72,.73h3.89c.47,0,.72-.37,.72-.73s-.25-.73-.72-.73Z"/>
            <path class="cls-1" d="M68.73,185.79l-4.23,4.23-1.12-1.12c-.15-.16-.36-.22-.56-.17-.22,.06-.41,.25-.47,.47-.05,.2,0,.41,.16,.56l1.56,1.56c.12,.12,.28,.18,.43,.18s.31-.06,.43-.18l4.67-4.67c.16-.15,.22-.36,.17-.56-.06-.22-.25-.41-.47-.47-.2-.05-.4,0-.56,.17Z"/>
          </g>
        </g>
        <g>
          <path class="cls-2" d="M323.64,204.75h-48.58c-7.05,0-12.79-5.74-12.79-12.79v-11.41c0-7.05,5.74-12.79,12.79-12.79h48.58c7.05,0,12.79,5.74,12.79,12.79v11.41c0,7.05-5.74,12.79-12.79,12.79Zm-48.58-34.99c-5.95,0-10.79,4.84-10.79,10.79v11.41c0,5.95,4.84,10.79,10.79,10.79h48.58c5.95,0,10.79-4.84,10.79-10.79v-11.41c0-5.95-4.84-10.79-10.79-10.79h-48.58Z"/>
          <rect class="cls-1" x="291.4" y="185.5" width="15.91" height="1.5" rx=".75" ry=".75" transform="translate(2.38 376.27) rotate(-64.5)"/>
          <path class="cls-1" d="M306.56,191.07h0c-.27-.31-.24-.79,.07-1.06l4.13-3.63-4.17-3.89c-.3-.28-.32-.76-.04-1.06h0c.28-.3,.76-.32,1.06-.04l5.38,5.02-5.38,4.72c-.31,.27-.79,.24-1.06-.07Z"/>
          <path class="cls-1" d="M291.08,191.14l-5.38-4.72,5.38-5.02c.3-.28,.78-.27,1.06,.04h0c.28,.3,.27,.78-.04,1.06l-4.17,3.89,4.13,3.63c.31,.27,.34,.75,.07,1.06h0c-.27,.31-.75,.34-1.06,.07Z"/>
        </g>
        <g>
          <path class="cls-5" d="M439.05,204.26h-48.58c-7.05,0-12.79-5.74-12.79-12.79v-11.41c0-7.05,5.74-12.79,12.79-12.79h48.58c7.05,0,12.79,5.74,12.79,12.79v11.41c0,7.05-5.74,12.79-12.79,12.79Zm-48.58-34.99c-5.95,0-10.79,4.84-10.79,10.79v11.41c0,5.95,4.84,10.79,10.79,10.79h48.58c5.95,0,10.79-4.84,10.79-10.79v-11.41c0-5.95-4.84-10.79-10.79-10.79h-48.58Z"/>
          <rect class="cls-5" x="406.8" y="185.02" width="15.91" height="1.5" rx=".75" ry=".75" transform="translate(68.54 480.16) rotate(-64.5)"/>
          <path class="cls-5" d="M421.97,190.59h0c-.27-.31-.24-.79,.07-1.06l4.13-3.63-4.17-3.89c-.3-.28-.32-.76-.04-1.06h0c.28-.3,.76-.32,1.06-.04l5.38,5.02-5.38,4.72c-.31,.27-.79,.24-1.06-.07Z"/>
          <path class="cls-5" d="M406.49,190.65l-5.38-4.72,5.38-5.02c.3-.28,.78-.27,1.06,.04h0c.28,.3,.27,.78-.04,1.06l-4.17,3.89,4.13,3.63c.31,.27,.34,.75,.07,1.06h0c-.27,.31-.75,.34-1.06,.07Z"/>
        </g>
      </g>
      <g>
        <g class="cls-6">
          <path class="cls-4" d="M77.79,243.81h-2c-.55,0-1-.45-1-1s.45-1,1-1h2c.55,0,1,.45,1,1s-.45,1-1,1Z"/>
          <path class="cls-4" d="M104.09,243.81h-4.38c-.55,0-1-.45-1-1s.45-1,1-1h4.38c.55,0,1,.45,1,1s-.45,1-1,1Zm-13.15,0h-4.38c-.55,0-1-.45-1-1s.45-1,1-1h4.38c.55,0,1,.45,1,1s-.45,1-1,1Z"/>
          <path class="cls-4" d="M114.86,243.81h-2c-.55,0-1-.45-1-1s.45-1,1-1h2c.55,0,1,.45,1,1s-.45,1-1,1Z"/>
        </g>
        <g class="cls-6">
          <path class="cls-4" d="M193.56,243.81h-2c-.55,0-1-.45-1-1s.45-1,1-1h2c.55,0,1,.45,1,1s-.45,1-1,1Z"/>
          <path class="cls-4" d="M219.86,243.81h-4.38c-.55,0-1-.45-1-1s.45-1,1-1h4.38c.55,0,1,.45,1,1s-.45,1-1,1Zm-13.15,0h-4.38c-.55,0-1-.45-1-1s.45-1,1-1h4.38c.55,0,1,.45,1,1s-.45,1-1,1Z"/>
          <path class="cls-4" d="M230.63,243.81h-2c-.55,0-1-.45-1-1s.45-1,1-1h2c.55,0,1,.45,1,1s-.45,1-1,1Z"/>
        </g>
        <g class="cls-6">
          <path class="cls-4" d="M540.88,243.81h-2c-.55,0-1-.45-1-1s.45-1,1-1h2c.55,0,1,.45,1,1s-.45,1-1,1Z"/>
          <path class="cls-4" d="M567.19,243.81h-4.38c-.55,0-1-.45-1-1s.45-1,1-1h4.38c.55,0,1,.45,1,1s-.45,1-1,1Zm-13.15,0h-4.38c-.55,0-1-.45-1-1s.45-1,1-1h4.38c.55,0,1,.45,1,1s-.45,1-1,1Z"/>
          <path class="cls-4" d="M577.95,243.81h-2c-.55,0-1-.45-1-1s.45-1,1-1h2c.55,0,1,.45,1,1s-.45,1-1,1Z"/>
        </g>
        <g class="cls-6">
          <path class="cls-4" d="M309.34,243.81h-2c-.55,0-1-.45-1-1s.45-1,1-1h2c.55,0,1,.45,1,1s-.45,1-1,1Z"/>
          <path class="cls-4" d="M335.64,243.81h-4.38c-.55,0-1-.45-1-1s.45-1,1-1h4.38c.55,0,1,.45,1,1s-.45,1-1,1Zm-13.15,0h-4.38c-.55,0-1-.45-1-1s.45-1,1-1h4.38c.55,0,1,.45,1,1s-.45,1-1,1Z"/>
          <path class="cls-4" d="M346.4,243.81h-2c-.55,0-1-.45-1-1s.45-1,1-1h2c.55,0,1,.45,1,1s-.45,1-1,1Z"/>
        </g>
        <g class="cls-6">
          <path class="cls-4" d="M425.11,243.81h-2c-.55,0-1-.45-1-1s.45-1,1-1h2c.55,0,1,.45,1,1s-.45,1-1,1Z"/>
          <path class="cls-4" d="M451.41,243.81h-4.38c-.55,0-1-.45-1-1s.45-1,1-1h4.38c.55,0,1,.45,1,1s-.45,1-1,1Zm-13.15,0h-4.38c-.55,0-1-.45-1-1s.45-1,1-1h4.38c.55,0,1,.45,1,1s-.45,1-1,1Z"/>
          <path class="cls-4" d="M462.18,243.81h-2c-.55,0-1-.45-1-1s.45-1,1-1h2c.55,0,1,.45,1,1s-.45,1-1,1Z"/>
        </g>
        <g>
          <path class="cls-1" d="M177.5,261.3h-48.58c-7.05,0-12.79-5.74-12.79-12.79v-11.41c0-7.05,5.74-12.79,12.79-12.79h48.58c7.05,0,12.79,5.74,12.79,12.79v11.41c0,7.05-5.74,12.79-12.79,12.79Zm-48.58-34.99c-5.95,0-10.79,4.84-10.79,10.79v11.41c0,5.95,4.84,10.79,10.79,10.79h48.58c5.95,0,10.79-4.84,10.79-10.79v-11.41c0-5.95-4.84-10.79-10.79-10.79h-48.58Z"/>
          <g>
            <path class="cls-1" d="M154.28,251.54c-.46,0-.83-.37-.83-.83v-17.89c0-.46,.37-.83,.83-.83h11.93c.46,0,.83,.37,.83,.83s-.37,.83-.83,.83h-11.1v16.23h16.23v-5.13c0-.46,.37-.83,.83-.83s.83,.37,.83,.83v5.96c0,.46-.37,.83-.83,.83h-17.89Z"/>
            <path class="cls-1" d="M163.22,245.58c-.22,0-.43-.09-.59-.24l-2.98-2.98c-.33-.32-.26-.67-.19-.84,.14-.34,.48-.58,.82-.58,.2,0,.39,.09,.55,.25l2.4,2.4,8.36-8.36c.16-.16,.35-.25,.55-.25,.33,0,.68,.24,.81,.58,.12,.3,.05,.61-.19,.84l-8.95,8.95c-.16,.16-.36,.24-.59,.24Z"/>
            <path class="cls-1" d="M133.41,247.07c-.46,0-.83-.37-.83-.83v-8.94c0-.46,.37-.83,.83-.83h8.95c.46,0,.83,.37,.83,.83v3.64h6.11l-1.57-1.56c-.33-.32-.26-.67-.19-.84,.14-.34,.48-.58,.82-.58,.2,0,.39,.09,.55,.25,0,.01,.1,.11,.75,.75,.72,.71,2.17,2.14,2.39,2.45l.02,.06c.11,.31,.04,.67-.18,.91l-2.98,2.98c-.16,.16-.36,.25-.56,.25h0c-.33,0-.66-.23-.8-.56-.13-.3-.06-.62,.19-.87l1.57-1.56h-6.11v3.64c0,.46-.37,.83-.83,.83h-8.95Zm.83-1.66h7.29v-7.29h-7.29v7.29Z"/>
          </g>
        </g>
        <g>
          <path class="cls-3" d="M293.27,261.3h-48.58c-7.05,0-12.79-5.74-12.79-12.79v-11.41c0-7.05,5.74-12.79,12.79-12.79h48.58c7.05,0,12.79,5.74,12.79,12.79v11.41c0,7.05-5.74,12.79-12.79,12.79Zm-48.58-34.99c-5.95,0-10.79,4.84-10.79,10.79v11.41c0,5.95,4.84,10.79,10.79,10.79h48.58c5.95,0,10.79-4.84,10.79-10.79v-11.41c0-5.95-4.84-10.79-10.79-10.79h-48.58Z"/>
          <g>
            <path class="cls-3" d="M282.99,231.45h-22.62c-.19,0-.37,.07-.51,.21l-4.11,4.11c-.14,.14-.21,.32-.21,.51v16.45c0,.4,.32,.72,.72,.72h26.73c.4,0,.72-.32,.72-.72v-20.56c0-.4-.32-.72-.72-.72Zm-25,4.11l1.66-1.66v1.66h-1.66Zm2.64,1.38c.17-.07,.31-.21,.38-.38h0s0,0,0,0c0,0,0-.01,.01-.02l.13-.34-.08,.08s0,0,0,0v-3.4h21.18v19.13h-25.3v-15.01h3.4s0,0,0,0l-.08,.08,.34-.13Z"/>
            <path class="cls-3" d="M266.54,243.17h2.37v4.42c0,.4,.32,.72,.72,.72h3.08c.4,0,.72-.32,.72-.72s-.32-.72-.72-.72h-2.37v-8.85h2.37c.4,0,.72-.32,.72-.72s-.32-.72-.72-.72h-3.08c-.4,0-.72,.32-.72,.72v4.42h-2.37c-.4,0-.72,.32-.72,.72s.32,.72,.72,.72Z"/>
            <path class="cls-3" d="M276.82,240.08c1.53,0,2.77-1.24,2.77-2.77s-1.24-2.77-2.77-2.77-2.77,1.24-2.77,2.77,1.24,2.77,2.77,2.77Zm-1.64-2.77c0-.91,.74-1.64,1.64-1.64s1.64,.74,1.64,1.64-.74,1.64-1.64,1.64-1.64-.74-1.64-1.64Z"/>
            <path class="cls-3" d="M262.43,245.23c1.53,0,2.77-1.24,2.77-2.77s-1.24-2.77-2.77-2.77-2.77,1.24-2.77,2.77,1.24,2.77,2.77,2.77Zm.06-1.13c-.91,0-1.64-.74-1.64-1.64s.74-1.64,1.64-1.64,1.64,.74,1.64,1.64-.74,1.64-1.64,1.64Z"/>
            <path class="cls-3" d="M276.82,250.37c1.53,0,2.77-1.24,2.77-2.77s-1.24-2.77-2.77-2.77-2.77,1.24-2.77,2.77,1.24,2.77,2.77,2.77Zm-1.64-2.77c0-.91,.74-1.64,1.64-1.64s1.64,.74,1.64,1.64-.74,1.64-1.64,1.64-1.64-.74-1.64-1.64Z"/>
          </g>
        </g>
        <g>
          <path class="cls-3" d="M524.93,261.3h-48.58c-7.05,0-12.79-5.74-12.79-12.79v-11.41c0-7.05,5.74-12.79,12.79-12.79h48.58c7.05,0,12.79,5.74,12.79,12.79v11.41c0,7.05-5.74,12.79-12.79,12.79Zm-48.58-34.99c-5.95,0-10.79,4.84-10.79,10.79v11.41c0,5.95,4.84,10.79,10.79,10.79h48.58c5.95,0,10.79-4.84,10.79-10.79v-11.41c0-5.95-4.84-10.79-10.79-10.79h-48.58Z"/>
          <g>
            <path class="cls-1" d="M514.41,252.18l-1.95-1.95c-.19-.19-.42-.26-.67-.2-.27,.07-.5,.3-.57,.57-.06,.25,0,.48,.2,.67l.69,.69h-12.83c-.55,0-1.13-.07-1.71-.22-3.15-.79-5.35-3.6-5.35-6.83,.17-4.84,3.74-7,7.06-7,.07,0,.13,0,.2,0,3.29,.09,6.69,2.28,6.85,6.99,0,1.6-.55,3.17-1.55,4.41-.12,.15-.18,.34-.16,.54,.02,.19,.12,.37,.28,.5,.2,.13,.41,.18,.6,.13,.43-.1,.72-.61,.98-1.06,.08-.14,.16-.28,.24-.39,1.08-1.83,1.35-4.15,.74-6.36-.57-2.09-1.86-3.86-3.55-4.91,.37-.06,.74-.17,1.1-.33,1.68-.74,2.77-2.39,2.77-4.22-.07-2.96-2.29-4.45-4.33-4.58-1.96-.13-4.26,.98-4.82,3.68l-.58-.78c-.28-.38-.73-.35-1.02-.14-.29,.22-.44,.64-.15,1.02l1.65,2.2c.11,.15,.29,.26,.48,.29,.2,.03,.4-.02,.54-.14l2.2-1.65c.38-.29,.35-.73,.14-1.02-.22-.29-.64-.44-1.02-.15l-.8,.6c.39-1.78,1.92-2.52,3.25-2.45,1.45,.08,2.94,1.08,2.98,3.12,0,1.74-1.42,3.16-3.16,3.16h-3.9c-5.82,.23-8.47,4.58-8.47,8.52s2.65,8.29,8.47,8.52h12.83l-.69,.69c-.21,.2-.28,.51-.16,.8,.12,.28,.37,.46,.65,.46,.19,0,.4-.07,.55-.23,.02-.03,.23-.23,.45-.44,1.47-1.45,1.66-1.67,1.67-1.77,.09-.25,.03-.54-.17-.76Z"/>
            <path class="cls-1" d="M492.47,251.96h-3.9c-.47,0-.72,.37-.72,.73s.25,.73,.72,.73h3.89c.47,0,.72-.37,.72-.73s-.25-.73-.72-.73Z"/>
            <path class="cls-1" d="M502.49,241.54l-4.23,4.23-1.12-1.12c-.15-.16-.36-.22-.56-.17-.22,.06-.41,.25-.47,.47-.05,.2,0,.41,.16,.56l1.56,1.56c.12,.12,.28,.18,.43,.18s.31-.06,.43-.18l4.67-4.67c.16-.15,.22-.36,.17-.56-.06-.22-.25-.41-.47-.47-.2-.05-.4,0-.56,.17Z"/>
          </g>
        </g>
        <g>
          <path class="cls-5" d="M409.09,261.31h-48.58c-7.05,0-12.79-5.74-12.79-12.79v-11.41c0-7.05,5.74-12.79,12.79-12.79h48.58c7.05,0,12.79,5.74,12.79,12.79v11.41c0,7.05-5.74,12.79-12.79,12.79Zm-48.58-34.99c-5.95,0-10.79,4.84-10.79,10.79v11.41c0,5.95,4.84,10.79,10.79,10.79h48.58c5.95,0,10.79-4.84,10.79-10.79v-11.41c0-5.95-4.84-10.79-10.79-10.79h-48.58Z"/>
          <rect class="cls-5" x="376.85" y="242.06" width="15.91" height="1.5" rx=".75" ry=".75" transform="translate(0 485.61) rotate(-64.5)"/>
          <path class="cls-5" d="M392.01,247.63h0c-.27-.31-.24-.79,.07-1.06l4.13-3.63-4.17-3.89c-.3-.28-.32-.76-.04-1.06h0c.28-.3,.76-.32,1.06-.04l5.38,5.02-5.38,4.72c-.31,.27-.79,.24-1.06-.07Z"/>
          <path class="cls-5" d="M376.53,247.7l-5.38-4.72,5.38-5.02c.3-.28,.78-.27,1.06,.04h0c.28,.3,.27,.78-.04,1.06l-4.17,3.89,4.13,3.63c.31,.27,.34,.75,.07,1.06h0c-.27,.31-.75,.34-1.06,.07Z"/>
        </g>
        <g>
          <path class="cls-5" d="M61.37,261.31H12.79c-7.05,0-12.79-5.74-12.79-12.79v-11.41c0-7.05,5.74-12.79,12.79-12.79H61.37c7.05,0,12.79,5.74,12.79,12.79v11.41c0,7.05-5.74,12.79-12.79,12.79ZM12.79,226.31c-5.95,0-10.79,4.84-10.79,10.79v11.41c0,5.95,4.84,10.79,10.79,10.79H61.37c5.95,0,10.79-4.84,10.79-10.79v-11.41c0-5.95-4.84-10.79-10.79-10.79H12.79Z"/>
          <rect class="cls-5" x="29.13" y="242.06" width="15.91" height="1.5" rx=".75" ry=".75" transform="translate(-198.04 171.76) rotate(-64.5)"/>
          <path class="cls-5" d="M44.3,247.63h0c-.27-.31-.24-.79,.07-1.06l4.13-3.63-4.17-3.89c-.3-.28-.32-.76-.04-1.06h0c.28-.3,.76-.32,1.06-.04l5.38,5.02-5.38,4.72c-.31,.27-.79,.24-1.06-.07Z"/>
          <path class="cls-5" d="M28.81,247.7l-5.38-4.72,5.38-5.02c.3-.28,.78-.27,1.06,.04h0c.28,.3,.27,.78-.04,1.06l-4.17,3.89,4.13,3.63c.31,.27,.34,.75,.07,1.06h0c-.27,.31-.75,.34-1.06,.07Z"/>
        </g>
      </g>
      <g>
        <g class="cls-6">
          <path class="cls-4" d="M77.79,355.32h-2c-.55,0-1-.45-1-1s.45-1,1-1h2c.55,0,1,.45,1,1s-.45,1-1,1Z"/>
          <path class="cls-4" d="M104.09,355.32h-4.38c-.55,0-1-.45-1-1s.45-1,1-1h4.38c.55,0,1,.45,1,1s-.45,1-1,1Zm-13.15,0h-4.38c-.55,0-1-.45-1-1s.45-1,1-1h4.38c.55,0,1,.45,1,1s-.45,1-1,1Z"/>
          <path class="cls-4" d="M114.86,355.32h-2c-.55,0-1-.45-1-1s.45-1,1-1h2c.55,0,1,.45,1,1s-.45,1-1,1Z"/>
        </g>
        <g class="cls-6">
          <path class="cls-4" d="M193.56,355.32h-2c-.55,0-1-.45-1-1s.45-1,1-1h2c.55,0,1,.45,1,1s-.45,1-1,1Z"/>
          <path class="cls-4" d="M219.86,355.32h-4.38c-.55,0-1-.45-1-1s.45-1,1-1h4.38c.55,0,1,.45,1,1s-.45,1-1,1Zm-13.15,0h-4.38c-.55,0-1-.45-1-1s.45-1,1-1h4.38c.55,0,1,.45,1,1s-.45,1-1,1Z"/>
          <path class="cls-4" d="M230.63,355.32h-2c-.55,0-1-.45-1-1s.45-1,1-1h2c.55,0,1,.45,1,1s-.45,1-1,1Z"/>
        </g>
        <g class="cls-6">
          <path class="cls-4" d="M540.88,355.32h-2c-.55,0-1-.45-1-1s.45-1,1-1h2c.55,0,1,.45,1,1s-.45,1-1,1Z"/>
          <path class="cls-4" d="M567.19,355.32h-4.38c-.55,0-1-.45-1-1s.45-1,1-1h4.38c.55,0,1,.45,1,1s-.45,1-1,1Zm-13.15,0h-4.38c-.55,0-1-.45-1-1s.45-1,1-1h4.38c.55,0,1,.45,1,1s-.45,1-1,1Z"/>
          <path class="cls-4" d="M577.95,355.32h-2c-.55,0-1-.45-1-1s.45-1,1-1h2c.55,0,1,.45,1,1s-.45,1-1,1Z"/>
        </g>
        <g class="cls-6">
          <path class="cls-4" d="M309.34,355.32h-2c-.55,0-1-.45-1-1s.45-1,1-1h2c.55,0,1,.45,1,1s-.45,1-1,1Z"/>
          <path class="cls-4" d="M335.64,355.32h-4.38c-.55,0-1-.45-1-1s.45-1,1-1h4.38c.55,0,1,.45,1,1s-.45,1-1,1Zm-13.15,0h-4.38c-.55,0-1-.45-1-1s.45-1,1-1h4.38c.55,0,1,.45,1,1s-.45,1-1,1Z"/>
          <path class="cls-4" d="M346.4,355.32h-2c-.55,0-1-.45-1-1s.45-1,1-1h2c.55,0,1,.45,1,1s-.45,1-1,1Z"/>
        </g>
        <g class="cls-6">
          <path class="cls-4" d="M425.11,355.32h-2c-.55,0-1-.45-1-1s.45-1,1-1h2c.55,0,1,.45,1,1s-.45,1-1,1Z"/>
          <path class="cls-4" d="M451.41,355.32h-4.38c-.55,0-1-.45-1-1s.45-1,1-1h4.38c.55,0,1,.45,1,1s-.45,1-1,1Zm-13.15,0h-4.38c-.55,0-1-.45-1-1s.45-1,1-1h4.38c.55,0,1,.45,1,1s-.45,1-1,1Z"/>
          <path class="cls-4" d="M462.18,355.32h-2c-.55,0-1-.45-1-1s.45-1,1-1h2c.55,0,1,.45,1,1s-.45,1-1,1Z"/>
        </g>
        <g>
          <path class="cls-1" d="M61.37,372.82H12.79c-7.05,0-12.79-5.74-12.79-12.79v-11.41c0-7.05,5.74-12.79,12.79-12.79H61.37c7.05,0,12.79,5.74,12.79,12.79v11.41c0,7.05-5.74,12.79-12.79,12.79Zm-48.58-34.99c-5.95,0-10.79,4.84-10.79,10.79v11.41c0,5.95,4.84,10.79,10.79,10.79H61.37c5.95,0,10.79-4.84,10.79-10.79v-11.41c0-5.95-4.84-10.79-10.79-10.79H12.79Z"/>
          <g>
            <path class="cls-1" d="M38.15,363.05c-.46,0-.83-.37-.83-.83v-17.89c0-.46,.37-.83,.83-.83h11.93c.46,0,.83,.37,.83,.83s-.37,.83-.83,.83h-11.1v16.23h16.23v-5.13c0-.46,.37-.83,.83-.83s.83,.37,.83,.83v5.96c0,.46-.37,.83-.83,.83h-17.89Z"/>
            <path class="cls-1" d="M47.1,357.09c-.22,0-.43-.09-.59-.24l-2.98-2.98c-.33-.32-.26-.67-.19-.84,.14-.34,.48-.58,.82-.58,.2,0,.39,.09,.55,.25l2.4,2.4,8.36-8.36c.16-.16,.35-.25,.55-.25,.33,0,.68,.24,.81,.58,.12,.3,.05,.61-.19,.84l-8.95,8.95c-.16,.16-.36,.24-.59,.24Z"/>
            <path class="cls-1" d="M17.28,358.58c-.46,0-.83-.37-.83-.83v-8.94c0-.46,.37-.83,.83-.83h8.95c.46,0,.83,.37,.83,.83v3.64h6.11l-1.57-1.56c-.33-.32-.26-.67-.19-.84,.14-.34,.48-.58,.82-.58,.2,0,.39,.09,.55,.25,0,.01,.1,.11,.75,.75,.72,.71,2.17,2.14,2.39,2.45l.02,.06c.11,.31,.04,.67-.18,.91l-2.98,2.98c-.16,.16-.36,.25-.56,.25h0c-.33,0-.66-.23-.8-.56-.13-.3-.06-.62,.19-.87l1.57-1.56h-6.11v3.64c0,.46-.37,.83-.83,.83h-8.95Zm.83-1.66h7.29v-7.29h-7.29v7.29Z"/>
          </g>
        </g>
        <g>
          <path class="cls-3" d="M409.05,372.82h-48.58c-7.05,0-12.79-5.74-12.79-12.79v-11.41c0-7.05,5.74-12.79,12.79-12.79h48.58c7.05,0,12.79,5.74,12.79,12.79v11.41c0,7.05-5.74,12.79-12.79,12.79Zm-48.58-34.99c-5.95,0-10.79,4.84-10.79,10.79v11.41c0,5.95,4.84,10.79,10.79,10.79h48.58c5.95,0,10.79-4.84,10.79-10.79v-11.41c0-5.95-4.84-10.79-10.79-10.79h-48.58Z"/>
          <g>
            <path class="cls-3" d="M398.77,342.96h-22.62c-.19,0-.37,.07-.51,.21l-4.11,4.11c-.14,.14-.21,.32-.21,.51v16.45c0,.4,.32,.72,.72,.72h26.73c.4,0,.72-.32,.72-.72v-20.56c0-.4-.32-.72-.72-.72Zm-25,4.11l1.66-1.66v1.66h-1.66Zm2.64,1.38c.17-.07,.31-.21,.38-.38h0s0,0,0,0c0,0,0-.01,.01-.02l.13-.34-.08,.08s0,0,0,0v-3.4h21.18v19.13h-25.3v-15.01h3.4s0,0,0,0l-.08,.08,.34-.13Z"/>
            <path class="cls-3" d="M382.31,354.68h2.37v4.42c0,.4,.32,.72,.72,.72h3.08c.4,0,.72-.32,.72-.72s-.32-.72-.72-.72h-2.37v-8.85h2.37c.4,0,.72-.32,.72-.72s-.32-.72-.72-.72h-3.08c-.4,0-.72,.32-.72,.72v4.42h-2.37c-.4,0-.72,.32-.72,.72s.32,.72,.72,.72Z"/>
            <path class="cls-3" d="M392.6,351.6c1.53,0,2.77-1.24,2.77-2.77s-1.24-2.77-2.77-2.77-2.77,1.24-2.77,2.77,1.24,2.77,2.77,2.77Zm-1.64-2.77c0-.91,.74-1.64,1.64-1.64s1.64,.74,1.64,1.64-.74,1.64-1.64,1.64-1.64-.74-1.64-1.64Z"/>
            <path class="cls-3" d="M378.2,356.74c1.53,0,2.77-1.24,2.77-2.77s-1.24-2.77-2.77-2.77-2.77,1.24-2.77,2.77,1.24,2.77,2.77,2.77Zm.06-1.13c-.91,0-1.64-.74-1.64-1.64s.74-1.64,1.64-1.64,1.64,.74,1.64,1.64-.74,1.64-1.64,1.64Z"/>
            <path class="cls-3" d="M392.6,361.88c1.53,0,2.77-1.24,2.77-2.77s-1.24-2.77-2.77-2.77-2.77,1.24-2.77,2.77,1.24,2.77,2.77,2.77Zm-1.64-2.77c0-.91,.74-1.64,1.64-1.64s1.64,.74,1.64,1.64-.74,1.64-1.64,1.64-1.64-.74-1.64-1.64Z"/>
          </g>
        </g>
        <g>
          <path class="cls-1" d="M293.92,372.82h-48.58c-7.05,0-12.79-5.74-12.79-12.79v-11.41c0-7.05,5.74-12.79,12.79-12.79h48.58c7.05,0,12.79,5.74,12.79,12.79v11.41c0,7.05-5.74,12.79-12.79,12.79Zm-48.58-34.99c-5.95,0-10.79,4.84-10.79,10.79v11.41c0,5.95,4.84,10.79,10.79,10.79h48.58c5.95,0,10.79-4.84,10.79-10.79v-11.41c0-5.95-4.84-10.79-10.79-10.79h-48.58Z"/>
          <g>
            <path class="cls-1" d="M283.4,363.7l-1.95-1.95c-.19-.19-.42-.26-.67-.2-.27,.07-.5,.3-.57,.57-.06,.25,0,.48,.2,.67l.69,.69h-12.83c-.55,0-1.13-.07-1.71-.22-3.15-.79-5.35-3.6-5.35-6.83,.17-4.84,3.74-7,7.06-7,.07,0,.13,0,.2,0,3.29,.09,6.69,2.28,6.85,6.99,0,1.6-.55,3.17-1.55,4.41-.12,.15-.18,.34-.16,.54,.02,.19,.12,.37,.28,.5,.2,.13,.41,.18,.6,.13,.43-.1,.72-.61,.98-1.06,.08-.14,.16-.28,.24-.39,1.08-1.83,1.35-4.15,.74-6.36-.57-2.09-1.86-3.86-3.55-4.91,.37-.06,.74-.17,1.1-.33,1.68-.74,2.77-2.39,2.77-4.22-.07-2.96-2.29-4.45-4.33-4.58-1.96-.13-4.26,.98-4.82,3.68l-.58-.78c-.28-.38-.73-.35-1.02-.14-.29,.22-.44,.64-.15,1.02l1.65,2.2c.11,.15,.29,.26,.48,.29,.2,.03,.4-.02,.54-.14l2.2-1.65c.38-.29,.35-.73,.14-1.02-.22-.29-.64-.44-1.02-.15l-.8,.6c.39-1.78,1.92-2.52,3.25-2.45,1.45,.08,2.94,1.08,2.98,3.12,0,1.74-1.42,3.16-3.16,3.16h-3.9c-5.82,.23-8.47,4.58-8.47,8.52s2.65,8.29,8.47,8.52h12.83l-.69,.69c-.21,.2-.28,.51-.16,.8,.12,.28,.37,.46,.65,.46,.19,0,.4-.07,.55-.23,.02-.03,.23-.23,.45-.44,1.47-1.45,1.66-1.67,1.67-1.77,.09-.25,.03-.54-.17-.76Z"/>
            <path class="cls-1" d="M261.46,363.48h-3.9c-.47,0-.72,.37-.72,.73s.25,.73,.72,.73h3.89c.47,0,.72-.37,.72-.73s-.25-.73-.72-.73Z"/>
            <path class="cls-1" d="M271.48,353.06l-4.23,4.23-1.12-1.12c-.15-.16-.36-.22-.56-.17-.22,.06-.41,.25-.47,.47-.05,.2,0,.41,.16,.56l1.56,1.56c.12,.12,.28,.18,.43,.18s.31-.06,.43-.18l4.67-4.67c.16-.15,.22-.36,.17-.56-.06-.22-.25-.41-.47-.47-.2-.05-.4,0-.56,.17Z"/>
          </g>
        </g>
        <g>
          <path class="cls-2" d="M524.93,372.82h-48.58c-7.05,0-12.79-5.74-12.79-12.79v-11.41c0-7.05,5.74-12.79,12.79-12.79h48.58c7.05,0,12.79,5.74,12.79,12.79v11.41c0,7.05-5.74,12.79-12.79,12.79Zm-48.58-34.99c-5.95,0-10.79,4.84-10.79,10.79v11.41c0,5.95,4.84,10.79,10.79,10.79h48.58c5.95,0,10.79-4.84,10.79-10.79v-11.41c0-5.95-4.84-10.79-10.79-10.79h-48.58Z"/>
          <rect class="cls-1" x="492.68" y="353.57" width="15.91" height="1.5" rx=".75" ry=".75" transform="translate(-34.68 653.68) rotate(-64.5)"/>
          <path class="cls-1" d="M507.85,359.14h0c-.27-.31-.24-.79,.07-1.06l4.13-3.63-4.17-3.89c-.3-.28-.32-.76-.04-1.06h0c.28-.3,.76-.32,1.06-.04l5.38,5.02-5.38,4.72c-.31,.27-.79,.24-1.06-.07Z"/>
          <path class="cls-1" d="M492.37,359.21l-5.38-4.72,5.38-5.02c.3-.28,.78-.27,1.06,.04h0c.28,.3,.27,.78-.04,1.06l-4.17,3.89,4.13,3.63c.31,.27,.34,.75,.07,1.06h0c-.27,.31-.75,.34-1.06,.07Z"/>
        </g>
        <g>
          <path class="cls-2" d="M177.32,372.82h-48.58c-7.05,0-12.79-5.74-12.79-12.79v-11.41c0-7.05,5.74-12.79,12.79-12.79h48.58c7.05,0,12.79,5.74,12.79,12.79v11.41c0,7.05-5.74,12.79-12.79,12.79Zm-48.58-34.99c-5.95,0-10.79,4.84-10.79,10.79v11.41c0,5.95,4.84,10.79,10.79,10.79h48.58c5.95,0,10.79-4.84,10.79-10.79v-11.41c0-5.95-4.84-10.79-10.79-10.79h-48.58Z"/>
          <rect class="cls-2" x="145.08" y="353.57" width="15.91" height="1.5" rx=".75" ry=".75" transform="translate(-232.66 339.93) rotate(-64.5)"/>
          <path class="cls-2" d="M160.25,359.14h0c-.27-.31-.24-.79,.07-1.06l4.13-3.63-4.17-3.89c-.3-.28-.32-.76-.04-1.06h0c.28-.3,.76-.32,1.06-.04l5.38,5.02-5.38,4.72c-.31,.27-.79,.24-1.06-.07Z"/>
          <path class="cls-2" d="M144.76,359.21l-5.38-4.72,5.38-5.02c.3-.28,.78-.27,1.06,.04h0c.28,.3,.27,.78-.04,1.06l-4.17,3.89,4.13,3.63c.31,.27,.34,.75,.07,1.06h0c-.27,.31-.75,.34-1.06,.07Z"/>
        </g>
      </g>
      <g>
        <path class="cls-4" d="M107.79,299.57h-2c-.55,0-1-.45-1-1s.45-1,1-1h2c.55,0,1,.45,1,1s-.45,1-1,1Z"/>
        <path class="cls-4" d="M134.09,299.57h-4.38c-.55,0-1-.45-1-1s.45-1,1-1h4.38c.55,0,1,.45,1,1s-.45,1-1,1Zm-13.15,0h-4.38c-.55,0-1-.45-1-1s.45-1,1-1h4.38c.55,0,1,.45,1,1s-.45,1-1,1Z"/>
        <path class="cls-4" d="M144.86,299.57h-2c-.55,0-1-.45-1-1s.45-1,1-1h2c.55,0,1,.45,1,1s-.45,1-1,1Z"/>
        <path class="cls-4" d="M223.56,299.57h-2c-.55,0-1-.45-1-1s.45-1,1-1h2c.55,0,1,.45,1,1s-.45,1-1,1Z"/>
        <path class="cls-4" d="M249.86,299.57h-4.38c-.55,0-1-.45-1-1s.45-1,1-1h4.38c.55,0,1,.45,1,1s-.45,1-1,1Zm-13.15,0h-4.38c-.55,0-1-.45-1-1s.45-1,1-1h4.38c.55,0,1,.45,1,1s-.45,1-1,1Z"/>
        <path class="cls-4" d="M260.63,299.57h-2c-.55,0-1-.45-1-1s.45-1,1-1h2c.55,0,1,.45,1,1s-.45,1-1,1Z"/>
        <path class="cls-4" d="M570.88,299.57h-2c-.55,0-1-.45-1-1s.45-1,1-1h2c.55,0,1,.45,1,1s-.45,1-1,1Z"/>
        <path class="cls-4" d="M597.19,299.57h-4.38c-.55,0-1-.45-1-1s.45-1,1-1h4.38c.55,0,1,.45,1,1s-.45,1-1,1Zm-13.15,0h-4.38c-.55,0-1-.45-1-1s.45-1,1-1h4.38c.55,0,1,.45,1,1s-.45,1-1,1Z"/>
        <path class="cls-4" d="M607.95,299.57h-2c-.55,0-1-.45-1-1s.45-1,1-1h2c.55,0,1,.45,1,1s-.45,1-1,1Z"/>
        <path class="cls-4" d="M339.34,299.57h-2c-.55,0-1-.45-1-1s.45-1,1-1h2c.55,0,1,.45,1,1s-.45,1-1,1Z"/>
        <path class="cls-4" d="M365.64,299.57h-4.38c-.55,0-1-.45-1-1s.45-1,1-1h4.38c.55,0,1,.45,1,1s-.45,1-1,1Zm-13.15,0h-4.38c-.55,0-1-.45-1-1s.45-1,1-1h4.38c.55,0,1,.45,1,1s-.45,1-1,1Z"/>
        <path class="cls-4" d="M376.4,299.57h-2c-.55,0-1-.45-1-1s.45-1,1-1h2c.55,0,1,.45,1,1s-.45,1-1,1Z"/>
        <path class="cls-4" d="M455.11,299.57h-2c-.55,0-1-.45-1-1s.45-1,1-1h2c.55,0,1,.45,1,1s-.45,1-1,1Z"/>
        <path class="cls-4" d="M481.41,299.57h-4.38c-.55,0-1-.45-1-1s.45-1,1-1h4.38c.55,0,1,.45,1,1s-.45,1-1,1Zm-13.15,0h-4.38c-.55,0-1-.45-1-1s.45-1,1-1h4.38c.55,0,1,.45,1,1s-.45,1-1,1Z"/>
        <path class="cls-4" d="M492.18,299.57h-2c-.55,0-1-.45-1-1s.45-1,1-1h2c.55,0,1,.45,1,1s-.45,1-1,1Z"/>
        <g>
          <path class="cls-1" d="M440.29,317.06h-48.58c-7.05,0-12.79-5.74-12.79-12.79v-11.41c0-7.05,5.74-12.79,12.79-12.79h48.58c7.05,0,12.79,5.74,12.79,12.79v11.41c0,7.05-5.74,12.79-12.79,12.79Zm-48.58-34.99c-5.95,0-10.79,4.84-10.79,10.79v11.41c0,5.95,4.84,10.79,10.79,10.79h48.58c5.95,0,10.79-4.84,10.79-10.79v-11.41c0-5.95-4.84-10.79-10.79-10.79h-48.58Z"/>
          <g>
            <path class="cls-1" d="M417.07,307.3c-.46,0-.83-.37-.83-.83v-17.89c0-.46,.37-.83,.83-.83h11.93c.46,0,.83,.37,.83,.83s-.37,.83-.83,.83h-11.1v16.23h16.23v-5.13c0-.46,.37-.83,.83-.83s.83,.37,.83,.83v5.96c0,.46-.37,.83-.83,.83h-17.89Z"/>
            <path class="cls-1" d="M426.02,301.33c-.22,0-.43-.09-.59-.24l-2.98-2.98c-.33-.32-.26-.67-.19-.84,.14-.34,.48-.58,.82-.58,.2,0,.39,.09,.55,.25l2.4,2.4,8.36-8.36c.16-.16,.35-.25,.55-.25,.33,0,.68,.24,.81,.58,.12,.3,.05,.61-.19,.84l-8.95,8.95c-.16,.16-.36,.24-.59,.24Z"/>
            <path class="cls-1" d="M396.2,302.82c-.46,0-.83-.37-.83-.83v-8.94c0-.46,.37-.83,.83-.83h8.95c.46,0,.83,.37,.83,.83v3.64h6.11l-1.57-1.56c-.33-.32-.26-.67-.19-.84,.14-.34,.48-.58,.82-.58,.2,0,.39,.09,.55,.25,0,.01,.1,.11,.75,.75,.72,.71,2.17,2.14,2.39,2.45l.02,.06c.11,.31,.04,.67-.18,.91l-2.98,2.98c-.16,.16-.36,.25-.56,.25h0c-.33,0-.66-.23-.8-.56-.13-.3-.06-.62,.19-.87l1.57-1.56h-6.11v3.64c0,.46-.37,.83-.83,.83h-8.95Zm.83-1.66h7.29v-7.29h-7.29v7.29Z"/>
          </g>
        </g>
        <g>
          <path class="cls-3" d="M90.9,317.06H42.31c-7.05,0-12.79-5.74-12.79-12.79v-11.41c0-7.05,5.74-12.79,12.79-12.79h48.58c7.05,0,12.79,5.74,12.79,12.79v11.41c0,7.05-5.74,12.79-12.79,12.79Zm-48.58-34.99c-5.95,0-10.79,4.84-10.79,10.79v11.41c0,5.95,4.84,10.79,10.79,10.79h48.58c5.95,0,10.79-4.84,10.79-10.79v-11.41c0-5.95-4.84-10.79-10.79-10.79H42.31Z"/>
          <g>
            <path class="cls-3" d="M80.61,287.21h-22.62c-.19,0-.37,.07-.51,.21l-4.11,4.11c-.14,.14-.21,.32-.21,.51v16.45c0,.4,.32,.72,.72,.72h26.73c.4,0,.72-.32,.72-.72v-20.56c0-.4-.32-.72-.72-.72Zm-25,4.11l1.66-1.66v1.66h-1.66Zm2.64,1.38c.17-.07,.31-.21,.38-.38h0s0,0,0,0c0,0,0-.01,.01-.02l.13-.34-.08,.08s0,0,0,0v-3.4h21.18v19.13h-25.3v-15.01h3.4s0,0,0,0l-.08,.08,.34-.13Z"/>
            <path class="cls-3" d="M64.16,298.93h2.37v4.42c0,.4,.32,.72,.72,.72h3.08c.4,0,.72-.32,.72-.72s-.32-.72-.72-.72h-2.37v-8.85h2.37c.4,0,.72-.32,.72-.72s-.32-.72-.72-.72h-3.08c-.4,0-.72,.32-.72,.72v4.42h-2.37c-.4,0-.72,.32-.72,.72s.32,.72,.72,.72Z"/>
            <path class="cls-3" d="M74.45,295.84c1.53,0,2.77-1.24,2.77-2.77s-1.24-2.77-2.77-2.77-2.77,1.24-2.77,2.77,1.24,2.77,2.77,2.77Zm-1.64-2.77c0-.91,.74-1.64,1.64-1.64s1.64,.74,1.64,1.64-.74,1.64-1.64,1.64-1.64-.74-1.64-1.64Z"/>
            <path class="cls-3" d="M60.05,300.98c1.53,0,2.77-1.24,2.77-2.77s-1.24-2.77-2.77-2.77-2.77,1.24-2.77,2.77,1.24,2.77,2.77,2.77Zm.06-1.13c-.91,0-1.64-.74-1.64-1.64s.74-1.64,1.64-1.64,1.64,.74,1.64,1.64-.74,1.64-1.64,1.64Z"/>
            <path class="cls-3" d="M74.45,306.12c1.53,0,2.77-1.24,2.77-2.77s-1.24-2.77-2.77-2.77-2.77,1.24-2.77,2.77,1.24,2.77,2.77,2.77Zm-1.64-2.77c0-.91,.74-1.64,1.64-1.64s1.64,.74,1.64,1.64-.74,1.64-1.64,1.64-1.64-.74-1.64-1.64Z"/>
          </g>
        </g>
        <g>
          <path class="cls-3" d="M206.82,317.06h-48.58c-7.05,0-12.79-5.74-12.79-12.79v-11.41c0-7.05,5.74-12.79,12.79-12.79h48.58c7.05,0,12.79,5.74,12.79,12.79v11.41c0,7.05-5.74,12.79-12.79,12.79Zm-48.58-34.99c-5.95,0-10.79,4.84-10.79,10.79v11.41c0,5.95,4.84,10.79,10.79,10.79h48.58c5.95,0,10.79-4.84,10.79-10.79v-11.41c0-5.95-4.84-10.79-10.79-10.79h-48.58Z"/>
          <g>
            <path class="cls-1" d="M196.3,307.94l-1.95-1.95c-.19-.19-.42-.26-.67-.2-.27,.07-.5,.3-.57,.57-.06,.25,0,.48,.2,.67l.69,.69h-12.83c-.55,0-1.13-.07-1.71-.22-3.15-.79-5.35-3.6-5.35-6.83,.17-4.84,3.74-7,7.06-7,.07,0,.13,0,.2,0,3.29,.09,6.69,2.28,6.85,6.99,0,1.6-.55,3.17-1.55,4.41-.12,.15-.18,.34-.16,.54,.02,.19,.12,.37,.28,.5,.2,.13,.41,.18,.6,.13,.43-.1,.72-.61,.98-1.06,.08-.14,.16-.28,.24-.39,1.08-1.83,1.35-4.15,.74-6.36-.57-2.09-1.86-3.86-3.55-4.91,.37-.06,.74-.17,1.1-.33,1.68-.74,2.77-2.39,2.77-4.22-.07-2.96-2.29-4.45-4.33-4.58-1.96-.13-4.26,.98-4.82,3.68l-.58-.78c-.28-.38-.73-.35-1.02-.14-.29,.22-.44,.64-.15,1.02l1.65,2.2c.11,.15,.29,.26,.48,.29,.2,.03,.4-.02,.54-.14l2.2-1.65c.38-.29,.35-.73,.14-1.02-.22-.29-.64-.44-1.02-.15l-.8,.6c.39-1.78,1.92-2.52,3.25-2.45,1.45,.08,2.94,1.08,2.98,3.12,0,1.74-1.42,3.16-3.16,3.16h-3.9c-5.82,.23-8.47,4.58-8.47,8.52s2.65,8.29,8.47,8.52h12.83l-.69,.69c-.21,.2-.28,.51-.16,.8,.12,.28,.37,.46,.65,.46,.19,0,.4-.07,.55-.23,.02-.03,.23-.23,.45-.44,1.47-1.45,1.66-1.67,1.67-1.77,.09-.25,.03-.54-.17-.76Z"/>
            <path class="cls-1" d="M174.36,307.72h-3.9c-.47,0-.72,.37-.72,.73s.25,.73,.72,.73h3.89c.47,0,.72-.37,.72-.73s-.25-.73-.72-.73Z"/>
            <path class="cls-1" d="M184.38,297.3l-4.23,4.23-1.12-1.12c-.15-.16-.36-.22-.56-.17-.22,.06-.41,.25-.47,.47-.05,.2,0,.41,.16,.56l1.56,1.56c.12,.12,.28,.18,.43,.18s.31-.06,.43-.18l4.67-4.67c.16-.15,.22-.36,.17-.56-.06-.22-.25-.41-.47-.47-.2-.05-.4,0-.56,.17Z"/>
          </g>
        </g>
        <g>
          <path class="cls-2" d="M552.48,317.06h-48.58c-7.05,0-12.79-5.74-12.79-12.79v-11.41c0-7.05,5.74-12.79,12.79-12.79h48.58c7.05,0,12.79,5.74,12.79,12.79v11.41c0,7.05-5.74,12.79-12.79,12.79Zm-48.58-34.99c-5.95,0-10.79,4.84-10.79,10.79v11.41c0,5.95,4.84,10.79,10.79,10.79h48.58c5.95,0,10.79-4.84,10.79-10.79v-11.41c0-5.95-4.84-10.79-10.79-10.79h-48.58Z"/>
          <rect class="cls-2" x="520.24" y="297.82" width="15.91" height="1.5" rx=".75" ry=".75" transform="translate(31.34 646.79) rotate(-64.5)"/>
          <path class="cls-2" d="M535.4,303.38h0c-.27-.31-.24-.79,.07-1.06l4.13-3.63-4.17-3.89c-.3-.28-.32-.76-.04-1.06h0c.28-.3,.76-.32,1.06-.04l5.38,5.02-5.38,4.72c-.31,.27-.79,.24-1.06-.07Z"/>
          <path class="cls-2" d="M519.92,303.45l-5.38-4.72,5.38-5.02c.3-.28,.78-.27,1.06,.04h0c.28,.3,.27,.78-.04,1.06l-4.17,3.89,4.13,3.63c.31,.27,.34,.75,.07,1.06h0c-.27,.31-.75,.34-1.06,.07Z"/>
        </g>
        <g>
          <path class="cls-5" d="M323.27,317.06h-48.58c-7.05,0-12.79-5.74-12.79-12.79v-11.41c0-7.05,5.74-12.79,12.79-12.79h48.58c7.05,0,12.79,5.74,12.79,12.79v11.41c0,7.05-5.74,12.79-12.79,12.79Zm-48.58-34.99c-5.95,0-10.79,4.84-10.79,10.79v11.41c0,5.95,4.84,10.79,10.79,10.79h48.58c5.95,0,10.79-4.84,10.79-10.79v-11.41c0-5.95-4.84-10.79-10.79-10.79h-48.58Z"/>
          <rect class="cls-5" x="291.03" y="297.82" width="15.91" height="1.5" rx=".75" ry=".75" transform="translate(-99.21 439.91) rotate(-64.5)"/>
          <path class="cls-5" d="M306.2,303.38h0c-.27-.31-.24-.79,.07-1.06l4.13-3.63-4.17-3.89c-.3-.28-.32-.76-.04-1.06h0c.28-.3,.76-.32,1.06-.04l5.38,5.02-5.38,4.72c-.31,.27-.79,.24-1.06-.07Z"/>
          <path class="cls-5" d="M290.71,303.45l-5.38-4.72,5.38-5.02c.3-.28,.78-.27,1.06,.04h0c.28,.3,.27,.78-.04,1.06l-4.17,3.89,4.13,3.63c.31,.27,.34,.75,.07,1.06h0c-.27,.31-.75,.34-1.06,.07Z"/>
        </g>
      </g>
      <g>
        <path class="cls-4" d="M107.79,411.08h-2c-.55,0-1-.45-1-1s.45-1,1-1h2c.55,0,1,.45,1,1s-.45,1-1,1Z"/>
        <path class="cls-4" d="M134.09,411.08h-4.38c-.55,0-1-.45-1-1s.45-1,1-1h4.38c.55,0,1,.45,1,1s-.45,1-1,1Zm-13.15,0h-4.38c-.55,0-1-.45-1-1s.45-1,1-1h4.38c.55,0,1,.45,1,1s-.45,1-1,1Z"/>
        <path class="cls-4" d="M144.86,411.08h-2c-.55,0-1-.45-1-1s.45-1,1-1h2c.55,0,1,.45,1,1s-.45,1-1,1Z"/>
        <path class="cls-4" d="M223.56,411.08h-2c-.55,0-1-.45-1-1s.45-1,1-1h2c.55,0,1,.45,1,1s-.45,1-1,1Z"/>
        <path class="cls-4" d="M249.86,411.08h-4.38c-.55,0-1-.45-1-1s.45-1,1-1h4.38c.55,0,1,.45,1,1s-.45,1-1,1Zm-13.15,0h-4.38c-.55,0-1-.45-1-1s.45-1,1-1h4.38c.55,0,1,.45,1,1s-.45,1-1,1Z"/>
        <path class="cls-4" d="M260.63,411.08h-2c-.55,0-1-.45-1-1s.45-1,1-1h2c.55,0,1,.45,1,1s-.45,1-1,1Z"/>
        <path class="cls-4" d="M570.88,411.08h-2c-.55,0-1-.45-1-1s.45-1,1-1h2c.55,0,1,.45,1,1s-.45,1-1,1Z"/>
        <path class="cls-4" d="M597.19,411.08h-4.38c-.55,0-1-.45-1-1s.45-1,1-1h4.38c.55,0,1,.45,1,1s-.45,1-1,1Zm-13.15,0h-4.38c-.55,0-1-.45-1-1s.45-1,1-1h4.38c.55,0,1,.45,1,1s-.45,1-1,1Z"/>
        <path class="cls-4" d="M607.95,411.08h-2c-.55,0-1-.45-1-1s.45-1,1-1h2c.55,0,1,.45,1,1s-.45,1-1,1Z"/>
        <path class="cls-4" d="M339.34,411.08h-2c-.55,0-1-.45-1-1s.45-1,1-1h2c.55,0,1,.45,1,1s-.45,1-1,1Z"/>
        <path class="cls-4" d="M365.64,411.08h-4.38c-.55,0-1-.45-1-1s.45-1,1-1h4.38c.55,0,1,.45,1,1s-.45,1-1,1Zm-13.15,0h-4.38c-.55,0-1-.45-1-1s.45-1,1-1h4.38c.55,0,1,.45,1,1s-.45,1-1,1Z"/>
        <path class="cls-4" d="M376.4,411.08h-2c-.55,0-1-.45-1-1s.45-1,1-1h2c.55,0,1,.45,1,1s-.45,1-1,1Z"/>
        <path class="cls-4" d="M455.11,411.08h-2c-.55,0-1-.45-1-1s.45-1,1-1h2c.55,0,1,.45,1,1s-.45,1-1,1Z"/>
        <path class="cls-4" d="M481.41,411.08h-4.38c-.55,0-1-.45-1-1s.45-1,1-1h4.38c.55,0,1,.45,1,1s-.45,1-1,1Zm-13.15,0h-4.38c-.55,0-1-.45-1-1s.45-1,1-1h4.38c.55,0,1,.45,1,1s-.45,1-1,1Z"/>
        <path class="cls-4" d="M492.18,411.08h-2c-.55,0-1-.45-1-1s.45-1,1-1h2c.55,0,1,.45,1,1s-.45,1-1,1Z"/>
        <g>
          <path class="cls-1" d="M554.82,429.06h-48.58c-7.05,0-12.79-5.74-12.79-12.79v-11.41c0-7.05,5.74-12.79,12.79-12.79h48.58c7.05,0,12.79,5.74,12.79,12.79v11.41c0,7.05-5.74,12.79-12.79,12.79Zm-48.58-34.99c-5.95,0-10.79,4.84-10.79,10.79v11.41c0,5.95,4.84,10.79,10.79,10.79h48.58c5.95,0,10.79-4.84,10.79-10.79v-11.41c0-5.95-4.84-10.79-10.79-10.79h-48.58Z"/>
          <g>
            <path class="cls-1" d="M531.6,419.29c-.46,0-.83-.37-.83-.83v-17.89c0-.46,.37-.83,.83-.83h11.93c.46,0,.83,.37,.83,.83s-.37,.83-.83,.83h-11.1v16.23h16.23v-5.13c0-.46,.37-.83,.83-.83s.83,.37,.83,.83v5.96c0,.46-.37,.83-.83,.83h-17.89Z"/>
            <path class="cls-1" d="M540.55,413.33c-.22,0-.43-.09-.59-.24l-2.98-2.98c-.33-.32-.26-.67-.19-.84,.14-.34,.48-.58,.82-.58,.2,0,.39,.09,.55,.25l2.4,2.4,8.36-8.36c.16-.16,.35-.25,.55-.25,.33,0,.68,.24,.81,.58,.12,.3,.05,.61-.19,.84l-8.95,8.95c-.16,.16-.36,.24-.59,.24Z"/>
            <path class="cls-1" d="M510.73,414.82c-.46,0-.83-.37-.83-.83v-8.94c0-.46,.37-.83,.83-.83h8.95c.46,0,.83,.37,.83,.83v3.64h6.11l-1.57-1.56c-.33-.32-.26-.67-.19-.84,.14-.34,.48-.58,.82-.58,.2,0,.39,.09,.55,.25,0,.01,.1,.11,.75,.75,.72,.71,2.17,2.14,2.39,2.45l.02,.06c.11,.31,.04,.67-.18,.91l-2.98,2.98c-.16,.16-.36,.25-.56,.25h0c-.33,0-.66-.23-.8-.56-.13-.3-.06-.62,.19-.87l1.57-1.56h-6.11v3.64c0,.46-.37,.83-.83,.83h-8.95Zm.83-1.66h7.29v-7.29h-7.29v7.29Z"/>
          </g>
        </g>
        <g>
          <path class="cls-5" d="M207.5,428.57h-48.58c-7.05,0-12.79-5.74-12.79-12.79v-11.41c0-7.05,5.74-12.79,12.79-12.79h48.58c7.05,0,12.79,5.74,12.79,12.79v11.41c0,7.05-5.74,12.79-12.79,12.79Zm-48.58-34.99c-5.95,0-10.79,4.84-10.79,10.79v11.41c0,5.95,4.84,10.79,10.79,10.79h48.58c5.95,0,10.79-4.84,10.79-10.79v-11.41c0-5.95-4.84-10.79-10.79-10.79h-48.58Z"/>
          <g>
            <path class="cls-5" d="M197.22,398.72h-22.62c-.19,0-.37,.07-.51,.21l-4.11,4.11c-.14,.14-.21,.32-.21,.51v16.45c0,.4,.32,.72,.72,.72h26.73c.4,0,.72-.32,.72-.72v-20.56c0-.4-.32-.72-.72-.72Zm-25,4.11l1.66-1.66v1.66h-1.66Zm2.64,1.38c.17-.07,.31-.21,.38-.38h0s0,0,0,0c0,0,0-.01,.01-.02l.13-.34-.08,.08s0,0,0,0v-3.4h21.18v19.13h-25.3v-15.01h3.4s0,0,0,0l-.08,.08,.34-.13Z"/>
            <path class="cls-5" d="M180.77,410.44h2.37v4.42c0,.4,.32,.72,.72,.72h3.08c.4,0,.72-.32,.72-.72s-.32-.72-.72-.72h-2.37v-8.85h2.37c.4,0,.72-.32,.72-.72s-.32-.72-.72-.72h-3.08c-.4,0-.72,.32-.72,.72v4.42h-2.37c-.4,0-.72,.32-.72,.72s.32,.72,.72,.72Z"/>
            <path class="cls-5" d="M191.05,407.35c1.53,0,2.77-1.24,2.77-2.77s-1.24-2.77-2.77-2.77-2.77,1.24-2.77,2.77,1.24,2.77,2.77,2.77Zm-1.64-2.77c0-.91,.74-1.64,1.64-1.64s1.64,.74,1.64,1.64-.74,1.64-1.64,1.64-1.64-.74-1.64-1.64Z"/>
            <path class="cls-5" d="M176.65,412.5c1.53,0,2.77-1.24,2.77-2.77s-1.24-2.77-2.77-2.77-2.77,1.24-2.77,2.77,1.24,2.77,2.77,2.77Zm.06-1.13c-.91,0-1.64-.74-1.64-1.64s.74-1.64,1.64-1.64,1.64,.74,1.64,1.64-.74,1.64-1.64,1.64Z"/>
            <path class="cls-5" d="M191.05,417.64c1.53,0,2.77-1.24,2.77-2.77s-1.24-2.77-2.77-2.77-2.77,1.24-2.77,2.77,1.24,2.77,2.77,2.77Zm-1.64-2.77c0-.91,.74-1.64,1.64-1.64s1.64,.74,1.64,1.64-.74,1.64-1.64,1.64-1.64-.74-1.64-1.64Z"/>
          </g>
        </g>
        <g>
          <path class="cls-3" d="M91.17,429.86H42.59c-7.05,0-12.79-5.74-12.79-12.79v-11.41c0-7.05,5.74-12.79,12.79-12.79h48.58c7.05,0,12.79,5.74,12.79,12.79v11.41c0,7.05-5.74,12.79-12.79,12.79Zm-48.58-34.99c-5.95,0-10.79,4.84-10.79,10.79v11.41c0,5.95,4.84,10.79,10.79,10.79h48.58c5.95,0,10.79-4.84,10.79-10.79v-11.41c0-5.95-4.84-10.79-10.79-10.79H42.59Z"/>
          <g>
            <path class="cls-1" d="M80.65,420.74l-1.95-1.95c-.19-.19-.42-.26-.67-.2-.27,.07-.5,.3-.57,.57-.06,.25,0,.48,.2,.67l.69,.69h-12.83c-.55,0-1.13-.07-1.71-.22-3.15-.79-5.35-3.6-5.35-6.83,.17-4.84,3.74-7,7.06-7,.07,0,.13,0,.2,0,3.29,.09,6.69,2.28,6.85,6.99,0,1.6-.55,3.17-1.55,4.41-.12,.15-.18,.34-.16,.54,.02,.19,.12,.37,.28,.5,.2,.13,.41,.18,.6,.13,.43-.1,.72-.61,.98-1.06,.08-.14,.16-.28,.24-.39,1.08-1.83,1.35-4.15,.74-6.36-.57-2.09-1.86-3.86-3.55-4.91,.37-.06,.74-.17,1.1-.33,1.68-.74,2.77-2.39,2.77-4.22-.07-2.96-2.29-4.45-4.33-4.58-1.96-.13-4.26,.98-4.82,3.68l-.58-.78c-.28-.38-.73-.35-1.02-.14-.29,.22-.44,.64-.15,1.02l1.65,2.2c.11,.15,.29,.26,.48,.29,.2,.03,.4-.02,.54-.14l2.2-1.65c.38-.29,.35-.73,.14-1.02-.22-.29-.64-.44-1.02-.15l-.8,.6c.39-1.78,1.92-2.52,3.25-2.45,1.45,.08,2.94,1.08,2.98,3.12,0,1.74-1.42,3.16-3.16,3.16h-3.9c-5.82,.23-8.47,4.58-8.47,8.52s2.65,8.29,8.47,8.52h12.83l-.69,.69c-.21,.2-.28,.51-.16,.8,.12,.28,.37,.46,.65,.46,.19,0,.4-.07,.55-.23,.02-.03,.23-.23,.45-.44,1.47-1.45,1.66-1.67,1.67-1.77,.09-.25,.03-.54-.17-.76Z"/>
            <path class="cls-1" d="M58.71,420.52h-3.9c-.47,0-.72,.37-.72,.73s.25,.73,.72,.73h3.89c.47,0,.72-.37,.72-.73s-.25-.73-.72-.73Z"/>
            <path class="cls-1" d="M68.73,410.1l-4.23,4.23-1.12-1.12c-.15-.16-.36-.22-.56-.17-.22,.06-.41,.25-.47,.47-.05,.2,0,.41,.16,.56l1.56,1.56c.12,.12,.28,.18,.43,.18s.31-.06,.43-.18l4.67-4.67c.16-.15,.22-.36,.17-.56-.06-.22-.25-.41-.47-.47-.2-.05-.4,0-.56,.17Z"/>
          </g>
        </g>
        <g>
          <path class="cls-2" d="M323.64,429.06h-48.58c-7.05,0-12.79-5.74-12.79-12.79v-11.41c0-7.05,5.74-12.79,12.79-12.79h48.58c7.05,0,12.79,5.74,12.79,12.79v11.41c0,7.05-5.74,12.79-12.79,12.79Zm-48.58-34.99c-5.95,0-10.79,4.84-10.79,10.79v11.41c0,5.95,4.84,10.79,10.79,10.79h48.58c5.95,0,10.79-4.84,10.79-10.79v-11.41c0-5.95-4.84-10.79-10.79-10.79h-48.58Z"/>
          <rect class="cls-1" x="291.4" y="409.81" width="15.91" height="1.5" rx=".75" ry=".75" transform="translate(-200.09 504.03) rotate(-64.5)"/>
          <path class="cls-1" d="M306.56,415.38h0c-.27-.31-.24-.79,.07-1.06l4.13-3.63-4.17-3.89c-.3-.28-.32-.76-.04-1.06h0c.28-.3,.76-.32,1.06-.04l5.38,5.02-5.38,4.72c-.31,.27-.79,.24-1.06-.07Z"/>
          <path class="cls-1" d="M291.08,415.45l-5.38-4.72,5.38-5.02c.3-.28,.78-.27,1.06,.04h0c.28,.3,.27,.78-.04,1.06l-4.17,3.89,4.13,3.63c.31,.27,.34,.75,.07,1.06h0c-.27,.31-.75,.34-1.06,.07Z"/>
        </g>
        <g>
          <path class="cls-5" d="M439.05,428.58h-48.58c-7.05,0-12.79-5.74-12.79-12.79v-11.41c0-7.05,5.74-12.79,12.79-12.79h48.58c7.05,0,12.79,5.74,12.79,12.79v11.41c0,7.05-5.74,12.79-12.79,12.79Zm-48.58-34.99c-5.95,0-10.79,4.84-10.79,10.79v11.41c0,5.95,4.84,10.79,10.79,10.79h48.58c5.95,0,10.79-4.84,10.79-10.79v-11.41c0-5.95-4.84-10.79-10.79-10.79h-48.58Z"/>
          <rect class="cls-5" x="406.8" y="409.33" width="15.91" height="1.5" rx=".75" ry=".75" transform="translate(-133.92 607.92) rotate(-64.5)"/>
          <path class="cls-5" d="M421.97,414.9h0c-.27-.31-.24-.79,.07-1.06l4.13-3.63-4.17-3.89c-.3-.28-.32-.76-.04-1.06h0c.28-.3,.76-.32,1.06-.04l5.38,5.02-5.38,4.72c-.31,.27-.79,.24-1.06-.07Z"/>
          <path class="cls-5" d="M406.49,414.97l-5.38-4.72,5.38-5.02c.3-.28,.78-.27,1.06,.04h0c.28,.3,.27,.78-.04,1.06l-4.17,3.89,4.13,3.63c.31,.27,.34,.75,.07,1.06h0c-.27,.31-.75,.34-1.06,.07Z"/>
        </g>
      </g>
    </g>
  </g>
</svg>