<svg width="40" height="40" viewBox="0 0 40 40" fill="none" xmlns="http://www.w3.org/2000/svg">
<path d="M28.3333 33.3333C28.3333 35.1743 29.8257 36.6667 31.6667 36.6667C33.5076 36.6667 35 35.1743 35 33.3333C35 31.4924 33.5076 30 31.6667 30C29.8257 30 28.3333 31.4924 28.3333 33.3333ZM28.3333 33.3333H25" stroke="#FC783D" stroke-width="1.5" stroke-linecap="round" stroke-linejoin="round"/>
<path d="M11.6667 6.66667C11.6667 8.50762 10.1743 10 8.33333 10C6.49238 10 5 8.50762 5 6.66667C5 4.82572 6.49238 3.33333 8.33333 3.33333C10.1743 3.33333 11.6667 4.82572 11.6667 6.66667ZM11.6667 6.66667L15 6.66667" stroke="#FC783D" stroke-width="1.5" stroke-linecap="round" stroke-linejoin="round"/>
<path d="M23.3333 6.66667L20 6.66667" stroke="#FC783D" stroke-width="1.5" stroke-linecap="round" stroke-linejoin="round"/>
<path d="M20 33.3333H16.6667" stroke="#FC783D" stroke-width="1.5" stroke-linecap="round" stroke-linejoin="round"/>
<path d="M5 33.3333C18.3333 33.3333 21.6667 6.66667 35 6.66667" stroke="#FC783D" stroke-width="1.5" stroke-linecap="round" stroke-linejoin="round"/>
</svg>
