<?xml version="1.0" encoding="UTF-8"?>
<svg width="32px" height="32px" viewBox="0 0 32 32" version="1.1" xmlns="http://www.w3.org/2000/svg" xmlns:xlink="http://www.w3.org/1999/xlink">
    <title>Icons / 🖼 Dynamic Icon Copy</title>
    <g id="February-MVP" stroke="none" stroke-width="1" fill="none" fill-rule="evenodd">
        <g id="Icons-/-🖼-Dynamic-Icon-Copy" transform="translate(0.640000, 0.640000)" fill="#EE0000" fill-rule="nonzero">
            <g id="Icon-Red_Hat-Orchestration-A-Black-RGB">
                <path d="M13.0996443,8.16200671 L19.8636603,8.16200671 C20.04996,8.16508667 20.2295354,8.09243715 20.3612872,7.96068533 C20.493039,7.82893351 20.5656886,7.64935814 20.5626086,7.46305839 L20.5626086,0.699042407 C20.5656886,0.512742657 20.493039,0.333167281 20.3612872,0.201415463 C20.2295354,0.0696636452 20.04996,-0.00298588079 19.8636603,9.40886083e-05 L13.0996443,9.40886083e-05 C12.9133445,-0.00298588079 12.7337692,0.0696636452 12.6020173,0.201415463 C12.4702655,0.333167281 12.397616,0.512742657 12.400696,0.699042407 L12.400696,7.46305839 C12.397616,7.64935814 12.4702655,7.82893351 12.6020173,7.96068533 C12.7337692,8.09243715 12.9133445,8.16508667 13.0996443,8.16200671 L13.0996443,8.16200671 Z M13.7985926,1.39799072 L19.1647119,1.39799072 L19.1647119,6.76411007 L13.7985926,6.76411007 L13.7985926,1.39799072 Z" id="Shape"></path>
                <path d="M27.1237041,18.2403905 C26.9924825,18.1082096 26.8139311,18.03387 26.6276762,18.03387 C26.4414214,18.03387 26.26287,18.1082096 26.1316484,18.2403905 L23.8769764,20.4950625 C23.7419296,20.6247359 23.6655926,20.8038663 23.6655926,20.9910903 C23.6655926,21.1783144 23.7419296,21.3574448 23.8769764,21.4871182 C24.1613123,21.734723 24.5846962,21.734723 24.8690321,21.4871182 L25.9287279,20.4386957 L25.9287279,22.1184263 C25.9225369,24.22028 24.2201859,25.9226309 22.1183323,25.928822 L10.8449723,25.928822 C10.4589538,25.928822 10.146024,26.2417518 10.146024,26.6277703 C10.146024,27.0137888 10.4589538,27.3267186 10.8449723,27.3267186 L22.1183323,27.3267186 C24.9947927,27.3267186 27.3266246,24.9948868 27.3266246,22.1184263 L27.3266246,20.4386957 L28.3863204,21.4871182 C28.660269,21.7610668 29.1044275,21.7610668 29.3783761,21.4871182 C29.6523247,21.2131696 29.6523247,20.7690111 29.3783761,20.4950625 L27.1237041,18.2403905 Z" id="Path"></path>
                <path d="M10.4165846,4.0810504 C10.4196646,3.89475065 10.3470151,3.71517527 10.2152632,3.58342345 C10.0835114,3.45167164 9.90393604,3.37902211 9.71763629,3.38200799 L8.5903003,3.38200799 C5.71383988,3.38200799 3.38200799,5.71393397 3.38200799,8.59039438 L3.38200799,18.161477 L2.32231215,17.1130545 C2.04836354,16.8391059 1.6042051,16.8391059 1.3302565,17.1130545 C1.05630789,17.3870031 1.05630788,17.8311616 1.33025648,18.1051102 L3.58492847,20.3597822 C3.8531343,20.6263353 4.2862316,20.6263353 4.55443743,20.3597822 L6.80910942,18.1051102 C6.98632312,17.9278965 7.05553295,17.6696019 6.99066825,17.4275236 C6.92580354,17.1854452 6.73671879,16.9963604 6.49464039,16.9314957 C6.25256199,16.866631 5.99426742,16.9358408 5.81705374,17.1130545 L4.75735791,18.161477 L4.75735791,8.59039438 C4.76034338,7.57682337 5.16584837,6.60595206 5.88466546,5.8913633 C6.60348256,5.17677455 7.57672931,4.77700442 8.5903003,4.77999871 L9.71763629,4.77999871 C9.90393604,4.78307868 10.0835114,4.71042916 10.2152632,4.57867734 C10.3470151,4.44692552 10.4196646,4.26735015 10.4165846,4.0810504 L10.4165846,4.0810504 Z" id="Path"></path>
                <path d="M30.0096842,9.40886083e-05 L23.2456683,9.40886083e-05 C23.0593685,-0.00298588079 22.8797931,0.0696636452 22.7480413,0.201415463 C22.6162895,0.333167281 22.54364,0.512742657 22.5467199,0.699042407 L22.5467199,7.46305839 C22.54364,7.64935814 22.6162895,7.82893351 22.7480413,7.96068533 C22.8797931,8.09243715 23.0593685,8.16508667 23.2456683,8.16200671 L30.0096842,8.16200671 C30.195984,8.16508667 30.3755594,8.09243715 30.5073112,7.96068533 C30.639063,7.82893351 30.7117125,7.64935814 30.7086326,7.46305839 L30.7086326,0.699042407 C30.7117125,0.512742657 30.639063,0.333167281 30.5073112,0.201415463 C30.3755594,0.0696636452 30.195984,-0.00298588079 30.0096842,9.40886083e-05 Z M29.3107359,6.76411007 L23.9446166,6.76411007 L23.9446166,1.39799072 L29.3107359,1.39799072 L29.3107359,6.76411007 Z" id="Shape"></path>
                <rect id="Rectangle" x="12.400696" y="10.1461181" width="8.17318598" height="8.17318598" rx="0.63"></rect>
                <rect id="Rectangle" x="0" y="22.546814" width="8.17318598" height="8.17318598" rx="0.63"></rect>
            </g>
        </g>
    </g>
</svg>