<?xml version="1.0" encoding="UTF-8"?>
<svg width="96px" height="96px" viewBox="0 0 96 96" version="1.1" xmlns="http://www.w3.org/2000/svg" xmlns:xlink="http://www.w3.org/1999/xlink">
    <title>Group 33</title>
    <defs>
        <linearGradient x1="0.964958889%" y1="0%" x2="74.0582946%" y2="64.1052375%" id="linearGradient-1">
            <stop stop-color="#5A9FD4" offset="0%"></stop>
            <stop stop-color="#306998" offset="100%"></stop>
        </linearGradient>
        <linearGradient x1="49.9985783%" y1="82.2724146%" x2="24.2457403%" y2="44.9147438%" id="linearGradient-2">
            <stop stop-color="#FFD43B" offset="0%"></stop>
            <stop stop-color="#FFE873" offset="100%"></stop>
        </linearGradient>
    </defs>
    <g id="February-MVP" stroke="none" stroke-width="1" fill="none" fill-rule="evenodd">
        <g id="Group-33">
            <rect id="Rectangle-Copy-2" x="0" y="0" width="96" height="96"></rect>
            <g id="python-horizontal" transform="translate(1.000000, 0.000000)" fill-rule="nonzero">
                <path d="M46.9189152,0 C43.0038915,0.0172685356 39.2640201,0.352771512 35.9755975,0.937434788 C26.2805482,2.64948674 24.5240915,6.23394134 24.5240915,12.8428566 L24.5240915,21.5708679 L47.4271035,21.5708679 L47.4271035,24.4818496 L15.9292946,24.4818496 C9.27350763,24.4818496 3.44661034,28.483216 1.62107944,36.0937063 C-0.480748034,44.8167837 -0.599160849,50.2613063 1.62107944,59.3692253 C3.24925565,66.148359 7.13714309,70.981082 13.7929301,70.981082 L21.6673823,70.981082 L21.6673823,60.5163495 C21.6673823,52.9576647 28.2047565,46.2895431 35.9755975,46.2895431 L58.8514733,46.2895431 C65.2161621,46.2895431 70.3029793,41.0473091 70.3029793,34.6505501 L70.3029793,12.8625921 C70.3029793,6.655787 65.0681461,1.99328239 58.8514733,0.957170258 C54.9167141,0.303432839 50.8339389,0.00493386731 46.9189152,0.0197354692 L46.9189152,0 Z M34.5349082,7.02089318 C36.9031646,7.02089318 38.8323067,8.98457237 38.8323067,11.3997004 C38.8323067,13.8148285 36.9006976,15.7513714 34.5349082,15.7513714 C32.1691189,15.7513714 30.2375098,13.8024938 30.2375098,11.3997004 C30.2375098,8.99690704 32.1617181,7.02089318 34.5349082,7.02089318 Z" id="Shape" fill="url(#linearGradient-1)"></path>
                <path d="M73.1596885,24.4769157 L73.1596885,34.6480832 C73.1596885,42.5324031 66.4989676,49.1684547 58.8514733,49.1684547 L35.9780644,49.1684547 C29.712053,49.1684547 24.5265584,54.5315684 24.5265584,60.8074476 L24.5265584,82.6151411 C24.5265584,88.8219462 29.9242092,92.473008 35.9780644,94.2541341 C43.2308494,96.3855648 50.1802015,96.7704064 58.8539402,94.2541341 C64.6191642,92.58402 70.3054462,89.2215895 70.3054462,82.6151411 L70.3054462,73.8871299 L47.4246366,73.8871299 L47.4246366,70.9761482 L81.7520184,70.9761482 C88.4078054,70.9761482 90.8895406,66.333379 93.2035244,59.3642914 C95.59645,52.1904484 95.4928388,45.290435 93.2035244,36.0887724 C91.5580797,29.4625886 88.4176731,24.4769157 81.7520184,24.4769157 L73.1572215,24.4769157 L73.1596885,24.4769157 Z M60.2946295,79.7041594 C62.6678196,79.7041594 64.5920279,81.653037 64.5920279,84.0558304 C64.5920279,86.4586238 62.6678196,88.4346376 60.2946295,88.4346376 C57.9214393,88.4346376 55.997231,86.4709584 55.997231,84.0558304 C55.997231,81.6407023 57.9288401,79.7041594 60.2946295,79.7041594 Z" id="Shape" fill="url(#linearGradient-2)"></path>
            </g>
        </g>
    </g>
</svg>