<?xml version="1.0" encoding="UTF-8"?>
<svg width="96px" height="96px" viewBox="0 0 96 96" version="1.1" xmlns="http://www.w3.org/2000/svg" xmlns:xlink="http://www.w3.org/1999/xlink">
    <title>Group 37</title>
    <g id="February-MVP" stroke="none" stroke-width="1" fill="none" fill-rule="evenodd">
        <g id="Group-37">
            <rect id="Rectangle-Copy-6" x="0" y="0" width="96" height="96"></rect>
            <g id="Red-Hat-/-Hat-/-Full-Color" transform="translate(0.000000, 12.000000)">
                <g id="Group" transform="translate(-0.000000, 0.000000)">
                    <path d="M78.635,31.055 C78.7566426,31.6164797 78.8087008,32.1907991 78.79,32.765 C78.79,40.205 69.74,41.495 63.485,41.495 C39.165,41.495 21.015,26.38 21.015,21.75 C21.0020775,21.4229524 21.0391717,21.0958491 21.125,20.78 L19.295,25.31 C18.7956005,26.4672603 18.5386485,27.7145836 18.5399947,28.975 C18.5399947,38.03 39.0399947,51.715 62.41,51.715 C72.755,51.715 80.625,47.835 80.625,40.83 C80.625,40.29 80.625,39.86 79.76,35.765 L78.635,31.055 Z" id="Path" fill="#000000"></path>
                    <path d="M63.485,41.495 C69.74,41.495 78.79,40.205 78.79,32.765 C78.8087008,32.1907991 78.7566426,31.6164797 78.635,31.055 L74.91,14.875 C74.05,11.315 73.295,9.7 67.045,6.575 C62.195,4.095 51.63,0 48.505,0 C45.595,0 44.75,3.75 41.28,3.75 C37.94,3.75 35.46,0.95 32.335,0.95 C29.335,0.95 27.38,2.995 25.87,7.2 C25.87,7.2 21.665,19.06 21.125,20.78 C21.0391717,21.0958491 21.0020775,21.4229524 21.015,21.75 C21.015,26.36 39.165,41.475 63.485,41.475 M79.75,35.785 C80.615,39.88 80.615,40.31 80.615,40.85 C80.615,47.85 72.745,51.735 62.4,51.735 C39.02,51.75 18.54,38.05 18.54,28.995 C18.5386485,27.7345836 18.7956005,26.4872603 19.295,25.33 C10.885,25.75 -8.52651283e-14,27.25 -8.52651283e-14,36.86 C-8.52651283e-14,52.6 37.295,72 66.825,72 C89.465,72 95.175,61.76 95.175,53.675 C95.175,47.315 89.675,40.095 79.76,35.785" id="Shape" fill="#EE0000" fill-rule="nonzero"></path>
                </g>
            </g>
        </g>
    </g>
</svg>