<?xml version="1.0" encoding="UTF-8"?>
<svg width="96px" height="96px" viewBox="0 0 96 96" version="1.1" xmlns="http://www.w3.org/2000/svg" xmlns:xlink="http://www.w3.org/1999/xlink">
    <title>Group 34</title>
    <g id="February-MVP" stroke="none" stroke-width="1" fill="none" fill-rule="evenodd">
        <g id="Group-34">
            <rect id="Rectangle-Copy-3" x="0" y="0" width="96" height="96"></rect>
            <g id="springio-ar21" fill="#68BD45" fill-rule="nonzero">
                <path d="M87.3031879,4.98620971 C85.958822,8.21002151 84.2374679,11.2633144 82.175074,14.0823237 C69.9117465,1.82412946 52.0044138,-2.89075806 35.2956943,1.76253049 C18.5869748,6.41581904 5.65119192,19.6185307 1.44192925,36.4401817 C-2.76733342,53.2618326 2.38901335,71.0382676 14.9500692,82.9987335 L16.7287393,84.5695071 C30.5722889,96.2290852 49.7871485,99.1352809 66.4595818,92.0911629 C83.132015,85.047045 94.4421998,69.2439908 95.7319797,51.1905674 C97.0409578,38.9349398 93.4476848,23.4274001 87.3031879,4.99134296 L87.3031879,4.98620971 Z M21.7952542,83.2733622 C20.7480718,84.5669405 19.0233008,85.1033648 17.4268609,84.6336727 C15.830421,84.1639806 14.6754404,82.7728706 14.50091,81.1173984 C14.3263796,79.4619262 15.1682322,77.8654863 16.6312076,77.069833 C18.094183,76.2741797 19.8908196,76.4435768 21.1843978,77.4907593 C22.9476682,78.9203686 23.2197303,81.5100918 21.790121,83.2759288 L21.7952542,83.2733622 Z M87.1004246,68.8592041 C75.2220907,84.6824385 49.8587165,79.3464281 33.5940229,80.1112819 C33.5940229,80.1112819 30.7117046,80.2806791 27.8088533,80.7580711 C27.8088533,80.7580711 28.9022349,80.2909456 30.3036114,79.7647877 C41.7250864,75.7865212 47.1226957,75.024234 54.0602793,71.4540606 C67.1243933,64.8142054 80.0422098,50.2717162 82.7294647,35.1543033 C77.7604814,49.6967925 62.6713014,62.2013826 48.934732,67.2807306 C39.5203567,70.7508057 22.5139089,74.1284824 22.5139089,74.1284824 L21.8286204,73.7614552 C10.253148,68.1379829 9.8938207,43.0774703 30.9144678,34.9951726 C40.1543127,31.4455322 48.9449985,33.3935995 58.8957981,31.0169061 C69.5216197,28.4913485 81.8157467,20.5296821 86.8206627,10.1425565 C92.4159021,26.7614442 99.1558556,52.7485079 87.0696252,68.866904 L87.1004246,68.8592041 Z" id="Shape"></path>
            </g>
        </g>
    </g>
</svg>