<?xml version="1.0" encoding="UTF-8"?>
<svg width="96px" height="96px" viewBox="0 0 96 96" version="1.1" xmlns="http://www.w3.org/2000/svg" xmlns:xlink="http://www.w3.org/1999/xlink">
    <title>Group 35</title>
    <defs>
        <linearGradient x1="7.63954722%" y1="6.07256424%" x2="75.1868025%" y2="84.6788284%" id="linearGradient-1">
            <stop stop-color="#A677B4" offset="0%"></stop>
            <stop stop-color="#F0515A" offset="36.3%"></stop>
            <stop stop-color="#2B338C" offset="100%"></stop>
        </linearGradient>
    </defs>
    <g id="February-MVP" stroke="none" stroke-width="1" fill="none" fill-rule="evenodd">
        <g id="Group-35">
            <rect id="Rectangle-Copy-4" x="0" y="0" width="96" height="96"></rect>
            <g id="tekton-icon-color" transform="translate(3.000000, 0.000000)" fill="url(#linearGradient-1)">
                <path d="M36.5131731,42.654962 L36.5131731,43.5955243 M61.3463045,73.168229 L62.1647353,72.9483378 L62.2624949,73.5835033 C62.726649,76.5029497 62.5190119,79.0313576 61.3340505,81.6087814 C63.1664313,81.8652984 64.7665309,82.7447268 65.6093335,84.6137335 C66.2078732,85.9329443 66.7820409,87.4720462 66.7942949,88.9377603 C66.7942949,90.024962 66.4522723,91.1121638 65.5972157,91.8205809 C65.0912872,92.2370731 64.4569018,92.465804 63.8015968,92.4680004 L54.2370806,92.4680004 C53.6874208,93.9704764 52.6002191,95.3506848 51.0122373,95.7660953 C50.5669378,95.8689921 50.113042,95.9302986 49.6564008,95.9492245 C49.1677386,95.9737325 48.6914666,95.9859865 48.2150585,95.9859865 C46.9813534,95.9981043 45.7476483,95.9859865 44.5138071,95.9859865 C42.5838481,95.9614785 40.6538891,95.9248073 38.7239301,95.8759728 C37.5534102,95.8502737 36.4983116,95.1641907 36,94.1047258 C35.5055875,95.1620484 34.4550728,95.8482033 33.2881937,95.8759728 C31.3460715,95.9248526 29.4160671,95.9614785 27.4860627,95.9858503 C26.2524938,95.9981043 25.0186525,96.0103583 23.7849475,95.9858503 C23.3085393,95.9858503 22.8321312,95.9735963 22.3436052,95.9492245 C21.8823481,95.9371583 21.4237067,95.8757657 20.9755146,95.7660953 C19.3875329,95.350821 18.3125852,93.9582224 17.7506714,92.4680004 L8.27193315,92.4680004 C7.61662819,92.465804 6.98224278,92.2370731 6.47631427,91.8205809 C5.62125766,91.1121638 5.27923501,90.024962 5.27923501,88.9377603 C5.27923501,87.4720462 5.8656568,85.9328081 6.45194243,84.6137335 C6.77173619,83.8989318 7.25751834,83.2707805 7.86891283,82.7814888 C8.67316252,82.1521722 9.62998204,81.7475031 10.6417198,81.6087814 C9.4567584,79.0313576 9.24912125,76.5029497 9.71327539,73.5835033 L9.81103504,72.9483378 L10.7272255,73.1926008 C10.8379517,72.63797 10.9848598,72.0911809 11.1670078,71.5557393 C11.8011795,69.6252355 12.97536,67.9169329 14.5504722,66.6331729 C15.1163873,66.1802684 15.7358735,65.7987084 16.3949709,65.4970913 C16.4870857,63.7466888 16.7199373,62.0065399 17.0912702,60.2935 C17.4325364,57.9742653 18.1158444,55.7184587 19.1188981,53.5996866 C18.6225952,52.9991264 18.204018,52.338369 17.8730752,51.6330564 C17.8240592,51.5231789 17.7753155,51.4131652 17.7386897,51.3032877 C14.6333232,49.5419863 11.8862308,47.2133313 9.64015988,44.4383269 C8.29630498,42.7894836 6.32981094,40.2243138 6.15866346,38.0621643 C6.07329395,37.3048673 6.04878596,36.5474342 6.03666812,35.8023913 C6.01214611,33.9859509 6.11008234,32.169923 6.32981094,30.3666548 C6.45194243,29.316215 6.62295375,28.2657753 6.83059091,27.2274533 C5.43419166,25.6223249 4.21766101,23.8691876 3.20272731,21.999354 C1.60412131,19.0634618 0.576220909,15.8512788 0.173403344,12.5327336 C-0.209656978,9.24159219 0.0433235097,5.90750073 0.918582456,2.71183662 C1.36326786,1.10926927 2.8221925,1.08837348e-15 4.48531223,1.08837348e-15 C10.7393433,1.08837348e-15 16.138454,2.55294314 21.1589161,5.85103809 C30.5886155,0.0733352588 42.4622387,0.0733352588 51.8919381,5.85103809 C56.9000101,2.5530793 62.2991207,1.08837348e-15 68.553288,1.08837348e-15 C70.2198759,-0.00637376461 71.6806714,1.11314424 72.1077638,2.72409062 C72.9721047,5.92171759 73.2208264,9.25448632 72.8406889,12.5449876 C72.4378713,15.8635328 71.4099709,19.0757158 69.8113649,22.011608 C68.8007069,23.881077 67.5882702,25.6341907 66.1957553,27.2395712 C66.3911385,28.2290133 66.5498958,29.2184554 66.6842813,30.2322693 C66.9141611,32.067419 67.0162059,33.9163279 66.9896781,35.7656293 C66.9774241,36.5353164 66.9529161,37.3048673 66.8675466,38.0499103 C66.6721634,40.2730575 64.7666671,42.7649756 63.3861863,44.4505809 C61.1367531,47.2222963 58.3903291,49.5503847 55.2876565,51.3155417 L55.1411532,51.6453104 C54.8809779,52.1938569 54.5914553,52.7279966 54.2738426,53.24541 C53.9885233,53.7162744 53.6526333,54.1545704 53.2721465,54.5525029 C53.5307943,55.1472076 53.7591028,55.754652 53.9561918,56.3724936 C54.3801761,57.6838037 54.6947732,59.0279913 54.8967541,60.3912597 C55.0433936,61.0875589 55.177779,61.7959761 55.2754025,62.4921392 C58.0483457,57.8505978 61.7373431,53.6608204 66.3788845,51.0833966 C69.1029478,49.5688027 72.1932694,48.6037324 75.3324709,48.6892381 C78.6673278,48.7747438 81.9409148,50.3260996 84.4694588,52.4514872 C87.2422658,54.7845119 89.5020388,58.1192326 89.8806873,61.7959761 C89.9436394,62.4011508 89.9023301,63.0126396 89.7585558,63.6038489 C89.2821476,65.5704791 87.7675537,67.109581 85.9719348,67.9523837 C83.6753998,69.0273314 80.8048332,68.9907056 78.874965,67.1705787 C77.7877632,66.1323929 77.4457406,64.9963113 76.8960808,63.6648466 C76.5663121,62.8831778 76.2242895,62.2846382 75.5279902,61.7593502 C74.6054572,61.0577131 73.4595824,60.7148312 72.3032831,60.7944161 C70.6541675,60.9042936 69.1884534,61.8448559 68.028,62.9686835 C67.3760732,63.606177 66.7641591,64.2833432 66.1957553,64.9963113 C65.099061,66.3524621 64.1068177,67.7898493 63.2275652,69.2961024 C62.5405152,70.436059 61.9363326,71.623948 61.4196923,72.8505782 C61.3921467,72.9220537 61.3594752,72.9914466 61.3219326,73.0582153 C61.3254916,73.0957636 61.3337246,73.1327206 61.3464406,73.168229 L61.3463045,73.168229 Z M63.8748485,62.7609102 C64.0258948,62.7573477 64.175923,62.7865173 64.3146308,62.8464158 C64.8764084,62.1868785 65.4628302,61.5394591 66.0734877,60.9409194 C66.269007,60.7576541 66.4643901,60.574525 66.6476555,60.4156315 C65.8883833,59.8955901 65.2609889,59.2054888 64.8154107,58.4002576 C64.4160335,57.7144643 64.1468703,56.9607519 64.021488,56.1771104 C62.7708265,57.2715631 61.6181975,58.473213 60.5767535,59.7683482 C60.5157559,60.6111508 61.3463045,61.5883389 61.9204723,62.040239 C62.4578781,62.4677674 63.1662952,62.7976722 63.8748485,62.7609102 L63.8748485,62.7609102 Z M63.0075379,64.5077854 C62.2039477,64.3440834 61.4505246,63.9924735 60.8088987,63.4817174 C60.1476685,62.9658423 59.6024358,62.3165547 59.208663,61.5760849 C58.115016,63.1362335 57.1352876,64.7732094 56.2770986,66.4742794 C56.5874896,66.6624565 56.8853428,66.8705763 57.1687811,67.097327 C58.1746373,67.8975713 59.0060468,68.8952348 59.6118194,70.0288914 C60.5848447,68.0954089 61.7208605,66.2483583 63.0075379,64.5077854 L63.0075379,64.5077854 Z M77.9342666,59.768212 C77.9347152,59.8783326 77.9096423,59.9870595 77.8610149,60.0858628 C79.7177676,61.9059897 79.6322619,64.0313772 80.7927154,65.1306968 C82.8325972,67.0729552 87.3643973,64.8864339 87.0833723,62.0891189 C86.8268553,59.6583345 85.422275,57.2398042 83.4677627,55.3341717 C83.4555087,55.3219177 83.4432547,55.3097998 83.4311368,55.3097998 C83.1494662,55.048744 82.7767116,54.90846 82.3928149,54.9190335 C79.9254047,54.8090198 78.0199084,57.3985615 77.9344027,59.7683482 L77.9342666,59.768212 Z M76.1997815,58.8765296 C76.2984493,58.2621831 76.4749657,57.6629059 76.7250695,57.0931647 C77.5189922,55.285428 79.0092143,53.8073238 80.8293412,53.2821719 C79.0703481,52.2072242 77.1282259,51.5475507 75.2592192,51.4986709 C74.716598,51.4807012 74.1734027,51.5052387 73.6346117,51.5720587 C73.4636003,51.6941902 73.304843,51.8163217 73.2193374,51.8895734 C73.1198422,51.9728257 73.0260048,52.0626149 72.9384485,52.1583444 C71.7047435,53.5508068 71.8512468,56.2381081 72.9139405,57.6794503 C72.979748,57.772219 73.029332,57.8754845 73.06058,57.9848471 C74.1592571,58.0510411 75.2304022,58.3553437 76.1997815,58.8766657 L76.1997815,58.8765296 Z M71.032816,58.1314866 C70.5277248,57.1653816 70.2558287,56.0944439 70.2388932,55.004403 C70.2087329,54.0357957 70.3922116,53.0724277 70.776299,52.1827162 C69.7267158,52.5348791 68.7124951,52.9847574 67.7469751,53.5264349 C67.1729434,53.8439496 66.5987756,54.2104802 66.0246078,54.6013827 C66.0246078,54.6136367 66.01249,54.6136367 66.01249,54.6257545 C65.487202,55.3953055 65.987982,56.7633961 66.4032563,57.4840672 C66.7820409,58.1314866 67.3683266,58.8034141 68.0523719,59.0964207 C68.1337321,59.1264457 68.2084322,59.1720983 68.272263,59.2308062 C69.1251412,58.713863 70.0580515,58.3423554 71.032816,58.1314866 L71.032816,58.1314866 Z M33.8379896,7.92754579 C34.316992,7.92754579 34.7053002,8.31585397 34.7053002,8.79485639 C34.7053002,9.27385882 34.316992,9.662167 33.8379896,9.662167 C33.3589872,9.662167 32.970679,9.27385882 32.970679,8.79485639 C32.9673817,8.56383626 33.0576995,8.3413114 33.2210721,8.17793885 C33.3844446,8.01456631 33.6069695,7.92424843 33.8379896,7.92754579 Z M33.8379896,11.7507925 C34.316992,11.7507925 34.7053002,12.1391007 34.7053002,12.6181031 C34.7053002,13.0971056 34.316992,13.4854138 33.8379896,13.4854138 C33.3589872,13.4854138 32.970679,13.0971056 32.970679,12.6181031 C32.9724708,12.1398449 33.3597314,11.7525843 33.8379896,11.7507925 L33.8379896,11.7507925 Z M39.2004744,7.92754579 C39.6794769,7.92754579 40.067785,8.31585397 40.067785,8.79485639 C40.067785,9.27385882 39.6794769,9.662167 39.2004744,9.662167 C38.721472,9.662167 38.3331638,9.27385882 38.3331638,8.79485639 C38.3349556,8.31659813 38.7222162,7.9293376 39.2004744,7.92754579 L39.2004744,7.92754579 Z M39.2004744,11.7507925 C39.6794769,11.7507925 40.067785,12.1391007 40.067785,12.6181031 C40.067785,13.0971056 39.6794769,13.4854138 39.2004744,13.4854138 C38.721472,13.4854138 38.3331638,13.0971056 38.3331638,12.6181031 C38.3349556,12.1398449 38.7222162,11.7525843 39.2004744,11.7507925 L39.2004744,11.7507925 Z M37.2460982,5.08135098 L37.2460982,15.4519078 C42.7917122,15.5741754 48.2395665,17.1132773 51.5865413,20.0570957 C55.44655,23.4650681 58.0238377,29.3649587 57.7429489,32.4675343 C57.4985497,35.2525953 53.0523915,37.1335837 47.1279929,38.110908 C47.4268675,38.6422879 47.6333975,39.2205349 47.7387865,39.8210212 C47.875256,40.6668662 47.8711157,41.5294411 47.7265325,42.373937 C49.9619337,42.11742 51.9773076,41.7753974 53.7730626,41.3967489 C56.9599167,40.7192654 60.0853361,39.7795903 63.1174154,38.5873161 C63.2239966,38.3126816 63.2938578,38.0251793 63.3251887,37.7322595 C63.3251887,37.7322595 64.6077736,26.0546098 57.9872119,16.4902297 C52.8691262,9.10011705 45.088111,5.30124213 37.2460982,5.08135098 L37.2460982,5.08135098 Z M35.792502,15.4519078 L35.792502,5.08148714 C27.8159675,5.31363229 19.912957,9.2346387 14.8313611,16.8323885 C8.47970646,26.3357709 9.72552938,37.7445135 9.72552938,37.7445135 C9.77078705,38.0465636 9.85281703,38.3419446 9.96979237,38.6240781 C12.9880091,39.8021436 16.0967762,40.7335488 19.2655376,41.4091391 C21.2687707,41.8290229 23.2905231,42.1551076 25.3241855,42.3863272 C25.1795949,41.5418319 25.1754545,40.6792557 25.3119315,39.8334113 C25.4173206,39.232925 25.6238505,38.654678 25.9227251,38.1232981 C19.9984627,37.1459739 15.5521683,35.2527315 15.3077692,32.4799245 C15.0268804,29.3772127 17.6043042,23.4773221 21.4641768,20.0693496 C24.7988976,17.1134135 30.246888,15.5743116 35.792502,15.452044 L35.792502,15.4519078 Z M25.8005936,43.9007849 C23.5072077,43.6627945 21.2279741,43.3039799 18.9723948,42.8258372 C16.2598753,42.2501837 13.590578,41.4869684 10.9837425,40.5416923 C11.3874059,41.1589757 11.823724,41.7542771 12.2908354,42.3250572 C15.5032885,46.2583176 19.5465626,48.9333649 24.3958772,50.6068523 C25.9425876,51.1317087 27.5216073,51.556037 29.1230604,51.8771832 C29.1230604,51.8649292 29.1108064,51.8405574 29.1108064,51.8284396 C28.9512544,51.4037461 28.9049422,50.9448478 28.9764209,50.4968387 C29.1719403,49.3731472 30.0147429,48.6647301 31.1018085,48.2126938 C29.0498088,47.5163945 27.2053101,46.3560773 26.1303623,44.5115785 C25.9996043,44.3199377 25.8890894,44.1152432 25.8005936,43.9007849 L25.8005936,43.9007849 Z M31.004185,51.1076323 C31.236194,51.7061719 32.0057449,52.1704622 32.9708152,52.4879769 C34.1433864,52.6223623 35.3282117,52.7322398 36.5131731,52.8056277 C37.7102524,52.7322398 38.9073316,52.6346163 40.0799029,52.4879769 C40.9838393,52.194834 41.7167644,51.7795597 41.9976533,51.2298999 C43.2192405,48.8601133 30.1735002,48.9212471 31.004185,51.1076323 L31.004185,51.1076323 Z M62.0426038,40.5539463 C59.4425779,41.4914161 56.7816438,42.2504743 54.0783233,42.8258372 C51.8225682,43.3030271 49.5433848,43.6618337 47.2501244,43.9007849 C47.1556796,44.1039659 47.0538121,44.3036133 46.9447276,44.4993245 C45.869916,46.3315693 44.0376713,47.5042767 41.9855354,48.200576 C43.0482292,48.6524761 43.86666,49.3487754 44.074161,50.435841 C44.1652171,50.9153705 44.1186731,51.4108803 43.9399116,51.8650654 C47.8852899,51.0710064 51.5986591,49.7396779 54.8967541,47.5897823 C57.2786586,46.0384264 59.2209169,44.0107986 61.0409077,41.8242772 C61.3951843,41.4212569 61.724953,40.9814746 62.0426038,40.5539463 L62.0426038,40.5539463 Z M35.9878851,44.3526851 C35.4382253,45.3177553 34.3022799,46.7590976 31.9081214,46.2705716 C28.9643031,45.3177553 26.8510334,43.3388711 27.3763214,40.1751617 C27.8527295,37.316849 32.6042845,35.5336203 36.5009191,35.57011 L36.5376811,35.57011 C40.4341795,35.5334841 45.1858707,37.3169852 45.6500248,40.1751617 C46.1020611,42.9113428 44.5873311,44.7680955 42.2543064,45.8307893 C38.797318,47.1133742 37.5881209,45.440023 37.0505789,44.3771931 C36.7940619,43.8641591 36.6841844,43.5953881 36.5497989,43.5832703 L36.513037,43.5832703 C36.4031595,43.6320139 36.268774,43.8764131 35.9878851,44.3528212 L35.9878851,44.3526851 Z M36.5131731,36.9015747 C34.1556404,36.9015747 31.2973278,37.58562 31.0163028,39.0514702 C30.5521487,41.4822546 34.1556404,42.6548258 36.5131731,42.6548258 L36.5620529,42.6548258 C38.9194495,42.6425718 42.4861792,41.4700006 42.0221612,39.0514702 C41.7411363,37.58562 38.8828236,36.9015747 36.525291,36.9015747 L36.5131731,36.9015747 Z M29.941537,32.1377657 C29.941537,32.6235358 29.5476967,33.0173302 29.0619266,33.0173302 C28.5761565,33.0173302 28.182362,32.6235358 28.182362,32.1377657 C28.1940907,31.1910717 27.864611,30.2717958 27.2541899,29.5480879 C26.729582,28.9204448 25.9589069,28.5506995 25.1410564,28.5342739 C24.5993412,28.5346556 24.0707335,28.7009116 23.6263263,29.0106821 C23.1255315,29.358231 22.7286072,29.8353495 22.4779907,30.3910266 C22.2722152,30.8261518 21.7526625,31.0120765 21.3175373,30.8063009 C20.8824121,30.6005254 20.6964875,30.0809727 20.902263,29.6458475 C21.2934576,28.8098177 21.895476,28.0899764 22.6491382,27.5570858 C23.3850405,27.0483158 24.2583878,26.7756263 25.153038,26.7752809 C26.4744335,26.7851244 27.7248703,27.3746516 28.5732645,28.3877706 C29.4617297,29.4347316 29.9469622,30.7646423 29.941537,32.1377657 L29.941537,32.1377657 Z M43.0970356,32.1377657 C43.1055498,32.6174286 43.4968003,33.0018546 43.9765375,33.0018546 C44.4562746,33.0018546 44.8475251,32.6174286 44.8559659,32.1377657 C44.8443133,31.191037 45.1738911,30.2717571 45.7844103,29.5480879 C46.3073698,28.9183285 47.0790742,28.5480894 47.8975439,28.5342739 C48.4392591,28.5346556 48.9678667,28.7009116 49.4122739,29.0106821 C49.9130186,29.3582494 50.3098944,29.8353662 50.5604733,30.3910266 C50.7692813,30.8241597 51.2878838,31.0084332 51.7231771,30.8041667 C52.1584704,30.5999002 52.3481577,30.0832534 52.1484551,29.6458475 C51.7572605,28.8098177 51.1552421,28.0899764 50.4015799,27.5570858 C49.6656775,27.0483158 48.7923303,26.7756263 47.89768,26.7752809 C46.5762846,26.7851244 45.3258478,27.3746516 44.4774536,28.3877706 C43.5803352,29.4305045 43.090133,30.7622416 43.0970356,32.1377657 L43.0970356,32.1377657 Z M43.8055261,55.5173008 C41.9356113,56.1150172 39.9992011,56.4801662 38.040021,56.6045026 C33.5292076,56.872276 29.0329717,55.8782725 25.0554145,53.7339359 C24.2858636,53.5140448 23.5408206,53.2575278 22.7956415,52.9887568 C24.6277673,55.4540046 27.1736452,57.2962486 30.0881307,58.265736 C27.1198044,57.7648198 24.1149884,56.8487656 21.7940816,55.2362758 C20.2916055,58.4856271 19.3754151,63.0051732 20.1083402,69.1736986 C20.2793515,70.5784604 20.4992427,71.9099251 20.7680136,73.1680928 C24.6767661,71.3968458 27.4129472,72.1053991 30.8086657,74.3651721 C31.1995681,69.0026873 32.3233957,64.9718034 32.8608015,63.3226878 C33.0929467,62.6265247 33.3983435,62.284502 33.8136178,62.2478762 C34.2534001,62.2111142 34.998443,62.2356222 34.9740712,63.5304611 C34.8396857,64.0556129 34.7298082,64.6786605 34.6443026,65.1305607 C34.4121574,66.3276399 34.2290283,67.549091 34.0457629,68.7584243 C33.8747516,69.9555035 33.7037403,71.1525828 33.5571008,72.361916 C33.4593412,73.131467 33.3617176,73.9253898 33.3005838,74.7071947 C33.2760758,75.146977 33.251704,75.5867593 33.23945,76.0264055 C35.0781476,76.2462306 36.9371955,76.2338796 38.77281,75.9896435 C38.7606921,75.5621152 38.7363203,75.122469 38.7118123,74.6949407 C38.5774268,72.7649363 38.284284,70.7373085 38.0033952,68.8195581 C37.8323839,67.6713587 37.6491185,66.5109053 37.4292274,65.3748237 C37.2948419,64.7274042 37.1483386,63.9091096 36.9161934,63.2861981 C36.9529554,62.0036132 38.6263066,61.7225882 39.0905969,63.1395586 C39.6034947,64.6786605 40.825082,68.8439299 41.2159845,74.4995576 C44.2819343,72.7404284 48.3373262,71.4334716 51.2688905,73.0703332 C51.5254075,71.8366281 51.7331808,70.5419253 51.9040559,69.1736986 C52.5881012,63.4693273 51.8551761,59.1696724 50.5482194,55.993709 C48.2029407,57.3740535 45.2224965,58.1068425 42.3519299,58.4733731 C45.5269868,57.5694754 48.3141211,55.6412097 50.2794484,52.9887568 C49.5344054,53.2575278 48.7771085,53.5140448 48.0196754,53.7339359 C46.6777087,54.466947 45.2660125,55.0643557 43.8055261,55.5173008 L43.8055261,55.5173008 Z M9.70115755,4.39744185 C12.7914792,5.22812662 15.6988078,6.73060269 18.4593608,8.47734174 C17.3319212,9.38165092 16.2743473,10.3697698 15.2956513,11.4332779 C14.7703634,10.5659673 14.1961956,9.72316467 13.5977921,8.89261605 C12.4511274,7.26872641 11.1457778,5.76292217 9.70102139,4.39744185 L9.70115755,4.39744185 Z M4.55856389,3.67677073 L4.85170671,3.67677073 C8.32094913,5.58240326 11.4233886,9.45452985 13.7076696,13.3022846 C13.2433793,13.9008242 12.7914792,14.5237357 12.351833,15.1589011 C10.6720527,17.6887474 9.3600319,20.4443119 8.45506231,23.3430728 C5.65788349,19.5808237 2.10340771,12.6671191 4.46080423,3.75015855 C4.49756622,3.73790456 4.52193806,3.70114257 4.55856389,3.67677073 L4.55856389,3.67677073 Z M68.4799002,3.67677073 L68.1867574,3.67677073 C64.7176511,5.58240326 61.6150755,9.45452985 59.3307944,13.3022846 C59.7137178,13.783723 60.0764324,14.2808941 60.4179962,14.7925067 C62.2222597,17.4233427 63.6221821,20.3096529 64.5711478,23.3553268 C67.3683266,19.5930777 70.9228024,12.6793731 68.5654058,3.76227639 L68.4799002,3.67677073 L68.4799002,3.67677073 Z M63.3373065,4.39744185 C60.2469849,5.22799047 57.3275384,6.73060269 54.5792394,8.47734174 C55.706812,9.38593142 56.7643712,10.3781328 57.7429489,11.4455319 C58.2803547,10.5782213 58.8422685,9.72316467 59.4408081,8.89261605 C60.5874285,7.26873164 61.8927324,5.7629275 63.3374427,4.39744185 L63.3373065,4.39744185 Z M21.3786711,75.8310223 C22.2062037,79.00031 23.3905191,82.0655164 24.9089112,84.967874 C25.1165484,85.3587765 25.2630517,85.4687902 25.6539542,85.7007991 C26.8632874,86.4337243 28.5611466,87.2276471 28.8542895,90.2448532 C27.474081,88.4858601 26.1547341,87.2276471 24.1269701,86.7878647 C23.1376642,86.7757469 22.0138366,86.9712662 21.2321678,87.777443 C19.5586804,89.5119281 20.7678775,92.5046262 21.7818276,92.7733972 C22.7957777,93.0421682 33.2028242,92.7733972 33.2028242,92.7733972 C33.2028242,92.7733972 33.6303525,90.8311388 32.8243118,89.756191 C32.0302529,88.6691254 30.7965478,83.1356293 30.7110422,77.2479927 C28.2680038,75.1103512 24.4935007,73.6690089 21.3786711,75.8310223 L21.3786711,75.8310223 Z M50.6093532,75.8310223 C49.7793291,78.9977342 48.5994025,82.0622187 47.0913671,84.967874 C46.8714759,85.3587765 46.7249726,85.4687902 46.3463241,85.7007991 C45.1369909,86.4337243 43.4391317,87.2276471 43.1458527,90.2448532 C44.5261973,88.4858601 45.845408,87.2276471 47.873172,86.7878647 C48.8626141,86.7757469 49.9985596,86.9712662 50.7681105,87.777443 C52.4414617,89.5119281 51.2324008,92.5046262 50.2184507,92.7733972 C49.2045006,93.0421682 38.797318,92.7733972 38.797318,92.7733972 C38.797318,92.7733972 38.3697897,90.8311388 39.1759664,89.756191 C39.9700254,88.6691254 41.2159845,83.1356293 41.301354,77.2479927 C43.7200205,75.1103512 47.4945235,73.6690089 50.6093532,75.8310223 L50.6093532,75.8310223 Z M36.9407014,88.9133884 C36.6353046,88.9133884 36.3176538,88.9256424 36.0001391,88.9256424 L35.25496,88.9256424 C35.1405821,88.7071119 35.0142188,88.4950669 34.8764477,88.290477 C34.7172613,87.9348974 34.5865058,87.5672613 34.4854091,87.1910212 C34.1899805,86.1465145 33.9534688,85.0862346 33.776992,84.0151939 C33.4423649,82.032527 33.25455,80.0278633 33.2150782,78.0175437 C35.1167697,78.2822648 37.0470597,78.2657953 38.9439575,77.9686638 C38.9121767,80.302382 38.6709853,82.6285374 38.2232863,84.9191304 C38.0643928,85.725171 37.6613725,87.6796833 37.2460982,88.4003545 C37.1353489,88.5658767 37.0334083,88.737126 36.9407014,88.9133884 L36.9407014,88.9133884 Z M59.6850711,76.3196844 C59.7705767,81.9508041 56.2159648,84.1739512 54.1394571,85.8351846 C63.5939597,81.5353936 64.6810253,88.8523908 63.7038372,89.6584314 L53.9197021,89.6584314 C53.8447401,87.2692294 52.177673,85.2267989 49.8519201,84.6747312 C50.599399,83.1004892 51.2361553,81.4760237 51.7575526,79.8131625 C54.5181056,78.3351945 57.7673207,76.8204644 59.6850711,76.3196844 L59.6850711,76.3196844 Z M54.5181056,68.0501433 C56.8878923,69.1494629 58.3781143,71.6534989 58.707883,74.4630679 C56.7901326,75.0248455 54.6891169,76.0265416 52.918006,76.9059701 C53.5782794,74.4639015 54.0640369,71.9779661 54.3716023,69.4669776 C54.4325999,69.0150774 54.4814798,68.5386693 54.5181056,68.0501433 L54.5181056,68.0501433 Z M17.4699187,68.098887 C15.1367579,69.2227146 13.6831616,71.7146327 13.365647,74.4995576 C15.2590255,75.0737253 17.3110252,76.0509135 19.0579004,76.9182241 C18.3976288,74.476155 17.9118714,71.9902198 17.6043042,69.4792316 C17.5552882,69.0271953 17.5065445,68.5631773 17.4699187,68.098887 Z M12.2906992,76.3196844 C12.2051936,81.9508041 15.7598055,84.1739512 17.8485672,85.8351846 C8.3819468,81.5353936 7.30699904,88.8523908 8.27193315,89.6584314 L17.885193,89.6584314 C17.9296298,88.3046745 18.4684972,87.0141053 19.3999231,86.030704 C20.0842493,85.3312251 20.938798,84.8218368 21.8795872,84.5525997 C21.6849383,84.1488683 21.4976031,83.7416515 21.3176734,83.3311486 C20.7923855,82.1218154 20.3159774,80.8880649 19.888449,79.6298972 C17.2134017,78.2251808 14.1474519,76.8083466 12.2906992,76.3196844 L12.2906992,76.3196844 Z" id="Shape"></path>
            </g>
        </g>
    </g>
</svg>